<svg width="400" height="156" viewBox="0 0 400 156" fill="none" xmlns="http://www.w3.org/2000/svg">
<g clip-path="url(#clip0_232_70970)">
<rect width="400" height="156" rx="40" fill="url(#paint0_radial_232_70970)"/>
<path d="M-117 316.298V214.298C-117 214.298 -89.3942 256.804 -13 241.798C43 230.798 57 80.798 174.5 93.7979C263.712 103.668 283 179.298 301 272.298C304.964 292.778 328 316.298 328 316.298H-117Z" fill="url(#paint1_linear_232_70970)"/>
<circle cx="342" cy="137" r="41" fill="white" fill-opacity="0.5"/>
<path d="M347.567 56.6347C359.372 73.9058 387.092 82.5033 412.467 76.9193L403.934 64.4349C388.208 66.8235 371.764 61.214 364.506 50.5959C357.249 39.9769 361.083 27.1375 373.273 19.5741L364.74 7.08933C343.17 18.2408 335.762 39.3623 347.567 56.6347Z" fill="white"/>
</g>
<rect x="0.5" y="0.5" width="399" height="155" rx="39.5" stroke="black" stroke-opacity="0.1"/>
<defs>
<radialGradient id="paint0_radial_232_70970" cx="0" cy="0" r="1" gradientUnits="userSpaceOnUse" gradientTransform="translate(373.571 145.167) rotate(28.1355) scale(308.61 333.235)">
<stop stop-color="#A066FF"/>
<stop offset="0.205" stop-color="#8CFFF8"/>
<stop offset="0.395" stop-color="#EED5FD" stop-opacity="0.5"/>
<stop offset="0.707024" stop-color="white"/>
</radialGradient>
<linearGradient id="paint1_linear_232_70970" x1="105" y1="105.798" x2="161.5" y2="302.298" gradientUnits="userSpaceOnUse">
<stop stop-color="white" stop-opacity="0.2"/>
<stop offset="0.6643" stop-color="#BE02ED" stop-opacity="0.7"/>
</linearGradient>
<clipPath id="clip0_232_70970">
<rect width="400" height="156" rx="40" fill="white"/>
</clipPath>
</defs>
</svg>
