<svg width="1233" height="170" viewBox="0 0 1233 170" fill="none" xmlns="http://www.w3.org/2000/svg">
<rect width="240.2" height="154" rx="40" fill="#F2F2F2"/>
<path d="M25.4 41V27H34.3V28.32H26.88V33.26H33.7V34.58H26.88V39.68H34.3V41H25.4ZM41.8738 41V37.7L40.3338 35.9L37.2338 41H35.5938L39.4138 34.8L36.1738 31H37.8138L41.8738 35.8V31H43.2938V35.8L47.3538 31H48.9938L45.7538 34.8L49.5738 41H47.9338L44.8338 35.9L43.2938 37.7V41H41.8738ZM50.8742 35.98C50.8742 32.94 52.8142 30.8 55.5942 30.8C58.3742 30.8 60.3142 32.94 60.3142 35.98V36.36H52.3142C52.4342 38.52 53.6942 39.86 55.5942 39.86C57.0742 39.86 58.1342 39.08 58.5542 37.72L59.9342 37.96C59.3742 39.9 57.7542 41.16 55.5942 41.16C52.8142 41.16 50.8742 39.02 50.8742 35.98ZM55.5942 32.1C53.8142 32.1 52.5942 33.28 52.3542 35.2H58.8542C58.6142 33.26 57.3742 32.1 55.5942 32.1ZM64.4527 31H70.6727V39.82H71.8927V43.2H70.4727V41H62.9927V43.2H61.5727V39.82H62.1127C63.1127 39.82 63.5327 39.14 63.6527 38.1L64.4527 31ZM64.9727 38.24C64.8927 38.86 64.7327 39.38 64.4727 39.82H69.2527V32.18H65.6727L64.9727 38.24ZM73.6961 31H75.1161V35.4H80.5161V31H81.9361V41H80.5161V36.58H75.1161V41H73.6961V31ZM83.9406 35.98C83.9406 32.94 85.8806 30.8 88.6606 30.8C91.4406 30.8 93.3806 32.94 93.3806 35.98V36.36H85.3806C85.5006 38.52 86.7606 39.86 88.6606 39.86C90.1406 39.86 91.2006 39.08 91.6206 37.72L93.0006 37.96C92.4406 39.9 90.8206 41.16 88.6606 41.16C85.8806 41.16 83.9406 39.02 83.9406 35.98ZM88.6606 32.1C86.8806 32.1 85.6606 33.28 85.4206 35.2H91.9206C91.6806 33.26 90.4406 32.1 88.6606 32.1ZM95.2391 31H99.8791C101.559 31 102.739 32.16 102.739 33.8C102.739 34.58 102.279 35.42 101.639 35.84C102.599 36.24 103.279 37.22 103.279 38.2C103.279 39.84 101.979 41 100.119 41H95.2391V31ZM96.6591 36.6V39.82H99.9391C101.059 39.82 101.839 39.16 101.839 38.2C101.839 37.26 101.059 36.6 99.9391 36.6H96.6591ZM96.6591 32.18V35.4H99.6991C100.639 35.4 101.299 34.74 101.299 33.8C101.299 32.84 100.639 32.18 99.6991 32.18H96.6591ZM105.18 31H106.6V35.4H112V31H113.42V41H112V36.58H106.6V41H105.18V31ZM124.865 35.98C124.865 39.02 122.925 41.16 120.145 41.16C117.365 41.16 115.425 39.02 115.425 35.98C115.425 32.94 117.365 30.8 120.145 30.8C122.925 30.8 124.865 32.94 124.865 35.98ZM116.845 35.98C116.845 38.38 118.145 39.9 120.145 39.9C122.145 39.9 123.445 38.38 123.445 35.98C123.445 33.6 122.145 32.1 120.145 32.1C118.145 32.1 116.845 33.6 116.845 35.98ZM25.2 56H33.44V66H32.02V57.18H26.62V66H25.2V56ZM44.7869 60.98C44.7869 64.02 42.8469 66.16 40.0669 66.16C37.2869 66.16 35.3469 64.02 35.3469 60.98C35.3469 57.94 37.2869 55.8 40.0669 55.8C42.8469 55.8 44.7869 57.94 44.7869 60.98ZM36.7669 60.98C36.7669 63.38 38.0669 64.9 40.0669 64.9C42.0669 64.9 43.3669 63.38 43.3669 60.98C43.3669 58.6 42.0669 57.1 40.0669 57.1C38.0669 57.1 36.7669 58.6 36.7669 60.98ZM54.242 66H52.822V62.18H50.042L47.722 66H46.082L48.542 61.98C47.242 61.52 46.582 60.32 46.582 59.1C46.582 57.54 47.642 56 49.742 56H54.242V66ZM52.822 61V57.18H49.922C48.662 57.18 48.022 58.14 48.022 59.1C48.022 60.06 48.642 61 49.922 61H52.822ZM56.5477 56H61.1877C62.8677 56 64.0477 57.16 64.0477 58.8C64.0477 59.58 63.5877 60.42 62.9477 60.84C63.9077 61.24 64.5877 62.22 64.5877 63.2C64.5877 64.84 63.2877 66 61.4277 66H56.5477V56ZM57.9677 61.6V64.82H61.2477C62.3677 64.82 63.1477 64.16 63.1477 63.2C63.1477 62.26 62.3677 61.6 61.2477 61.6H57.9677ZM57.9677 57.18V60.4H61.0077C61.9477 60.4 62.6077 59.74 62.6077 58.8C62.6077 57.84 61.9477 57.18 61.0077 57.18H57.9677ZM69.1491 56H75.3691V66H73.9491V57.18H70.3691L69.6691 63.24C69.4691 64.9 68.5891 66 66.9691 66H65.9891V64.82H66.8091C67.8091 64.82 68.2291 64.14 68.3491 63.1L69.1491 56ZM85.2381 66H83.8181V62.18H81.0381L78.7181 66H77.0781L79.5381 61.98C78.2381 61.52 77.5781 60.32 77.5781 59.1C77.5781 57.54 78.6381 56 80.7381 56H85.2381V66ZM83.8181 61V57.18H80.9181C79.6581 57.18 79.0181 58.14 79.0181 59.1C79.0181 60.06 79.6381 61 80.9181 61H83.8181ZM87.5438 56H88.9638V60.4H90.8638C91.1038 57.68 92.9638 55.8 95.5638 55.8C98.3438 55.8 100.284 57.94 100.284 60.98C100.284 64.02 98.3438 66.16 95.5638 66.16C92.9638 66.16 91.1038 64.3 90.8638 61.58H88.9638V66H87.5438V56ZM92.2638 60.98C92.2638 63.38 93.5638 64.9 95.5638 64.9C97.5638 64.9 98.8638 63.38 98.8638 60.98C98.8638 58.6 97.5638 57.1 95.5638 57.1C93.5638 57.1 92.2638 58.6 92.2638 60.98ZM101.97 57.18V56H110.21V57.18H106.79V66H105.37V57.18H101.97ZM111.89 60.98C111.89 57.94 113.83 55.8 116.61 55.8C118.77 55.8 120.39 57.1 120.95 59.08L119.57 59.32C119.17 57.92 118.09 57.1 116.61 57.1C114.61 57.1 113.31 58.6 113.31 60.98C113.31 63.36 114.61 64.86 116.61 64.86C118.09 64.86 119.15 64.08 119.57 62.72L120.95 62.96C120.39 64.9 118.77 66.16 116.61 66.16C113.83 66.16 111.89 64.02 111.89 60.98ZM130.277 66H128.857V62.18H126.077L123.757 66H122.117L124.577 61.98C123.277 61.52 122.617 60.32 122.617 59.1C122.617 57.54 123.677 56 125.777 56H130.277V66ZM128.857 61V57.18H125.957C124.697 57.18 124.057 58.14 124.057 59.1C124.057 60.06 124.677 61 125.957 61H128.857ZM146.623 60.98C146.623 64.02 144.683 66.16 141.903 66.16C139.123 66.16 137.183 64.02 137.183 60.98C137.183 57.94 139.123 55.8 141.903 55.8C144.683 55.8 146.623 57.94 146.623 60.98ZM138.603 60.98C138.603 63.38 139.903 64.9 141.903 64.9C143.903 64.9 145.203 63.38 145.203 60.98C145.203 58.6 143.903 57.1 141.903 57.1C139.903 57.1 138.603 58.6 138.603 60.98ZM148.298 57.18V56H156.538V57.18H153.118V66H151.698V57.18H148.298ZM170.118 52V66H168.638V53.56L165.058 56.1V54.54L168.638 52H170.118ZM180.41 66.16C177.27 66.16 175.29 63.4 175.29 59C175.29 54.6 177.27 51.84 180.41 51.84C183.55 51.84 185.53 54.6 185.53 59C185.53 63.4 183.55 66.16 180.41 66.16ZM180.41 64.82C182.63 64.82 184.01 62.58 184.01 59.02C184.01 55.46 182.63 53.18 180.41 53.18C178.19 53.18 176.81 55.46 176.81 59.02C176.81 62.58 178.19 64.82 180.41 64.82ZM192.402 66.16C189.262 66.16 187.282 63.4 187.282 59C187.282 54.6 189.262 51.84 192.402 51.84C195.542 51.84 197.522 54.6 197.522 59C197.522 63.4 195.542 66.16 192.402 66.16ZM192.402 64.82C194.622 64.82 196.002 62.58 196.002 59.02C196.002 55.46 194.622 53.18 192.402 53.18C190.182 53.18 188.802 55.46 188.802 59.02C188.802 62.58 190.182 64.82 192.402 64.82ZM204.395 66.16C201.255 66.16 199.275 63.4 199.275 59C199.275 54.6 201.255 51.84 204.395 51.84C207.535 51.84 209.515 54.6 209.515 59C209.515 63.4 207.535 66.16 204.395 66.16ZM204.395 64.82C206.615 64.82 207.995 62.58 207.995 59.02C207.995 55.46 206.615 53.18 204.395 53.18C202.175 53.18 200.795 55.46 200.795 59.02C200.795 62.58 202.175 64.82 204.395 64.82ZM34.24 85.98C34.24 89.02 32.3 91.16 29.52 91.16C26.74 91.16 24.8 89.02 24.8 85.98C24.8 82.94 26.74 80.8 29.52 80.8C32.3 80.8 34.24 82.94 34.24 85.98ZM26.22 85.98C26.22 88.38 27.52 89.9 29.52 89.9C31.52 89.9 32.82 88.38 32.82 85.98C32.82 83.6 31.52 82.1 29.52 82.1C27.52 82.1 26.22 83.6 26.22 85.98ZM35.9152 82.18V81H44.1552V82.18H40.7352V91H39.3152V82.18H35.9152ZM46.2352 91V81H47.6552V85.72L52.1352 81H53.8152L50.0952 84.96L54.3752 91H52.7152L49.1552 85.96L47.6552 87.56V91H46.2352ZM58.7389 81H64.9589V91H63.5389V82.18H59.9589L59.2589 88.24C59.0589 89.9 58.1789 91 56.5589 91H55.5789V89.82H56.3989C57.3989 89.82 57.8189 89.14 57.9389 88.1L58.7389 81ZM67.368 81H68.788V88.94L74.188 81H75.608V91H74.188V83.06L68.788 91H67.368V81ZM78.0125 91V81H79.4325V85.72L83.9125 81H85.5925L81.8725 84.96L86.1525 91H84.4925L80.9325 85.96L79.4325 87.56V91H78.0125ZM96.8963 85.98C96.8963 89.02 94.9563 91.16 92.1763 91.16C89.3963 91.16 87.4563 89.02 87.4563 85.98C87.4563 82.94 89.3963 80.8 92.1763 80.8C94.9563 80.8 96.8963 82.94 96.8963 85.98ZM88.8763 85.98C88.8763 88.38 90.1763 89.9 92.1763 89.9C94.1763 89.9 95.4763 88.38 95.4763 85.98C95.4763 83.6 94.1763 82.1 92.1763 82.1C90.1763 82.1 88.8763 83.6 88.8763 85.98ZM98.8914 81H103.531C105.211 81 106.391 82.16 106.391 83.8C106.391 84.58 105.931 85.42 105.291 85.84C106.251 86.24 106.931 87.22 106.931 88.2C106.931 89.84 105.631 91 103.771 91H98.8914V81ZM100.311 86.6V89.82H103.591C104.711 89.82 105.491 89.16 105.491 88.2C105.491 87.26 104.711 86.6 103.591 86.6H100.311ZM100.311 82.18V85.4H103.351C104.291 85.4 104.951 84.74 104.951 83.8C104.951 82.84 104.291 82.18 103.351 82.18H100.311ZM113.833 81H115.253V85.4H120.653V81H122.073V91H120.653V86.58H115.253V91H113.833V81ZM132.257 91H131.037C130.897 90.5 130.797 90 130.737 89.5C130.057 90.48 129.057 91.18 127.617 91.18C125.537 91.18 124.077 89.92 124.077 88.12C124.077 86.32 125.557 85.38 128.137 85.08L130.737 84.78V84.18C130.737 82.94 129.817 82.1 128.497 82.1C127.237 82.1 126.317 82.6 125.977 83.6L124.597 83.36C125.097 81.76 126.557 80.8 128.497 80.8C130.717 80.8 132.157 82.26 132.157 84.48V88.2C132.157 89.54 132.177 90.28 132.257 91ZM127.737 89.92C129.597 89.92 130.737 88.7 130.737 86.98V85.9L128.117 86.22C126.497 86.42 125.497 87.02 125.497 88.12C125.497 89.16 126.417 89.92 127.737 89.92ZM139.555 91V81H140.975V85.72L145.455 81H147.135L143.415 84.96L147.695 91H146.035L142.475 85.96L140.975 87.56V91H139.555ZM157.179 91H155.959C155.819 90.5 155.719 90 155.659 89.5C154.979 90.48 153.979 91.18 152.539 91.18C150.459 91.18 148.999 89.92 148.999 88.12C148.999 86.32 150.479 85.38 153.059 85.08L155.659 84.78V84.18C155.659 82.94 154.739 82.1 153.419 82.1C152.159 82.1 151.239 82.6 150.899 83.6L149.519 83.36C150.019 81.76 151.479 80.8 153.419 80.8C155.639 80.8 157.079 82.26 157.079 84.48V88.2C157.079 89.54 157.099 90.28 157.179 91ZM152.659 89.92C154.519 89.92 155.659 88.7 155.659 86.98V85.9L153.039 86.22C151.419 86.42 150.419 87.02 150.419 88.12C150.419 89.16 151.339 89.92 152.659 89.92ZM165.057 91V87.7L163.517 85.9L160.417 91H158.777L162.597 84.8L159.357 81H160.997L165.057 85.8V81H166.477V85.8L170.537 81H172.177L168.937 84.8L172.757 91H171.117L168.017 85.9L166.477 87.7V91H165.057ZM176.738 81H182.958V89.82H184.178V93.2H182.758V91H175.278V93.2H173.858V89.82H174.398C175.398 89.82 175.818 89.14 175.938 88.1L176.738 81ZM177.258 88.24C177.178 88.86 177.018 89.38 176.758 89.82H181.538V82.18H177.958L177.258 88.24ZM188.981 91.72L189.261 91L185.381 81H186.821L189.921 89.22L193.061 81H194.481L190.301 91.8C189.701 93.38 189.041 95.18 186.781 95.18C186.381 95.18 185.941 95.14 185.461 95.04V93.78C185.941 93.9 186.341 93.94 186.661 93.94C188.121 93.94 188.601 92.78 188.981 91.72ZM196.274 81H197.694V85.4H199.594C199.834 82.68 201.694 80.8 204.294 80.8C207.074 80.8 209.014 82.94 209.014 85.98C209.014 89.02 207.074 91.16 204.294 91.16C201.694 91.16 199.834 89.3 199.594 86.58H197.694V91H196.274V81ZM200.994 85.98C200.994 88.38 202.294 89.9 204.294 89.9C206.294 89.9 207.594 88.38 207.594 85.98C207.594 83.6 206.294 82.1 204.294 82.1C202.294 82.1 200.994 83.6 200.994 85.98ZM25.2 106H29.84C31.52 106 32.7 107.16 32.7 108.8C32.7 109.58 32.24 110.42 31.6 110.84C32.56 111.24 33.24 112.22 33.24 113.2C33.24 114.84 31.94 116 30.08 116H25.2V106ZM26.62 111.6V114.82H29.9C31.02 114.82 31.8 114.16 31.8 113.2C31.8 112.26 31.02 111.6 29.9 111.6H26.62ZM26.62 107.18V110.4H29.66C30.6 110.4 31.26 109.74 31.26 108.8C31.26 107.84 30.6 107.18 29.66 107.18H26.62ZM42.9214 116H41.7014C41.5614 115.5 41.4614 115 41.4014 114.5C40.7214 115.48 39.7214 116.18 38.2814 116.18C36.2014 116.18 34.7414 114.92 34.7414 113.12C34.7414 111.32 36.2214 110.38 38.8014 110.08L41.4014 109.78V109.18C41.4014 107.94 40.4814 107.1 39.1614 107.1C37.9014 107.1 36.9814 107.6 36.6414 108.6L35.2614 108.36C35.7614 106.76 37.2214 105.8 39.1614 105.8C41.3814 105.8 42.8214 107.26 42.8214 109.48V113.2C42.8214 114.54 42.8414 115.28 42.9214 116ZM38.4014 114.92C40.2614 114.92 41.4014 113.7 41.4014 111.98V110.9L38.7814 111.22C37.1614 111.42 36.1614 112.02 36.1614 113.12C36.1614 114.16 37.0814 114.92 38.4014 114.92ZM45.2195 116V106H46.6395V110.72L51.1195 106H52.7995L49.0795 109.96L53.3595 116H51.6995L48.1395 110.96L46.6395 112.56V116H45.2195ZM62.8433 116H61.6233C61.4833 115.5 61.3833 115 61.3233 114.5C60.6433 115.48 59.6433 116.18 58.2033 116.18C56.1233 116.18 54.6633 114.92 54.6633 113.12C54.6633 111.32 56.1433 110.38 58.7233 110.08L61.3233 109.78V109.18C61.3233 107.94 60.4033 107.1 59.0833 107.1C57.8233 107.1 56.9033 107.6 56.5633 108.6L55.1833 108.36C55.6833 106.76 57.1433 105.8 59.0833 105.8C61.3033 105.8 62.7433 107.26 62.7433 109.48V113.2C62.7433 114.54 62.7633 115.28 62.8433 116ZM58.3233 114.92C60.1833 114.92 61.3233 113.7 61.3233 111.98V110.9L58.7033 111.22C57.0833 111.42 56.0833 112.02 56.0833 113.12C56.0833 114.16 57.0033 114.92 58.3233 114.92ZM65.1414 106H66.5614V110.4H71.9614V106H73.3814V116H71.9614V111.58H66.5614V116H65.1414V106ZM75.3859 110.98C75.3859 107.94 77.3259 105.8 80.1059 105.8C82.2659 105.8 83.8859 107.1 84.4459 109.08L83.0659 109.32C82.6659 107.92 81.5859 107.1 80.1059 107.1C78.1059 107.1 76.8059 108.6 76.8059 110.98C76.8059 113.36 78.1059 114.86 80.1059 114.86C81.5859 114.86 82.6459 114.08 83.0659 112.72L84.4459 112.96C83.8859 114.9 82.2659 116.16 80.1059 116.16C77.3259 116.16 75.3859 114.02 75.3859 110.98ZM86.3133 106H87.7333V113.94L93.1333 106H94.5533V116H93.1333V108.06L87.7333 116H86.3133V106ZM96.9578 106H98.3778V110.4H100.278C100.518 107.68 102.378 105.8 104.978 105.8C107.758 105.8 109.698 107.94 109.698 110.98C109.698 114.02 107.758 116.16 104.978 116.16C102.378 116.16 100.518 114.3 100.278 111.58H98.3778V116H96.9578V106ZM101.678 110.98C101.678 113.38 102.978 114.9 104.978 114.9C106.978 114.9 108.278 113.38 108.278 110.98C108.278 108.6 106.978 107.1 104.978 107.1C102.978 107.1 101.678 108.6 101.678 110.98Z" fill="black" fill-opacity="0.9"/>
<path fill-rule="evenodd" clip-rule="evenodd" d="M120 170C128 170 132 154 144 154H96C108 154 112 170 120 170Z" fill="#F2F2F2"/>
<rect x="248.199" width="240.2" height="154" rx="40" fill="#F2F2F2"/>
<path d="M273.599 41V27H275.439L280.719 39.04L285.979 27H287.819V41H286.339V29.62L281.299 41H280.119L275.079 29.62V41H273.599ZM299.451 35.98C299.451 39.02 297.511 41.16 294.731 41.16C291.951 41.16 290.011 39.02 290.011 35.98C290.011 32.94 291.951 30.8 294.731 30.8C297.511 30.8 299.451 32.94 299.451 35.98ZM291.431 35.98C291.431 38.38 292.731 39.9 294.731 39.9C296.731 39.9 298.031 38.38 298.031 35.98C298.031 33.6 296.731 32.1 294.731 32.1C292.731 32.1 291.431 33.6 291.431 35.98ZM307.026 41V37.7L305.486 35.9L302.386 41H300.746L304.566 34.8L301.326 31H302.966L307.026 35.8V31H308.446V35.8L312.506 31H314.146L310.906 34.8L314.726 41H313.086L309.986 35.9L308.446 37.7V41H307.026ZM316.027 35.98C316.027 32.94 317.967 30.8 320.747 30.8C323.527 30.8 325.467 32.94 325.467 35.98V36.36H317.467C317.587 38.52 318.847 39.86 320.747 39.86C322.227 39.86 323.287 39.08 323.707 37.72L325.087 37.96C324.527 39.9 322.907 41.16 320.747 41.16C317.967 41.16 316.027 39.02 316.027 35.98ZM320.747 32.1C318.967 32.1 317.747 33.28 317.507 35.2H324.007C323.767 33.26 322.527 32.1 320.747 32.1ZM327.005 32.18V31H335.245V32.18H331.825V41H330.405V32.18H327.005ZM342.325 31H350.565V41H349.145V32.18H343.745V41H342.325V31ZM354.292 39.62V45H352.872V33.8C352.872 32.46 352.852 31.72 352.772 31H353.992C354.112 31.44 354.232 32.06 354.292 32.5C355.072 31.52 356.232 30.8 357.592 30.8C360.172 30.8 361.972 32.96 361.972 36.02C361.972 39.06 360.172 41.2 357.592 41.2C356.272 41.2 355.092 40.64 354.292 39.62ZM354.292 35.72V36.38C354.292 38.22 355.372 39.9 357.312 39.9C359.332 39.9 360.552 38.4 360.552 36.02C360.552 33.6 359.332 32.06 357.312 32.06C355.452 32.06 354.292 33.78 354.292 35.72ZM373.006 35.98C373.006 39.02 371.066 41.16 368.286 41.16C365.506 41.16 363.566 39.02 363.566 35.98C363.566 32.94 365.506 30.8 368.286 30.8C371.066 30.8 373.006 32.94 373.006 35.98ZM364.986 35.98C364.986 38.38 366.286 39.9 368.286 39.9C370.286 39.9 371.586 38.38 371.586 35.98C371.586 33.6 370.286 32.1 368.286 32.1C366.286 32.1 364.986 33.6 364.986 35.98ZM375.001 31H379.641C381.321 31 382.501 32.16 382.501 33.8C382.501 34.58 382.041 35.42 381.401 35.84C382.361 36.24 383.041 37.22 383.041 38.2C383.041 39.84 381.741 41 379.881 41H375.001V31ZM376.421 36.6V39.82H379.701C380.821 39.82 381.601 39.16 381.601 38.2C381.601 37.26 380.821 36.6 379.701 36.6H376.421ZM376.421 32.18V35.4H379.461C380.401 35.4 381.061 34.74 381.061 33.8C381.061 32.84 380.401 32.18 379.461 32.18H376.421ZM393.982 35.98C393.982 39.02 392.042 41.16 389.262 41.16C386.482 41.16 384.542 39.02 384.542 35.98C384.542 32.94 386.482 30.8 389.262 30.8C392.042 30.8 393.982 32.94 393.982 35.98ZM385.962 35.98C385.962 38.38 387.262 39.9 389.262 39.9C391.262 39.9 392.562 38.38 392.562 35.98C392.562 33.6 391.262 32.1 389.262 32.1C387.262 32.1 385.962 33.6 385.962 35.98ZM398.257 31H404.477V39.82H405.697V43.2H404.277V41H396.797V43.2H395.377V39.82H395.917C396.917 39.82 397.337 39.14 397.457 38.1L398.257 31ZM398.777 38.24C398.697 38.86 398.537 39.38 398.277 39.82H403.057V32.18H399.477L398.777 38.24ZM407.501 31H408.921V38.94L414.321 31H415.741V41H414.321V33.06L408.921 41H407.501V31ZM417.825 32.18V31H426.065V32.18H422.645V41H421.225V32.18H417.825ZM428.145 31H429.565V34.82H432.645C434.745 34.82 435.805 36.36 435.805 37.9C435.805 39.46 434.745 41 432.645 41H428.145V31ZM429.565 36V39.82H432.465C433.725 39.82 434.365 38.86 434.365 37.9C434.365 36.94 433.745 36 432.465 36H429.565ZM273.399 56H274.819V60.4H280.219V56H281.639V66H280.219V61.58H274.819V66H273.399V56ZM283.644 60.98C283.644 57.94 285.584 55.8 288.364 55.8C291.144 55.8 293.084 57.94 293.084 60.98V61.36H285.084C285.204 63.52 286.464 64.86 288.364 64.86C289.844 64.86 290.904 64.08 291.324 62.72L292.704 62.96C292.144 64.9 290.524 66.16 288.364 66.16C285.584 66.16 283.644 64.02 283.644 60.98ZM288.364 57.1C286.584 57.1 285.364 58.28 285.124 60.2H291.624C291.384 58.26 290.144 57.1 288.364 57.1ZM300.962 60.52V60.88C300.962 63.3 302.082 64.84 304.102 64.84C306.122 64.84 307.222 63.3 307.222 60.88C307.222 58.5 306.002 57 303.982 57C302.042 57 300.962 58.68 300.962 60.52ZM299.542 60.66V57.82C299.542 54.28 301.502 52.2 304.822 51.9C305.742 51.82 306.642 51.74 307.562 51.26V52.48C306.642 52.96 305.742 53.04 304.822 53.12C302.262 53.34 300.962 55 300.962 57.1V57.28C301.762 56.26 302.942 55.7 304.262 55.7C306.842 55.7 308.642 57.84 308.642 60.88C308.642 63.94 306.922 66.1 304.102 66.1C301.282 66.1 299.542 64 299.542 60.66ZM319.685 60.98C319.685 64.02 317.745 66.16 314.965 66.16C312.185 66.16 310.245 64.02 310.245 60.98C310.245 57.94 312.185 55.8 314.965 55.8C317.745 55.8 319.685 57.94 319.685 60.98ZM311.665 60.98C311.665 63.38 312.965 64.9 314.965 64.9C316.965 64.9 318.265 63.38 318.265 60.98C318.265 58.6 316.965 57.1 314.965 57.1C312.965 57.1 311.665 58.6 311.665 60.98ZM324.34 56H330.56V66H329.14V57.18H325.56L324.86 63.24C324.66 64.9 323.78 66 322.16 66H321.18V64.82H322C323 64.82 323.42 64.14 323.54 63.1L324.34 56ZM332.57 60.98C332.57 57.94 334.51 55.8 337.29 55.8C340.07 55.8 342.01 57.94 342.01 60.98V61.36H334.01C334.13 63.52 335.39 64.86 337.29 64.86C338.77 64.86 339.83 64.08 340.25 62.72L341.63 62.96C341.07 64.9 339.45 66.16 337.29 66.16C334.51 66.16 332.57 64.02 332.57 60.98ZM337.29 57.1C335.51 57.1 334.29 58.28 334.05 60.2H340.55C340.31 58.26 339.07 57.1 337.29 57.1ZM343.468 60.98C343.468 57.94 345.408 55.8 348.188 55.8C350.968 55.8 352.908 57.94 352.908 60.98V61.36H344.908C345.028 63.52 346.288 64.86 348.188 64.86C349.668 64.86 350.728 64.08 351.148 62.72L352.528 62.96C351.968 64.9 350.348 66.16 348.188 66.16C345.408 66.16 343.468 64.02 343.468 60.98ZM348.188 57.1C346.408 57.1 345.188 58.28 344.948 60.2H351.448C351.208 58.26 349.968 57.1 348.188 57.1ZM364.826 56.64C367.966 56.64 369.466 58.96 369.466 61.3C369.466 63.72 367.866 66.2 364.746 66.2C362.286 66.2 360.286 64.74 359.606 62.46L361.026 61.96C361.506 63.7 363.006 64.86 364.746 64.86C366.866 64.86 367.946 63.1 367.946 61.36C367.946 59.64 366.906 57.96 364.826 57.96C363.346 57.96 362.366 58.58 361.506 59.58L360.186 59.1L361.406 52H368.706V53.32H362.666L361.966 57.56C362.666 57.04 363.566 56.64 364.826 56.64ZM376.759 56H378.179V63.94L383.579 56H384.999V66H383.579V58.06L378.179 66H376.759V56ZM387.403 56H388.823V60.4H394.223V56H395.643V66H394.223V61.58H388.823V66H387.403V56ZM397.728 57.18V56H405.968V57.18H402.548V66H401.128V57.18H397.728ZM407.648 60.98C407.648 57.94 409.588 55.8 412.368 55.8C415.148 55.8 417.088 57.94 417.088 60.98V61.36H409.088C409.208 63.52 410.468 64.86 412.368 64.86C413.848 64.86 414.908 64.08 415.328 62.72L416.708 62.96C416.148 64.9 414.528 66.16 412.368 66.16C409.588 66.16 407.648 64.02 407.648 60.98ZM412.368 57.1C410.588 57.1 409.368 58.28 409.128 60.2H415.628C415.388 58.26 414.148 57.1 412.368 57.1ZM420.366 64.62V70H418.946V58.8C418.946 57.46 418.926 56.72 418.846 56H420.066C420.186 56.44 420.306 57.06 420.366 57.5C421.146 56.52 422.306 55.8 423.666 55.8C426.246 55.8 428.046 57.96 428.046 61.02C428.046 64.06 426.246 66.2 423.666 66.2C422.346 66.2 421.166 65.64 420.366 64.62ZM420.366 60.72V61.38C420.366 63.22 421.446 64.9 423.386 64.9C425.406 64.9 426.626 63.4 426.626 61.02C426.626 58.6 425.406 57.06 423.386 57.06C421.526 57.06 420.366 58.78 420.366 60.72ZM430.04 56H434.68C436.36 56 437.54 57.16 437.54 58.8C437.54 59.58 437.08 60.42 436.44 60.84C437.4 61.24 438.08 62.22 438.08 63.2C438.08 64.84 436.78 66 434.92 66H430.04V56ZM431.46 61.6V64.82H434.74C435.86 64.82 436.64 64.16 436.64 63.2C436.64 62.26 435.86 61.6 434.74 61.6H431.46ZM431.46 57.18V60.4H434.5C435.44 60.4 436.1 59.74 436.1 58.8C436.1 57.84 435.44 57.18 434.5 57.18H431.46ZM439.981 56H441.401V59.82H444.481C446.581 59.82 447.641 61.36 447.641 62.9C447.641 64.46 446.581 66 444.481 66H439.981V56ZM441.401 61V64.82H444.301C445.561 64.82 446.201 63.86 446.201 62.9C446.201 61.94 445.581 61 444.301 61H441.401ZM449.513 56H450.933V60.4H452.833C453.073 57.68 454.933 55.8 457.533 55.8C460.313 55.8 462.253 57.94 462.253 60.98C462.253 64.02 460.313 66.16 457.533 66.16C454.933 66.16 453.073 64.3 452.833 61.58H450.933V66H449.513V56ZM454.233 60.98C454.233 63.38 455.533 64.9 457.533 64.9C459.533 64.9 460.833 63.38 460.833 60.98C460.833 58.6 459.533 57.1 457.533 57.1C455.533 57.1 454.233 58.6 454.233 60.98ZM273.399 81H278.039C279.719 81 280.899 82.16 280.899 83.8C280.899 84.58 280.439 85.42 279.799 85.84C280.759 86.24 281.439 87.22 281.439 88.2C281.439 89.84 280.139 91 278.279 91H273.399V81ZM274.819 86.6V89.82H278.099C279.219 89.82 279.999 89.16 279.999 88.2C279.999 87.26 279.219 86.6 278.099 86.6H274.819ZM274.819 82.18V85.4H277.859C278.799 85.4 279.459 84.74 279.459 83.8C279.459 82.84 278.799 82.18 277.859 82.18H274.819ZM290.621 81H296.841V89.82H298.061V93.2H296.641V91H289.161V93.2H287.741V89.82H288.281C289.281 89.82 289.701 89.14 289.821 88.1L290.621 81ZM291.141 88.24C291.061 88.86 290.901 89.38 290.641 89.82H295.421V82.18H291.841L291.141 88.24ZM299.464 85.98C299.464 82.94 301.404 80.8 304.184 80.8C306.964 80.8 308.904 82.94 308.904 85.98V86.36H300.904C301.024 88.52 302.284 89.86 304.184 89.86C305.664 89.86 306.724 89.08 307.144 87.72L308.524 87.96C307.964 89.9 306.344 91.16 304.184 91.16C301.404 91.16 299.464 89.02 299.464 85.98ZM304.184 82.1C302.404 82.1 301.184 83.28 300.944 85.2H307.444C307.204 83.26 305.964 82.1 304.184 82.1ZM310.763 81H312.183V85.4H317.583V81H319.003V91H317.583V86.58H312.183V91H310.763V81ZM321.407 81H322.827V84.82H325.907C328.007 84.82 329.067 86.36 329.067 87.9C329.067 89.46 328.007 91 325.907 91H321.407V81ZM322.827 86V89.82H325.727C326.987 89.82 327.627 88.86 327.627 87.9C327.627 86.94 327.007 86 325.727 86H322.827Z" fill="black" fill-opacity="0.9"/>
<path fill-rule="evenodd" clip-rule="evenodd" d="M368 170C376 170 380 154 392 154H344C356 154 360 170 368 170Z" fill="#F2F2F2"/>
<rect x="496.4" width="240.2" height="154" rx="40" fill="#F2F2F2"/>
<path d="M525.8 41V28.32H521.2V27H531.88V28.32H527.28V41H525.8ZM535.306 39.62V45H533.886V33.8C533.886 32.46 533.866 31.72 533.786 31H535.006C535.126 31.44 535.246 32.06 535.306 32.5C536.086 31.52 537.246 30.8 538.606 30.8C541.186 30.8 542.986 32.96 542.986 36.02C542.986 39.06 541.186 41.2 538.606 41.2C537.286 41.2 536.106 40.64 535.306 39.62ZM535.306 35.72V36.38C535.306 38.22 536.386 39.9 538.326 39.9C540.346 39.9 541.566 38.4 541.566 36.02C541.566 33.6 540.346 32.06 538.326 32.06C536.466 32.06 535.306 33.78 535.306 35.72ZM552.759 41H551.539C551.399 40.5 551.299 40 551.239 39.5C550.559 40.48 549.559 41.18 548.119 41.18C546.039 41.18 544.579 39.92 544.579 38.12C544.579 36.32 546.059 35.38 548.639 35.08L551.239 34.78V34.18C551.239 32.94 550.319 32.1 548.999 32.1C547.739 32.1 546.819 32.6 546.479 33.6L545.099 33.36C545.599 31.76 547.059 30.8 548.999 30.8C551.219 30.8 552.659 32.26 552.659 34.48V38.2C552.659 39.54 552.679 40.28 552.759 41ZM548.239 39.92C550.099 39.92 551.239 38.7 551.239 36.98V35.9L548.619 36.22C546.999 36.42 545.999 37.02 545.999 38.12C545.999 39.16 546.919 39.92 548.239 39.92ZM554.737 32.18V31H562.977V32.18H559.557V41H558.137V32.18H554.737ZM572.837 41H571.617C571.477 40.5 571.377 40 571.317 39.5C570.637 40.48 569.637 41.18 568.197 41.18C566.117 41.18 564.657 39.92 564.657 38.12C564.657 36.32 566.137 35.38 568.717 35.08L571.317 34.78V34.18C571.317 32.94 570.397 32.1 569.077 32.1C567.817 32.1 566.897 32.6 566.557 33.6L565.177 33.36C565.677 31.76 567.137 30.8 569.077 30.8C571.297 30.8 572.737 32.26 572.737 34.48V38.2C572.737 39.54 572.757 40.28 572.837 41ZM568.317 39.92C570.177 39.92 571.317 38.7 571.317 36.98V35.9L568.697 36.22C567.077 36.42 566.077 37.02 566.077 38.12C566.077 39.16 566.997 39.92 568.317 39.92ZM582.416 31H588.636V39.82H589.856V43.2H588.436V41H580.956V43.2H579.536V39.82H580.076C581.076 39.82 581.496 39.14 581.616 38.1L582.416 31ZM582.936 38.24C582.856 38.86 582.696 39.38 582.436 39.82H587.216V32.18H583.636L582.936 38.24ZM600.699 35.98C600.699 39.02 598.759 41.16 595.979 41.16C593.199 41.16 591.259 39.02 591.259 35.98C591.259 32.94 593.199 30.8 595.979 30.8C598.759 30.8 600.699 32.94 600.699 35.98ZM592.679 35.98C592.679 38.38 593.979 39.9 595.979 39.9C597.979 39.9 599.279 38.38 599.279 35.98C599.279 33.6 597.979 32.1 595.979 32.1C593.979 32.1 592.679 33.6 592.679 35.98ZM604.114 39.62V45H602.694V33.8C602.694 32.46 602.674 31.72 602.594 31H603.814C603.934 31.44 604.054 32.06 604.114 32.5C604.894 31.52 606.054 30.8 607.414 30.8C609.994 30.8 611.794 32.96 611.794 36.02C611.794 39.06 609.994 41.2 607.414 41.2C606.094 41.2 604.914 40.64 604.114 39.62ZM604.114 35.72V36.38C604.114 38.22 605.194 39.9 607.134 39.9C609.154 39.9 610.374 38.4 610.374 36.02C610.374 33.6 609.154 32.06 607.134 32.06C605.274 32.06 604.114 33.78 604.114 35.72ZM622.828 35.98C622.828 39.02 620.888 41.16 618.108 41.16C615.328 41.16 613.388 39.02 613.388 35.98C613.388 32.94 615.328 30.8 618.108 30.8C620.888 30.8 622.828 32.94 622.828 35.98ZM614.808 35.98C614.808 38.38 616.108 39.9 618.108 39.9C620.108 39.9 621.408 38.38 621.408 35.98C621.408 33.6 620.108 32.1 618.108 32.1C616.108 32.1 614.808 33.6 614.808 35.98ZM624.823 31H631.663V32.18H626.243V41H624.823V31ZM642.789 35.98C642.789 39.02 640.849 41.16 638.069 41.16C635.289 41.16 633.349 39.02 633.349 35.98C633.349 32.94 635.289 30.8 638.069 30.8C640.849 30.8 642.789 32.94 642.789 35.98ZM634.769 35.98C634.769 38.38 636.069 39.9 638.069 39.9C640.069 39.9 641.369 38.38 641.369 35.98C641.369 33.6 640.069 32.1 638.069 32.1C636.069 32.1 634.769 33.6 634.769 35.98ZM644.784 31H651.624V32.18H646.204V41H644.784V31ZM662.75 35.98C662.75 39.02 660.81 41.16 658.03 41.16C655.25 41.16 653.31 39.02 653.31 35.98C653.31 32.94 655.25 30.8 658.03 30.8C660.81 30.8 662.75 32.94 662.75 35.98ZM654.73 35.98C654.73 38.38 656.03 39.9 658.03 39.9C660.03 39.9 661.33 38.38 661.33 35.98C661.33 33.6 660.03 32.1 658.03 32.1C656.03 32.1 654.73 33.6 654.73 35.98ZM521.6 56H526.24C527.92 56 529.1 57.16 529.1 58.8C529.1 59.58 528.64 60.42 528 60.84C528.96 61.24 529.64 62.22 529.64 63.2C529.64 64.84 528.34 66 526.48 66H521.6V56ZM523.02 61.6V64.82H526.3C527.42 64.82 528.2 64.16 528.2 63.2C528.2 62.26 527.42 61.6 526.3 61.6H523.02ZM523.02 57.18V60.4H526.06C527 60.4 527.66 59.74 527.66 58.8C527.66 57.84 527 57.18 526.06 57.18H523.02ZM532.962 64.62V70H531.542V58.8C531.542 57.46 531.522 56.72 531.442 56H532.662C532.782 56.44 532.902 57.06 532.962 57.5C533.742 56.52 534.902 55.8 536.262 55.8C538.842 55.8 540.642 57.96 540.642 61.02C540.642 64.06 538.842 66.2 536.262 66.2C534.942 66.2 533.762 65.64 532.962 64.62ZM532.962 60.72V61.38C532.962 63.22 534.042 64.9 535.982 64.9C538.002 64.9 539.222 63.4 539.222 61.02C539.222 58.6 538.002 57.06 535.982 57.06C534.122 57.06 532.962 58.78 532.962 60.72ZM542.236 60.98C542.236 57.94 544.176 55.8 546.956 55.8C549.736 55.8 551.676 57.94 551.676 60.98V61.36H543.676C543.796 63.52 545.056 64.86 546.956 64.86C548.436 64.86 549.496 64.08 549.916 62.72L551.296 62.96C550.736 64.9 549.116 66.16 546.956 66.16C544.176 66.16 542.236 64.02 542.236 60.98ZM546.956 57.1C545.176 57.1 543.956 58.28 543.716 60.2H550.216C549.976 58.26 548.736 57.1 546.956 57.1ZM559.374 66H558.274L554.954 58.3V66H553.534V56H555.274L558.834 64.24L562.374 56H564.114V66H562.694V58.3L559.374 66ZM566.122 60.98C566.122 57.94 568.062 55.8 570.842 55.8C573.622 55.8 575.562 57.94 575.562 60.98V61.36H567.562C567.682 63.52 568.942 64.86 570.842 64.86C572.322 64.86 573.382 64.08 573.802 62.72L575.182 62.96C574.622 64.9 573.002 66.16 570.842 66.16C568.062 66.16 566.122 64.02 566.122 60.98ZM570.842 57.1C569.062 57.1 567.842 58.28 567.602 60.2H574.102C573.862 58.26 572.622 57.1 570.842 57.1ZM577.421 56H578.841V60.4H584.241V56H585.661V66H584.241V61.58H578.841V66H577.421V56ZM588.065 56H589.485V63.94L594.885 56H596.305V66H594.885V58.06L589.485 66H588.065V56ZM521.2 85.98C521.2 82.94 523.14 80.8 525.92 80.8C528.08 80.8 529.7 82.1 530.26 84.08L528.88 84.32C528.48 82.92 527.4 82.1 525.92 82.1C523.92 82.1 522.62 83.6 522.62 85.98C522.62 88.36 523.92 89.86 525.92 89.86C527.4 89.86 528.46 89.08 528.88 87.72L530.26 87.96C529.7 89.9 528.08 91.16 525.92 91.16C523.14 91.16 521.2 89.02 521.2 85.98ZM541.168 85.98C541.168 89.02 539.228 91.16 536.448 91.16C533.668 91.16 531.728 89.02 531.728 85.98C531.728 82.94 533.668 80.8 536.448 80.8C539.228 80.8 541.168 82.94 541.168 85.98ZM533.148 85.98C533.148 88.38 534.448 89.9 536.448 89.9C538.448 89.9 539.748 88.38 539.748 85.98C539.748 83.6 538.448 82.1 536.448 82.1C534.448 82.1 533.148 83.6 533.148 85.98ZM544.183 85.52V85.88C544.183 88.3 545.303 89.84 547.323 89.84C549.343 89.84 550.443 88.3 550.443 85.88C550.443 83.5 549.223 82 547.203 82C545.263 82 544.183 83.68 544.183 85.52ZM542.763 85.66V82.82C542.763 79.28 544.723 77.2 548.043 76.9C548.963 76.82 549.863 76.74 550.783 76.26V77.48C549.863 77.96 548.963 78.04 548.043 78.12C545.483 78.34 544.183 80 544.183 82.1V82.28C544.983 81.26 546.163 80.7 547.483 80.7C550.063 80.7 551.863 82.84 551.863 85.88C551.863 88.94 550.143 91.1 547.323 91.1C544.503 91.1 542.763 89 542.763 85.66ZM553.466 85.98C553.466 82.94 555.406 80.8 558.186 80.8C560.966 80.8 562.906 82.94 562.906 85.98V86.36H554.906C555.026 88.52 556.286 89.86 558.186 89.86C559.666 89.86 560.726 89.08 561.146 87.72L562.526 87.96C561.966 89.9 560.346 91.16 558.186 91.16C555.406 91.16 553.466 89.02 553.466 85.98ZM558.186 82.1C556.406 82.1 555.186 83.28 554.946 85.2H561.446C561.206 83.26 559.966 82.1 558.186 82.1ZM564.364 85.98C564.364 82.94 566.304 80.8 569.084 80.8C571.244 80.8 572.864 82.1 573.424 84.08L572.044 84.32C571.644 82.92 570.564 82.1 569.084 82.1C567.084 82.1 565.784 83.6 565.784 85.98C565.784 88.36 567.084 89.86 569.084 89.86C570.564 89.86 571.624 89.08 572.044 87.72L573.424 87.96C572.864 89.9 571.244 91.16 569.084 91.16C566.304 91.16 564.364 89.02 564.364 85.98ZM574.892 85.98C574.892 82.94 576.832 80.8 579.612 80.8C582.392 80.8 584.332 82.94 584.332 85.98V86.36H576.332C576.452 88.52 577.712 89.86 579.612 89.86C581.092 89.86 582.152 89.08 582.572 87.72L583.952 87.96C583.392 89.9 581.772 91.16 579.612 91.16C576.832 91.16 574.892 89.02 574.892 85.98ZM579.612 82.1C577.832 82.1 576.612 83.28 576.372 85.2H582.872C582.632 83.26 581.392 82.1 579.612 82.1ZM588.47 81H594.69V89.82H595.91V93.2H594.49V91H587.01V93.2H585.59V89.82H586.13C587.13 89.82 587.55 89.14 587.67 88.1L588.47 81ZM588.99 88.24C588.91 88.86 588.75 89.38 588.49 89.82H593.27V82.18H589.69L588.99 88.24ZM600.714 91.72L600.994 91L597.114 81H598.554L601.654 89.22L604.794 81H606.214L602.034 91.8C601.434 93.38 600.774 95.18 598.514 95.18C598.114 95.18 597.674 95.14 597.194 95.04V93.78C597.674 93.9 598.074 93.94 598.394 93.94C599.854 93.94 600.334 92.78 600.714 91.72ZM608.007 81H609.427V85.4H611.327C611.567 82.68 613.427 80.8 616.027 80.8C618.807 80.8 620.747 82.94 620.747 85.98C620.747 89.02 618.807 91.16 616.027 91.16C613.427 91.16 611.567 89.3 611.327 86.58H609.427V91H608.007V81ZM612.727 85.98C612.727 88.38 614.027 89.9 616.027 89.9C618.027 89.9 619.327 88.38 619.327 85.98C619.327 83.6 618.027 82.1 616.027 82.1C614.027 82.1 612.727 83.6 612.727 85.98ZM635.073 91H622.753V81H624.173V89.82H628.173V81H629.593V89.82H633.593V81H635.013V89.82H636.493V93.2H635.073V91ZM638.3 81H639.72V88.94L645.12 81H646.54V91H645.12V83.06L639.72 91H638.3V81ZM652.204 85.86L648.644 81H650.284L652.984 84.88L655.664 81H657.304L653.764 85.86L657.504 91H655.864L652.984 86.86L650.084 91H648.444L652.204 85.86ZM524 111.58V110.4H528.68C528.48 108.36 527.24 107.1 525.4 107.1C523.92 107.1 522.84 107.92 522.44 109.32L521.06 109.08C521.62 107.1 523.24 105.8 525.4 105.8C528.18 105.8 530.12 107.94 530.12 110.98C530.12 114.02 528.18 116.16 525.4 116.16C523.24 116.16 521.62 114.9 521.06 112.96L522.44 112.72C522.86 114.08 523.92 114.86 525.4 114.86C527.22 114.86 528.46 113.6 528.68 111.58H524ZM532.128 116V106H533.548V110.72L538.028 106H539.708L535.988 109.96L540.268 116H538.608L535.048 110.96L533.548 112.56V116H532.128ZM541.571 110.98C541.571 107.94 543.511 105.8 546.291 105.8C548.451 105.8 550.071 107.1 550.631 109.08L549.251 109.32C548.851 107.92 547.771 107.1 546.291 107.1C544.291 107.1 542.991 108.6 542.991 110.98C542.991 113.36 544.291 114.86 546.291 114.86C547.771 114.86 548.831 114.08 549.251 112.72L550.631 112.96C550.071 114.9 548.451 116.16 546.291 116.16C543.511 116.16 541.571 114.02 541.571 110.98ZM552.499 106H560.739V116H559.319V107.18H553.919V116H552.499V106ZM562.646 110.98C562.646 107.94 564.586 105.8 567.366 105.8C570.146 105.8 572.086 107.94 572.086 110.98V111.36H564.086C564.206 113.52 565.466 114.86 567.366 114.86C568.846 114.86 569.906 114.08 570.326 112.72L571.706 112.96C571.146 114.9 569.526 116.16 567.366 116.16C564.586 116.16 562.646 114.02 562.646 110.98ZM567.366 107.1C565.586 107.1 564.366 108.28 564.126 110.2H570.626C570.386 108.26 569.146 107.1 567.366 107.1ZM575.364 114.62V120H573.944V108.8C573.944 107.46 573.924 106.72 573.844 106H575.064C575.184 106.44 575.304 107.06 575.364 107.5C576.144 106.52 577.304 105.8 578.664 105.8C581.244 105.8 583.044 107.96 583.044 111.02C583.044 114.06 581.244 116.2 578.664 116.2C577.344 116.2 576.164 115.64 575.364 114.62ZM575.364 110.72V111.38C575.364 113.22 576.444 114.9 578.384 114.9C580.404 114.9 581.624 113.4 581.624 111.02C581.624 108.6 580.404 107.06 578.384 107.06C576.524 107.06 575.364 108.78 575.364 110.72ZM584.718 107.18V106H592.958V107.18H589.538V116H588.118V107.18H584.718ZM604.078 110.98C604.078 114.02 602.138 116.16 599.358 116.16C596.578 116.16 594.638 114.02 594.638 110.98C594.638 107.94 596.578 105.8 599.358 105.8C602.138 105.8 604.078 107.94 604.078 110.98ZM596.058 110.98C596.058 113.38 597.358 114.9 599.358 114.9C601.358 114.9 602.658 113.38 602.658 110.98C602.658 108.6 601.358 107.1 599.358 107.1C597.358 107.1 596.058 108.6 596.058 110.98ZM606.073 106H610.713C612.393 106 613.573 107.16 613.573 108.8C613.573 109.58 613.113 110.42 612.473 110.84C613.433 111.24 614.113 112.22 614.113 113.2C614.113 114.84 612.813 116 610.953 116H606.073V106ZM607.493 111.6V114.82H610.773C611.893 114.82 612.673 114.16 612.673 113.2C612.673 112.26 611.893 111.6 610.773 111.6H607.493ZM607.493 107.18V110.4H610.533C611.473 110.4 612.133 109.74 612.133 108.8C612.133 107.84 611.473 107.18 610.533 107.18H607.493Z" fill="black" fill-opacity="0.9"/>
<path fill-rule="evenodd" clip-rule="evenodd" d="M616 170C624 170 628 154 640 154H592C604 154 608 170 616 170Z" fill="#F2F2F2"/>
<rect x="744.6" width="240.2" height="154" rx="40" fill="#F2F2F2"/>
<path d="M769.8 34.02C769.8 29.8 772.5 26.84 776.32 26.84C779.26 26.84 781.42 28.42 782.22 30.94L780.8 31.44C780.24 29.42 778.6 28.22 776.32 28.22C773.38 28.22 771.32 30.62 771.32 34.02C771.32 37.42 773.38 39.82 776.32 39.82C778.76 39.82 780.4 38.46 780.8 36.2L782.22 36.7C781.58 39.46 779.42 41.2 776.32 41.2C772.5 41.2 769.8 38.24 769.8 34.02ZM786.874 31H793.094V41H791.674V32.18H788.094L787.394 38.24C787.194 39.9 786.314 41 784.694 41H783.714V39.82H784.534C785.534 39.82 785.954 39.14 786.074 38.1L786.874 31ZM804.543 35.98C804.543 39.02 802.603 41.16 799.823 41.16C797.043 41.16 795.103 39.02 795.103 35.98C795.103 32.94 797.043 30.8 799.823 30.8C802.603 30.8 804.543 32.94 804.543 35.98ZM796.523 35.98C796.523 38.38 797.823 39.9 799.823 39.9C801.823 39.9 803.123 38.38 803.123 35.98C803.123 33.6 801.823 32.1 799.823 32.1C797.823 32.1 796.523 33.6 796.523 35.98ZM812.118 41V37.7L810.578 35.9L807.478 41H805.838L809.658 34.8L806.418 31H808.058L812.118 35.8V31H813.538V35.8L817.598 31H819.238L815.998 34.8L819.818 41H818.178L815.078 35.9L813.538 37.7V41H812.118ZM821.518 31H822.938V35.4H828.338V31H829.758V41H828.338V36.58H822.938V41H821.518V31ZM841.203 35.98C841.203 39.02 839.263 41.16 836.483 41.16C833.703 41.16 831.763 39.02 831.763 35.98C831.763 32.94 833.703 30.8 836.483 30.8C839.263 30.8 841.203 32.94 841.203 35.98ZM833.183 35.98C833.183 38.38 834.483 39.9 836.483 39.9C838.483 39.9 839.783 38.38 839.783 35.98C839.783 33.6 838.483 32.1 836.483 32.1C834.483 32.1 833.183 33.6 833.183 35.98ZM847.798 35.98C847.798 32.94 849.738 30.8 852.518 30.8C854.678 30.8 856.298 32.1 856.858 34.08L855.478 34.32C855.078 32.92 853.998 32.1 852.518 32.1C850.518 32.1 849.218 33.6 849.218 35.98C849.218 38.36 850.518 39.86 852.518 39.86C853.998 39.86 855.058 39.08 855.478 37.72L856.858 37.96C856.298 39.9 854.678 41.16 852.518 41.16C849.738 41.16 847.798 39.02 847.798 35.98ZM860.145 39.62V45H858.725V33.8C858.725 32.46 858.705 31.72 858.625 31H859.845C859.965 31.44 860.085 32.06 860.145 32.5C860.925 31.52 862.085 30.8 863.445 30.8C866.025 30.8 867.825 32.96 867.825 36.02C867.825 39.06 866.025 41.2 863.445 41.2C862.125 41.2 860.945 40.64 860.145 39.62ZM860.145 35.72V36.38C860.145 38.22 861.225 39.9 863.165 39.9C865.185 39.9 866.405 38.4 866.405 36.02C866.405 33.6 865.185 32.06 863.165 32.06C861.305 32.06 860.145 33.78 860.145 35.72ZM877.599 41H876.379C876.239 40.5 876.139 40 876.079 39.5C875.399 40.48 874.399 41.18 872.959 41.18C870.879 41.18 869.419 39.92 869.419 38.12C869.419 36.32 870.899 35.38 873.479 35.08L876.079 34.78V34.18C876.079 32.94 875.159 32.1 873.839 32.1C872.579 32.1 871.659 32.6 871.319 33.6L869.939 33.36C870.439 31.76 871.899 30.8 873.839 30.8C876.059 30.8 877.499 32.26 877.499 34.48V38.2C877.499 39.54 877.519 40.28 877.599 41ZM873.079 39.92C874.939 39.92 876.079 38.7 876.079 36.98V35.9L873.459 36.22C871.839 36.42 870.839 37.02 870.839 38.12C870.839 39.16 871.759 39.92 873.079 39.92ZM879.897 31H884.537C886.217 31 887.397 32.16 887.397 33.8C887.397 34.58 886.937 35.42 886.297 35.84C887.257 36.24 887.937 37.22 887.937 38.2C887.937 39.84 886.637 41 884.777 41H879.897V31ZM881.317 36.6V39.82H884.597C885.717 39.82 886.497 39.16 886.497 38.2C886.497 37.26 885.717 36.6 884.597 36.6H881.317ZM881.317 32.18V35.4H884.357C885.297 35.4 885.957 34.74 885.957 33.8C885.957 32.84 885.297 32.18 884.357 32.18H881.317ZM889.839 31H891.259V35.4H896.659V31H898.079V41H896.659V36.58H891.259V41H889.839V31ZM900.483 31H901.903V38.94L907.303 31H908.723V41H907.303V33.06L901.903 41H900.483V31ZM910.808 32.18V31H919.048V32.18H915.628V41H914.208V32.18H910.808ZM921.128 31H922.548V34.82H925.628C927.728 34.82 928.788 36.36 928.788 37.9C928.788 39.46 927.728 41 925.628 41H921.128V31ZM922.548 36V39.82H925.448C926.708 39.82 927.348 38.86 927.348 37.9C927.348 36.94 926.728 36 925.448 36H922.548ZM771.22 64.62V70H769.8V58.8C769.8 57.46 769.78 56.72 769.7 56H770.92C771.04 56.44 771.16 57.06 771.22 57.5C772 56.52 773.16 55.8 774.52 55.8C777.1 55.8 778.9 57.96 778.9 61.02C778.9 64.06 777.1 66.2 774.52 66.2C773.2 66.2 772.02 65.64 771.22 64.62ZM771.22 60.72V61.38C771.22 63.22 772.3 64.9 774.24 64.9C776.26 64.9 777.48 63.4 777.48 61.02C777.48 58.6 776.26 57.06 774.24 57.06C772.38 57.06 771.22 58.78 771.22 60.72ZM788.673 66H787.453C787.313 65.5 787.213 65 787.153 64.5C786.473 65.48 785.473 66.18 784.033 66.18C781.953 66.18 780.493 64.92 780.493 63.12C780.493 61.32 781.973 60.38 784.553 60.08L787.153 59.78V59.18C787.153 57.94 786.233 57.1 784.913 57.1C783.653 57.1 782.733 57.6 782.393 58.6L781.013 58.36C781.513 56.76 782.973 55.8 784.913 55.8C787.133 55.8 788.573 57.26 788.573 59.48V63.2C788.573 64.54 788.593 65.28 788.673 66ZM784.153 64.92C786.013 64.92 787.153 63.7 787.153 61.98V60.9L784.533 61.22C782.913 61.42 781.913 62.02 781.913 63.12C781.913 64.16 782.833 64.92 784.153 64.92ZM794.411 61.46H793.411V60.3H794.411C795.711 60.3 796.831 59.6 796.831 58.54C796.831 57.7 795.951 57.1 794.691 57.1C793.431 57.1 792.511 57.7 792.171 58.7L790.791 58.46C791.291 56.86 792.751 55.8 794.691 55.8C796.771 55.8 798.231 56.94 798.231 58.54C798.231 59.74 797.591 60.4 796.711 60.82C797.751 61.28 798.511 61.96 798.511 63.32C798.511 64.82 797.091 66.2 794.791 66.2C792.591 66.2 790.991 64.98 790.451 63.12L791.831 62.88C792.211 64.16 793.271 64.9 794.791 64.9C796.151 64.9 797.111 64.18 797.111 63.32C797.111 62.22 796.051 61.46 794.411 61.46ZM800.62 56H802.04V60.4H807.44V56H808.86V66H807.44V61.58H802.04V66H800.62V56ZM811.264 56H812.684V59.82H815.764C817.864 59.82 818.924 61.36 818.924 62.9C818.924 64.46 817.864 66 815.764 66H811.264V56ZM812.684 61V64.82H815.584C816.844 64.82 817.484 63.86 817.484 62.9C817.484 61.94 816.864 61 815.584 61H812.684ZM820.804 66V56H822.224V66H820.804ZM824.624 56H826.044V63.94L831.444 56H832.864V66H831.444V58.06L826.044 66H824.624V56ZM828.744 55.2C827.344 55.2 826.244 54.14 826.244 52.8H827.264C827.264 53.52 827.924 54.12 828.744 54.12C829.544 54.12 830.204 53.52 830.204 52.8H831.224C831.224 54.14 830.124 55.2 828.744 55.2ZM849.308 60.98C849.308 64.02 847.368 66.16 844.588 66.16C841.808 66.16 839.868 64.02 839.868 60.98C839.868 57.94 841.808 55.8 844.588 55.8C847.368 55.8 849.308 57.94 849.308 60.98ZM841.288 60.98C841.288 63.38 842.588 64.9 844.588 64.9C846.588 64.9 847.888 63.38 847.888 60.98C847.888 58.6 846.588 57.1 844.588 57.1C842.588 57.1 841.288 58.6 841.288 60.98ZM851.304 56H859.544V66H858.124V57.18H852.724V66H851.304V56ZM861.85 56H863.27V59.82H866.35C868.45 59.82 869.51 61.36 869.51 62.9C869.51 64.46 868.45 66 866.35 66H861.85V56ZM863.27 61V64.82H866.17C867.43 64.82 868.07 63.86 868.07 62.9C868.07 61.94 867.45 61 866.17 61H863.27ZM871.39 66V56H872.81V66H871.39ZM874.89 57.18V56H883.13V57.18H879.71V66H878.29V57.18H874.89ZM769.8 91V81H771.22V85.72L775.7 81H777.38L773.66 84.96L777.94 91H776.28L772.72 85.96L771.22 87.56V91H769.8ZM787.423 91H786.203C786.063 90.5 785.963 90 785.903 89.5C785.223 90.48 784.223 91.18 782.783 91.18C780.703 91.18 779.243 89.92 779.243 88.12C779.243 86.32 780.723 85.38 783.303 85.08L785.903 84.78V84.18C785.903 82.94 784.983 82.1 783.663 82.1C782.403 82.1 781.483 82.6 781.143 83.6L779.763 83.36C780.263 81.76 781.723 80.8 783.663 80.8C785.883 80.8 787.323 82.26 787.323 84.48V88.2C787.323 89.54 787.343 90.28 787.423 91ZM782.903 89.92C784.763 89.92 785.903 88.7 785.903 86.98V85.9L783.283 86.22C781.663 86.42 780.663 87.02 780.663 88.12C780.663 89.16 781.583 89.92 782.903 89.92ZM789.721 81H791.141V85.4H796.541V81H797.961V91H796.541V86.58H791.141V91H789.721V81ZM802.646 81H808.866V89.82H810.086V93.2H808.666V91H801.186V93.2H799.766V89.82H800.306C801.306 89.82 801.726 89.14 801.846 88.1L802.646 81ZM803.166 88.24C803.086 88.86 802.926 89.38 802.666 89.82H807.446V82.18H803.866L803.166 88.24ZM811.889 81H813.309V88.94L818.709 81H820.129V91H818.709V83.06L813.309 91H811.889V81ZM824.814 81H831.034V89.82H832.254V93.2H830.834V91H823.354V93.2H821.934V89.82H822.474C823.474 89.82 823.894 89.14 824.014 88.1L824.814 81ZM825.334 88.24C825.254 88.86 825.094 89.38 824.834 89.82H829.614V82.18H826.034L825.334 88.24ZM841.837 91H840.617C840.477 90.5 840.377 90 840.317 89.5C839.637 90.48 838.637 91.18 837.197 91.18C835.117 91.18 833.657 89.92 833.657 88.12C833.657 86.32 835.137 85.38 837.717 85.08L840.317 84.78V84.18C840.317 82.94 839.397 82.1 838.077 82.1C836.817 82.1 835.897 82.6 835.557 83.6L834.177 83.36C834.677 81.76 836.137 80.8 838.077 80.8C840.297 80.8 841.737 82.26 841.737 84.48V88.2C841.737 89.54 841.757 90.28 841.837 91ZM837.317 89.92C839.177 89.92 840.317 88.7 840.317 86.98V85.9L837.697 86.22C836.077 86.42 835.077 87.02 835.077 88.12C835.077 89.16 835.997 89.92 837.317 89.92ZM843.816 82.18V81H852.056V82.18H848.636V91H847.216V82.18H843.816ZM863.176 85.98C863.176 89.02 861.236 91.16 858.456 91.16C855.676 91.16 853.736 89.02 853.736 85.98C853.736 82.94 855.676 80.8 858.456 80.8C861.236 80.8 863.176 82.94 863.176 85.98ZM855.156 85.98C855.156 88.38 856.456 89.9 858.456 89.9C860.456 89.9 861.756 88.38 861.756 85.98C861.756 83.6 860.456 82.1 858.456 82.1C856.456 82.1 855.156 83.6 855.156 85.98ZM865.171 81H869.811C871.491 81 872.671 82.16 872.671 83.8C872.671 84.58 872.211 85.42 871.571 85.84C872.531 86.24 873.211 87.22 873.211 88.2C873.211 89.84 871.911 91 870.051 91H865.171V81ZM866.591 86.6V89.82H869.871C870.991 89.82 871.771 89.16 871.771 88.2C871.771 87.26 870.991 86.6 869.871 86.6H866.591ZM866.591 82.18V85.4H869.631C870.571 85.4 871.231 84.74 871.231 83.8C871.231 82.84 870.571 82.18 869.631 82.18H866.591Z" fill="black" fill-opacity="0.9"/>
<path fill-rule="evenodd" clip-rule="evenodd" d="M865 170C873 170 877 154 889 154H841C853 154 857 170 865 170Z" fill="#F2F2F2"/>
<rect x="992.801" width="240.2" height="154" rx="40" fill="#F2F2F2"/>
<path d="M1018.2 41V27H1027.1V28.32H1019.68V32.32H1023.26C1029.4 32.32 1029.4 41 1023.26 41H1018.2ZM1019.68 33.66V39.66H1023.14C1027.4 39.66 1027.4 33.66 1023.14 33.66H1019.68ZM1039.03 35.98C1039.03 39.02 1037.09 41.16 1034.31 41.16C1031.53 41.16 1029.59 39.02 1029.59 35.98C1029.59 32.94 1031.53 30.8 1034.31 30.8C1037.09 30.8 1039.03 32.94 1039.03 35.98ZM1031.01 35.98C1031.01 38.38 1032.31 39.9 1034.31 39.9C1036.31 39.9 1037.61 38.38 1037.61 35.98C1037.61 33.6 1036.31 32.1 1034.31 32.1C1032.31 32.1 1031.01 33.6 1031.01 35.98ZM1042.45 39.62V45H1041.03V33.8C1041.03 32.46 1041.01 31.72 1040.93 31H1042.15C1042.27 31.44 1042.39 32.06 1042.45 32.5C1043.23 31.52 1044.39 30.8 1045.75 30.8C1048.33 30.8 1050.13 32.96 1050.13 36.02C1050.13 39.06 1048.33 41.2 1045.75 41.2C1044.43 41.2 1043.25 40.64 1042.45 39.62ZM1042.45 35.72V36.38C1042.45 38.22 1043.53 39.9 1045.47 39.9C1047.49 39.9 1048.71 38.4 1048.71 36.02C1048.71 33.6 1047.49 32.06 1045.47 32.06C1043.61 32.06 1042.45 33.78 1042.45 35.72ZM1052.12 31H1053.54V34.82H1056.62C1058.72 34.82 1059.78 36.36 1059.78 37.9C1059.78 39.46 1058.72 41 1056.62 41H1052.12V31ZM1053.54 36V39.82H1056.44C1057.7 39.82 1058.34 38.86 1058.34 37.9C1058.34 36.94 1057.72 36 1056.44 36H1053.54ZM1062.67 35.52V35.88C1062.67 38.3 1063.79 39.84 1065.81 39.84C1067.83 39.84 1068.93 38.3 1068.93 35.88C1068.93 33.5 1067.71 32 1065.69 32C1063.75 32 1062.67 33.68 1062.67 35.52ZM1061.25 35.66V32.82C1061.25 29.28 1063.21 27.2 1066.53 26.9C1067.45 26.82 1068.35 26.74 1069.27 26.26V27.48C1068.35 27.96 1067.45 28.04 1066.53 28.12C1063.97 28.34 1062.67 30 1062.67 32.1V32.28C1063.47 31.26 1064.65 30.7 1065.97 30.7C1068.55 30.7 1070.35 32.84 1070.35 35.88C1070.35 38.94 1068.63 41.1 1065.81 41.1C1062.99 41.1 1061.25 39 1061.25 35.66ZM1080.14 41H1078.92C1078.78 40.5 1078.68 40 1078.62 39.5C1077.94 40.48 1076.94 41.18 1075.5 41.18C1073.42 41.18 1071.96 39.92 1071.96 38.12C1071.96 36.32 1073.44 35.38 1076.02 35.08L1078.62 34.78V34.18C1078.62 32.94 1077.7 32.1 1076.38 32.1C1075.12 32.1 1074.2 32.6 1073.86 33.6L1072.48 33.36C1072.98 31.76 1074.44 30.8 1076.38 30.8C1078.6 30.8 1080.04 32.26 1080.04 34.48V38.2C1080.04 39.54 1080.06 40.28 1080.14 41ZM1075.62 39.92C1077.48 39.92 1078.62 38.7 1078.62 36.98V35.9L1076 36.22C1074.38 36.42 1073.38 37.02 1073.38 38.12C1073.38 39.16 1074.3 39.92 1075.62 39.92ZM1090.87 36.46H1089.87V35.3H1090.87C1092.17 35.3 1093.29 34.6 1093.29 33.54C1093.29 32.7 1092.41 32.1 1091.15 32.1C1089.89 32.1 1088.97 32.7 1088.63 33.7L1087.25 33.46C1087.75 31.86 1089.21 30.8 1091.15 30.8C1093.23 30.8 1094.69 31.94 1094.69 33.54C1094.69 34.74 1094.05 35.4 1093.17 35.82C1094.21 36.28 1094.97 36.96 1094.97 38.32C1094.97 39.82 1093.55 41.2 1091.25 41.2C1089.05 41.2 1087.45 39.98 1086.91 38.12L1088.29 37.88C1088.67 39.16 1089.73 39.9 1091.25 39.9C1092.61 39.9 1093.57 39.18 1093.57 38.32C1093.57 37.22 1092.51 36.46 1090.87 36.46ZM1104.86 41H1103.64C1103.5 40.5 1103.4 40 1103.34 39.5C1102.66 40.48 1101.66 41.18 1100.22 41.18C1098.14 41.18 1096.68 39.92 1096.68 38.12C1096.68 36.32 1098.16 35.38 1100.74 35.08L1103.34 34.78V34.18C1103.34 32.94 1102.42 32.1 1101.1 32.1C1099.84 32.1 1098.92 32.6 1098.58 33.6L1097.2 33.36C1097.7 31.76 1099.16 30.8 1101.1 30.8C1103.32 30.8 1104.76 32.26 1104.76 34.48V38.2C1104.76 39.54 1104.78 40.28 1104.86 41ZM1100.34 39.92C1102.2 39.92 1103.34 38.7 1103.34 36.98V35.9L1100.72 36.22C1099.1 36.42 1098.1 37.02 1098.1 38.12C1098.1 39.16 1099.02 39.92 1100.34 39.92ZM1112.16 31H1120.4V41H1118.98V32.18H1113.58V41H1112.16V31ZM1124.13 39.62V45H1122.71V33.8C1122.71 32.46 1122.69 31.72 1122.61 31H1123.83C1123.95 31.44 1124.07 32.06 1124.13 32.5C1124.91 31.52 1126.07 30.8 1127.43 30.8C1130.01 30.8 1131.81 32.96 1131.81 36.02C1131.81 39.06 1130.01 41.2 1127.43 41.2C1126.11 41.2 1124.93 40.64 1124.13 39.62ZM1124.13 35.72V36.38C1124.13 38.22 1125.21 39.9 1127.15 39.9C1129.17 39.9 1130.39 38.4 1130.39 36.02C1130.39 33.6 1129.17 32.06 1127.15 32.06C1125.29 32.06 1124.13 33.78 1124.13 35.72ZM1133.8 31H1135.22V38.94L1140.62 31H1142.04V41H1140.62V33.06L1135.22 41H1133.8V31ZM1144.45 31H1145.87V35.4H1151.27V31H1152.69V41H1151.27V36.58H1145.87V41H1144.45V31ZM1162.55 41H1161.13V37.18H1158.35L1156.03 41H1154.39L1156.85 36.98C1155.55 36.52 1154.89 35.32 1154.89 34.1C1154.89 32.54 1155.95 31 1158.05 31H1162.55V41ZM1161.13 36V32.18H1158.23C1156.97 32.18 1156.33 33.14 1156.33 34.1C1156.33 35.06 1156.95 36 1158.23 36H1161.13ZM1164.54 32.18V31H1172.78V32.18H1169.36V41H1167.94V32.18H1164.54ZM1174.86 31H1176.28V38.94L1181.68 31H1183.1V41H1181.68V33.06L1176.28 41H1174.86V31ZM1185.1 35.98C1185.1 32.94 1187.04 30.8 1189.82 30.8C1192.6 30.8 1194.54 32.94 1194.54 35.98V36.36H1186.54C1186.66 38.52 1187.92 39.86 1189.82 39.86C1191.3 39.86 1192.36 39.08 1192.78 37.72L1194.16 37.96C1193.6 39.9 1191.98 41.16 1189.82 41.16C1187.04 41.16 1185.1 39.02 1185.1 35.98ZM1189.82 32.1C1188.04 32.1 1186.82 33.28 1186.58 35.2H1193.08C1192.84 33.26 1191.6 32.1 1189.82 32.1ZM1018 66V56H1019.42V60.72L1023.9 56H1025.58L1021.86 59.96L1026.14 66H1024.48L1020.92 60.96L1019.42 62.56V66H1018ZM1035.62 66H1034.4C1034.26 65.5 1034.16 65 1034.1 64.5C1033.42 65.48 1032.42 66.18 1030.98 66.18C1028.9 66.18 1027.44 64.92 1027.44 63.12C1027.44 61.32 1028.92 60.38 1031.5 60.08L1034.1 59.78V59.18C1034.1 57.94 1033.18 57.1 1031.86 57.1C1030.6 57.1 1029.68 57.6 1029.34 58.6L1027.96 58.36C1028.46 56.76 1029.92 55.8 1031.86 55.8C1034.08 55.8 1035.52 57.26 1035.52 59.48V63.2C1035.52 64.54 1035.54 65.28 1035.62 66ZM1031.1 64.92C1032.96 64.92 1034.1 63.7 1034.1 61.98V60.9L1031.48 61.22C1029.86 61.42 1028.86 62.02 1028.86 63.12C1028.86 64.16 1029.78 64.92 1031.1 64.92ZM1037.92 56H1039.34V60.4H1044.74V56H1046.16V66H1044.74V61.58H1039.34V66H1037.92V56ZM1050.85 56H1057.07V64.82H1058.29V68.2H1056.87V66H1049.39V68.2H1047.97V64.82H1048.51C1049.51 64.82 1049.93 64.14 1050.05 63.1L1050.85 56ZM1051.37 63.24C1051.29 63.86 1051.13 64.38 1050.87 64.82H1055.65V57.18H1052.07L1051.37 63.24ZM1060.09 56H1061.51V63.94L1066.91 56H1068.33V66H1066.91V58.06L1061.51 66H1060.09V56ZM1073.02 56H1079.24V64.82H1080.46V68.2H1079.04V66H1071.56V68.2H1070.14V64.82H1070.68C1071.68 64.82 1072.1 64.14 1072.22 63.1L1073.02 56ZM1073.54 63.24C1073.46 63.86 1073.3 64.38 1073.04 64.82H1077.82V57.18H1074.24L1073.54 63.24ZM1090.04 66H1088.82C1088.68 65.5 1088.58 65 1088.52 64.5C1087.84 65.48 1086.84 66.18 1085.4 66.18C1083.32 66.18 1081.86 64.92 1081.86 63.12C1081.86 61.32 1083.34 60.38 1085.92 60.08L1088.52 59.78V59.18C1088.52 57.94 1087.6 57.1 1086.28 57.1C1085.02 57.1 1084.1 57.6 1083.76 58.6L1082.38 58.36C1082.88 56.76 1084.34 55.8 1086.28 55.8C1088.5 55.8 1089.94 57.26 1089.94 59.48V63.2C1089.94 64.54 1089.96 65.28 1090.04 66ZM1085.52 64.92C1087.38 64.92 1088.52 63.7 1088.52 61.98V60.9L1085.9 61.22C1084.28 61.42 1083.28 62.02 1083.28 63.12C1083.28 64.16 1084.2 64.92 1085.52 64.92ZM1092.02 57.18V56H1100.26V57.18H1096.84V66H1095.42V57.18H1092.02ZM1111.38 60.98C1111.38 64.02 1109.44 66.16 1106.66 66.16C1103.88 66.16 1101.94 64.02 1101.94 60.98C1101.94 57.94 1103.88 55.8 1106.66 55.8C1109.44 55.8 1111.38 57.94 1111.38 60.98ZM1103.36 60.98C1103.36 63.38 1104.66 64.9 1106.66 64.9C1108.66 64.9 1109.96 63.38 1109.96 60.98C1109.96 58.6 1108.66 57.1 1106.66 57.1C1104.66 57.1 1103.36 58.6 1103.36 60.98ZM1119.21 66H1118.11L1114.79 58.3V66H1113.37V56H1115.11L1118.67 64.24L1122.21 56H1123.95V66H1122.53V58.3L1119.21 66ZM1140.4 60.98C1140.4 64.02 1138.46 66.16 1135.68 66.16C1132.9 66.16 1130.96 64.02 1130.96 60.98C1130.96 57.94 1132.9 55.8 1135.68 55.8C1138.46 55.8 1140.4 57.94 1140.4 60.98ZM1132.38 60.98C1132.38 63.38 1133.68 64.9 1135.68 64.9C1137.68 64.9 1138.98 63.38 1138.98 60.98C1138.98 58.6 1137.68 57.1 1135.68 57.1C1133.68 57.1 1132.38 58.6 1132.38 60.98ZM1147.26 70V66.14C1143.94 65.9 1141.88 63.96 1141.88 60.98C1141.88 58 1143.94 56.06 1147.26 55.82V52H1148.68V55.82C1152 56.06 1154.04 58 1154.04 60.98C1154.04 63.96 1152 65.9 1148.68 66.14V70H1147.26ZM1143.28 61C1143.28 63.2 1144.8 64.64 1147.26 64.86V57.14C1144.8 57.36 1143.28 58.8 1143.28 61ZM1152.64 61C1152.64 58.8 1151.14 57.36 1148.68 57.14V64.86C1151.14 64.64 1152.64 63.2 1152.64 61ZM1155.53 60.98C1155.53 57.94 1157.47 55.8 1160.25 55.8C1163.03 55.8 1164.97 57.94 1164.97 60.98V61.36H1156.97C1157.09 63.52 1158.35 64.86 1160.25 64.86C1161.73 64.86 1162.79 64.08 1163.21 62.72L1164.59 62.96C1164.03 64.9 1162.41 66.16 1160.25 66.16C1157.47 66.16 1155.53 64.02 1155.53 60.98ZM1160.25 57.1C1158.47 57.1 1157.25 58.28 1157.01 60.2H1163.51C1163.27 58.26 1162.03 57.1 1160.25 57.1ZM1168.25 64.62V70H1166.83V58.8C1166.83 57.46 1166.81 56.72 1166.73 56H1167.95C1168.07 56.44 1168.19 57.06 1168.25 57.5C1169.03 56.52 1170.19 55.8 1171.55 55.8C1174.13 55.8 1175.93 57.96 1175.93 61.02C1175.93 64.06 1174.13 66.2 1171.55 66.2C1170.23 66.2 1169.05 65.64 1168.25 64.62ZM1168.25 60.72V61.38C1168.25 63.22 1169.33 64.9 1171.27 64.9C1173.29 64.9 1174.51 63.4 1174.51 61.02C1174.51 58.6 1173.29 57.06 1171.27 57.06C1169.41 57.06 1168.25 58.78 1168.25 60.72ZM1185.7 66H1184.48C1184.34 65.5 1184.24 65 1184.18 64.5C1183.5 65.48 1182.5 66.18 1181.06 66.18C1178.98 66.18 1177.52 64.92 1177.52 63.12C1177.52 61.32 1179 60.38 1181.58 60.08L1184.18 59.78V59.18C1184.18 57.94 1183.26 57.1 1181.94 57.1C1180.68 57.1 1179.76 57.6 1179.42 58.6L1178.04 58.36C1178.54 56.76 1180 55.8 1181.94 55.8C1184.16 55.8 1185.6 57.26 1185.6 59.48V63.2C1185.6 64.54 1185.62 65.28 1185.7 66ZM1181.18 64.92C1183.04 64.92 1184.18 63.7 1184.18 61.98V60.9L1181.56 61.22C1179.94 61.42 1178.94 62.02 1178.94 63.12C1178.94 64.16 1179.86 64.92 1181.18 64.92Z" fill="black" fill-opacity="0.9"/>
<path fill-rule="evenodd" clip-rule="evenodd" d="M1113 170C1121 170 1125 154 1137 154H1089C1101 154 1105 170 1113 170Z" fill="#F2F2F2"/>
</svg>
