<svg width="1233" height="224" viewBox="0 0 1233 224" fill="none" xmlns="http://www.w3.org/2000/svg">
<mask id="path-1-inside-1_843_14045" fill="white">
<path d="M0 40C0 17.9086 17.9086 0 40 0C62.0914 0 80 17.9086 80 40C80 62.0914 62.0914 80 40 80C17.9086 80 0 62.0914 0 40Z"/>
</mask>
<path d="M40 78C19.0132 78 2 60.9868 2 40H-2C-2 63.196 16.804 82 40 82V78ZM78 40C78 60.9868 60.9868 78 40 78V82C63.196 82 82 63.196 82 40H78ZM40 2C60.9868 2 78 19.0132 78 40H82C82 16.804 63.196 -2 40 -2V2ZM40 -2C16.804 -2 -2 16.804 -2 40H2C2 19.0132 19.0132 2 40 2V-2Z" fill="url(#paint0_linear_843_14045)" mask="url(#path-1-inside-1_843_14045)"/>
<path fill-rule="evenodd" clip-rule="evenodd" d="M39 33C35.6863 33 33 35.6863 33 39C33 42.3137 35.6863 45 39 45C42.3137 45 45 42.3137 45 39C45 35.6863 42.3137 33 39 33ZM31 39C31 34.5817 34.5817 31 39 31C43.4183 31 47 34.5817 47 39C47 40.8487 46.3729 42.551 45.3199 43.9056L48.7071 47.2929C49.0976 47.6834 49.0976 48.3166 48.7071 48.7071C48.3166 49.0976 47.6834 49.0976 47.2929 48.7071L43.9056 45.3199C42.551 46.3729 40.8487 47 39 47C34.5817 47 31 43.4183 31 39Z" fill="url(#paint1_linear_843_14045)" stroke="url(#paint2_linear_843_14045)" stroke-linecap="round" stroke-linejoin="round"/>
<path d="M0.84 132.2V126.152H1.428C3.024 126.152 4.032 125.06 4.172 123.436L5.544 108.4H16.94V126.152H19.18V132.2H17.108V128H2.912V132.2H0.84ZM6.188 123.66C6.104 124.752 5.74 125.564 5.152 126.152H14.868V110.248H7.392L6.188 123.66ZM34.3516 120.972C34.3516 125.228 31.6356 128.224 27.7436 128.224C23.8516 128.224 21.1356 125.228 21.1356 120.972C21.1356 116.716 23.8516 113.72 27.7436 113.72C31.6356 113.72 34.3516 116.716 34.3516 120.972ZM23.1236 120.972C23.1236 124.332 24.9436 126.46 27.7436 126.46C30.5436 126.46 32.3636 124.332 32.3636 120.972C32.3636 117.64 30.5436 115.54 27.7436 115.54C24.9436 115.54 23.1236 117.64 23.1236 120.972ZM40.8688 114H49.5768V128H47.5888V115.652H42.5768L41.5968 124.136C41.3168 126.46 40.0848 128 37.8168 128H36.4448V126.348H37.5928C38.9928 126.348 39.5808 125.396 39.7488 123.94L40.8688 114ZM52.9495 114H62.5255V115.652H54.9375V128H52.9495V114ZM65.4456 114H67.4336V125.116L74.9936 114H76.9816V128H74.9936V116.884L67.4336 128H65.4456V114ZM80.348 114H82.336V125.116L89.896 114H91.884V128H89.896V116.884L82.336 128H80.348V114ZM86.116 112.88C84.156 112.88 82.616 111.396 82.616 109.52H84.044C84.044 110.528 84.968 111.368 86.116 111.368C87.236 111.368 88.16 110.528 88.16 109.52H89.588C89.588 111.396 88.048 112.88 86.116 112.88ZM102.25 114H113.786V128H111.798V115.652H104.238V128H102.25V114ZM129.672 120.972C129.672 125.228 126.956 128.224 123.064 128.224C119.172 128.224 116.456 125.228 116.456 120.972C116.456 116.716 119.172 113.72 123.064 113.72C126.956 113.72 129.672 116.716 129.672 120.972ZM118.444 120.972C118.444 124.332 120.264 126.46 123.064 126.46C125.864 126.46 127.684 124.332 127.684 120.972C127.684 117.64 125.864 115.54 123.064 115.54C120.264 115.54 118.444 117.64 118.444 120.972ZM132.465 114H134.453V125.116L142.013 114H144.001V128H142.013V116.884L134.453 128H132.465V114ZM146.808 120.972C146.808 116.716 149.524 113.72 153.416 113.72C156.44 113.72 158.708 115.54 159.492 118.312L157.56 118.648C157 116.688 155.488 115.54 153.416 115.54C150.616 115.54 148.796 117.64 148.796 120.972C148.796 124.304 150.616 126.404 153.416 126.404C155.488 126.404 156.972 125.312 157.56 123.408L159.492 123.744C158.708 126.46 156.44 128.224 153.416 128.224C149.524 128.224 146.808 125.228 146.808 120.972ZM162.106 128V114H164.094V120.608L170.366 114H172.718L167.51 119.544L173.502 128H171.178L166.194 120.944L164.094 123.184V128H162.106ZM1.68 149H13.216V163H11.228V150.652H3.668V163H1.68V149ZM29.1016 155.972C29.1016 160.228 26.3856 163.224 22.4936 163.224C18.6016 163.224 15.8856 160.228 15.8856 155.972C15.8856 151.716 18.6016 148.72 22.4936 148.72C26.3856 148.72 29.1016 151.716 29.1016 155.972ZM17.8736 155.972C17.8736 159.332 19.6936 161.46 22.4936 161.46C25.2936 161.46 27.1136 159.332 27.1136 155.972C27.1136 152.64 25.2936 150.54 22.4936 150.54C19.6936 150.54 17.8736 152.64 17.8736 155.972ZM35.0868 149H43.7948V161.348H45.5028V166.08H43.5148V163H33.0428V166.08H31.0548V161.348H31.8108C33.2108 161.348 33.7988 160.396 33.9668 158.94L35.0868 149ZM35.8148 159.136C35.7028 160.004 35.4788 160.732 35.1148 161.348H41.8068V150.652H36.7948L35.8148 159.136ZM52.5917 155.804L47.6077 149H49.9037L53.6837 154.432L57.4357 149H59.7317L54.7757 155.804L60.0117 163H57.7157L53.6837 157.204L49.6237 163H47.3277L52.5917 155.804ZM75.3126 155.972C75.3126 160.228 72.5966 163.224 68.7046 163.224C64.8126 163.224 62.0966 160.228 62.0966 155.972C62.0966 151.716 64.8126 148.72 68.7046 148.72C72.5966 148.72 75.3126 151.716 75.3126 155.972ZM64.0846 155.972C64.0846 159.332 65.9046 161.46 68.7046 161.46C71.5046 161.46 73.3246 159.332 73.3246 155.972C73.3246 152.64 71.5046 150.54 68.7046 150.54C65.9046 150.54 64.0846 152.64 64.0846 155.972ZM81.2978 149H90.0058V161.348H91.7138V166.08H89.7258V163H79.2538V166.08H77.2658V161.348H78.0218C79.4218 161.348 80.0098 160.396 80.1778 158.94L81.2978 149ZM82.0258 159.136C81.9138 160.004 81.6898 160.732 81.3258 161.348H88.0178V150.652H83.0058L82.0258 159.136ZM104.683 163H102.695V157.652H98.8026L95.5546 163H93.2586L96.7026 157.372C94.8826 156.728 93.9586 155.048 93.9586 153.34C93.9586 151.156 95.4426 149 98.3826 149H104.683V163ZM102.695 156V150.652H98.6346C96.8706 150.652 95.9746 151.996 95.9746 153.34C95.9746 154.684 96.8426 156 98.6346 156H102.695ZM125.158 163H107.91V149H109.898V161.348H115.498V149H117.486V161.348H123.086V149H125.074V161.348H127.146V166.08H125.158V163ZM129.116 155.972C129.116 151.716 131.832 148.72 135.724 148.72C139.616 148.72 142.332 151.716 142.332 155.972V156.504H131.132C131.3 159.528 133.064 161.404 135.724 161.404C137.796 161.404 139.28 160.312 139.868 158.408L141.8 158.744C141.016 161.46 138.748 163.224 135.724 163.224C131.832 163.224 129.116 160.228 129.116 155.972ZM135.724 150.54C133.232 150.54 131.524 152.192 131.188 154.88H140.288C139.952 152.164 138.216 150.54 135.724 150.54ZM144.934 149H154.51V150.652H146.922V163H144.934V149ZM170.086 155.972C170.086 160.228 167.37 163.224 163.478 163.224C159.586 163.224 156.87 160.228 156.87 155.972C156.87 151.716 159.586 148.72 163.478 148.72C167.37 148.72 170.086 151.716 170.086 155.972ZM158.858 155.972C158.858 159.332 160.678 161.46 163.478 161.46C166.278 161.46 168.098 159.332 168.098 155.972C168.098 152.64 166.278 150.54 163.478 150.54C160.678 150.54 158.858 152.64 158.858 155.972ZM1.68 198V184H3.668V190.608L9.94 184H12.292L7.084 189.544L13.076 198H10.752L5.768 190.944L3.668 193.184V198H1.68ZM26.3533 198H24.6453C24.4493 197.3 24.3093 196.6 24.2253 195.9C23.2733 197.272 21.8733 198.252 19.8573 198.252C16.9453 198.252 14.9013 196.488 14.9013 193.968C14.9013 191.448 16.9733 190.132 20.5853 189.712L24.2253 189.292V188.452C24.2253 186.716 22.9373 185.54 21.0893 185.54C19.3253 185.54 18.0373 186.24 17.5613 187.64L15.6292 187.304C16.3293 185.064 18.3733 183.72 21.0893 183.72C24.1973 183.72 26.2133 185.764 26.2133 188.872V194.08C26.2133 195.956 26.2413 196.992 26.3533 198ZM20.0253 196.488C22.6293 196.488 24.2253 194.78 24.2253 192.372V190.86L20.5573 191.308C18.2893 191.588 16.8893 192.428 16.8893 193.968C16.8893 195.424 18.1773 196.488 20.0253 196.488ZM29.5706 184H31.5586V190.16H39.1186V184H41.1066V198H39.1186V191.812H31.5586V198H29.5706V184ZM47.665 184H56.373V196.348H58.081V201.08H56.093V198H45.621V201.08H43.633V196.348H44.389C45.789 196.348 46.377 195.396 46.545 193.94L47.665 184ZM48.393 194.136C48.281 195.004 48.057 195.732 47.693 196.348H54.385V185.652H49.373L48.393 194.136ZM60.6058 184H62.5938V195.116L70.1538 184H72.1418V198H70.1538V186.884L62.5938 198H60.6058V184ZM78.7001 184H87.4081V196.348H89.1161V201.08H87.1281V198H76.6561V201.08H74.6681V196.348H75.4241C76.8241 196.348 77.4121 195.396 77.5801 193.94L78.7001 184ZM79.4281 194.136C79.3161 195.004 79.0921 195.732 78.7281 196.348H85.4201V185.652H80.4081L79.4281 194.136ZM102.533 198H100.825C100.629 197.3 100.489 196.6 100.405 195.9C99.4529 197.272 98.0529 198.252 96.0369 198.252C93.1249 198.252 91.0809 196.488 91.0809 193.968C91.0809 191.448 93.1529 190.132 96.7649 189.712L100.405 189.292V188.452C100.405 186.716 99.1169 185.54 97.2689 185.54C95.5049 185.54 94.2169 186.24 93.7409 187.64L91.8089 187.304C92.5089 185.064 94.5529 183.72 97.2689 183.72C100.377 183.72 102.393 185.764 102.393 188.872V194.08C102.393 195.956 102.421 196.992 102.533 198ZM96.2049 196.488C98.8089 196.488 100.405 194.78 100.405 192.372V190.86L96.7369 191.308C94.4689 191.588 93.0689 192.428 93.0689 193.968C93.0689 195.424 94.3569 196.488 96.2049 196.488ZM105.302 185.652V184H116.838V185.652H112.05V198H110.062V185.652H105.302ZM130.642 198H128.934C128.738 197.3 128.598 196.6 128.514 195.9C127.562 197.272 126.162 198.252 124.146 198.252C121.234 198.252 119.19 196.488 119.19 193.968C119.19 191.448 121.262 190.132 124.874 189.712L128.514 189.292V188.452C128.514 186.716 127.226 185.54 125.378 185.54C123.614 185.54 122.326 186.24 121.85 187.64L119.918 187.304C120.618 185.064 122.662 183.72 125.378 183.72C128.486 183.72 130.502 185.764 130.502 188.872V194.08C130.502 195.956 130.53 196.992 130.642 198ZM124.314 196.488C126.918 196.488 128.514 194.78 128.514 192.372V190.86L124.846 191.308C122.578 191.588 121.178 192.428 121.178 193.968C121.178 195.424 122.466 196.488 124.314 196.488Z" fill="black" fill-opacity="0.9"/>
<mask id="path-6-inside-2_843_14045" fill="white">
<path d="M312.25 40C312.25 17.9086 330.159 0 352.25 0C374.341 0 392.25 17.9086 392.25 40C392.25 62.0914 374.341 80 352.25 80C330.159 80 312.25 62.0914 312.25 40Z"/>
</mask>
<path d="M352.25 78C331.263 78 314.25 60.9868 314.25 40H310.25C310.25 63.196 329.054 82 352.25 82V78ZM390.25 40C390.25 60.9868 373.237 78 352.25 78V82C375.446 82 394.25 63.196 394.25 40H390.25ZM352.25 2C373.237 2 390.25 19.0132 390.25 40H394.25C394.25 16.804 375.446 -2 352.25 -2V2ZM352.25 -2C329.054 -2 310.25 16.804 310.25 40H314.25C314.25 19.0132 331.263 2 352.25 2V-2Z" fill="url(#paint3_linear_843_14045)" mask="url(#path-6-inside-2_843_14045)"/>
<path d="M352.25 47.5C348.108 47.5 344.75 44.1421 344.75 40C344.75 35.8579 348.108 32.5 352.25 32.5C356.392 32.5 359.75 35.8579 359.75 40C359.75 44.1421 356.392 47.5 352.25 47.5Z" stroke="url(#paint4_linear_843_14045)"/>
<path fill-rule="evenodd" clip-rule="evenodd" d="M352.25 32C347.832 32 344.25 35.5817 344.25 40C344.25 44.4183 347.832 48 352.25 48C356.668 48 360.25 44.4183 360.25 40C360.25 35.5817 356.668 32 352.25 32ZM342.25 40C342.25 34.4772 346.727 30 352.25 30C357.773 30 362.25 34.4772 362.25 40C362.25 45.5228 357.773 50 352.25 50C346.727 50 342.25 45.5228 342.25 40Z" fill="url(#paint5_linear_843_14045)"/>
<path fill-rule="evenodd" clip-rule="evenodd" d="M351.75 35C352.302 35 352.75 35.4477 352.75 36V40H356.25C356.802 40 357.25 40.4477 357.25 41C357.25 41.5523 356.802 42 356.25 42H351.75C351.198 42 350.75 41.5523 350.75 41V36C350.75 35.4477 351.198 35 351.75 35Z" fill="url(#paint6_linear_843_14045)"/>
<path d="M315.162 121.28L313.65 120.104C314.686 118.76 316.002 117.612 317.934 117.612C319.054 117.612 319.866 118.06 320.65 118.536C321.406 118.956 322.134 119.376 323.114 119.376C324.29 119.376 324.99 118.788 325.886 117.612L327.398 118.788C326.362 120.132 325.046 121.28 323.114 121.28C321.994 121.28 321.182 120.832 320.398 120.356C319.642 119.936 318.914 119.516 317.934 119.516C316.758 119.516 316.058 120.104 315.162 121.28ZM346.713 111.228L339.237 121.476H346.713V111.228ZM346.713 123.324H336.969V121.476L346.517 108.4H348.785V121.476H351.417V123.324H348.785V128H346.713V123.324ZM371.678 114V128H369.69V121.952C368.71 123.044 367.142 123.744 365.658 123.744C362.774 123.744 360.982 121.756 360.982 118.62V114H362.97V118.62C362.97 120.664 364.062 121.952 365.826 121.952C368.094 121.952 369.69 120.496 369.69 118.396V114H371.678ZM385.744 128H384.036C383.84 127.3 383.7 126.6 383.616 125.9C382.664 127.272 381.264 128.252 379.248 128.252C376.336 128.252 374.292 126.488 374.292 123.968C374.292 121.448 376.364 120.132 379.976 119.712L383.616 119.292V118.452C383.616 116.716 382.328 115.54 380.48 115.54C378.716 115.54 377.428 116.24 376.952 117.64L375.02 117.304C375.72 115.064 377.764 113.72 380.48 113.72C383.588 113.72 385.604 115.764 385.604 118.872V124.08C385.604 125.956 385.632 126.992 385.744 128ZM379.416 126.488C382.02 126.488 383.616 124.78 383.616 122.372V120.86L379.948 121.308C377.68 121.588 376.28 122.428 376.28 123.968C376.28 125.424 377.568 126.488 379.416 126.488ZM388.401 120.972C388.401 116.716 391.117 113.72 395.009 113.72C398.033 113.72 400.301 115.54 401.085 118.312L399.153 118.648C398.593 116.688 397.081 115.54 395.009 115.54C392.209 115.54 390.389 117.64 390.389 120.972C390.389 124.304 392.209 126.404 395.009 126.404C397.081 126.404 398.565 125.312 399.153 123.408L401.085 123.744C400.301 126.46 398.033 128.224 395.009 128.224C391.117 128.224 388.401 125.228 388.401 120.972ZM414.592 128H412.884C412.688 127.3 412.548 126.6 412.464 125.9C411.512 127.272 410.112 128.252 408.096 128.252C405.184 128.252 403.14 126.488 403.14 123.968C403.14 121.448 405.212 120.132 408.824 119.712L412.464 119.292V118.452C412.464 116.716 411.176 115.54 409.328 115.54C407.564 115.54 406.276 116.24 405.8 117.64L403.868 117.304C404.568 115.064 406.612 113.72 409.328 113.72C412.436 113.72 414.452 115.764 414.452 118.872V124.08C414.452 125.956 414.48 126.992 414.592 128ZM408.264 126.488C410.868 126.488 412.464 124.78 412.464 122.372V120.86L408.796 121.308C406.528 121.588 405.128 122.428 405.128 123.968C405.128 125.424 406.416 126.488 408.264 126.488ZM424.809 114H431.305C433.657 114 435.309 115.624 435.309 117.92C435.309 119.012 434.665 120.188 433.769 120.776C435.113 121.336 436.065 122.708 436.065 124.08C436.065 126.376 434.245 128 431.641 128H424.809V114ZM426.797 121.84V126.348H431.389C432.957 126.348 434.049 125.424 434.049 124.08C434.049 122.764 432.957 121.84 431.389 121.84H426.797ZM426.797 115.652V120.16H431.053C432.369 120.16 433.293 119.236 433.293 117.92C433.293 116.576 432.369 115.652 431.053 115.652H426.797ZM448.919 114H457.627V126.348H459.335V131.08H457.347V128H446.875V131.08H444.887V126.348H445.643C447.043 126.348 447.631 125.396 447.799 123.94L448.919 114ZM449.647 124.136C449.535 125.004 449.311 125.732 448.947 126.348H455.639V115.652H450.627L449.647 124.136ZM461.3 120.972C461.3 116.716 464.016 113.72 467.908 113.72C471.8 113.72 474.516 116.716 474.516 120.972V121.504H463.316C463.484 124.528 465.248 126.404 467.908 126.404C469.98 126.404 471.464 125.312 472.052 123.408L473.984 123.744C473.2 126.46 470.932 128.224 467.908 128.224C464.016 128.224 461.3 125.228 461.3 120.972ZM467.908 115.54C465.416 115.54 463.708 117.192 463.372 119.88H472.472C472.136 117.164 470.4 115.54 467.908 115.54ZM477.118 114H479.106V120.16H486.666V114H488.654V128H486.666V121.812H479.106V128H477.118V114ZM492.02 114H494.008V119.348H498.32C501.26 119.348 502.744 121.504 502.744 123.66C502.744 125.844 501.26 128 498.32 128H492.02V114ZM494.008 121V126.348H498.068C499.832 126.348 500.728 125.004 500.728 123.66C500.728 122.316 499.86 121 498.068 121H494.008ZM315.918 161.068V168.6H313.93V152.92C313.93 151.044 313.902 150.008 313.79 149H315.498C315.666 149.616 315.834 150.484 315.918 151.1C317.01 149.728 318.634 148.72 320.538 148.72C324.15 148.72 326.67 151.744 326.67 156.028C326.67 160.284 324.15 163.28 320.538 163.28C318.69 163.28 317.038 162.496 315.918 161.068ZM315.918 155.608V156.532C315.918 159.108 317.43 161.46 320.146 161.46C322.974 161.46 324.682 159.36 324.682 156.028C324.682 152.64 322.974 150.484 320.146 150.484C317.542 150.484 315.918 152.892 315.918 155.608ZM328.901 155.972C328.901 151.716 331.617 148.72 335.509 148.72C339.401 148.72 342.117 151.716 342.117 155.972V156.504H330.917C331.085 159.528 332.849 161.404 335.509 161.404C337.581 161.404 339.065 160.312 339.653 158.408L341.585 158.744C340.801 161.46 338.533 163.224 335.509 163.224C331.617 163.224 328.901 160.228 328.901 155.972ZM335.509 150.54C333.017 150.54 331.309 152.192 330.973 154.88H340.073C339.737 152.164 338.001 150.54 335.509 150.54ZM344.719 163V149H346.707V155.608L352.979 149H355.331L350.123 154.544L356.115 163H353.791L348.807 155.944L346.707 158.184V163H344.719ZM360.488 161.068V168.6H358.5V152.92C358.5 151.044 358.472 150.008 358.36 149H360.068C360.236 149.616 360.404 150.484 360.488 151.1C361.58 149.728 363.204 148.72 365.108 148.72C368.72 148.72 371.24 151.744 371.24 156.028C371.24 160.284 368.72 163.28 365.108 163.28C363.26 163.28 361.608 162.496 360.488 161.068ZM360.488 155.608V156.532C360.488 159.108 362 161.46 364.716 161.46C367.544 161.46 369.252 159.36 369.252 156.028C369.252 152.64 367.544 150.484 364.716 150.484C362.112 150.484 360.488 152.892 360.488 155.608ZM378.232 164.008L378.624 163L373.192 149H375.208L379.548 160.508L383.944 149H385.932L380.08 164.12C379.24 166.332 378.316 168.852 375.152 168.852C374.592 168.852 373.976 168.796 373.304 168.656V166.892C373.976 167.06 374.536 167.116 374.984 167.116C377.028 167.116 377.7 165.492 378.232 164.008ZM387.994 150.652V149H399.53V150.652H394.742V163H392.754V150.652H387.994ZM401.882 155.972C401.882 151.716 404.598 148.72 408.49 148.72C412.382 148.72 415.098 151.716 415.098 155.972V156.504H403.898C404.066 159.528 405.83 161.404 408.49 161.404C410.562 161.404 412.046 160.312 412.634 158.408L414.566 158.744C413.782 161.46 411.514 163.224 408.49 163.224C404.598 163.224 401.882 160.228 401.882 155.972ZM408.49 150.54C405.998 150.54 404.29 152.192 403.954 154.88H413.054C412.718 152.164 410.982 150.54 408.49 150.54ZM419.688 161.068V168.6H417.7V152.92C417.7 151.044 417.672 150.008 417.56 149H419.268C419.436 149.616 419.604 150.484 419.688 151.1C420.78 149.728 422.404 148.72 424.308 148.72C427.92 148.72 430.44 151.744 430.44 156.028C430.44 160.284 427.92 163.28 424.308 163.28C422.46 163.28 420.808 162.496 419.688 161.068ZM419.688 155.608V156.532C419.688 159.108 421.2 161.46 423.916 161.46C426.744 161.46 428.452 159.36 428.452 156.028C428.452 152.64 426.744 150.484 423.916 150.484C421.312 150.484 419.688 152.892 419.688 155.608ZM439.783 150.652V149H451.319V150.652H446.531V163H444.543V150.652H439.783ZM456.219 161.068V168.6H454.231V152.92C454.231 151.044 454.203 150.008 454.091 149H455.799C455.967 149.616 456.135 150.484 456.219 151.1C457.311 149.728 458.935 148.72 460.839 148.72C464.451 148.72 466.971 151.744 466.971 156.028C466.971 160.284 464.451 163.28 460.839 163.28C458.991 163.28 457.339 162.496 456.219 161.068ZM456.219 155.608V156.532C456.219 159.108 457.731 161.46 460.447 161.46C463.275 161.46 464.983 159.36 464.983 156.028C464.983 152.64 463.275 150.484 460.447 150.484C457.843 150.484 456.219 152.892 456.219 155.608ZM480.654 163H478.946C478.75 162.3 478.61 161.6 478.526 160.9C477.574 162.272 476.174 163.252 474.158 163.252C471.246 163.252 469.202 161.488 469.202 158.968C469.202 156.448 471.274 155.132 474.886 154.712L478.526 154.292V153.452C478.526 151.716 477.238 150.54 475.39 150.54C473.626 150.54 472.338 151.24 471.862 152.64L469.93 152.304C470.63 150.064 472.674 148.72 475.39 148.72C478.498 148.72 480.514 150.764 480.514 153.872V159.08C480.514 160.956 480.542 161.992 480.654 163ZM474.326 161.488C476.93 161.488 478.526 159.78 478.526 157.372V155.86L474.858 156.308C472.59 156.588 471.19 157.428 471.19 158.968C471.19 160.424 472.478 161.488 474.326 161.488ZM483.423 150.652V149H494.959V150.652H490.171V163H488.183V150.652H483.423ZM497.871 149H499.859V160.116L507.419 149H509.407V163H507.419V151.884L499.859 163H497.871V149ZM512.326 150.652V149H523.862V150.652H519.074V163H517.086V150.652H512.326ZM313.93 184H315.918V190.16H323.478V184H325.466V198H323.478V191.812H315.918V198H313.93V184ZM339.724 198H338.016C337.82 197.3 337.68 196.6 337.596 195.9C336.644 197.272 335.244 198.252 333.228 198.252C330.316 198.252 328.272 196.488 328.272 193.968C328.272 191.448 330.344 190.132 333.956 189.712L337.596 189.292V188.452C337.596 186.716 336.308 185.54 334.46 185.54C332.696 185.54 331.408 186.24 330.932 187.64L329 187.304C329.7 185.064 331.744 183.72 334.46 183.72C337.568 183.72 339.584 185.764 339.584 188.872V194.08C339.584 195.956 339.612 196.992 339.724 198ZM333.396 196.488C336 196.488 337.596 194.78 337.596 192.372V190.86L333.928 191.308C331.66 191.588 330.26 192.428 330.26 193.968C330.26 195.424 331.548 196.488 333.396 196.488ZM362.598 190.972C362.598 195.228 359.882 198.224 355.99 198.224C352.098 198.224 349.382 195.228 349.382 190.972C349.382 186.716 352.098 183.72 355.99 183.72C359.882 183.72 362.598 186.716 362.598 190.972ZM351.37 190.972C351.37 194.332 353.19 196.46 355.99 196.46C358.79 196.46 360.61 194.332 360.61 190.972C360.61 187.64 358.79 185.54 355.99 185.54C353.19 185.54 351.37 187.64 351.37 190.972ZM365.391 184H376.927V198H374.939V185.652H367.379V198H365.391V184ZM379.597 190.972C379.597 186.716 382.313 183.72 386.205 183.72C390.097 183.72 392.813 186.716 392.813 190.972V191.504H381.613C381.781 194.528 383.545 196.404 386.205 196.404C388.277 196.404 389.761 195.312 390.349 193.408L392.281 193.744C391.497 196.46 389.229 198.224 386.205 198.224C382.313 198.224 379.597 195.228 379.597 190.972ZM386.205 185.54C383.713 185.54 382.005 187.192 381.669 189.88H390.769C390.433 187.164 388.697 185.54 386.205 185.54ZM397.402 196.068V203.6H395.414V187.92C395.414 186.044 395.386 185.008 395.274 184H396.982C397.15 184.616 397.318 185.484 397.402 186.1C398.494 184.728 400.118 183.72 402.022 183.72C405.634 183.72 408.154 186.744 408.154 191.028C408.154 195.284 405.634 198.28 402.022 198.28C400.174 198.28 398.522 197.496 397.402 196.068ZM397.402 190.608V191.532C397.402 194.108 398.914 196.46 401.63 196.46C404.458 196.46 406.166 194.36 406.166 191.028C406.166 187.64 404.458 185.484 401.63 185.484C399.026 185.484 397.402 187.892 397.402 190.608ZM421.838 198H420.13C419.934 197.3 419.794 196.6 419.71 195.9C418.758 197.272 417.358 198.252 415.342 198.252C412.43 198.252 410.386 196.488 410.386 193.968C410.386 191.448 412.458 190.132 416.07 189.712L419.71 189.292V188.452C419.71 186.716 418.422 185.54 416.574 185.54C414.81 185.54 413.522 186.24 413.046 187.64L411.114 187.304C411.814 185.064 413.858 183.72 416.574 183.72C419.682 183.72 421.698 185.764 421.698 188.872V194.08C421.698 195.956 421.726 196.992 421.838 198ZM415.51 196.488C418.114 196.488 419.71 194.78 419.71 192.372V190.86L416.042 191.308C413.774 191.588 412.374 192.428 412.374 193.968C412.374 195.424 413.662 196.488 415.51 196.488ZM436.591 184V196.348H438.663V201.08H436.675V198H425.055V184H427.043V196.348H434.603V184H436.591ZM441.188 184H443.176V195.116L450.736 184H452.724V198H450.736V186.884L443.176 198H441.188V184ZM468.746 190.972C468.746 195.228 466.03 198.224 462.138 198.224C458.246 198.224 455.53 195.228 455.53 190.972C455.53 186.716 458.246 183.72 462.138 183.72C466.03 183.72 468.746 186.716 468.746 190.972ZM457.518 190.972C457.518 194.332 459.338 196.46 462.138 196.46C464.938 196.46 466.758 194.332 466.758 190.972C466.758 187.64 464.938 185.54 462.138 185.54C459.338 185.54 457.518 187.64 457.518 190.972ZM471.539 184H473.527V190.16H481.087V184H483.075V198H481.087V191.812H473.527V198H471.539V184ZM486.442 198V184H488.43V190.608L494.702 184H497.054L491.846 189.544L497.838 198H495.514L490.53 190.944L488.43 193.184V198H486.442ZM504.423 199.008L504.815 198L499.383 184H501.399L505.739 195.508L510.135 184H512.123L506.271 199.12C505.431 201.332 504.507 203.852 501.343 203.852C500.783 203.852 500.167 203.796 499.495 203.656V201.892C500.167 202.06 500.727 202.116 501.175 202.116C503.219 202.116 503.891 200.492 504.423 199.008Z" fill="black" fill-opacity="0.9"/>
<mask id="path-11-inside-3_843_14045" fill="white">
<path d="M624.5 40C624.5 17.9086 642.409 0 664.5 0C686.591 0 704.5 17.9086 704.5 40C704.5 62.0914 686.591 80 664.5 80C642.409 80 624.5 62.0914 624.5 40Z"/>
</mask>
<path d="M664.5 78C643.513 78 626.5 60.9868 626.5 40H622.5C622.5 63.196 641.304 82 664.5 82V78ZM702.5 40C702.5 60.9868 685.487 78 664.5 78V82C687.696 82 706.5 63.196 706.5 40H702.5ZM664.5 2C685.487 2 702.5 19.0132 702.5 40H706.5C706.5 16.804 687.696 -2 664.5 -2V2ZM664.5 -2C641.304 -2 622.5 16.804 622.5 40H626.5C626.5 19.0132 643.513 2 664.5 2V-2Z" fill="url(#paint7_linear_843_14045)" mask="url(#path-11-inside-3_843_14045)"/>
<path fill-rule="evenodd" clip-rule="evenodd" d="M670.225 49.5H672.148C674.033 49.5 675.5 47.9255 675.5 46.0605C675.5 45.1492 675.212 44.1156 674.384 43.4064C673.342 42.5139 671.376 41.2778 668.5 41.2778C668.04 41.2778 668.414 41.2207 668 41.2778C668.983 41.7912 669.801 42.619 670.5 43.5C672.008 43.7851 672.463 44.3943 673.083 44.9252C673.33 45.1373 673.5 45.5251 673.5 46.0605C673.5 46.8901 672.861 47.5 672.148 47.5H670.948C670.845 48.225 670.593 48.9022 670.225 49.5ZM666.223 39.4653C666.885 39.8744 667.662 40.1111 668.5 40.1111C670.98 40.1111 672.929 38.0369 672.929 35.5556C672.929 33.0742 670.98 31 668.5 31C667.918 31 667.365 31.1143 666.86 31.3214C667.237 31.8703 667.532 32.4801 667.728 33.1331C667.972 33.0466 668.232 33 668.5 33C669.807 33 670.929 34.1096 670.929 35.5556C670.929 37.0015 669.807 38.1111 668.5 38.1111C668.093 38.1111 667.704 38.0037 667.362 37.8121C667.069 38.422 666.683 38.9792 666.223 39.4653Z" fill="url(#paint8_linear_843_14045)"/>
<path fill-rule="evenodd" clip-rule="evenodd" d="M661.5 32C659.843 32 658.5 33.3431 658.5 35C658.5 36.6569 659.843 38 661.5 38C663.157 38 664.5 36.6569 664.5 35C664.5 33.3431 663.157 32 661.5 32ZM656.5 35C656.5 32.2386 658.739 30 661.5 30C664.261 30 666.5 32.2386 666.5 35C666.5 37.7614 664.261 40 661.5 40C658.739 40 656.5 37.7614 656.5 35ZM661.5 43C658.796 43 656.978 44.1129 656.031 44.895C655.701 45.1682 655.5 45.6414 655.5 46.2555C655.5 47.219 656.281 48 657.244 48H665.756C666.719 48 667.5 47.219 667.5 46.2555C667.5 45.6413 667.299 45.1682 666.969 44.895C666.022 44.1129 664.204 43 661.5 43ZM654.758 43.3531C655.955 42.3642 658.207 41 661.5 41C664.793 41 667.045 42.3642 668.242 43.3531C669.166 44.1163 669.5 45.2422 669.5 46.2555C669.5 48.3235 667.824 50 665.756 50H657.244C655.176 50 653.5 48.3235 653.5 46.2555C653.5 45.2422 653.834 44.1163 654.758 43.3531Z" fill="url(#paint9_linear_843_14045)"/>
<path fill-rule="evenodd" clip-rule="evenodd" d="M670.225 49.5H672.148C674.033 49.5 675.5 47.9255 675.5 46.0605C675.5 45.1492 675.212 44.1156 674.384 43.4064C673.342 42.5139 671.376 41.2778 668.5 41.2778C668.04 41.2778 668.414 41.2207 668 41.2778C668.983 41.7912 669.801 42.619 670.5 43.5C672.008 43.7851 672.463 44.3943 673.083 44.9252C673.33 45.1373 673.5 45.5251 673.5 46.0605C673.5 46.8901 672.861 47.5 672.148 47.5H670.948C670.845 48.225 670.593 48.9022 670.225 49.5ZM666.223 39.4653C666.885 39.8744 667.662 40.1111 668.5 40.1111C670.98 40.1111 672.929 38.0369 672.929 35.5556C672.929 33.0742 670.98 31 668.5 31C667.918 31 667.365 31.1143 666.86 31.3214C667.237 31.8703 667.532 32.4801 667.728 33.1331C667.972 33.0466 668.232 33 668.5 33C669.807 33 670.929 34.1096 670.929 35.5556C670.929 37.0015 669.807 38.1111 668.5 38.1111C668.093 38.1111 667.704 38.0037 667.362 37.8121C667.069 38.422 666.683 38.9792 666.223 39.4653Z" stroke="url(#paint10_linear_843_14045)"/>
<path fill-rule="evenodd" clip-rule="evenodd" d="M661.5 32C659.843 32 658.5 33.3431 658.5 35C658.5 36.6569 659.843 38 661.5 38C663.157 38 664.5 36.6569 664.5 35C664.5 33.3431 663.157 32 661.5 32ZM656.5 35C656.5 32.2386 658.739 30 661.5 30C664.261 30 666.5 32.2386 666.5 35C666.5 37.7614 664.261 40 661.5 40C658.739 40 656.5 37.7614 656.5 35ZM661.5 43C658.796 43 656.978 44.1129 656.031 44.895C655.701 45.1682 655.5 45.6414 655.5 46.2555C655.5 47.219 656.281 48 657.244 48H665.756C666.719 48 667.5 47.219 667.5 46.2555C667.5 45.6413 667.299 45.1682 666.969 44.895C666.022 44.1129 664.204 43 661.5 43ZM654.758 43.3531C655.955 42.3642 658.207 41 661.5 41C664.793 41 667.045 42.3642 668.242 43.3531C669.166 44.1163 669.5 45.2422 669.5 46.2555C669.5 48.3235 667.824 50 665.756 50H657.244C655.176 50 653.5 48.3235 653.5 46.2555C653.5 45.2422 653.834 44.1163 654.758 43.3531Z" stroke="url(#paint11_linear_843_14045)"/>
<path d="M626.18 118.228C626.18 112.32 629.96 108.176 635.308 108.176C639.424 108.176 642.448 110.388 643.568 113.916L641.58 114.616C640.796 111.788 638.5 110.108 635.308 110.108C631.192 110.108 628.308 113.468 628.308 118.228C628.308 122.988 631.192 126.348 635.308 126.348C638.724 126.348 641.02 124.444 641.58 121.28L643.568 121.98C642.672 125.844 639.648 128.28 635.308 128.28C629.96 128.28 626.18 124.136 626.18 118.228ZM650.084 114H658.792V128H656.804V115.652H651.792L650.812 124.136C650.532 126.46 649.3 128 647.032 128H645.66V126.348H646.808C648.208 126.348 648.796 125.396 648.964 123.94L650.084 114ZM674.82 120.972C674.82 125.228 672.104 128.224 668.212 128.224C664.32 128.224 661.604 125.228 661.604 120.972C661.604 116.716 664.32 113.72 668.212 113.72C672.104 113.72 674.82 116.716 674.82 120.972ZM663.592 120.972C663.592 124.332 665.412 126.46 668.212 126.46C671.012 126.46 672.832 124.332 672.832 120.972C672.832 117.64 671.012 115.54 668.212 115.54C665.412 115.54 663.592 117.64 663.592 120.972ZM685.426 128V123.38L683.27 120.86L678.93 128H676.634L681.982 119.32L677.446 114H679.742L685.426 120.72V114H687.414V120.72L693.098 114H695.394L690.858 119.32L696.206 128H693.91L689.57 120.86L687.414 123.38V128H685.426ZM698.586 114H700.574V120.16H708.134V114H710.122V128H708.134V121.812H700.574V128H698.586V114ZM726.145 120.972C726.145 125.228 723.429 128.224 719.537 128.224C715.645 128.224 712.929 125.228 712.929 120.972C712.929 116.716 715.645 113.72 719.537 113.72C723.429 113.72 726.145 116.716 726.145 120.972ZM714.917 120.972C714.917 124.332 716.737 126.46 719.537 126.46C722.337 126.46 724.157 124.332 724.157 120.972C724.157 117.64 722.337 115.54 719.537 115.54C716.737 115.54 714.917 117.64 714.917 120.972ZM735.938 114H742.434C744.786 114 746.438 115.624 746.438 117.92C746.438 119.012 745.794 120.188 744.898 120.776C746.242 121.336 747.194 122.708 747.194 124.08C747.194 126.376 745.374 128 742.77 128H735.938V114ZM737.926 121.84V126.348H742.518C744.086 126.348 745.178 125.424 745.178 124.08C745.178 122.764 744.086 121.84 742.518 121.84H737.926ZM737.926 115.652V120.16H742.182C743.498 120.16 744.422 119.236 744.422 117.92C744.422 116.576 743.498 115.652 742.182 115.652H737.926ZM749.856 114H751.844V119.348H756.156C759.096 119.348 760.58 121.504 760.58 123.66C760.58 125.844 759.096 128 756.156 128H749.856V114ZM751.844 121V126.348H755.904C757.668 126.348 758.564 125.004 758.564 123.66C758.564 122.316 757.696 121 755.904 121H751.844ZM763.212 128V114H765.2V128H763.212ZM769.987 120.328V120.832C769.987 124.22 771.555 126.376 774.383 126.376C777.211 126.376 778.751 124.22 778.751 120.832C778.751 117.5 777.043 115.4 774.215 115.4C771.499 115.4 769.987 117.752 769.987 120.328ZM767.999 120.524V116.548C767.999 111.592 770.743 108.68 775.391 108.26C776.679 108.148 777.939 108.036 779.227 107.364V109.072C777.939 109.744 776.679 109.856 775.391 109.968C771.807 110.276 769.987 112.6 769.987 115.54V115.792C771.107 114.364 772.759 113.58 774.607 113.58C778.219 113.58 780.739 116.576 780.739 120.832C780.739 125.116 778.331 128.14 774.383 128.14C770.435 128.14 767.999 125.2 767.999 120.524ZM785.531 126.068V133.6H783.543V117.92C783.543 116.044 783.515 115.008 783.403 114H785.111C785.279 114.616 785.447 115.484 785.531 116.1C786.623 114.728 788.247 113.72 790.151 113.72C793.763 113.72 796.283 116.744 796.283 121.028C796.283 125.284 793.763 128.28 790.151 128.28C788.303 128.28 786.651 127.496 785.531 126.068ZM785.531 120.608V121.532C785.531 124.108 787.043 126.46 789.759 126.46C792.587 126.46 794.295 124.36 794.295 121.028C794.295 117.64 792.587 115.484 789.759 115.484C787.155 115.484 785.531 117.892 785.531 120.608ZM809.967 128H808.259C808.063 127.3 807.923 126.6 807.839 125.9C806.887 127.272 805.487 128.252 803.471 128.252C800.559 128.252 798.515 126.488 798.515 123.968C798.515 121.448 800.587 120.132 804.199 119.712L807.839 119.292V118.452C807.839 116.716 806.551 115.54 804.703 115.54C802.939 115.54 801.651 116.24 801.175 117.64L799.243 117.304C799.943 115.064 801.987 113.72 804.703 113.72C807.811 113.72 809.827 115.764 809.827 118.872V124.08C809.827 125.956 809.855 126.992 809.967 128ZM803.639 126.488C806.243 126.488 807.839 124.78 807.839 122.372V120.86L804.171 121.308C801.903 121.588 800.503 122.428 800.503 123.968C800.503 125.424 801.791 126.488 803.639 126.488ZM812.736 115.652V114H824.272V115.652H819.484V128H817.496V115.652H812.736ZM827.184 114H829.172V119.348H833.484C836.424 119.348 837.908 121.504 837.908 123.66C837.908 125.844 836.424 128 833.484 128H827.184V114ZM829.172 121V126.348H833.232C834.996 126.348 835.892 125.004 835.892 123.66C835.892 122.316 835.024 121 833.232 121H829.172ZM625.62 155.972C625.62 151.716 628.336 148.72 632.228 148.72C635.252 148.72 637.52 150.54 638.304 153.312L636.372 153.648C635.812 151.688 634.3 150.54 632.228 150.54C629.428 150.54 627.608 152.64 627.608 155.972C627.608 159.304 629.428 161.404 632.228 161.404C634.3 161.404 635.784 160.312 636.372 158.408L638.304 158.744C637.52 161.46 635.252 163.224 632.228 163.224C628.336 163.224 625.62 160.228 625.62 155.972ZM642.906 161.068V168.6H640.918V152.92C640.918 151.044 640.89 150.008 640.778 149H642.486C642.654 149.616 642.822 150.484 642.906 151.1C643.998 149.728 645.622 148.72 647.526 148.72C651.138 148.72 653.658 151.744 653.658 156.028C653.658 160.284 651.138 163.28 647.526 163.28C645.678 163.28 644.026 162.496 642.906 161.068ZM642.906 155.608V156.532C642.906 159.108 644.418 161.46 647.134 161.46C649.962 161.46 651.67 159.36 651.67 156.028C651.67 152.64 649.962 150.484 647.134 150.484C644.53 150.484 642.906 152.892 642.906 155.608ZM655.89 155.972C655.89 151.716 658.606 148.72 662.498 148.72C666.39 148.72 669.106 151.716 669.106 155.972V156.504H657.906C658.074 159.528 659.838 161.404 662.498 161.404C664.57 161.404 666.054 160.312 666.642 158.408L668.574 158.744C667.79 161.46 665.522 163.224 662.498 163.224C658.606 163.224 655.89 160.228 655.89 155.972ZM662.498 150.54C660.006 150.54 658.298 152.192 657.962 154.88H667.062C666.726 152.164 664.99 150.54 662.498 150.54ZM674.899 149H683.607V161.348H685.315V166.08H683.327V163H672.855V166.08H670.867V161.348H671.623C673.023 161.348 673.611 160.396 673.779 158.94L674.899 149ZM675.627 159.136C675.515 160.004 675.291 160.732 674.927 161.348H681.619V150.652H676.607L675.627 159.136ZM687.84 149H689.828V160.116L697.388 149H699.376V163H697.388V151.884L689.828 163H687.84V149ZM713.467 149H722.175V163H720.187V150.652H715.175L714.195 159.136C713.915 161.46 712.683 163 710.415 163H709.043V161.348H710.191C711.591 161.348 712.178 160.396 712.347 158.94L713.467 149ZM729.747 164.008L730.139 163L724.707 149H726.723L731.063 160.508L735.459 149H737.447L731.595 164.12C730.755 166.332 729.831 168.852 726.667 168.852C726.107 168.852 725.491 168.796 724.819 168.656V166.892C725.491 167.06 726.051 167.116 726.499 167.116C728.543 167.116 729.215 165.492 729.747 164.008ZM750.373 149V163H748.385V156.952C747.405 158.044 745.837 158.744 744.353 158.744C741.469 158.744 739.677 156.756 739.677 153.62V149H741.665V153.62C741.665 155.664 742.757 156.952 744.521 156.952C746.789 156.952 748.385 155.496 748.385 153.396V149H750.373ZM770.711 163H753.547V149H755.535V161.348H761.135V149H763.123V161.348H768.723V149H770.711V163ZM773.522 155.972C773.522 151.716 776.238 148.72 780.13 148.72C784.022 148.72 786.738 151.716 786.738 155.972V156.504H775.538C775.706 159.528 777.47 161.404 780.13 161.404C782.202 161.404 783.686 160.312 784.274 158.408L786.206 158.744C785.422 161.46 783.154 163.224 780.13 163.224C776.238 163.224 773.522 160.228 773.522 155.972ZM780.13 150.54C777.638 150.54 775.93 152.192 775.594 154.88H784.694C784.358 152.164 782.622 150.54 780.13 150.54ZM789.34 149H798.916V150.652H791.328V163H789.34V149ZM814.492 155.972C814.492 160.228 811.776 163.224 807.884 163.224C803.992 163.224 801.276 160.228 801.276 155.972C801.276 151.716 803.992 148.72 807.884 148.72C811.776 148.72 814.492 151.716 814.492 155.972ZM803.264 155.972C803.264 159.332 805.084 161.46 807.884 161.46C810.684 161.46 812.504 159.332 812.504 155.972C812.504 152.64 810.684 150.54 807.884 150.54C805.084 150.54 803.264 152.64 803.264 155.972ZM625.62 190.972C625.62 186.716 628.336 183.72 632.228 183.72C635.252 183.72 637.52 185.54 638.304 188.312L636.372 188.648C635.812 186.688 634.3 185.54 632.228 185.54C629.428 185.54 627.608 187.64 627.608 190.972C627.608 194.304 629.428 196.404 632.228 196.404C634.3 196.404 635.784 195.312 636.372 193.408L638.304 193.744C637.52 196.46 635.252 198.224 632.228 198.224C628.336 198.224 625.62 195.228 625.62 190.972ZM642.906 196.068V203.6H640.918V187.92C640.918 186.044 640.89 185.008 640.778 184H642.486C642.654 184.616 642.822 185.484 642.906 186.1C643.998 184.728 645.622 183.72 647.526 183.72C651.138 183.72 653.658 186.744 653.658 191.028C653.658 195.284 651.138 198.28 647.526 198.28C645.678 198.28 644.026 197.496 642.906 196.068ZM642.906 190.608V191.532C642.906 194.108 644.418 196.46 647.134 196.46C649.962 196.46 651.67 194.36 651.67 191.028C651.67 187.64 649.962 185.484 647.134 185.484C644.53 185.484 642.906 187.892 642.906 190.608ZM655.89 190.972C655.89 186.716 658.606 183.72 662.498 183.72C666.39 183.72 669.106 186.716 669.106 190.972V191.504H657.906C658.074 194.528 659.838 196.404 662.498 196.404C664.57 196.404 666.054 195.312 666.642 193.408L668.574 193.744C667.79 196.46 665.522 198.224 662.498 198.224C658.606 198.224 655.89 195.228 655.89 190.972ZM662.498 185.54C660.006 185.54 658.298 187.192 657.962 189.88H667.062C666.726 187.164 664.99 185.54 662.498 185.54ZM674.899 184H683.607V196.348H685.315V201.08H683.327V198H672.855V201.08H670.867V196.348H671.623C673.023 196.348 673.611 195.396 673.779 193.94L674.899 184ZM675.627 194.136C675.515 195.004 675.291 195.732 674.927 196.348H681.619V185.652H676.607L675.627 194.136ZM687.84 184H689.828V195.116L697.388 184H699.376V198H697.388V186.884L689.828 198H687.84V184ZM716.547 203.6V198.196C711.899 197.86 709.015 195.144 709.015 190.972C709.015 186.8 711.899 184.084 716.547 183.748V178.4H718.535V183.748C723.183 184.084 726.039 186.8 726.039 190.972C726.039 195.144 723.183 197.86 718.535 198.196V203.6H716.547ZM710.975 191C710.975 194.08 713.103 196.096 716.547 196.404V185.596C713.103 185.904 710.975 187.92 710.975 191ZM724.079 191C724.079 187.92 721.979 185.904 718.535 185.596V196.404C721.979 196.096 724.079 194.08 724.079 191ZM728.692 184H730.68V195.116L738.24 184H740.228V198H738.24V186.884L730.68 198H728.692V184ZM743.594 184H745.582V190.16H753.142V184H755.13V198H753.142V191.812H745.582V198H743.594V184ZM769.388 198H767.68C767.484 197.3 767.344 196.6 767.26 195.9C766.308 197.272 764.908 198.252 762.892 198.252C759.98 198.252 757.936 196.488 757.936 193.968C757.936 191.448 760.008 190.132 763.62 189.712L767.26 189.292V188.452C767.26 186.716 765.972 185.54 764.124 185.54C762.36 185.54 761.072 186.24 760.596 187.64L758.664 187.304C759.364 185.064 761.408 183.72 764.124 183.72C767.232 183.72 769.248 185.764 769.248 188.872V194.08C769.248 195.956 769.276 196.992 769.388 198ZM763.06 196.488C765.664 196.488 767.26 194.78 767.26 192.372V190.86L763.592 191.308C761.324 191.588 759.924 192.428 759.924 193.968C759.924 195.424 761.212 196.488 763.06 196.488ZM776.33 184H785.038V198H783.05V185.652H778.038L777.058 194.136C776.778 196.46 775.546 198 773.278 198H771.906V196.348H773.054C774.454 196.348 775.042 195.396 775.21 193.94L776.33 184ZM788.41 184H790.398V195.116L797.958 184H799.946V198H797.958V186.884L790.398 198H788.41V184ZM802.753 190.972C802.753 186.716 805.469 183.72 809.361 183.72C812.385 183.72 814.653 185.54 815.437 188.312L813.505 188.648C812.945 186.688 811.433 185.54 809.361 185.54C806.561 185.54 804.741 187.64 804.741 190.972C804.741 194.304 806.561 196.404 809.361 196.404C811.433 196.404 812.917 195.312 813.505 193.408L815.437 193.744C814.653 196.46 812.385 198.224 809.361 198.224C805.469 198.224 802.753 195.228 802.753 190.972ZM817.603 185.652V184H829.139V185.652H824.351V198H822.363V185.652H817.603ZM844.707 190.972C844.707 195.228 841.991 198.224 838.099 198.224C834.207 198.224 831.491 195.228 831.491 190.972C831.491 186.716 834.207 183.72 838.099 183.72C841.991 183.72 844.707 186.716 844.707 190.972ZM833.479 190.972C833.479 194.332 835.299 196.46 838.099 196.46C840.899 196.46 842.719 194.332 842.719 190.972C842.719 187.64 840.899 185.54 838.099 185.54C835.299 185.54 833.479 187.64 833.479 190.972ZM847.5 184H853.996C856.348 184 858 185.624 858 187.92C858 189.012 857.356 190.188 856.46 190.776C857.804 191.336 858.756 192.708 858.756 194.08C858.756 196.376 856.936 198 854.332 198H847.5V184ZM849.488 191.84V196.348H854.08C855.648 196.348 856.74 195.424 856.74 194.08C856.74 192.764 855.648 191.84 854.08 191.84H849.488ZM849.488 185.652V190.16H853.744C855.06 190.16 855.984 189.236 855.984 187.92C855.984 186.576 855.06 185.652 853.744 185.652H849.488Z" fill="black" fill-opacity="0.9"/>
<mask id="path-16-inside-4_843_14045" fill="white">
<path d="M936.75 40C936.75 17.9086 954.659 0 976.75 0C998.841 0 1016.75 17.9086 1016.75 40C1016.75 62.0914 998.841 80 976.75 80C954.659 80 936.75 62.0914 936.75 40Z"/>
</mask>
<path d="M976.75 78C955.763 78 938.75 60.9868 938.75 40H934.75C934.75 63.196 953.554 82 976.75 82V78ZM1014.75 40C1014.75 60.9868 997.737 78 976.75 78V82C999.946 82 1018.75 63.196 1018.75 40H1014.75ZM976.75 2C997.737 2 1014.75 19.0132 1014.75 40H1018.75C1018.75 16.804 999.946 -2 976.75 -2V2ZM976.75 -2C953.554 -2 934.75 16.804 934.75 40H938.75C938.75 19.0132 955.763 2 976.75 2V-2Z" fill="url(#paint12_linear_843_14045)" mask="url(#path-16-inside-4_843_14045)"/>
<path fill-rule="evenodd" clip-rule="evenodd" d="M985.066 31.0513C985.475 31.1874 985.75 31.5695 985.75 31.9999V41.9999C985.75 42.8379 985.486 43.804 984.701 44.4737C983.929 45.1317 982.57 45.9999 980.75 45.9999C979.322 45.9999 977.806 45.4485 976.501 44.9735C976.47 44.9622 976.439 44.951 976.408 44.9397C974.984 44.4219 973.788 43.9999 972.75 43.9999C971.776 43.9999 970.978 44.389 970.401 44.8087C970.117 45.015 969.897 45.2214 969.75 45.3746V47.9999C969.75 48.5522 969.302 48.9999 968.75 48.9999C968.198 48.9999 967.75 48.5522 967.75 47.9999V35C967.75 34.162 968.015 33.1959 968.8 32.5262C969.571 31.8682 970.93 31 972.75 30.9999C974.178 30.9999 975.694 31.5514 976.999 32.0263C977.03 32.0376 977.061 32.0489 977.092 32.0601C978.516 32.578 979.712 32.9999 980.75 32.9999C981.724 32.9999 982.522 32.6109 983.099 32.1912C983.386 31.9828 983.607 31.7742 983.755 31.6205C983.828 31.5441 983.882 31.4825 983.915 31.443C983.931 31.4233 983.943 31.4092 983.948 31.4017L983.953 31.3958C984.212 31.0545 984.66 30.9157 985.066 31.0513ZM983.75 34.1548C982.985 34.6086 981.971 34.9999 980.75 34.9999C979.322 34.9999 977.806 34.4485 976.501 33.9735C976.47 33.9622 976.439 33.9509 976.408 33.9397C974.984 33.4218 973.788 32.9999 972.75 32.9999C971.586 33 970.673 33.5568 970.098 34.0477C969.895 34.2206 969.75 34.5397 969.75 35V42.845C970.515 42.3913 971.529 41.9999 972.75 41.9999C974.178 41.9999 975.694 42.5514 976.999 43.0263C977.03 43.0377 977.061 43.0489 977.092 43.0601C978.516 43.578 979.712 43.9999 980.75 43.9999C981.914 43.9999 982.827 43.4431 983.402 42.9522C983.605 42.7793 983.75 42.4602 983.75 41.9999V34.1548Z" fill="url(#paint13_linear_843_14045)" stroke="url(#paint14_linear_843_14045)" stroke-linecap="round"/>
<path d="M938.71 128V108.4H940.782V117.164H951.954V108.4H954.026V128H951.954V119.012H940.782V128H938.71ZM961.853 129.008L962.245 128L956.813 114H958.829L963.169 125.508L967.565 114H969.553L963.701 129.12C962.861 131.332 961.937 133.852 958.773 133.852C958.213 133.852 957.597 133.796 956.925 133.656V131.892C957.597 132.06 958.157 132.116 958.605 132.116C960.649 132.116 961.321 130.492 961.853 129.008ZM979.875 128V123.38L977.719 120.86L973.379 128H971.083L976.431 119.32L971.895 114H974.191L979.875 120.72V114H981.863V120.72L987.547 114H989.843L985.307 119.32L990.655 128H988.359L984.019 120.86L981.863 123.38V128H979.875ZM993.035 114H995.023V120.16H1002.58V114H1004.57V128H1002.58V121.812H995.023V128H993.035V114ZM1020.59 120.972C1020.59 125.228 1017.88 128.224 1013.99 128.224C1010.09 128.224 1007.38 125.228 1007.38 120.972C1007.38 116.716 1010.09 113.72 1013.99 113.72C1017.88 113.72 1020.59 116.716 1020.59 120.972ZM1009.37 120.972C1009.37 124.332 1011.19 126.46 1013.99 126.46C1016.79 126.46 1018.61 124.332 1018.61 120.972C1018.61 117.64 1016.79 115.54 1013.99 115.54C1011.19 115.54 1009.37 117.64 1009.37 120.972ZM1030.39 114H1041.92V128H1039.94V115.652H1032.38V128H1030.39V114ZM1057.81 120.972C1057.81 125.228 1055.09 128.224 1051.2 128.224C1047.31 128.224 1044.59 125.228 1044.59 120.972C1044.59 116.716 1047.31 113.72 1051.2 113.72C1055.09 113.72 1057.81 116.716 1057.81 120.972ZM1046.58 120.972C1046.58 124.332 1048.4 126.46 1051.2 126.46C1054 126.46 1055.82 124.332 1055.82 120.972C1055.82 117.64 1054 115.54 1051.2 115.54C1048.4 115.54 1046.58 117.64 1046.58 120.972ZM1060.04 120.972C1060.04 116.716 1062.76 113.72 1066.65 113.72C1069.67 113.72 1071.94 115.54 1072.73 118.312L1070.79 118.648C1070.23 116.688 1068.72 115.54 1066.65 115.54C1063.85 115.54 1062.03 117.64 1062.03 120.972C1062.03 124.304 1063.85 126.404 1066.65 126.404C1068.72 126.404 1070.21 125.312 1070.79 123.408L1072.73 123.744C1071.94 126.46 1069.67 128.224 1066.65 128.224C1062.76 128.224 1060.04 125.228 1060.04 120.972ZM1074.89 115.652V114H1086.43V115.652H1081.64V128H1079.65V115.652H1074.89ZM1102 120.972C1102 125.228 1099.28 128.224 1095.39 128.224C1091.5 128.224 1088.78 125.228 1088.78 120.972C1088.78 116.716 1091.5 113.72 1095.39 113.72C1099.28 113.72 1102 116.716 1102 120.972ZM1090.77 120.972C1090.77 124.332 1092.59 126.46 1095.39 126.46C1098.19 126.46 1100.01 124.332 1100.01 120.972C1100.01 117.64 1098.19 115.54 1095.39 115.54C1092.59 115.54 1090.77 117.64 1090.77 120.972ZM1115.23 128H1113.25V122.652H1109.35L1106.11 128H1103.81L1107.25 122.372C1105.43 121.728 1104.51 120.048 1104.51 118.34C1104.51 116.156 1105.99 114 1108.93 114H1115.23V128ZM1113.25 121V115.652H1109.19C1107.42 115.652 1106.53 116.996 1106.53 118.34C1106.53 119.684 1107.39 121 1109.19 121H1113.25ZM1118.46 114H1120.45V120.16H1128.01V114H1130V128H1128.01V121.812H1120.45V128H1118.46V114ZM1133.36 114H1135.35V120.16H1142.91V114H1144.9V128H1142.91V121.812H1135.35V128H1133.36V114ZM1160.92 120.972C1160.92 125.228 1158.21 128.224 1154.31 128.224C1150.42 128.224 1147.71 125.228 1147.71 120.972C1147.71 116.716 1150.42 113.72 1154.31 113.72C1158.21 113.72 1160.92 116.716 1160.92 120.972ZM1149.69 120.972C1149.69 124.332 1151.51 126.46 1154.31 126.46C1157.11 126.46 1158.93 124.332 1158.93 120.972C1158.93 117.64 1157.11 115.54 1154.31 115.54C1151.51 115.54 1149.69 117.64 1149.69 120.972ZM937.87 155.972C937.87 151.716 940.586 148.72 944.478 148.72C947.502 148.72 949.77 150.54 950.554 153.312L948.622 153.648C948.062 151.688 946.55 150.54 944.478 150.54C941.678 150.54 939.858 152.64 939.858 155.972C939.858 159.304 941.678 161.404 944.478 161.404C946.55 161.404 948.034 160.312 948.622 158.408L950.554 158.744C949.77 161.46 947.502 163.224 944.478 163.224C940.586 163.224 937.87 160.228 937.87 155.972ZM956.892 149H965.6V163H963.612V150.652H958.6L957.62 159.136C957.34 161.46 956.108 163 953.84 163H952.468V161.348H953.616C955.016 161.348 955.604 160.396 955.772 158.94L956.892 149ZM968.413 155.972C968.413 151.716 971.129 148.72 975.021 148.72C978.913 148.72 981.629 151.716 981.629 155.972V156.504H970.429C970.597 159.528 972.361 161.404 975.021 161.404C977.093 161.404 978.577 160.312 979.165 158.408L981.097 158.744C980.313 161.46 978.045 163.224 975.021 163.224C971.129 163.224 968.413 160.228 968.413 155.972ZM975.021 150.54C972.529 150.54 970.821 152.192 970.485 154.88H979.585C979.249 152.164 977.513 150.54 975.021 150.54ZM987.423 149H996.131V161.348H997.839V166.08H995.851V163H985.379V166.08H983.391V161.348H984.147C985.547 161.348 986.135 160.396 986.303 158.94L987.423 149ZM988.151 159.136C988.039 160.004 987.815 160.732 987.451 161.348H994.143V150.652H989.131L988.151 159.136ZM1000.36 149H1002.35V160.116L1009.91 149H1011.9V163H1009.91V151.884L1002.35 163H1000.36V149ZM1014.82 150.652V149H1026.35V150.652H1021.57V163H1019.58V150.652H1014.82ZM1029.27 149H1031.25V154.348H1035.57C1038.51 154.348 1039.99 156.504 1039.99 158.66C1039.99 160.844 1038.51 163 1035.57 163H1029.27V149ZM1031.25 156V161.348H1035.31C1037.08 161.348 1037.97 160.004 1037.97 158.66C1037.97 157.316 1037.11 156 1035.31 156H1031.25ZM1054.43 156.644H1053.03V155.02H1054.43C1056.25 155.02 1057.81 154.04 1057.81 152.556C1057.81 151.38 1056.58 150.54 1054.82 150.54C1053.05 150.54 1051.77 151.38 1051.29 152.78L1049.36 152.444C1050.06 150.204 1052.1 148.72 1054.82 148.72C1057.73 148.72 1059.77 150.316 1059.77 152.556C1059.77 154.236 1058.88 155.16 1057.65 155.748C1059.1 156.392 1060.17 157.344 1060.17 159.248C1060.17 161.348 1058.18 163.28 1054.96 163.28C1051.88 163.28 1049.64 161.572 1048.88 158.968L1050.81 158.632C1051.35 160.424 1052.83 161.46 1054.96 161.46C1056.86 161.46 1058.21 160.452 1058.21 159.248C1058.21 157.708 1056.72 156.644 1054.43 156.644ZM1074.01 163H1072.3C1072.11 162.3 1071.97 161.6 1071.88 160.9C1070.93 162.272 1069.53 163.252 1067.51 163.252C1064.6 163.252 1062.56 161.488 1062.56 158.968C1062.56 156.448 1064.63 155.132 1068.24 154.712L1071.88 154.292V153.452C1071.88 151.716 1070.59 150.54 1068.75 150.54C1066.98 150.54 1065.69 151.24 1065.22 152.64L1063.29 152.304C1063.99 150.064 1066.03 148.72 1068.75 148.72C1071.85 148.72 1073.87 150.764 1073.87 153.872V159.08C1073.87 160.956 1073.9 161.992 1074.01 163ZM1067.68 161.488C1070.29 161.488 1071.88 159.78 1071.88 157.372V155.86L1068.21 156.308C1065.95 156.588 1064.55 157.428 1064.55 158.968C1064.55 160.424 1065.83 161.488 1067.68 161.488ZM1086.21 161.068V168.6H1084.23V152.92C1084.23 151.044 1084.2 150.008 1084.09 149H1085.79C1085.96 149.616 1086.13 150.484 1086.21 151.1C1087.31 149.728 1088.93 148.72 1090.83 148.72C1094.45 148.72 1096.97 151.744 1096.97 156.028C1096.97 160.284 1094.45 163.28 1090.83 163.28C1088.99 163.28 1087.33 162.496 1086.21 161.068ZM1086.21 155.608V156.532C1086.21 159.108 1087.73 161.46 1090.44 161.46C1093.27 161.46 1094.98 159.36 1094.98 156.028C1094.98 152.64 1093.27 150.484 1090.44 150.484C1087.84 150.484 1086.21 152.892 1086.21 155.608ZM1099.76 149H1101.75V154.348H1106.06C1109 154.348 1110.48 156.504 1110.48 158.66C1110.48 160.844 1109 163 1106.06 163H1099.76V149ZM1101.75 156V161.348H1105.81C1107.57 161.348 1108.47 160.004 1108.47 158.66C1108.47 157.316 1107.6 156 1105.81 156H1101.75ZM1113.11 163V149H1115.1V163H1113.11ZM1118.46 149H1120.45V155.16H1128.01V149H1130V163H1128.01V156.812H1120.45V163H1118.46V149ZM1133.36 163V149H1135.35V155.608L1141.62 149H1143.98L1138.77 154.544L1144.76 163H1142.44L1137.45 155.944L1135.35 158.184V163H1133.36ZM1159.8 155.972C1159.8 160.228 1157.08 163.224 1153.19 163.224C1149.3 163.224 1146.58 160.228 1146.58 155.972C1146.58 151.716 1149.3 148.72 1153.19 148.72C1157.08 148.72 1159.8 151.716 1159.8 155.972ZM1148.57 155.972C1148.57 159.332 1150.39 161.46 1153.19 161.46C1155.99 161.46 1157.81 159.332 1157.81 155.972C1157.81 152.64 1155.99 150.54 1153.19 150.54C1150.39 150.54 1148.57 152.64 1148.57 155.972ZM1170.77 163H1169.23L1164.58 152.22V163H1162.59V149H1165.03L1170.01 160.536L1174.97 149H1177.41V163H1175.42V152.22L1170.77 163ZM938.43 184H944.926C947.278 184 948.93 185.624 948.93 187.92C948.93 189.012 948.286 190.188 947.39 190.776C948.734 191.336 949.686 192.708 949.686 194.08C949.686 196.376 947.866 198 945.262 198H938.43V184ZM940.418 191.84V196.348H945.01C946.578 196.348 947.67 195.424 947.67 194.08C947.67 192.764 946.578 191.84 945.01 191.84H940.418ZM940.418 185.652V190.16H944.674C945.99 190.16 946.914 189.236 946.914 187.92C946.914 186.576 945.99 185.652 944.674 185.652H940.418ZM952.348 184H954.336V195.116L961.896 184H963.884V198H961.896V186.884L954.336 198H952.348V184ZM970.974 184H979.682V198H977.694V185.652H972.682L971.702 194.136C971.422 196.46 970.19 198 967.922 198H966.55V196.348H967.698C969.098 196.348 969.686 195.396 969.854 193.94L970.974 184ZM995.711 190.972C995.711 195.228 992.995 198.224 989.103 198.224C985.211 198.224 982.495 195.228 982.495 190.972C982.495 186.716 985.211 183.72 989.103 183.72C992.995 183.72 995.711 186.716 995.711 190.972ZM984.483 190.972C984.483 194.332 986.303 196.46 989.103 196.46C991.903 196.46 993.723 194.332 993.723 190.972C993.723 187.64 991.903 185.54 989.103 185.54C986.303 185.54 984.483 187.64 984.483 190.972ZM998.504 198V184H1000.49V190.608L1006.76 184H1009.12L1003.91 189.544L1009.9 198H1007.58L1002.59 190.944L1000.49 193.184V198H998.504ZM1024.1 191.644H1022.7V190.02H1024.1C1025.92 190.02 1027.49 189.04 1027.49 187.556C1027.49 186.38 1026.26 185.54 1024.49 185.54C1022.73 185.54 1021.44 186.38 1020.97 187.78L1019.03 187.444C1019.73 185.204 1021.78 183.72 1024.49 183.72C1027.41 183.72 1029.45 185.316 1029.45 187.556C1029.45 189.236 1028.55 190.16 1027.32 190.748C1028.78 191.392 1029.84 192.344 1029.84 194.248C1029.84 196.348 1027.85 198.28 1024.63 198.28C1021.55 198.28 1019.31 196.572 1018.56 193.968L1020.49 193.632C1021.02 195.424 1022.51 196.46 1024.63 196.46C1026.54 196.46 1027.88 195.452 1027.88 194.248C1027.88 192.708 1026.4 191.644 1024.1 191.644ZM1031.67 203.6L1039.07 178.4H1041.22L1033.83 203.6H1031.67ZM1043.46 184H1054.99V198H1053.01V185.652H1045.45V198H1043.46V184Z" fill="black" fill-opacity="0.9"/>
<defs>
<linearGradient id="paint0_linear_843_14045" x1="-2.6087" y1="40" x2="80" y2="40" gradientUnits="userSpaceOnUse">
<stop stop-color="#F07DED"/>
<stop offset="0.355" stop-color="#F780A9"/>
<stop offset="1" stop-color="#FFCE9C"/>
</linearGradient>
<linearGradient id="paint1_linear_843_14045" x1="30.413" y1="40" x2="49" y2="40" gradientUnits="userSpaceOnUse">
<stop stop-color="#F07DED"/>
<stop offset="0.355" stop-color="#F780A9"/>
<stop offset="1" stop-color="#FFCE9C"/>
</linearGradient>
<linearGradient id="paint2_linear_843_14045" x1="30.413" y1="40" x2="49" y2="40" gradientUnits="userSpaceOnUse">
<stop stop-color="#F07DED"/>
<stop offset="0.355" stop-color="#F780A9"/>
<stop offset="1" stop-color="#FFCE9C"/>
</linearGradient>
<linearGradient id="paint3_linear_843_14045" x1="309.641" y1="40" x2="392.25" y2="40" gradientUnits="userSpaceOnUse">
<stop stop-color="#F07DED"/>
<stop offset="0.355" stop-color="#F780A9"/>
<stop offset="1" stop-color="#FFCE9C"/>
</linearGradient>
<linearGradient id="paint4_linear_843_14045" x1="343.728" y1="40" x2="360.25" y2="40" gradientUnits="userSpaceOnUse">
<stop stop-color="#F07DED"/>
<stop offset="0.355" stop-color="#F780A9"/>
<stop offset="1" stop-color="#FFCE9C"/>
</linearGradient>
<linearGradient id="paint5_linear_843_14045" x1="341.598" y1="40" x2="362.25" y2="40" gradientUnits="userSpaceOnUse">
<stop stop-color="#F07DED"/>
<stop offset="0.355" stop-color="#F780A9"/>
<stop offset="1" stop-color="#FFCE9C"/>
</linearGradient>
<linearGradient id="paint6_linear_843_14045" x1="341.598" y1="40" x2="362.25" y2="40" gradientUnits="userSpaceOnUse">
<stop stop-color="#F07DED"/>
<stop offset="0.355" stop-color="#F780A9"/>
<stop offset="1" stop-color="#FFCE9C"/>
</linearGradient>
<linearGradient id="paint7_linear_843_14045" x1="621.891" y1="40" x2="704.5" y2="40" gradientUnits="userSpaceOnUse">
<stop stop-color="#F07DED"/>
<stop offset="0.355" stop-color="#F780A9"/>
<stop offset="1" stop-color="#FFCE9C"/>
</linearGradient>
<linearGradient id="paint8_linear_843_14045" x1="652.783" y1="40" x2="675.5" y2="40" gradientUnits="userSpaceOnUse">
<stop stop-color="#F07DED"/>
<stop offset="0.355" stop-color="#F780A9"/>
<stop offset="1" stop-color="#FFCE9C"/>
</linearGradient>
<linearGradient id="paint9_linear_843_14045" x1="652.783" y1="40" x2="675.5" y2="40" gradientUnits="userSpaceOnUse">
<stop stop-color="#F07DED"/>
<stop offset="0.355" stop-color="#F780A9"/>
<stop offset="1" stop-color="#FFCE9C"/>
</linearGradient>
<linearGradient id="paint10_linear_843_14045" x1="652.783" y1="40" x2="675.5" y2="40" gradientUnits="userSpaceOnUse">
<stop stop-color="#F07DED"/>
<stop offset="0.355" stop-color="#F780A9"/>
<stop offset="1" stop-color="#FFCE9C"/>
</linearGradient>
<linearGradient id="paint11_linear_843_14045" x1="652.783" y1="40" x2="675.5" y2="40" gradientUnits="userSpaceOnUse">
<stop stop-color="#F07DED"/>
<stop offset="0.355" stop-color="#F780A9"/>
<stop offset="1" stop-color="#FFCE9C"/>
</linearGradient>
<linearGradient id="paint12_linear_843_14045" x1="934.141" y1="40" x2="1016.75" y2="40" gradientUnits="userSpaceOnUse">
<stop stop-color="#F07DED"/>
<stop offset="0.355" stop-color="#F780A9"/>
<stop offset="1" stop-color="#FFCE9C"/>
</linearGradient>
<linearGradient id="paint13_linear_843_14045" x1="967.163" y1="39.9999" x2="985.75" y2="39.9999" gradientUnits="userSpaceOnUse">
<stop stop-color="#F07DED"/>
<stop offset="0.355" stop-color="#F780A9"/>
<stop offset="1" stop-color="#FFCE9C"/>
</linearGradient>
<linearGradient id="paint14_linear_843_14045" x1="967.163" y1="39.9999" x2="985.75" y2="39.9999" gradientUnits="userSpaceOnUse">
<stop stop-color="#F07DED"/>
<stop offset="0.355" stop-color="#F780A9"/>
<stop offset="1" stop-color="#FFCE9C"/>
</linearGradient>
</defs>
</svg>
