<svg width="323" height="760" xmlns="http://www.w3.org/2000/svg" fill="none" viewBox="0 0 323 760"><path fill="#000" fill-opacity=".9" d="M8.832 7.808c0 1.024-.544 1.824-1.472 2.288 1.312.432 2.096 1.392 2.096 2.704 0 1.968-1.408 3.2-3.664 3.2H1.056V4.784h4.416c2.064 0 3.36 1.168 3.36 3.024zm-3.136 3.136H2.8v3.616h2.896c1.232 0 2-.704 2-1.808 0-1.12-.768-1.808-2-1.808zM2.8 6.208v3.296h2.272c1.216 0 1.984-.64 1.984-1.648S6.4 6.208 5.376 6.208H2.8zM17.583 16h-1.504c-.064-.256-.176-.8-.208-1.056-.576.72-1.424 1.2-2.416 1.2-1.696 0-2.816-1.008-2.816-2.512 0-1.408 1.28-2.304 3.408-2.544l1.744-.208v-.352c0-.832-.608-1.408-1.456-1.408-.816 0-1.456.4-1.648 1.088l-1.632-.272c.336-1.344 1.6-2.224 3.296-2.224 1.856 0 3.136 1.2 3.136 3.04v2.88c0 1.184.016 1.744.096 2.368zm-3.808-1.232c1.248 0 2.016-.832 2.016-2.08v-.64l-1.696.192c-1.088.128-1.76.592-1.76 1.328 0 .704.576 1.2 1.44 1.2zM19.303 16V7.872h1.68v3.488l3.104-3.488h1.904l-2.848 3.184L26.439 16h-1.936l-2.464-3.696-1.056 1.184V16h-1.68zm14.936 0h-1.504c-.064-.256-.176-.8-.208-1.056-.576.72-1.424 1.2-2.416 1.2-1.696 0-2.816-1.008-2.816-2.512 0-1.408 1.28-2.304 3.408-2.544l1.744-.208v-.352c0-.832-.608-1.408-1.456-1.408-.816 0-1.456.4-1.648 1.088l-1.632-.272c.336-1.344 1.6-2.224 3.296-2.224 1.856 0 3.136 1.2 3.136 3.04v2.88c0 1.184.016 1.744.096 2.368zm-3.808-1.232c1.248 0 2.016-.832 2.016-2.08v-.64l-1.696.192c-1.088.128-1.76.592-1.76 1.328 0 .704.576 1.2 1.44 1.2zm5.448-6.896h1.696v3.392h3.6V7.872h1.696V16h-1.696v-3.424h-3.6V16h-1.696V7.872zm8.416 4.048c0-2.48 1.632-4.208 3.952-4.208 1.936 0 3.312 1.232 3.68 2.64l-1.632.368c-.288-.992-1.04-1.6-2.048-1.6-1.376 0-2.256 1.088-2.256 2.8 0 1.712.88 2.8 2.256 2.8.992 0 1.744-.576 2.048-1.536l1.632.368c-.352 1.36-1.744 2.576-3.68 2.576-2.32 0-3.952-1.744-3.952-4.208zm8.912-4.048h1.696v5.584l3.696-5.584h1.6V16h-1.696v-5.584L54.807 16h-1.6V7.872zM68.407 16h-1.696v-2.896H65L63.335 16h-1.92l1.84-3.136c-1.024-.448-1.536-1.408-1.536-2.368 0-1.328.944-2.624 2.816-2.624h3.872V16zm-1.696-4.208V9.184h-1.904c-.928 0-1.392.656-1.392 1.312 0 .64.464 1.296 1.392 1.296h1.904z"/><path fill="#F2F2F2" d="M0 52c0-11.046 8.954-20 20-20h280c11.046 0 20 8.954 20 20s-8.954 20-20 20H20C8.954 72 0 63.046 0 52z"/><path fill="#000" fill-opacity=".9" d="M26.202 55h-1.036v-1.918H23.78c-2.156 0-3.22-1.526-3.22-3.038 0-1.512 1.064-3.038 3.22-3.038h1.386v-1.918h1.036v1.918h1.386c2.156 0 3.22 1.526 3.22 3.038 0 1.512-1.064 3.038-3.22 3.038h-1.386V55zm-4.578-4.956c0 1.05.742 2.1 2.24 2.1h1.302v-4.2h-1.302c-1.498 0-2.24 1.05-2.24 2.1zm4.578-2.1v4.2h1.302c1.498 0 2.24-1.05 2.24-2.1s-.742-2.1-2.24-2.1h-1.302zm6.993 6.09V57.8h-.994v-7.84c0-.938-.014-1.456-.07-1.96h.854c.084.308.168.742.21 1.05.546-.686 1.358-1.19 2.31-1.19 1.806 0 3.066 1.512 3.066 3.654 0 2.128-1.26 3.626-3.066 3.626-.924 0-1.75-.392-2.31-1.106zm0-2.73v.462c0 1.288.756 2.464 2.114 2.464 1.414 0 2.268-1.05 2.268-2.716 0-1.694-.854-2.772-2.268-2.772-1.302 0-2.114 1.204-2.114 2.562zm13.1.182c0 2.128-1.358 3.626-3.304 3.626-1.946 0-3.304-1.498-3.304-3.626s1.358-3.626 3.304-3.626c1.946 0 3.304 1.498 3.304 3.626zm-5.614 0c0 1.68.91 2.744 2.31 2.744s2.31-1.064 2.31-2.744c0-1.666-.91-2.716-2.31-2.716s-2.31 1.05-2.31 2.716zM47.691 48h.995v3.08h3.78V48h.994v7h-.994v-3.094h-3.78V55h-.994v-7zm7.228.826V48h5.768v.826h-2.394V55h-.994v-6.174h-2.38zm6.944 2.66c0-2.128 1.358-3.626 3.304-3.626 1.946 0 3.304 1.498 3.304 3.626v.266h-5.6c.084 1.512.966 2.45 2.296 2.45 1.036 0 1.778-.546 2.072-1.498l.966.168c-.392 1.358-1.526 2.24-3.038 2.24-1.946 0-3.304-1.498-3.304-3.626zm3.304-2.716c-1.246 0-2.1.826-2.268 2.17h4.55c-.168-1.358-1.036-2.17-2.282-2.17zm4.605-.77h.994v3.08h3.78V48h.994v7h-.994v-3.094h-3.78V55h-.994v-7zm9.047 0h4.354v6.174h.854v2.366h-.994V55h-5.236v1.54h-.994v-2.366h.378c.7 0 .994-.476 1.078-1.204l.56-4.97zm.364 5.068c-.056.434-.168.798-.35 1.106h3.346v-5.348h-2.506l-.49 4.242zm10.6.966V57.8h-.994v-7.84c0-.938-.014-1.456-.07-1.96h.854c.084.308.168.742.21 1.05.546-.686 1.358-1.19 2.31-1.19 1.806 0 3.066 1.512 3.066 3.654 0 2.128-1.26 3.626-3.066 3.626-.924 0-1.75-.392-2.31-1.106zm0-2.73v.462c0 1.288.756 2.464 2.114 2.464 1.414 0 2.268-1.05 2.268-2.716 0-1.694-.854-2.772-2.268-2.772-1.302 0-2.114 1.204-2.114 2.562zM102.001 55h-.854a6.97 6.97 0 01-.21-1.05c-.476.686-1.176 1.176-2.184 1.176-1.456 0-2.478-.882-2.478-2.142 0-1.26 1.036-1.918 2.842-2.128l1.82-.21v-.42c0-.868-.644-1.456-1.568-1.456-.882 0-1.526.35-1.764 1.05l-.966-.168c.35-1.12 1.372-1.792 2.73-1.792 1.554 0 2.562 1.022 2.562 2.576v2.604c0 .938.014 1.456.07 1.96zm-3.164-.756c1.302 0 2.1-.854 2.1-2.058v-.756l-1.834.224c-1.134.14-1.834.56-1.834 1.33 0 .728.644 1.26 1.568 1.26zm7.181-2.422h-.7v-.812h.7c.91 0 1.694-.49 1.694-1.232 0-.588-.616-1.008-1.498-1.008s-1.526.42-1.764 1.12l-.966-.168c.35-1.12 1.372-1.862 2.73-1.862 1.456 0 2.478.798 2.478 1.918 0 .84-.448 1.302-1.064 1.596.728.322 1.26.798 1.26 1.75 0 1.05-.994 2.016-2.604 2.016-1.54 0-2.66-.854-3.038-2.156l.966-.168c.266.896 1.008 1.414 2.072 1.414.952 0 1.624-.504 1.624-1.106 0-.77-.742-1.302-1.89-1.302zm5.339 2.212V57.8h-.994v-7.84c0-.938-.014-1.456-.07-1.96h.854c.084.308.168.742.21 1.05.546-.686 1.358-1.19 2.31-1.19 1.806 0 3.066 1.512 3.066 3.654 0 2.128-1.26 3.626-3.066 3.626-.924 0-1.75-.392-2.31-1.106zm0-2.73v.462c0 1.288.756 2.464 2.114 2.464 1.414 0 2.268-1.05 2.268-2.716 0-1.694-.854-2.772-2.268-2.772-1.302 0-2.114 1.204-2.114 2.562zM123.575 55h-.854a6.97 6.97 0 01-.21-1.05c-.476.686-1.176 1.176-2.184 1.176-1.456 0-2.478-.882-2.478-2.142 0-1.26 1.036-1.918 2.842-2.128l1.82-.21v-.42c0-.868-.644-1.456-1.568-1.456-.882 0-1.526.35-1.764 1.05l-.966-.168c.35-1.12 1.372-1.792 2.73-1.792 1.554 0 2.562 1.022 2.562 2.576v2.604c0 .938.014 1.456.07 1.96zm-3.164-.756c1.302 0 2.1-.854 2.1-2.058v-.756l-1.834.224c-1.134.14-1.834.56-1.834 1.33 0 .728.644 1.26 1.568 1.26zm5.487-3.08v.252c0 1.694.784 2.772 2.198 2.772s2.184-1.078 2.184-2.772c0-1.666-.854-2.716-2.268-2.716-1.358 0-2.114 1.176-2.114 2.464zm-.994.098v-1.988c0-2.478 1.372-3.934 3.696-4.144.644-.056 1.274-.112 1.918-.448v.854c-.644.336-1.274.392-1.918.448-1.792.154-2.702 1.316-2.702 2.786v.126c.56-.714 1.386-1.106 2.31-1.106 1.806 0 3.066 1.498 3.066 3.626 0 2.142-1.204 3.654-3.178 3.654s-3.192-1.47-3.192-3.808zm14.1.224c0 2.128-1.358 3.626-3.304 3.626-1.946 0-3.304-1.498-3.304-3.626s1.358-3.626 3.304-3.626c1.946 0 3.304 1.498 3.304 3.626zm-5.614 0c0 1.68.91 2.744 2.31 2.744s2.31-1.064 2.31-2.744c0-1.666-.91-2.716-2.31-2.716s-2.31 1.05-2.31 2.716zm6.787-2.66V48h5.768v.826h-2.394V55h-.994v-6.174h-2.38zM152.609 48v7h-.994v-3.024a2.81 2.81 0 01-2.016.896c-1.442 0-2.338-.994-2.338-2.562V48h.994v2.31c0 1.022.546 1.666 1.428 1.666 1.134 0 1.932-.728 1.932-1.778V48h.994zm1.586 0h.994v5.558l3.78-5.558h.994v7h-.994v-5.558L155.189 55h-.994v-7zm7.452 7v-7h.994v3.304L165.777 48h1.176l-2.604 2.772L167.345 55h-1.162l-2.492-3.528-1.05 1.12V55h-.994zm10.39-7h3.248c1.176 0 2.002.812 2.002 1.96 0 .546-.322 1.134-.77 1.428.672.28 1.148.966 1.148 1.652 0 1.148-.91 1.96-2.212 1.96h-3.416v-7zm.994 3.92v2.254h2.296c.784 0 1.33-.462 1.33-1.134 0-.658-.546-1.12-1.33-1.12h-2.296zm0-3.094v2.254h2.128c.658 0 1.12-.462 1.12-1.12 0-.672-.462-1.134-1.12-1.134h-2.128zM188.6 55l-2.562-4.004h-2.366V55h-1.036v-9.8h3.71c3.57 0 3.85 4.914.854 5.698L189.804 55H188.6zm-4.928-4.942h2.59c2.562 0 2.562-3.92 0-3.92h-2.59v3.92zm6.898 1.428c0-2.128 1.358-3.626 3.304-3.626 1.946 0 3.304 1.498 3.304 3.626v.266h-5.6c.084 1.512.966 2.45 2.296 2.45 1.036 0 1.778-.546 2.072-1.498l.966.168c-.392 1.358-1.526 2.24-3.038 2.24-1.946 0-3.304-1.498-3.304-3.626zm3.304-2.716c-1.246 0-2.1.826-2.268 2.17h4.55c-.168-1.358-1.036-2.17-2.282-2.17zm4.605 6.23v-9.8h.994v6.104L202.609 48h1.176l-2.604 2.772L204.177 55h-1.162l-2.492-3.528-1.05 1.12V55h-.994zm9.354-7.14c1.358 0 2.38.742 2.73 1.862l-.966.168c-.238-.7-.882-1.12-1.764-1.12s-1.498.42-1.498 1.008c0 .784.882.966 1.862 1.218 1.19.308 2.52.686 2.52 2.128 0 1.05-.994 2.016-2.604 2.016-1.54 0-2.716-.854-3.094-2.156l.966-.168c.266.896 1.064 1.414 2.128 1.414.952 0 1.624-.504 1.624-1.106 0-.826-.896-1.05-1.89-1.288-1.176-.294-2.492-.616-2.492-2.058 0-1.12 1.022-1.918 2.478-1.918zm10.618 3.626c0 2.128-1.358 3.626-3.304 3.626-1.946 0-3.304-1.498-3.304-3.626s1.358-3.626 3.304-3.626c1.946 0 3.304 1.498 3.304 3.626zm-5.614 0c0 1.68.91 2.744 2.31 2.744s2.31-1.064 2.31-2.744c0-1.666-.91-2.716-2.31-2.716s-2.31 1.05-2.31 2.716zM220.26 48v-.938c0-1.008.504-1.988 1.918-1.988.28 0 .588.028.924.098v.882a3.469 3.469 0 00-.84-.112c-.854 0-1.008.574-1.008 1.176V48h1.568v.826h-1.568V55h-.994v-6.174h-1.106v-.686l1.106-.14zm4.512 5.152v-4.326h-1.106v-.686l1.106-.14.28-1.806h.714V48h1.568v.826h-1.568v4.27c0 .602.154 1.176 1.008 1.176.224 0 .504-.028.84-.112v.882c-.336.07-.644.098-.924.098-1.414 0-1.918-.98-1.918-1.988z"/><path fill="#000" fill-opacity=".6" fill-rule="evenodd" d="M305.395 49.405a.7.7 0 00-.99 0L300 53.81l-4.405-4.405a.7.7 0 00-.99.99l4.9 4.9a.7.7 0 00.99 0l4.9-4.9a.7.7 0 000-.99z" clip-rule="evenodd"/><path fill="#F2F2F2" d="M0 100c0-11.046 8.954-20 20-20h280c11.046 0 20 8.954 20 20s-8.954 20-20 20H20c-11.046 0-20-8.954-20-20z"/><path fill="#000" fill-opacity=".9" d="M20.84 98.114c0-2.954 1.89-5.026 4.564-5.026 2.058 0 3.57 1.106 4.13 2.87l-.994.35c-.392-1.414-1.54-2.254-3.136-2.254-2.058 0-3.5 1.68-3.5 4.06s1.442 4.06 3.5 4.06c1.708 0 2.856-.952 3.136-2.534l.994.35c-.448 1.932-1.96 3.15-4.13 3.15-2.674 0-4.564-2.072-4.564-5.026zM30.93 96h.994v3.08h3.78V96h.994v7h-.994v-3.094h-3.78V103h-.994v-7zm12.897 7h-.854a6.97 6.97 0 01-.21-1.05c-.476.686-1.176 1.176-2.184 1.176-1.456 0-2.478-.882-2.478-2.142 0-1.26 1.036-1.918 2.842-2.128l1.82-.21v-.42c0-.868-.644-1.456-1.568-1.456-.882 0-1.526.35-1.764 1.05l-.966-.168c.35-1.12 1.372-1.792 2.73-1.792 1.554 0 2.562 1.022 2.562 2.576v2.604c0 .938.014 1.456.07 1.96zm-3.164-.756c1.302 0 2.1-.854 2.1-2.058v-.756l-1.834.224c-1.134.14-1.834.56-1.834 1.33 0 .728.644 1.26 1.568 1.26zM50.643 96v7h-.993v-3.024a2.81 2.81 0 01-2.016.896c-1.442 0-2.338-.994-2.338-2.562V96h.994v2.31c0 1.022.546 1.666 1.428 1.666 1.134 0 1.932-.728 1.932-1.778V96h.994zm7.034 7h-.854a6.97 6.97 0 01-.21-1.05c-.476.686-1.176 1.176-2.184 1.176-1.456 0-2.478-.882-2.478-2.142 0-1.26 1.036-1.918 2.842-2.128l1.82-.21v-.42c0-.868-.644-1.456-1.568-1.456-.882 0-1.526.35-1.764 1.05l-.966-.168c.35-1.12 1.372-1.792 2.73-1.792 1.554 0 2.562 1.022 2.562 2.576v2.604c0 .938.014 1.456.07 1.96zm-3.164-.756c1.302 0 2.1-.854 2.1-2.058v-.756l-1.834.224c-1.134.14-1.834.56-1.834 1.33 0 .728.644 1.26 1.568 1.26zM61.147 96h4.354v7h-.994v-6.174h-2.506l-.49 4.242c-.14 1.162-.756 1.932-1.89 1.932h-.686v-.826h.574c.7 0 .994-.476 1.078-1.204l.56-4.97zm11.487 7h-.854a6.97 6.97 0 01-.21-1.05c-.476.686-1.176 1.176-2.184 1.176-1.456 0-2.478-.882-2.478-2.142 0-1.26 1.036-1.918 2.842-2.128l1.82-.21v-.42c0-.868-.644-1.456-1.568-1.456-.882 0-1.526.35-1.764 1.05l-.966-.168c.35-1.12 1.372-1.792 2.73-1.792 1.554 0 2.562 1.022 2.562 2.576v2.604c0 .938.014 1.456.07 1.96zm-3.164-.756c1.302 0 2.1-.854 2.1-2.058v-.756l-1.834.224c-1.134.14-1.834.56-1.834 1.33 0 .728.644 1.26 1.568 1.26zM77.742 96h5.768v7h-.994v-6.174h-3.78V103h-.994v-7zm13.711 3.486c0 2.128-1.358 3.626-3.304 3.626-1.946 0-3.304-1.498-3.304-3.626s1.358-3.626 3.304-3.626c1.946 0 3.304 1.498 3.304 3.626zm-5.614 0c0 1.68.91 2.744 2.31 2.744s2.31-1.064 2.31-2.744c0-1.666-.91-2.716-2.31-2.716s-2.31 1.05-2.31 2.716zM94.446 96H98.8v6.174h.854v2.366h-.994V103h-5.236v1.54h-.994v-2.366h.378c.7 0 .994-.476 1.078-1.204l.56-4.97zm.364 5.068c-.056.434-.168.798-.35 1.106h3.346v-5.348H95.3l-.49 4.242zm8.388-1.666L100.706 96h1.148l1.89 2.716L105.62 96h1.148l-2.478 3.402 2.618 3.598h-1.148l-2.016-2.898-2.03 2.898h-1.148l2.632-3.598zm11.361.084c0 2.128-1.358 3.626-3.304 3.626-1.946 0-3.304-1.498-3.304-3.626s1.358-3.626 3.304-3.626c1.946 0 3.304 1.498 3.304 3.626zm-5.614 0c0 1.68.91 2.744 2.31 2.744s2.31-1.064 2.31-2.744c0-1.666-.91-2.716-2.31-2.716s-2.31 1.05-2.31 2.716zM117.551 96h4.354v6.174h.854v2.366h-.994V103h-5.236v1.54h-.994v-2.366h.378c.7 0 .994-.476 1.078-1.204l.56-4.97zm.364 5.068c-.056.434-.168.798-.35 1.106h3.346v-5.348h-2.506l-.49 4.242zM129.244 103h-.994v-2.674h-1.946L124.68 103h-1.148l1.722-2.814c-.91-.322-1.372-1.162-1.372-2.016 0-1.092.742-2.17 2.212-2.17h3.15v7zm-.994-3.5v-2.674h-2.03c-.882 0-1.33.672-1.33 1.344s.434 1.33 1.33 1.33h2.03zm11.232 3.5h-8.624v-7h.994v6.174h2.8V96h.994v6.174h2.8V96h.994v6.174h1.036v2.366h-.994V103zm2.258-7h.994v5.558l3.78-5.558h.994v7h-.994v-5.558l-3.78 5.558h-.994v-7zm7.172 3.486c0-2.128 1.358-3.626 3.304-3.626 1.946 0 3.304 1.498 3.304 3.626v.266h-5.6c.084 1.512.966 2.45 2.296 2.45 1.036 0 1.778-.546 2.072-1.498l.966.168c-.392 1.358-1.526 2.24-3.038 2.24-1.946 0-3.304-1.498-3.304-3.626zm3.304-2.716c-1.246 0-2.1.826-2.268 2.17h4.55c-.168-1.358-1.036-2.17-2.282-2.17z"/><path fill="#000" fill-opacity=".6" fill-rule="evenodd" d="M305.395 97.405a.7.7 0 00-.99 0L300 101.81l-4.405-4.405a.7.7 0 00-.99.99l4.9 4.9a.7.7 0 00.99 0l4.9-4.9a.7.7 0 000-.99z" clip-rule="evenodd"/><path fill="#000" fill-opacity=".9" d="M1.056 160v-11.216h9.056V160H8.368v-9.792H2.8V160H1.056zm12.708-1.056v4.256h-1.68v-8.96c0-1.008-.048-1.824-.112-2.368h1.504c.064.288.144.784.192 1.184a3.23 3.23 0 012.592-1.328c2.032 0 3.44 1.744 3.44 4.224 0 2.464-1.408 4.208-3.44 4.208-.976 0-1.936-.464-2.496-1.216zm0-3.216v.512c0 1.408.752 2.512 2.048 2.512 1.36 0 2.192-1.088 2.192-2.8 0-1.744-.832-2.848-2.192-2.848-1.264 0-2.048 1.136-2.048 2.624zm15.013.192c0 2.464-1.632 4.208-3.936 4.208-2.32 0-3.952-1.744-3.952-4.208 0-2.48 1.632-4.208 3.952-4.208 2.304 0 3.936 1.728 3.936 4.208zm-6.192 0c0 1.728.88 2.832 2.256 2.832s2.256-1.104 2.256-2.832c0-1.712-.88-2.8-2.256-2.8s-2.256 1.088-2.256 2.8zm11.542 7.28v-3.12c-2.448-.272-4.208-1.728-4.208-4.16 0-2.432 1.76-3.888 4.208-4.16v-2.976h1.696v2.976c2.448.272 4.192 1.728 4.192 4.16 0 2.432-1.744 3.888-4.192 4.16v3.12h-1.696zm-2.512-7.28c0 1.504.944 2.512 2.512 2.768v-5.504c-1.568.256-2.512 1.264-2.512 2.736zm6.72 0c0-1.472-.944-2.48-2.512-2.736v5.504c1.568-.256 2.512-1.264 2.512-2.768zm2.835 0c0-2.464 1.632-4.208 3.952-4.208 2.32 0 3.936 1.744 3.936 4.208v.432h-6.176c.144 1.472.992 2.368 2.24 2.368.992 0 1.776-.544 2.096-1.472l1.584.352c-.448 1.504-1.824 2.528-3.68 2.528-2.32 0-3.952-1.744-3.952-4.208zm3.952-2.8c-1.152 0-1.952.752-2.192 2h4.368c-.208-1.248-1.04-2-2.176-2zm5.017 2.8c0-2.48 1.632-4.208 3.952-4.208 1.936 0 3.312 1.232 3.68 2.64l-1.632.368c-.288-.992-1.04-1.6-2.048-1.6-1.376 0-2.256 1.088-2.256 2.8 0 1.712.88 2.8 2.256 2.8.992 0 1.744-.576 2.048-1.536l1.632.368c-.352 1.36-1.744 2.576-3.68 2.576-2.32 0-3.952-1.744-3.952-4.208zm8.672 0c0-2.48 1.632-4.208 3.952-4.208 1.936 0 3.312 1.232 3.68 2.64l-1.632.368c-.288-.992-1.04-1.6-2.048-1.6-1.376 0-2.256 1.088-2.256 2.8 0 1.712.88 2.8 2.256 2.8.992 0 1.744-.576 2.048-1.536l1.632.368c-.352 1.36-1.744 2.576-3.68 2.576-2.32 0-3.952-1.744-3.952-4.208zm8.912-4.048h1.696v5.584l3.696-5.584h1.6V160h-1.696v-5.584L69.323 160h-1.6v-8.128zm15.2 8.128h-1.696v-2.896h-1.712L77.85 160h-1.92l1.84-3.136c-1.024-.448-1.536-1.408-1.536-2.368 0-1.328.944-2.624 2.816-2.624h3.872V160zm-1.696-4.208v-2.608h-1.904c-.928 0-1.392.656-1.392 1.312 0 .64.464 1.296 1.392 1.296h1.904z"/><mask id="a" fill="#fff"><path d="M0 192c0-8.837 7.163-16 16-16h43c8.837 0 16 7.163 16 16s-7.163 16-16 16H16c-8.837 0-16-7.163-16-16z"/></mask><path fill="#31BBF2" d="M0 192c0-8.837 7.163-16 16-16h43c8.837 0 16 7.163 16 16s-7.163 16-16 16H16c-8.837 0-16-7.163-16-16z"/><path fill="#292929" d="M16 177h43v-2H16v2zm43 30H16v2h43v-2zm-43 0c-8.284 0-15-6.716-15-15h-2c0 9.389 7.611 17 17 17v-2zm58-15c0 8.284-6.716 15-15 15v2c9.389 0 17-7.611 17-17h-2zm-15-15c8.284 0 15 6.716 15 15h2c0-9.389-7.611-17-17-17v2zm-43-2c-9.389 0-17 7.611-17 17h2c0-8.284 6.716-15 15-15v-2z" mask="url(#a)"/><path fill="#fff" d="M22.908 196h-1.512v-1.848h-1.12c-2.212 0-3.374-1.554-3.374-3.122 0-1.568 1.162-3.108 3.374-3.108h1.12v-1.834h1.512v1.834h1.12c2.212 0 3.374 1.54 3.374 3.108s-1.162 3.122-3.374 3.122h-1.12V196zm-4.452-4.97c0 .98.616 1.862 1.904 1.862h1.036v-3.71H20.36c-1.288 0-1.904.868-1.904 1.848zm4.452-1.848v3.71h1.036c1.288 0 1.904-.882 1.904-1.862 0-.98-.616-1.848-1.904-1.848h-1.036zm7.283 5.894v3.724h-1.47v-7.84c0-.882-.042-1.596-.098-2.072h1.316c.056.252.126.686.168 1.036a2.826 2.826 0 012.268-1.162c1.778 0 3.01 1.526 3.01 3.696 0 2.156-1.232 3.682-3.01 3.682-.854 0-1.694-.406-2.184-1.064zm0-2.814v.448c0 1.232.658 2.198 1.792 2.198 1.19 0 1.918-.952 1.918-2.45 0-1.526-.728-2.492-1.918-2.492-1.106 0-1.792.994-1.792 2.296zm13.136.168c0 2.156-1.428 3.682-3.444 3.682-2.03 0-3.458-1.526-3.458-3.682 0-2.17 1.428-3.682 3.458-3.682 2.016 0 3.444 1.512 3.444 3.682zm-5.418 0c0 1.512.77 2.478 1.974 2.478s1.974-.966 1.974-2.478c0-1.498-.77-2.45-1.974-2.45s-1.974.952-1.974 2.45zm6.67-3.542h1.484v2.968h3.15v-2.968h1.484V196h-1.484v-2.996h-3.15V196h-1.484v-7.112zm7.406 1.148v-1.148h6.09v1.148h-2.31V196H54.28v-5.964h-2.296z"/><path fill="#FB814D" d="M83 192c0-8.837 7.163-16 16-16h24c8.837 0 16 7.163 16 16s-7.163 16-16 16H99c-8.837 0-16-7.163-16-16z"/><path fill="#fff" d="M100.296 196.014v-9.828h6.538v1.232h-5.012v2.38h2.156c4.494 0 4.494 6.216 0 6.216h-3.682zm1.526-4.97v3.71h2.072c2.632 0 2.632-3.71 0-3.71h-2.072zm8.717 1.96v-1.148h2.772c-.168-1.162-.882-1.876-1.918-1.876-.882 0-1.554.532-1.792 1.4l-1.442-.322c.322-1.232 1.54-2.31 3.234-2.31 2.016 0 3.444 1.512 3.444 3.682 0 2.156-1.428 3.682-3.444 3.682-1.694 0-2.912-1.064-3.234-2.254l1.428-.322c.266.84.938 1.344 1.806 1.344 1.022 0 1.736-.7 1.918-1.876h-2.772zm5.613 2.996v-7.112h1.47v3.052l2.716-3.052h1.666l-2.492 2.786 2.884 4.326h-1.694l-2.156-3.234-.924 1.036V196h-1.47z"/><path fill="#71CB3E" d="M147 192c0-8.837 7.163-16 16-16h71c8.837 0 16 7.163 16 16s-7.163 16-16 16h-71c-8.837 0-16-7.163-16-16z"/><path fill="#fff" d="M163.782 196l3.836-9.814h1.736L173.19 196h-1.568l-.882-2.296h-4.522L165.35 196h-1.568zm2.926-3.542h3.556l-1.778-4.606-1.778 4.606zm7.583-3.57h1.484v2.968h3.15v-2.968h1.484V196h-1.484v-2.996h-3.15V196h-1.484v-7.112zm13.44 7.112h-1.316c-.056-.224-.154-.7-.182-.924-.504.63-1.246 1.05-2.114 1.05-1.484 0-2.464-.882-2.464-2.198 0-1.232 1.12-2.016 2.982-2.226l1.526-.182v-.308c0-.728-.532-1.232-1.274-1.232-.714 0-1.274.35-1.442.952l-1.428-.238c.294-1.176 1.4-1.946 2.884-1.946 1.624 0 2.744 1.05 2.744 2.66v2.52c0 1.036.014 1.526.084 2.072zm-3.332-1.078c1.092 0 1.764-.728 1.764-1.82v-.56l-1.484.168c-.952.112-1.54.518-1.54 1.162 0 .616.504 1.05 1.26 1.05zm6.615-6.034h4.914V196h-1.484v-5.964h-2.128l-.406 3.892c-.126 1.204-.84 2.072-2.128 2.072h-.938v-1.148h.644c.658 0 .938-.35 1.007-1.064l.519-4.9zm6.396 0h1.484v4.886l3.234-4.886h1.4V196h-1.484v-4.886L198.81 196h-1.4v-7.112zm7.406 1.148v-1.148h6.09v1.148h-2.31V196h-1.484v-5.964h-2.296zm7.359-1.148h1.484v4.886l3.234-4.886h1.4V196h-1.484v-4.886L213.575 196h-1.4v-7.112zm7.644 7.112v-7.112h1.47v3.052l2.716-3.052h1.666l-2.492 2.786 2.884 4.326h-1.694l-2.156-3.234-.924 1.036V196h-1.47zm13.07 0h-1.316c-.056-.224-.154-.7-.182-.924-.504.63-1.246 1.05-2.114 1.05-1.484 0-2.464-.882-2.464-2.198 0-1.232 1.12-2.016 2.982-2.226l1.526-.182v-.308c0-.728-.532-1.232-1.274-1.232-.714 0-1.274.35-1.442.952l-1.428-.238c.294-1.176 1.4-1.946 2.884-1.946 1.624 0 2.744 1.05 2.744 2.66v2.52c0 1.036.014 1.526.084 2.072zm-3.332-1.078c1.092 0 1.764-.728 1.764-1.82v-.56l-1.484.168c-.952.112-1.54.518-1.54 1.162 0 .616.504 1.05 1.26 1.05z"/><path fill="#6889FF" d="M88 232c0-8.837 7.163-16 16-16h88c8.837 0 16 7.163 16 16s-7.163 16-16 16h-88c-8.837 0-16-7.163-16-16z"/><path fill="#fff" d="M105.413 236v-9.814h1.904l3.178 7.7 3.15-7.7h1.904V236h-1.526v-7.07l-2.954 7.07h-1.162l-2.968-7.084V236h-1.526zm11.584-3.57c0-2.156 1.428-3.682 3.458-3.682 2.03 0 3.444 1.526 3.444 3.682v.378h-5.404c.126 1.288.868 2.072 1.96 2.072.868 0 1.554-.476 1.834-1.288l1.386.308c-.392 1.316-1.596 2.212-3.22 2.212-2.03 0-3.458-1.526-3.458-3.682zm3.458-2.45c-1.008 0-1.708.658-1.918 1.75h3.822c-.182-1.092-.91-1.75-1.904-1.75zm4.6-1.092h1.484v2.968h3.15v-2.968h1.484V236h-1.484v-2.996h-3.15V236h-1.484v-7.112zm7.364 3.542c0-2.156 1.428-3.682 3.458-3.682 2.03 0 3.444 1.526 3.444 3.682v.378h-5.404c.126 1.288.868 2.072 1.96 2.072.868 0 1.554-.476 1.834-1.288l1.386.308c-.392 1.316-1.596 2.212-3.22 2.212-2.03 0-3.458-1.526-3.458-3.682zm3.458-2.45c-1.008 0-1.708.658-1.918 1.75h3.822c-.182-1.092-.91-1.75-1.904-1.75zm6.182-1.092h4.914v5.964h.854v2.688h-1.484V236h-4.718v1.54h-1.484v-2.688h.406c.658 0 .924-.35 1.008-1.064l.504-4.9zm.924 4.844c-.056.434-.182.812-.406 1.12h2.912v-4.816h-2.128l-.378 3.696zM153.084 236v-2.17l-.91-1.092-1.876 3.262h-1.68l2.604-4.424-2.212-2.688h1.652l2.422 2.996v-2.996h1.484v2.996l2.422-2.996h1.652l-2.226 2.688 2.618 4.424h-1.68l-1.89-3.262-.896 1.092V236h-1.484zm11.659 0h-1.162l-1.946-4.802V236h-1.484v-7.112h1.862l2.156 5.25 2.142-5.25h1.862V236h-1.484v-4.802L164.743 236zm4.672-3.57c0-2.156 1.428-3.682 3.458-3.682 2.03 0 3.444 1.526 3.444 3.682v.378h-5.404c.126 1.288.868 2.072 1.96 2.072.868 0 1.554-.476 1.834-1.288l1.386.308c-.392 1.316-1.596 2.212-3.22 2.212-2.03 0-3.458-1.526-3.458-3.682zm3.458-2.45c-1.008 0-1.708.658-1.918 1.75h3.822c-.182-1.092-.91-1.75-1.904-1.75zm4.6-1.092h1.484v2.968h3.15v-2.968h1.484V236h-1.484v-2.996h-3.15V236h-1.484v-7.112zm7.406 1.148v-1.148h6.09v1.148h-2.31V236h-1.484v-5.964h-2.296z"/><path fill="#FF5574" d="M0 232c0-8.837 7.163-16 16-16h48c8.837 0 16 7.163 16 16s-7.163 16-16 16H16c-8.837 0-16-7.163-16-16z"/><path fill="#fff" d="M16.692 238.1v-3.346h.532c.672 0 1.064-.434 1.134-1.218l.686-7.336h6.104v8.554h1.134v3.346h-1.526V236h-6.538v2.1h-1.526zm3.165-4.424a1.922 1.922 0 01-.434 1.078h4.2v-7.308H20.43l-.573 6.23zm7.575-4.788h1.484v4.886l3.234-4.886h1.4V236h-1.484v-4.886L28.832 236h-1.4v-7.112zm10.276 4.018h-.728v-1.092h.728c.742 0 1.33-.392 1.33-.994 0-.49-.49-.84-1.19-.84-.728 0-1.288.392-1.484 1.008l-1.414-.252c.266-1.148 1.386-1.988 2.898-1.988 1.554 0 2.646.826 2.646 1.974 0 .728-.406 1.274-.98 1.582.7.336 1.204.924 1.204 1.708 0 1.176-1.106 2.128-2.772 2.128-1.68 0-2.912-.966-3.206-2.282l1.428-.252c.21.812.868 1.302 1.778 1.302.77 0 1.302-.406 1.302-.952 0-.63-.602-1.05-1.54-1.05zM47.872 236h-1.316c-.056-.224-.154-.7-.182-.924-.504.63-1.246 1.05-2.114 1.05-1.484 0-2.464-.882-2.464-2.198 0-1.232 1.12-2.016 2.982-2.226l1.526-.182v-.308c0-.728-.532-1.232-1.274-1.232-.714 0-1.274.35-1.442.952l-1.428-.238c.294-1.176 1.4-1.946 2.884-1.946 1.624 0 2.744 1.05 2.744 2.66v2.52c0 1.036.014 1.526.084 2.072zm-3.332-1.078c1.092 0 1.764-.728 1.764-1.82v-.56l-1.484.168c-.952.112-1.54.518-1.54 1.162 0 .616.504 1.05 1.26 1.05zm4.767-6.034h1.484v4.886l3.234-4.886h1.4V236h-1.484v-4.886L50.707 236h-1.4v-7.112zm3.066-.504c-1.12 0-1.946-.84-1.946-1.834h1.036c.028.462.392.84.91.84a.861.861 0 00.882-.84h1.05c0 .994-.826 1.834-1.932 1.834zm4.508.504h1.484v2.968h3.15v-2.968H63V236h-1.484v-2.996h-3.15V236h-1.484v-7.112z"/><path fill="#000" fill-opacity=".9" d="M4.032 285.584l.256-.592L.4 276.8h1.92l2.848 6.288 2.848-6.288h1.888l-4.176 8.896c-.688 1.472-1.408 2.464-3.12 2.464a6.976 6.976 0 01-1.664-.192v-1.472c.576.16 1.056.224 1.392.224.928 0 1.408-.496 1.696-1.136zm8.857 1.36v4.256h-1.68v-8.96c0-1.008-.048-1.824-.112-2.368H12.6c.064.288.144.784.192 1.184a3.23 3.23 0 012.592-1.328c2.032 0 3.44 1.744 3.44 4.224 0 2.464-1.408 4.208-3.44 4.208-.976 0-1.936-.464-2.496-1.216zm0-3.216v.512c0 1.408.752 2.512 2.048 2.512 1.36 0 2.192-1.088 2.192-2.8 0-1.744-.832-2.848-2.192-2.848-1.264 0-2.048 1.136-2.048 2.624zm15.013.192c0 2.464-1.632 4.208-3.936 4.208-2.32 0-3.952-1.744-3.952-4.208 0-2.48 1.632-4.208 3.952-4.208 2.304 0 3.936 1.728 3.936 4.208zm-6.192 0c0 1.728.88 2.832 2.256 2.832s2.256-1.104 2.256-2.832c0-1.712-.88-2.8-2.256-2.8s-2.256 1.088-2.256 2.8zm7.622-4.048h4.064c1.424 0 2.432.976 2.432 2.352 0 .56-.304 1.2-.752 1.568.688.368 1.168 1.136 1.168 1.856 0 1.376-1.104 2.352-2.672 2.352h-4.24v-8.128zm1.696 4.688v2.128h2.32c.704 0 1.184-.432 1.184-1.072 0-.624-.48-1.056-1.184-1.056h-2.32zm0-3.376v2.128h2c.64 0 1.072-.432 1.072-1.056 0-.64-.432-1.072-1.072-1.072h-2zm6.36 2.736c0-2.464 1.633-4.208 3.953-4.208s3.936 1.744 3.936 4.208v.432H39.1c.144 1.472.992 2.368 2.24 2.368.992 0 1.776-.544 2.096-1.472l1.584.352c-.448 1.504-1.824 2.528-3.68 2.528-2.32 0-3.952-1.744-3.952-4.208zm3.953-2.8c-1.152 0-1.952.752-2.192 2h4.368c-.208-1.248-1.04-2-2.176-2zm5.257-1.248h1.696v3.392h3.6v-3.392h1.696V288h-1.696v-3.424h-3.6V288h-1.696v-8.128zm8.656 0h1.696v2.896h2.192c1.872 0 2.8 1.296 2.8 2.608s-.928 2.624-2.8 2.624h-3.888v-8.128zm1.696 4.208v2.608h1.904c.928 0 1.408-.656 1.408-1.312s-.464-1.296-1.408-1.296H56.95z"/><mask id="b" fill="#fff"><path d="M0 320c0-8.837 7.163-16 16-16h48c8.837 0 16 7.163 16 16s-7.163 16-16 16H16c-8.837 0-16-7.163-16-16z"/></mask><path fill="#000" fill-opacity=".05" d="M0 320c0-8.837 7.163-16 16-16h48c8.837 0 16 7.163 16 16s-7.163 16-16 16H16c-8.837 0-16-7.163-16-16z"/><path fill="#292929" d="M16 305h48v-2H16v2zm48 30H16v2h48v-2zm-48 0c-8.284 0-15-6.716-15-15h-2c0 9.389 7.611 17 17 17v-2zm63-15c0 8.284-6.716 15-15 15v2c9.389 0 17-7.611 17-17h-2zm-15-15c8.284 0 15 6.716 15 15h2c0-9.389-7.611-17-17-17v2zm-48-2c-9.389 0-17 7.611-17 17h2c0-8.284 6.716-15 15-15v-2z" mask="url(#b)"/><path fill="#000" fill-opacity=".9" d="M17.174 318.114c0-2.954 1.89-5.026 4.564-5.026 2.058 0 3.57 1.106 4.13 2.87l-.994.35c-.392-1.414-1.54-2.254-3.136-2.254-2.058 0-3.5 1.68-3.5 4.06s1.442 4.06 3.5 4.06c1.708 0 2.856-.952 3.136-2.534l.994.35c-.448 1.932-1.96 3.15-4.13 3.15-2.674 0-4.564-2.072-4.564-5.026zm9.81 1.372c0-2.128 1.358-3.626 3.304-3.626 1.946 0 3.304 1.498 3.304 3.626v.266h-5.6c.084 1.512.966 2.45 2.296 2.45 1.036 0 1.778-.546 2.072-1.498l.966.168c-.392 1.358-1.526 2.24-3.038 2.24-1.946 0-3.304-1.498-3.304-3.626zm3.304-2.716c-1.246 0-2.1.826-2.268 2.17h4.55c-.168-1.358-1.036-2.17-2.282-2.17zm4.605-.77h.994v3.08h3.78V316h.994v7h-.994v-3.094h-3.78V323h-.994v-7zm7.45 0h.995v2.674h2.156c1.47 0 2.212 1.078 2.212 2.156 0 1.092-.742 2.17-2.212 2.17h-3.15v-7zm.995 3.5v2.674h2.03c.882 0 1.33-.672 1.33-1.344s-.434-1.33-1.33-1.33h-2.03zm12.006-.014c0 2.128-1.358 3.626-3.304 3.626-1.946 0-3.304-1.498-3.304-3.626s1.358-3.626 3.304-3.626c1.946 0 3.304 1.498 3.304 3.626zm-5.614 0c0 1.68.91 2.744 2.31 2.744s2.31-1.064 2.31-2.744c0-1.666-.91-2.716-2.31-2.716s-2.31 1.05-2.31 2.716zm8.004 2.548v3.766h-.994v-7.84c0-.938-.014-1.456-.07-1.96h.854c.084.308.168.742.21 1.05.546-.686 1.358-1.19 2.31-1.19 1.806 0 3.066 1.512 3.066 3.654 0 2.128-1.26 3.626-3.066 3.626-.924 0-1.75-.392-2.31-1.106zm0-2.73v.462c0 1.288.756 2.464 2.114 2.464 1.414 0 2.268-1.05 2.268-2.716 0-1.694-.854-2.772-2.268-2.772-1.302 0-2.114 1.204-2.114 2.562z"/><mask id="c" fill="#fff"><path d="M88 320c0-8.837 7.163-16 16-16h36c8.837 0 16 7.163 16 16s-7.163 16-16 16h-36c-8.837 0-16-7.163-16-16z"/></mask><path fill="#000" fill-opacity=".05" d="M88 320c0-8.837 7.163-16 16-16h36c8.837 0 16 7.163 16 16s-7.163 16-16 16h-36c-8.837 0-16-7.163-16-16z"/><path fill="#292929" d="M104 305h36v-2h-36v2zm36 30h-36v2h36v-2zm-36 0c-8.284 0-15-6.716-15-15h-2c0 9.389 7.611 17 17 17v-2zm51-15c0 8.284-6.716 15-15 15v2c9.389 0 17-7.611 17-17h-2zm-15-15c8.284 0 15 6.716 15 15h2c0-9.389-7.611-17-17-17v2zm-36-2c-9.389 0-17 7.611-17 17h2c0-8.284 6.716-15 15-15v-2z" mask="url(#c)"/><path fill="#000" fill-opacity=".9" d="M105.316 323v-9.8h1.288l3.696 8.428 3.682-8.428h1.288v9.8h-1.036v-7.966L110.706 323h-.826l-3.528-7.966V323h-1.036zm11.768-7h.994v5.558l3.78-5.558h.994v7h-.994v-5.558l-3.78 5.558h-.994v-7zm9.047 0h4.354v6.174h.854v2.366h-.994V323h-5.236v1.54h-.994v-2.366h.378c.7 0 .994-.476 1.078-1.204l.56-4.97zm.364 5.068c-.056.434-.168.798-.35 1.106h3.346v-5.348h-2.506l-.49 4.242zm7.969-5.068h4.354v7h-.994v-6.174h-2.506l-.49 4.242c-.14 1.162-.756 1.932-1.89 1.932h-.686v-.826h.574c.7 0 .994-.476 1.078-1.204l.56-4.97z"/><path fill="#000" fill-opacity=".05" d="M164 320c0-8.837 7.163-16 16-16h36c8.837 0 16 7.163 16 16s-7.163 16-16 16h-36c-8.837 0-16-7.163-16-16z"/><path fill="#000" fill-opacity=".9" d="M180.845 325.1v-3.024h.294c.798 0 1.302-.546 1.372-1.358l.686-7.518h5.698v8.876h1.12v3.024h-1.036V323h-7.098v2.1h-1.036zm2.674-4.27c-.042.546-.224.952-.518 1.246h4.858v-7.952h-3.738l-.602 6.706zm11.66 2.17v-2.31l-1.078-1.26-2.17 3.57h-1.148l2.674-4.34-2.268-2.66h1.148l2.842 3.36V316h.994v3.36l2.842-3.36h1.148l-2.268 2.66 2.674 4.34h-1.148l-2.17-3.57-1.078 1.26V323h-.994zm8.68.504l.196-.504-2.716-7h1.008l2.17 5.754 2.198-5.754h.994l-2.926 7.56c-.42 1.106-.882 2.366-2.464 2.366-.28 0-.588-.028-.924-.098v-.882c.336.084.616.112.84.112 1.022 0 1.358-.812 1.624-1.554zm5.105-7.504h.994v3.08h3.78V316h.994v7h-.994v-3.094h-3.78V323h-.994v-7z"/><path fill="#000" fill-opacity=".05" d="M240 320c0-8.837 7.163-16 16-16h51c8.837 0 16 7.163 16 16s-7.163 16-16 16h-51c-8.837 0-16-7.163-16-16z"/><path fill="#000" fill-opacity=".9" d="M257.327 318.114c0-2.954 1.89-5.026 4.564-5.026 2.058 0 3.57 1.106 4.13 2.87l-.994.35c-.392-1.414-1.54-2.254-3.136-2.254-2.058 0-3.5 1.68-3.5 4.06s1.442 4.06 3.5 4.06c1.708 0 2.856-.952 3.136-2.534l.994.35c-.448 1.932-1.96 3.15-4.13 3.15-2.674 0-4.564-2.072-4.564-5.026zm9.866-1.288V316h5.768v.826h-2.394V323h-.994v-6.174h-2.38zm12.67 6.174h-.854a6.97 6.97 0 01-.21-1.05c-.476.686-1.176 1.176-2.184 1.176-1.456 0-2.478-.882-2.478-2.142 0-1.26 1.036-1.918 2.842-2.128l1.82-.21v-.42c0-.868-.644-1.456-1.568-1.456-.882 0-1.526.35-1.764 1.05l-.966-.168c.35-1.12 1.372-1.792 2.73-1.792 1.554 0 2.562 1.022 2.562 2.576v2.604c0 .938.014 1.456.07 1.96zm-3.164-.756c1.302 0 2.1-.854 2.1-2.058v-.756l-1.834.224c-1.134.14-1.834.56-1.834 1.33 0 .728.644 1.26 1.568 1.26zm8.679.756v-2.31l-1.078-1.26-2.17 3.57h-1.148l2.674-4.34-2.268-2.66h1.148l2.842 3.36V316h.994v3.36l2.842-3.36h1.148l-2.268 2.66 2.674 4.34h-1.148l-2.17-3.57-1.078 1.26V323h-.994zm6.3-3.514c0-2.128 1.358-3.626 3.304-3.626 1.946 0 3.304 1.498 3.304 3.626v.266h-5.6c.084 1.512.966 2.45 2.296 2.45 1.036 0 1.778-.546 2.072-1.498l.966.168c-.392 1.358-1.526 2.24-3.038 2.24-1.946 0-3.304-1.498-3.304-3.626zm3.304-2.716c-1.246 0-2.1.826-2.268 2.17h4.55c-.168-1.358-1.036-2.17-2.282-2.17zm5.599 5.264v3.766h-.994v-7.84c0-.938-.014-1.456-.07-1.96h.854c.084.308.168.742.21 1.05.546-.686 1.358-1.19 2.31-1.19 1.806 0 3.066 1.512 3.066 3.654 0 2.128-1.26 3.626-3.066 3.626-.924 0-1.75-.392-2.31-1.106zm0-2.73v.462c0 1.288.756 2.464 2.114 2.464 1.414 0 2.268-1.05 2.268-2.716 0-1.694-.854-2.772-2.268-2.772-1.302 0-2.114 1.204-2.114 2.562zM2.8 371.888V376H1.056v-11.216h4.208c5.136 0 5.136 7.104 0 7.104H2.8zm0-1.44h2.368c3.008 0 3.008-4.24 0-4.24H2.8v4.24zm7.51 1.472c0-2.464 1.633-4.208 3.953-4.208s3.936 1.744 3.936 4.208v.432h-6.176c.144 1.472.992 2.368 2.24 2.368.992 0 1.776-.544 2.096-1.472l1.584.352c-.448 1.504-1.824 2.528-3.68 2.528-2.32 0-3.952-1.744-3.952-4.208zm3.953-2.8c-1.152 0-1.952.752-2.192 2h4.368c-.208-1.248-1.04-2-2.176-2zm9.976 6.88v-2.48l-1.04-1.248L21.056 376h-1.92l2.976-5.056-2.527-3.072h1.887l2.768 3.424v-3.424h1.697v3.424l2.767-3.424h1.889l-2.544 3.072L31.04 376h-1.92l-2.16-3.728-1.024 1.248V376h-1.697zm8.077-8.128h1.696v5.584l3.696-5.584h1.6V376h-1.696v-5.584L33.916 376h-1.6v-8.128zM46.221 376h-1.328l-2.224-5.488V376h-1.696v-8.128H43.1l2.464 6 2.448-6h2.128V376h-1.696v-5.488L46.22 376zm11.496-1.056v4.256h-1.68v-8.96c0-1.008-.048-1.824-.112-2.368h1.504c.064.288.144.784.192 1.184a3.23 3.23 0 012.592-1.328c2.032 0 3.44 1.744 3.44 4.224 0 2.464-1.408 4.208-3.44 4.208-.976 0-1.936-.464-2.496-1.216zm0-3.216v.512c0 1.408.752 2.512 2.048 2.512 1.36 0 2.192-1.088 2.192-2.8 0-1.744-.832-2.848-2.192-2.848-1.264 0-2.048 1.136-2.048 2.624zM71.786 376h-1.504c-.064-.256-.176-.8-.208-1.056-.576.72-1.424 1.2-2.416 1.2-1.696 0-2.816-1.008-2.816-2.512 0-1.408 1.28-2.304 3.408-2.544l1.744-.208v-.352c0-.832-.608-1.408-1.456-1.408-.816 0-1.456.4-1.648 1.088l-1.632-.272c.336-1.344 1.6-2.224 3.296-2.224 1.856 0 3.136 1.2 3.136 3.04v2.88c0 1.184.016 1.744.096 2.368zm-3.808-1.232c1.248 0 2.016-.832 2.016-2.08v-.64l-1.696.192c-1.088.128-1.76.592-1.76 1.328 0 .704.576 1.2 1.44 1.2zm6.904-3.2v.272c0 1.76.784 2.864 2.128 2.864 1.328 0 2.112-1.104 2.112-2.864 0-1.712-.848-2.784-2.208-2.784-1.28 0-2.032 1.088-2.032 2.512zm-1.696.032v-2.016c0-3.008 1.792-4.576 4.464-4.88.784-.08 1.552-.16 2.336-.576v1.408c-.784.384-1.568.448-2.384.56-1.808.24-2.72 1.248-2.72 2.64v.112c.56-.736 1.52-1.2 2.496-1.2 2.016 0 3.44 1.728 3.44 4.192 0 2.48-1.52 4.24-3.808 4.24-2.304 0-3.824-1.728-3.824-4.48zm16.7.32c0 2.464-1.632 4.208-3.936 4.208-2.32 0-3.952-1.744-3.952-4.208 0-2.48 1.632-4.208 3.952-4.208 2.304 0 3.936 1.728 3.936 4.208zm-6.192 0c0 1.728.88 2.832 2.256 2.832s2.256-1.104 2.256-2.832c0-1.712-.88-2.8-2.256-2.8s-2.256 1.088-2.256 2.8zm7.43-2.736v-1.312h6.96v1.312h-2.64V376h-1.696v-6.816h-2.624zm8.411-1.312h1.696v2.896h2.192c1.872 0 2.8 1.296 2.8 2.608s-.928 2.624-2.8 2.624h-3.888v-8.128zm1.696 4.208v2.608h1.904c.928 0 1.408-.656 1.408-1.312s-.464-1.296-1.408-1.296h-1.904zm6.448 3.92v-8.128h1.68V376h-1.68z"/><path fill="#000" fill-opacity=".05" d="M0 408c0-8.837 7.163-16 16-16h46c8.837 0 16 7.163 16 16s-7.163 16-16 16H16c-8.837 0-16-7.163-16-16z"/><path fill="#000" fill-opacity=".9" d="M16.984 411v-9.8h6.23v.924H18.02V411h-1.036zm7.625-7h.994v5.558l3.78-5.558h.995v7h-.994v-5.558L25.604 411h-.994v-7zm8.166 3.164v.252c0 1.694.784 2.772 2.198 2.772s2.184-1.078 2.184-2.772c0-1.666-.854-2.716-2.268-2.716-1.358 0-2.114 1.176-2.114 2.464zm-.994.098v-1.988c0-2.478 1.372-3.934 3.696-4.144.644-.056 1.274-.112 1.918-.448v.854c-.644.336-1.274.392-1.918.448-1.792.154-2.702 1.316-2.702 2.786v.126c.56-.714 1.386-1.106 2.31-1.106 1.806 0 3.066 1.498 3.066 3.626 0 2.142-1.204 3.654-3.178 3.654s-3.192-1.47-3.192-3.808zm8.766 2.772v3.766h-.994v-7.84c0-.938-.014-1.456-.07-1.96h.854c.084.308.168.742.21 1.05.546-.686 1.358-1.19 2.31-1.19 1.806 0 3.066 1.512 3.066 3.654 0 2.128-1.26 3.626-3.066 3.626-.924 0-1.75-.392-2.31-1.106zm0-2.73v.462c0 1.288.756 2.464 2.114 2.464 1.414 0 2.268-1.05 2.268-2.716 0-1.694-.854-2.772-2.268-2.772-1.302 0-2.114 1.204-2.114 2.562zM47.319 404h.993v5.558l3.78-5.558h.995v7h-.995v-5.558L48.313 411h-.993v-7zm9.047 0h4.354v6.174h.854v2.366h-.994V411h-5.236v1.54h-.994v-2.366h.378c.7 0 .994-.476 1.078-1.204l.56-4.97zm.364 5.068c-.056.434-.168.798-.35 1.106h3.346v-5.348H57.22l-.49 4.242z"/><path fill="#000" fill-opacity=".05" d="M86 408c0-8.837 7.163-16 16-16h36c8.837 0 16 7.163 16 16s-7.163 16-16 16h-36c-8.837 0-16-7.163-16-16z"/><path fill="#000" fill-opacity=".9" d="M107.849 411.112c-2.674 0-4.564-2.072-4.564-5.012 0-2.94 1.89-5.012 4.564-5.012 2.674 0 4.564 2.072 4.564 5.012 0 2.94-1.89 5.012-4.564 5.012zm0-.966c2.058 0 3.5-1.61 3.5-4.032 0-2.422-1.442-4.06-3.5-4.06s-3.5 1.638-3.5 4.06c0 2.422 1.442 4.032 3.5 4.032zm9.653 3.654v-2.702c-2.324-.168-3.766-1.526-3.766-3.612 0-2.086 1.442-3.444 3.766-3.612V401.2h.994v2.674c2.324.168 3.752 1.526 3.752 3.612 0 2.086-1.428 3.444-3.752 3.612v2.702h-.994zm-2.786-6.3c0 1.54 1.064 2.548 2.786 2.702v-5.404c-1.722.154-2.786 1.162-2.786 2.702zm6.552 0c0-1.54-1.05-2.548-2.772-2.702v5.404c1.722-.154 2.772-1.162 2.772-2.702zm2.306-3.5h.994v5.558l3.78-5.558h.994v7h-.994v-5.558l-3.78 5.558h-.994v-7zm7.172 3.486c0-2.128 1.358-3.626 3.304-3.626 1.512 0 2.646.91 3.038 2.296l-.966.168c-.28-.98-1.036-1.554-2.072-1.554-1.4 0-2.31 1.05-2.31 2.716 0 1.666.91 2.716 2.31 2.716 1.036 0 1.778-.546 2.072-1.498l.966.168c-.392 1.358-1.526 2.24-3.038 2.24-1.946 0-3.304-1.498-3.304-3.626z"/><path fill="#000" fill-opacity=".05" d="M162 408c0-8.837 7.163-16 16-16h62c8.837 0 16 7.163 16 16s-7.163 16-16 16h-62c-8.837 0-16-7.163-16-16z"/><path fill="#000" fill-opacity=".9" d="M181.554 409.152l.294-.644-3.374-7.308h1.12l2.772 6.16 2.786-6.16h1.092l-3.668 8.008c-.42.924-.98 1.918-2.66 1.918-.336 0-.7-.028-1.092-.098v-.882c.392.084.728.112.994.112 1.092 0 1.484-.56 1.736-1.106zm7.549-5.152h4.354v6.174h.854v2.366h-.994V411h-5.236v1.54h-.994v-2.366h.378c.7 0 .994-.476 1.078-1.204l.56-4.97zm.364 5.068c-.056.434-.168.798-.35 1.106h3.346v-5.348h-2.506l-.49 4.242zM201.019 411h-.854a6.97 6.97 0 01-.21-1.05c-.476.686-1.176 1.176-2.184 1.176-1.456 0-2.478-.882-2.478-2.142 0-1.26 1.036-1.918 2.842-2.128l1.82-.21v-.42c0-.868-.644-1.456-1.568-1.456-.882 0-1.526.35-1.764 1.05l-.966-.168c.35-1.12 1.372-1.792 2.73-1.792 1.554 0 2.562 1.022 2.562 2.576v2.604c0 .938.014 1.456.07 1.96zm-3.164-.756c1.302 0 2.1-.854 2.1-2.058v-.756l-1.834.224c-1.134.14-1.834.56-1.834 1.33 0 .728.644 1.26 1.568 1.26zM204.49 404h4.354v7h-.994v-6.174h-2.506l-.49 4.242c-.14 1.162-.756 1.932-1.89 1.932h-.686v-.826h.574c.7 0 .994-.476 1.078-1.204l.56-4.97zm5.76 3.486c0-2.128 1.358-3.626 3.304-3.626 1.946 0 3.304 1.498 3.304 3.626v.266h-5.6c.084 1.512.966 2.45 2.296 2.45 1.036 0 1.778-.546 2.072-1.498l.966.168c-.392 1.358-1.526 2.24-3.038 2.24-1.946 0-3.304-1.498-3.304-3.626zm3.304-2.716c-1.246 0-2.1.826-2.268 2.17h4.55c-.168-1.358-1.036-2.17-2.282-2.17zm4.605-.77h.994v3.08h3.78V404h.994v7h-.994v-3.094h-3.78V411h-.994v-7zm7.452 0h.994v3.08h3.78V404h.994v7h-.994v-3.094h-3.78V411h-.994v-7zm13.779 3.486c0 2.128-1.358 3.626-3.304 3.626-1.946 0-3.304-1.498-3.304-3.626s1.358-3.626 3.304-3.626c1.946 0 3.304 1.498 3.304 3.626zm-5.614 0c0 1.68.91 2.744 2.31 2.744s2.31-1.064 2.31-2.744c0-1.666-.91-2.716-2.31-2.716s-2.31 1.05-2.31 2.716zM2.576 461.184l.784-8.384h6.976V464H8.608v-9.776H4.944l-.656 7.12C4.144 462.896 3.168 464 1.52 464H.224v-1.424h1.072c.752 0 1.2-.496 1.28-1.392zm17.31-1.264c0 2.464-1.632 4.208-3.936 4.208-2.32 0-3.952-1.744-3.952-4.208 0-2.48 1.632-4.208 3.952-4.208 2.304 0 3.936 1.728 3.936 4.208zm-6.192 0c0 1.728.88 2.832 2.256 2.832s2.256-1.104 2.256-2.832c0-1.712-.88-2.8-2.256-2.8s-2.256 1.088-2.256 2.8zm7.702 4.08v-8.128h1.68v3.488l3.104-3.488h1.904l-2.848 3.184L28.532 464h-1.936l-2.464-3.696-1.056 1.184V464h-1.68zm14.937 0h-1.504c-.064-.256-.176-.8-.208-1.056-.576.72-1.424 1.2-2.416 1.2-1.696 0-2.816-1.008-2.816-2.512 0-1.408 1.28-2.304 3.408-2.544l1.744-.208v-.352c0-.832-.608-1.408-1.456-1.408-.816 0-1.456.4-1.648 1.088l-1.632-.272c.336-1.344 1.6-2.224 3.296-2.224 1.856 0 3.136 1.2 3.136 3.04v2.88c0 1.184.016 1.744.096 2.368zm-3.808-1.232c1.248 0 2.016-.832 2.016-2.08v-.64l-1.696.192c-1.088.128-1.76.592-1.76 1.328 0 .704.576 1.2 1.44 1.2zm12.44-6.896v6.816h1.248v3.072h-1.696V464h-6.544v-8.128h1.696v6.816h3.6v-6.816h1.696zm2.523 0h1.696v5.584l3.696-5.584h1.6V464h-1.696v-5.584L49.088 464h-1.6v-8.128zm15.2 8.128h-1.696v-2.896h-1.711L57.617 464h-1.92l1.84-3.136c-1.024-.448-1.536-1.408-1.536-2.368 0-1.328.944-2.624 2.816-2.624h3.871V464zm-1.696-4.208v-2.608H59.09c-.928 0-1.392.656-1.392 1.312 0 .64.463 1.296 1.392 1.296h1.904z"/><path fill="#000" fill-opacity=".05" d="M0 500c0-11.046 8.954-20 20-20h280c11.046 0 20 8.954 20 20s-8.954 20-20 20H20c-11.046 0-20-8.954-20-20z"/><path fill="#000" fill-opacity=".6" d="M17.057 503v-9.8h1.036v4.382h5.586V493.2h1.036v9.8H23.68v-4.494h-5.586V503h-1.036zm14.918 0h-.855a6.97 6.97 0 01-.21-1.05c-.476.686-1.175 1.176-2.183 1.176-1.457 0-2.479-.882-2.479-2.142 0-1.26 1.037-1.918 2.842-2.128l1.82-.21v-.42c0-.868-.643-1.456-1.567-1.456-.883 0-1.526.35-1.765 1.05l-.965-.168c.35-1.12 1.372-1.792 2.73-1.792 1.553 0 2.561 1.022 2.561 2.576v2.604c0 .938.015 1.456.07 1.96zm-3.165-.756c1.303 0 2.1-.854 2.1-2.058v-.756l-1.834.224c-1.134.14-1.834.56-1.834 1.33 0 .728.645 1.26 1.569 1.26zm7.181-2.422h-.7v-.812h.7c.91 0 1.694-.49 1.694-1.232 0-.588-.616-1.008-1.498-1.008s-1.526.42-1.764 1.12l-.966-.168c.35-1.12 1.372-1.862 2.73-1.862 1.456 0 2.478.798 2.478 1.918 0 .84-.448 1.302-1.064 1.596.728.322 1.26.798 1.26 1.75 0 1.05-.994 2.016-2.604 2.016-1.54 0-2.66-.854-3.038-2.156l.966-.168c.266.896 1.008 1.414 2.072 1.414.952 0 1.624-.504 1.624-1.106 0-.77-.742-1.302-1.89-1.302zM40.337 496h3.248c1.176 0 2.002.812 2.002 1.96 0 .546-.322 1.134-.77 1.428.672.28 1.148.966 1.148 1.652 0 1.148-.91 1.96-2.212 1.96h-3.416v-7zm.994 3.92v2.254h2.296c.784 0 1.33-.462 1.33-1.134 0-.658-.546-1.12-1.33-1.12h-2.296zm0-3.094v2.254h2.128c.658 0 1.12-.462 1.12-1.12 0-.672-.462-1.134-1.12-1.134h-2.128zM52.742 503h-.854a6.97 6.97 0 01-.21-1.05c-.476.686-1.176 1.176-2.184 1.176-1.456 0-2.478-.882-2.478-2.142 0-1.26 1.036-1.918 2.842-2.128l1.82-.21v-.42c0-.868-.644-1.456-1.568-1.456-.882 0-1.526.35-1.764 1.05l-.966-.168c.35-1.12 1.372-1.792 2.73-1.792 1.554 0 2.562 1.022 2.562 2.576v2.604c0 .938.014 1.456.07 1.96zm-3.164-.756c1.302 0 2.1-.854 2.1-2.058v-.756l-1.834.224c-1.134.14-1.834.56-1.834 1.33 0 .728.644 1.26 1.568 1.26zM54.351 496h.994v3.08h3.78V496h.994v7h-.994v-3.094h-3.78V503h-.994v-7zm7.45 0h.995v5.558l3.78-5.558h.994v7h-.994v-5.558L62.796 503h-.994v-7zm7.172 3.486c0-2.128 1.358-3.626 3.304-3.626 1.946 0 3.304 1.498 3.304 3.626v.266h-5.6c.084 1.512.966 2.45 2.296 2.45 1.036 0 1.778-.546 2.072-1.498l.966.168c-.392 1.358-1.526 2.24-3.038 2.24-1.946 0-3.304-1.498-3.304-3.626zm3.304-2.716c-1.246 0-2.1.826-2.268 2.17h4.55c-.168-1.358-1.036-2.17-2.282-2.17zm8.105-.77h4.788v.826h-3.794V503h-.994v-7zm12.576 3.486c0 2.128-1.358 3.626-3.304 3.626-1.946 0-3.304-1.498-3.304-3.626s1.358-3.626 3.304-3.626c1.946 0 3.304 1.498 3.304 3.626zm-5.614 0c0 1.68.91 2.744 2.31 2.744s2.31-1.064 2.31-2.744c0-1.666-.91-2.716-2.31-2.716s-2.31 1.05-2.31 2.716zm8.005 2.548v3.766h-.994v-7.84c0-.938-.014-1.456-.07-1.96h.854c.084.308.168.742.21 1.05.546-.686 1.358-1.19 2.31-1.19 1.806 0 3.066 1.512 3.066 3.654 0 2.128-1.26 3.626-3.066 3.626-.924 0-1.75-.392-2.31-1.106zm0-2.73v.462c0 1.288.756 2.464 2.114 2.464 1.414 0 2.268-1.05 2.268-2.716 0-1.694-.854-2.772-2.268-2.772-1.302 0-2.114 1.204-2.114 2.562zm13.099.182c0 2.128-1.358 3.626-3.304 3.626-1.946 0-3.304-1.498-3.304-3.626s1.358-3.626 3.304-3.626c1.946 0 3.304 1.498 3.304 3.626zm-5.614 0c0 1.68.91 2.744 2.31 2.744s2.31-1.064 2.31-2.744c0-1.666-.91-2.716-2.31-2.716s-2.31 1.05-2.31 2.716zm8.607-3.486h4.354v6.174h.854v2.366h-.994V503h-5.236v1.54h-.994v-2.366h.378c.7 0 .994-.476 1.078-1.204l.56-4.97zm.364 5.068c-.056.434-.168.798-.35 1.106h3.346v-5.348h-2.506l-.49 4.242zM123.357 503h-.854a6.97 6.97 0 01-.21-1.05c-.476.686-1.176 1.176-2.184 1.176-1.456 0-2.478-.882-2.478-2.142 0-1.26 1.036-1.918 2.842-2.128l1.82-.21v-.42c0-.868-.644-1.456-1.568-1.456-.882 0-1.526.35-1.764 1.05l-.966-.168c.35-1.12 1.372-1.792 2.73-1.792 1.554 0 2.562 1.022 2.562 2.576v2.604c0 .938.014 1.456.07 1.96zm-3.164-.756c1.302 0 2.1-.854 2.1-2.058v-.756l-1.834.224c-1.134.14-1.834.56-1.834 1.33 0 .728.644 1.26 1.568 1.26zm8.273-6.244h.994v5.558l3.78-5.558h.994v7h-.994v-5.558L129.46 503h-.994v-7zm9.313 0h4.354v7h-.994v-6.174h-2.506l-.49 4.242c-.14 1.162-.756 1.932-1.89 1.932h-.686v-.826h.574c.7 0 .994-.476 1.078-1.204l.56-4.97zm6.04 0h.994v5.558l3.78-5.558h.994v7h-.994v-5.558l-3.78 5.558h-.994v-7zm10.672 3.486c0-2.128 1.358-3.626 3.304-3.626 1.512 0 2.646.91 3.038 2.296l-.966.168c-.28-.98-1.036-1.554-2.072-1.554-1.4 0-2.31 1.05-2.31 2.716 0 1.666.91 2.716 2.31 2.716 1.036 0 1.778-.546 2.072-1.498l.966.168c-.392 1.358-1.526 2.24-3.038 2.24-1.946 0-3.304-1.498-3.304-3.626zm7.425-2.66V496h5.768v.826h-2.394V503h-.994v-6.174h-2.38zm8.218 5.208v3.766h-.994v-7.84c0-.938-.014-1.456-.07-1.96h.854c.084.308.168.742.21 1.05.546-.686 1.358-1.19 2.31-1.19 1.806 0 3.066 1.512 3.066 3.654 0 2.128-1.26 3.626-3.066 3.626-.924 0-1.75-.392-2.31-1.106zm0-2.73v.462c0 1.288.756 2.464 2.114 2.464 1.414 0 2.268-1.05 2.268-2.716 0-1.694-.854-2.772-2.268-2.772-1.302 0-2.114 1.204-2.114 2.562zM182.351 503h-.854a6.97 6.97 0 01-.21-1.05c-.476.686-1.176 1.176-2.184 1.176-1.456 0-2.478-.882-2.478-2.142 0-1.26 1.036-1.918 2.842-2.128l1.82-.21v-.42c0-.868-.644-1.456-1.568-1.456-.882 0-1.526.35-1.764 1.05l-.966-.168c.35-1.12 1.372-1.792 2.73-1.792 1.554 0 2.562 1.022 2.562 2.576v2.604c0 .938.014 1.456.07 1.96zm-3.164-.756c1.302 0 2.1-.854 2.1-2.058v-.756l-1.834.224c-1.134.14-1.834.56-1.834 1.33 0 .728.644 1.26 1.568 1.26zM183.96 496h.994v3.08h3.78V496h.994v7h-.994v-3.094h-3.78V503h-.994v-7zm7.451 0h.994v2.674h2.156c1.47 0 2.212 1.078 2.212 2.156 0 1.092-.742 2.17-2.212 2.17h-3.15v-7zm.994 3.5v2.674h2.03c.882 0 1.33-.672 1.33-1.344s-.434-1.33-1.33-1.33h-2.03zm5.684 3.5v-7h.994v7h-.994z"/><path fill="#000" fill-opacity=".05" d="M0 544c0-8.837 7.163-16 16-16h72c8.837 0 16 7.163 16 16s-7.163 16-16 16H16c-8.837 0-16-7.163-16-16z"/><path fill="#000" fill-opacity=".9" d="M17.027 547v-9.8h1.288l3.696 8.428 3.682-8.428h1.288v9.8h-1.036v-7.966L22.417 547h-.826l-3.528-7.966V547h-1.036zm18.096-3.514c0 2.128-1.358 3.626-3.304 3.626-1.946 0-3.304-1.498-3.304-3.626s1.358-3.626 3.304-3.626c1.946 0 3.304 1.498 3.304 3.626zm-5.614 0c0 1.68.91 2.744 2.31 2.744s2.31-1.064 2.31-2.744c0-1.666-.91-2.716-2.31-2.716s-2.31 1.05-2.31 2.716zm6.73 0c0-2.128 1.359-3.626 3.305-3.626 1.512 0 2.646.91 3.038 2.296l-.966.168c-.28-.98-1.036-1.554-2.072-1.554-1.4 0-2.31 1.05-2.31 2.716 0 1.666.91 2.716 2.31 2.716 1.036 0 1.778-.546 2.072-1.498l.966.168c-.392 1.358-1.526 2.24-3.038 2.24-1.946 0-3.304-1.498-3.304-3.626zM43.89 547v-7h.994v3.304L48.019 540h1.176l-2.604 2.772L49.587 547h-1.162l-2.492-3.528-1.05 1.12V547h-.994zm6.89-7h3.248c1.176 0 2.002.812 2.002 1.96 0 .546-.322 1.134-.77 1.428.672.28 1.148.966 1.148 1.652 0 1.148-.91 1.96-2.211 1.96H50.78v-7zm.994 3.92v2.254h2.296c.784 0 1.33-.462 1.33-1.134 0-.658-.546-1.12-1.33-1.12h-2.296zm0-3.094v2.254h2.128c.658 0 1.12-.462 1.12-1.12 0-.672-.462-1.134-1.12-1.134h-2.128zM63.184 547h-.854a6.97 6.97 0 01-.21-1.05c-.476.686-1.176 1.176-2.184 1.176-1.456 0-2.478-.882-2.478-2.142 0-1.26 1.036-1.918 2.842-2.128l1.82-.21v-.42c0-.868-.644-1.456-1.568-1.456-.882 0-1.526.35-1.764 1.05l-.966-.168c.35-1.12 1.372-1.792 2.73-1.792 1.554 0 2.562 1.022 2.562 2.576v2.604c0 .938.014 1.456.07 1.96zm-3.164-.756c1.302 0 2.1-.854 2.1-2.058v-.756l-1.834.224c-1.134.14-1.834.56-1.834 1.33 0 .728.644 1.26 1.568 1.26z"/><path fill="#000" fill-opacity=".6" fill-rule="evenodd" d="M75.22 539.22a.75.75 0 011.06 0l3.72 3.719 3.72-3.719a.75.75 0 111.06 1.06L81.06 544l3.72 3.72a.75.75 0 11-1.06 1.06L80 545.061l-3.72 3.719a.75.75 0 11-1.06-1.06l3.72-3.72-3.72-3.72a.75.75 0 010-1.06z" clip-rule="evenodd"/><path fill="#000" fill-opacity=".05" d="M112 544c0-8.837 7.163-16 16-16h137c8.837 0 16 7.163 16 16s-7.163 16-16 16H128c-8.837 0-16-7.163-16-16z"/><path fill="#000" fill-opacity=".9" d="M128.978 542.114c0-2.954 1.89-5.026 4.564-5.026 2.058 0 3.57 1.106 4.13 2.87l-.994.35c-.392-1.414-1.54-2.254-3.136-2.254-2.058 0-3.5 1.68-3.5 4.06s1.442 4.06 3.5 4.06c1.708 0 2.856-.952 3.136-2.534l.994.35c-.448 1.932-1.96 3.15-4.13 3.15-2.674 0-4.564-2.072-4.564-5.026zM144.514 547h-.854a6.97 6.97 0 01-.21-1.05c-.476.686-1.176 1.176-2.184 1.176-1.456 0-2.478-.882-2.478-2.142 0-1.26 1.036-1.918 2.842-2.128l1.82-.21v-.42c0-.868-.644-1.456-1.568-1.456-.882 0-1.526.35-1.764 1.05l-.966-.168c.35-1.12 1.372-1.792 2.73-1.792 1.554 0 2.562 1.022 2.562 2.576v2.604c0 .938.014 1.456.07 1.96zm-3.164-.756c1.302 0 2.1-.854 2.1-2.058v-.756l-1.834.224c-1.134.14-1.834.56-1.834 1.33 0 .728.644 1.26 1.568 1.26zm4.772-6.244h.994v3.08h3.78V540h.994v7h-.994v-3.094h-3.78V547h-.994v-7zm7.451 7v-7h.994v3.304l3.136-3.304h1.176l-2.604 2.772 2.996 4.228h-1.162l-2.492-3.528-1.05 1.12V547h-.994zm6.667-6.174V540h5.768v.826h-2.394V547h-.994v-6.174h-2.38zm7.224 3.024v-.826h4.214v.826h-4.214zm6.033 3.15v-9.8h7.658v9.8h-1.036v-8.876h-5.586V547h-1.036zm9.191-3.514c0-2.128 1.358-3.626 3.304-3.626 1.946 0 3.304 1.498 3.304 3.626v.266h-5.6c.084 1.512.966 2.45 2.296 2.45 1.036 0 1.778-.546 2.072-1.498l.966.168c-.392 1.358-1.526 2.24-3.038 2.24-1.946 0-3.304-1.498-3.304-3.626zm3.304-2.716c-1.246 0-2.1.826-2.268 2.17h4.55c-.168-1.358-1.036-2.17-2.282-2.17zm4.381.056V540h5.768v.826h-2.394V547h-.994v-6.174h-2.38zm6.944 2.66c0-2.128 1.358-3.626 3.304-3.626 1.946 0 3.304 1.498 3.304 3.626v.266h-5.6c.084 1.512.966 2.45 2.296 2.45 1.036 0 1.778-.546 2.072-1.498l.966.168c-.392 1.358-1.526 2.24-3.038 2.24-1.946 0-3.304-1.498-3.304-3.626zm3.304-2.716c-1.246 0-2.1.826-2.268 2.17h4.55c-.168-1.358-1.036-2.17-2.282-2.17zm5.599 5.264v3.766h-.994v-7.84c0-.938-.014-1.456-.07-1.96h.854c.084.308.168.742.21 1.05.546-.686 1.358-1.19 2.31-1.19 1.806 0 3.066 1.512 3.066 3.654 0 2.128-1.26 3.626-3.066 3.626-.924 0-1.75-.392-2.31-1.106zm0-2.73v.462c0 1.288.756 2.464 2.114 2.464 1.414 0 2.268-1.05 2.268-2.716 0-1.694-.854-2.772-2.268-2.772-1.302 0-2.114 1.204-2.114 2.562zm7.485-.14v.252c0 1.694.784 2.772 2.198 2.772s2.184-1.078 2.184-2.772c0-1.666-.854-2.716-2.268-2.716-1.358 0-2.114 1.176-2.114 2.464zm-.994.098v-1.988c0-2.478 1.372-3.934 3.696-4.144.644-.056 1.274-.112 1.918-.448v.854c-.644.336-1.274.392-1.918.448-1.792.154-2.702 1.316-2.702 2.786v.126c.56-.714 1.386-1.106 2.31-1.106 1.806 0 3.066 1.498 3.066 3.626 0 2.142-1.204 3.654-3.178 3.654s-3.192-1.47-3.192-3.808zm9.873 4.242l.196-.504-2.716-7h1.008l2.17 5.754L225.44 540h.994l-2.926 7.56c-.42 1.106-.882 2.366-2.464 2.366-.28 0-.588-.028-.924-.098v-.882c.336.084.616.112.84.112 1.022 0 1.358-.812 1.624-1.554zm6.099-1.47v3.766h-.994v-7.84c0-.938-.014-1.456-.07-1.96h.854c.084.308.168.742.21 1.05.546-.686 1.358-1.19 2.31-1.19 1.806 0 3.066 1.512 3.066 3.654 0 2.128-1.26 3.626-3.066 3.626-.924 0-1.75-.392-2.31-1.106zm0-2.73v.462c0 1.288.756 2.464 2.114 2.464 1.414 0 2.268-1.05 2.268-2.716 0-1.694-.854-2.772-2.268-2.772-1.302 0-2.114 1.204-2.114 2.562zm6.771-3.304h4.788v.826h-3.794V547h-.994v-7z"/><path fill="#000" fill-opacity=".6" fill-rule="evenodd" d="M252.22 539.22a.749.749 0 011.06 0l3.72 3.719 3.72-3.719a.749.749 0 111.06 1.06l-3.719 3.72 3.719 3.72a.749.749 0 11-1.06 1.06l-3.72-3.719-3.72 3.719a.749.749 0 11-1.06-1.06l3.719-3.72-3.719-3.72a.749.749 0 010-1.06z" clip-rule="evenodd"/><path fill="#000" fill-opacity=".9" d="M1.056 600v-11.216H2.8v4.832h5.568v-4.832h1.744V600H8.368v-4.96H2.8V600H1.056zm17.652 0h-1.504c-.064-.256-.176-.8-.208-1.056-.576.72-1.424 1.2-2.416 1.2-1.696 0-2.816-1.008-2.816-2.512 0-1.408 1.28-2.304 3.408-2.544l1.744-.208v-.352c0-.832-.608-1.408-1.456-1.408-.816 0-1.456.4-1.648 1.088l-1.632-.272c.336-1.344 1.6-2.224 3.296-2.224 1.856 0 3.136 1.2 3.136 3.04v2.88c0 1.184.016 1.744.096 2.368zm-3.808-1.232c1.248 0 2.016-.832 2.016-2.08v-.64l-1.696.192c-1.088.128-1.76.592-1.76 1.328 0 .704.576 1.2 1.44 1.2zm5.448-6.896h4.064c1.424 0 2.432.976 2.432 2.352 0 .56-.304 1.2-.752 1.568.688.368 1.168 1.136 1.168 1.856 0 1.376-1.104 2.352-2.672 2.352h-4.24v-8.128zm1.696 4.688v2.128h2.32c.704 0 1.184-.432 1.184-1.072 0-.624-.48-1.056-1.184-1.056h-2.32zm0-3.376v2.128h2c.64 0 1.072-.432 1.072-1.056 0-.64-.432-1.072-1.072-1.072h-2zm6.6-1.312h1.697v2.896h2.191c1.873 0 2.8 1.296 2.8 2.608s-.928 2.624-2.8 2.624h-3.887v-8.128zm1.697 4.208v2.608h1.904c.928 0 1.408-.656 1.408-1.312s-.465-1.296-1.408-1.296H30.34zm6.447 3.92v-8.128h1.68V600h-1.68zm3.483 0v-8.128h1.68v3.488l3.104-3.488h1.904l-2.848 3.184L47.407 600h-1.936l-2.464-3.696-1.056 1.184V600h-1.68zm8.233-8.128H50.2v5.584l3.696-5.584h1.6V600H53.8v-5.584L50.104 600h-1.6v-8.128z"/><path fill="#000" fill-opacity=".05" d="M0 636c0-11.046 8.954-20 20-20h280c11.046 0 20 8.954 20 20s-8.954 20-20 20H20c-11.046 0-20-8.954-20-20z"/><path fill="#000" fill-opacity=".6" d="M17.057 639v-9.8h1.036v4.382h5.586V629.2h1.036v9.8H23.68v-4.494h-5.586V639h-1.036zm14.918 0h-.855a6.97 6.97 0 01-.21-1.05c-.476.686-1.175 1.176-2.183 1.176-1.457 0-2.479-.882-2.479-2.142 0-1.26 1.037-1.918 2.842-2.128l1.82-.21v-.42c0-.868-.643-1.456-1.567-1.456-.883 0-1.526.35-1.765 1.05l-.965-.168c.35-1.12 1.372-1.792 2.73-1.792 1.553 0 2.561 1.022 2.561 2.576v2.604c0 .938.015 1.456.07 1.96zm-3.165-.756c1.303 0 2.1-.854 2.1-2.058v-.756l-1.834.224c-1.134.14-1.834.56-1.834 1.33 0 .728.645 1.26 1.569 1.26zm7.181-2.422h-.7v-.812h.7c.91 0 1.694-.49 1.694-1.232 0-.588-.616-1.008-1.498-1.008s-1.526.42-1.764 1.12l-.966-.168c.35-1.12 1.372-1.862 2.73-1.862 1.456 0 2.478.798 2.478 1.918 0 .84-.448 1.302-1.064 1.596.728.322 1.26.798 1.26 1.75 0 1.05-.994 2.016-2.604 2.016-1.54 0-2.66-.854-3.038-2.156l.966-.168c.266.896 1.008 1.414 2.072 1.414.952 0 1.624-.504 1.624-1.106 0-.77-.742-1.302-1.89-1.302zM40.337 632h3.248c1.176 0 2.002.812 2.002 1.96 0 .546-.322 1.134-.77 1.428.672.28 1.148.966 1.148 1.652 0 1.148-.91 1.96-2.212 1.96h-3.416v-7zm.994 3.92v2.254h2.296c.784 0 1.33-.462 1.33-1.134 0-.658-.546-1.12-1.33-1.12h-2.296zm0-3.094v2.254h2.128c.658 0 1.12-.462 1.12-1.12 0-.672-.462-1.134-1.12-1.134h-2.128zM52.742 639h-.854a6.97 6.97 0 01-.21-1.05c-.476.686-1.176 1.176-2.184 1.176-1.456 0-2.478-.882-2.478-2.142 0-1.26 1.036-1.918 2.842-2.128l1.82-.21v-.42c0-.868-.644-1.456-1.568-1.456-.882 0-1.526.35-1.764 1.05l-.966-.168c.35-1.12 1.372-1.792 2.73-1.792 1.554 0 2.562 1.022 2.562 2.576v2.604c0 .938.014 1.456.07 1.96zm-3.164-.756c1.302 0 2.1-.854 2.1-2.058v-.756l-1.834.224c-1.134.14-1.834.56-1.834 1.33 0 .728.644 1.26 1.568 1.26zM54.351 632h.994v3.08h3.78V632h.994v7h-.994v-3.094h-3.78V639h-.994v-7zm7.45 0h.995v5.558l3.78-5.558h.994v7h-.994v-5.558L62.796 639h-.994v-7zm7.172 3.486c0-2.128 1.358-3.626 3.304-3.626 1.946 0 3.304 1.498 3.304 3.626v.266h-5.6c.084 1.512.966 2.45 2.296 2.45 1.036 0 1.778-.546 2.072-1.498l.966.168c-.392 1.358-1.526 2.24-3.038 2.24-1.946 0-3.304-1.498-3.304-3.626zm3.304-2.716c-1.246 0-2.1.826-2.268 2.17h4.55c-.168-1.358-1.036-2.17-2.282-2.17zm8.105-.77h4.788v.826h-3.794V639h-.994v-7zm12.576 3.486c0 2.128-1.358 3.626-3.304 3.626-1.946 0-3.304-1.498-3.304-3.626s1.358-3.626 3.304-3.626c1.946 0 3.304 1.498 3.304 3.626zm-5.614 0c0 1.68.91 2.744 2.31 2.744s2.31-1.064 2.31-2.744c0-1.666-.91-2.716-2.31-2.716s-2.31 1.05-2.31 2.716zm8.005 2.548v3.766h-.994v-7.84c0-.938-.014-1.456-.07-1.96h.854c.084.308.168.742.21 1.05.546-.686 1.358-1.19 2.31-1.19 1.806 0 3.066 1.512 3.066 3.654 0 2.128-1.26 3.626-3.066 3.626-.924 0-1.75-.392-2.31-1.106zm0-2.73v.462c0 1.288.756 2.464 2.114 2.464 1.414 0 2.268-1.05 2.268-2.716 0-1.694-.854-2.772-2.268-2.772-1.302 0-2.114 1.204-2.114 2.562zm13.099.182c0 2.128-1.358 3.626-3.304 3.626-1.946 0-3.304-1.498-3.304-3.626s1.358-3.626 3.304-3.626c1.946 0 3.304 1.498 3.304 3.626zm-5.614 0c0 1.68.91 2.744 2.31 2.744s2.31-1.064 2.31-2.744c0-1.666-.91-2.716-2.31-2.716s-2.31 1.05-2.31 2.716zm8.607-3.486h4.354v6.174h.854v2.366h-.994V639h-5.236v1.54h-.994v-2.366h.378c.7 0 .994-.476 1.078-1.204l.56-4.97zm.364 5.068c-.056.434-.168.798-.35 1.106h3.346v-5.348h-2.506l-.49 4.242zM123.357 639h-.854a6.97 6.97 0 01-.21-1.05c-.476.686-1.176 1.176-2.184 1.176-1.456 0-2.478-.882-2.478-2.142 0-1.26 1.036-1.918 2.842-2.128l1.82-.21v-.42c0-.868-.644-1.456-1.568-1.456-.882 0-1.526.35-1.764 1.05l-.966-.168c.35-1.12 1.372-1.792 2.73-1.792 1.554 0 2.562 1.022 2.562 2.576v2.604c0 .938.014 1.456.07 1.96zm-3.164-.756c1.302 0 2.1-.854 2.1-2.058v-.756l-1.834.224c-1.134.14-1.834.56-1.834 1.33 0 .728.644 1.26 1.568 1.26zm8.273-6.244h.994v5.558l3.78-5.558h.994v7h-.994v-5.558L129.46 639h-.994v-7zm9.313 0h4.354v7h-.994v-6.174h-2.506l-.49 4.242c-.14 1.162-.756 1.932-1.89 1.932h-.686v-.826h.574c.7 0 .994-.476 1.078-1.204l.56-4.97zm6.04 0h.994v5.558l3.78-5.558h.994v7h-.994v-5.558l-3.78 5.558h-.994v-7zm10.672 3.486c0-2.128 1.358-3.626 3.304-3.626 1.512 0 2.646.91 3.038 2.296l-.966.168c-.28-.98-1.036-1.554-2.072-1.554-1.4 0-2.31 1.05-2.31 2.716 0 1.666.91 2.716 2.31 2.716 1.036 0 1.778-.546 2.072-1.498l.966.168c-.392 1.358-1.526 2.24-3.038 2.24-1.946 0-3.304-1.498-3.304-3.626zm7.425-2.66V632h5.768v.826h-2.394V639h-.994v-6.174h-2.38zm8.218 5.208v3.766h-.994v-7.84c0-.938-.014-1.456-.07-1.96h.854c.084.308.168.742.21 1.05.546-.686 1.358-1.19 2.31-1.19 1.806 0 3.066 1.512 3.066 3.654 0 2.128-1.26 3.626-3.066 3.626-.924 0-1.75-.392-2.31-1.106zm0-2.73v.462c0 1.288.756 2.464 2.114 2.464 1.414 0 2.268-1.05 2.268-2.716 0-1.694-.854-2.772-2.268-2.772-1.302 0-2.114 1.204-2.114 2.562zM182.351 639h-.854a6.97 6.97 0 01-.21-1.05c-.476.686-1.176 1.176-2.184 1.176-1.456 0-2.478-.882-2.478-2.142 0-1.26 1.036-1.918 2.842-2.128l1.82-.21v-.42c0-.868-.644-1.456-1.568-1.456-.882 0-1.526.35-1.764 1.05l-.966-.168c.35-1.12 1.372-1.792 2.73-1.792 1.554 0 2.562 1.022 2.562 2.576v2.604c0 .938.014 1.456.07 1.96zm-3.164-.756c1.302 0 2.1-.854 2.1-2.058v-.756l-1.834.224c-1.134.14-1.834.56-1.834 1.33 0 .728.644 1.26 1.568 1.26zM183.96 632h.994v3.08h3.78V632h.994v7h-.994v-3.094h-3.78V639h-.994v-7zm7.451 0h.994v2.674h2.156c1.47 0 2.212 1.078 2.212 2.156 0 1.092-.742 2.17-2.212 2.17h-3.15v-7zm.994 3.5v2.674h2.03c.882 0 1.33-.672 1.33-1.344s-.434-1.33-1.33-1.33h-2.03zm5.684 3.5v-7h.994v7h-.994z"/><path fill="#000" fill-opacity=".05" d="M0 680c0-8.837 7.163-16 16-16h86c8.837 0 16 7.163 16 16s-7.163 16-16 16H16c-8.837 0-16-7.163-16-16z"/><path fill="#000" fill-opacity=".9" d="M21.787 679.794V673.2h1.036v6.72c0 1.974-1.092 3.206-2.842 3.206-1.568 0-2.73-.966-3.178-2.506l.994-.35c.28 1.176 1.05 1.918 2.156 1.918 1.12 0 1.834-.924 1.834-2.394zM30.023 683h-.854a6.97 6.97 0 01-.21-1.05c-.476.686-1.176 1.176-2.184 1.176-1.456 0-2.478-.882-2.478-2.142 0-1.26 1.036-1.918 2.842-2.128l1.82-.21v-.42c0-.868-.644-1.456-1.568-1.456-.882 0-1.526.35-1.764 1.05l-.966-.168c.35-1.12 1.372-1.792 2.73-1.792 1.554 0 2.562 1.022 2.562 2.576v2.604c0 .938.014 1.456.07 1.96zm-3.164-.756c1.302 0 2.1-.854 2.1-2.058v-.756l-1.834.224c-1.134.14-1.834.56-1.834 1.33 0 .728.644 1.26 1.568 1.26zM36.276 676h1.008l-2.716 7h-1.064l-2.716-7h1.008l2.24 5.922 2.24-5.922zm7.296 7h-.854a6.97 6.97 0 01-.21-1.05c-.476.686-1.176 1.176-2.184 1.176-1.456 0-2.478-.882-2.478-2.142 0-1.26 1.036-1.918 2.842-2.128l1.82-.21v-.42c0-.868-.644-1.456-1.568-1.456-.882 0-1.526.35-1.764 1.05l-.966-.168c.35-1.12 1.372-1.792 2.73-1.792 1.554 0 2.562 1.022 2.562 2.576v2.604c0 .938.014 1.456.07 1.96zm-3.164-.756c1.302 0 2.1-.854 2.1-2.058v-.756l-1.834.224c-1.134.14-1.834.56-1.834 1.33 0 .728.644 1.26 1.568 1.26zm7.237-6.384c1.358 0 2.38.742 2.73 1.862l-.966.168c-.238-.7-.882-1.12-1.764-1.12s-1.498.42-1.498 1.008c0 .784.882.966 1.862 1.218 1.19.308 2.52.686 2.52 2.128 0 1.05-.994 2.016-2.604 2.016-1.54 0-2.716-.854-3.094-2.156l.966-.168c.266.896 1.064 1.414 2.128 1.414.952 0 1.624-.504 1.624-1.106 0-.826-.896-1.05-1.89-1.288-1.176-.294-2.492-.616-2.492-2.058 0-1.12 1.022-1.918 2.478-1.918zm4.01 3.626c0-2.128 1.358-3.626 3.304-3.626 1.512 0 2.646.91 3.038 2.296l-.966.168c-.28-.98-1.036-1.554-2.072-1.554-1.4 0-2.31 1.05-2.31 2.716 0 1.666.91 2.716 2.31 2.716 1.036 0 1.778-.546 2.072-1.498l.966.168c-.392 1.358-1.526 2.24-3.038 2.24-1.946 0-3.304-1.498-3.304-3.626zM59.234 676h.854c.098.35.168.7.21 1.05.504-.686 1.092-1.176 1.974-1.176l.098.896c-1.218 0-2.072.84-2.072 2.044V683h-.994v-5.04c0-.938-.014-1.456-.07-1.96zm4.171 7v-7h.994v7h-.994zm-.098-8.596v-1.316h1.19v1.316h-1.19zm3.772 7.63v3.766h-.994v-7.84c0-.938-.014-1.456-.07-1.96h.854c.084.308.168.742.21 1.05.546-.686 1.358-1.19 2.31-1.19 1.806 0 3.066 1.512 3.066 3.654 0 2.128-1.26 3.626-3.066 3.626-.924 0-1.75-.392-2.31-1.106zm0-2.73v.462c0 1.288.756 2.464 2.114 2.464 1.414 0 2.268-1.05 2.268-2.716 0-1.694-.854-2.772-2.268-2.772-1.302 0-2.114 1.204-2.114 2.562zm7.321 1.848v-4.326h-1.106v-.686L74.4 676l.28-1.806h.714V676h1.568v.826h-1.568v4.27c0 .602.154 1.176 1.008 1.176.224 0 .504-.028.84-.112v.882c-.336.07-.644.098-.924.098-1.414 0-1.918-.98-1.918-1.988z"/><path fill="#000" fill-opacity=".6" fill-rule="evenodd" d="M89.22 675.22a.75.75 0 011.06 0l3.72 3.719 3.72-3.719a.75.75 0 111.06 1.06L95.06 680l3.72 3.72a.75.75 0 11-1.06 1.06L94 681.061l-3.72 3.719a.75.75 0 11-1.06-1.06l3.72-3.72-3.72-3.72a.75.75 0 010-1.06z" clip-rule="evenodd"/><path fill="#000" fill-opacity=".05" d="M126 680c0-8.837 7.163-16 16-16h60c8.837 0 16 7.163 16 16s-7.163 16-16 16h-60c-8.837 0-16-7.163-16-16z"/><path fill="#000" fill-opacity=".9" d="M149.417 683l-2.562-4.004h-2.366V683h-1.036v-9.8h3.71c3.57 0 3.85 4.914.854 5.698l2.604 4.102h-1.204zm-4.928-4.942h2.59c2.562 0 2.562-3.92 0-3.92h-2.59v3.92zm6.897 1.428c0-2.128 1.358-3.626 3.304-3.626 1.946 0 3.304 1.498 3.304 3.626v.266h-5.6c.084 1.512.966 2.45 2.296 2.45 1.036 0 1.778-.546 2.072-1.498l.966.168c-.392 1.358-1.526 2.24-3.038 2.24-1.946 0-3.304-1.498-3.304-3.626zm3.304-2.716c-1.246 0-2.1.826-2.268 2.17h4.55c-.168-1.358-1.036-2.17-2.282-2.17zm10.051 6.23h-.854a6.97 6.97 0 01-.21-1.05c-.476.686-1.176 1.176-2.184 1.176-1.456 0-2.478-.882-2.478-2.142 0-1.26 1.036-1.918 2.842-2.128l1.82-.21v-.42c0-.868-.644-1.456-1.568-1.456-.882 0-1.526.35-1.764 1.05l-.966-.168c.35-1.12 1.372-1.792 2.73-1.792 1.554 0 2.562 1.022 2.562 2.576v2.604c0 .938.014 1.456.07 1.96zm-3.164-.756c1.302 0 2.1-.854 2.1-2.058v-.756l-1.834.224c-1.134.14-1.834.56-1.834 1.33 0 .728.644 1.26 1.568 1.26zm4.493-2.758c0-2.128 1.358-3.626 3.304-3.626 1.512 0 2.646.91 3.038 2.296l-.966.168c-.28-.98-1.036-1.554-2.072-1.554-1.4 0-2.31 1.05-2.31 2.716 0 1.666.91 2.716 2.31 2.716 1.036 0 1.778-.546 2.072-1.498l.966.168c-.392 1.358-1.526 2.24-3.038 2.24-1.946 0-3.304-1.498-3.304-3.626zm8.198 1.666v-4.326h-1.106v-.686l1.106-.14.28-1.806h.714V676h1.568v.826h-1.568v4.27c0 .602.154 1.176 1.008 1.176.224 0 .504-.028.84-.112v.882c-.336.07-.644.098-.924.098-1.414 0-1.918-.98-1.918-1.988z"/><path fill="#000" fill-opacity=".6" fill-rule="evenodd" d="M189.22 675.22a.749.749 0 011.06 0l3.72 3.719 3.72-3.719a.749.749 0 111.06 1.06l-3.719 3.72 3.719 3.72a.749.749 0 11-1.06 1.06l-3.72-3.719-3.72 3.719a.749.749 0 11-1.06-1.06l3.719-3.72-3.719-3.72a.749.749 0 010-1.06z" clip-rule="evenodd"/><path fill="#1A1A1A" fill-opacity=".05" d="M0 740c0-11.046 8.954-20 20-20h280c11.046 0 20 8.954 20 20s-8.954 20-20 20H20c-11.046 0-20-8.954-20-20z"/><path fill="#1A1A1A" fill-opacity=".9" d="M140.065 739.1c0-2.954 1.932-5.026 4.662-5.026 2.03 0 3.682 1.19 4.242 2.982l-1.414.476c-.322-1.316-1.428-2.17-2.828-2.17-1.834 0-3.122 1.54-3.122 3.738s1.288 3.752 3.122 3.752c1.47 0 2.562-.938 2.828-2.38l1.414.49c-.448 1.904-2.1 3.178-4.242 3.178-2.73 0-4.662-2.086-4.662-5.04zm11.444 1.022v.238c0 1.54.686 2.506 1.862 2.506 1.162 0 1.848-.966 1.848-2.506 0-1.498-.742-2.436-1.932-2.436-1.12 0-1.778.952-1.778 2.198zm-1.484.028v-1.764c0-2.632 1.568-4.004 3.906-4.27.686-.07 1.358-.14 2.044-.504v1.232c-.686.336-1.372.392-2.086.49-1.582.21-2.38 1.092-2.38 2.31v.098c.49-.644 1.33-1.05 2.184-1.05 1.764 0 3.01 1.512 3.01 3.668 0 2.17-1.33 3.71-3.332 3.71-2.016 0-3.346-1.512-3.346-3.92zm9.461 2.926v3.724h-1.47v-7.84c0-.882-.042-1.596-.098-2.072h1.316c.056.252.126.686.168 1.036a2.826 2.826 0 012.268-1.162c1.778 0 3.01 1.526 3.01 3.696 0 2.156-1.232 3.682-3.01 3.682-.854 0-1.694-.406-2.184-1.064zm0-2.814v.448c0 1.232.658 2.198 1.792 2.198 1.19 0 1.918-.952 1.918-2.45 0-1.526-.728-2.492-1.918-2.492-1.106 0-1.792.994-1.792 2.296zm13.136.168c0 2.156-1.428 3.682-3.444 3.682-2.03 0-3.458-1.526-3.458-3.682 0-2.17 1.428-3.682 3.458-3.682 2.016 0 3.444 1.512 3.444 3.682zm-5.418 0c0 1.512.77 2.478 1.974 2.478s1.974-.966 1.974-2.478c0-1.498-.77-2.45-1.974-2.45s-1.974.952-1.974 2.45zm6.46 0c0-2.17 1.428-3.682 3.458-3.682 1.694 0 2.898 1.078 3.22 2.31l-1.428.322c-.252-.868-.91-1.4-1.792-1.4-1.204 0-1.974.952-1.974 2.45 0 1.498.77 2.45 1.974 2.45.868 0 1.526-.504 1.792-1.344l1.428.322c-.308 1.19-1.526 2.254-3.22 2.254-2.03 0-3.458-1.526-3.458-3.682z"/></svg>