<svg width="554" height="174" viewBox="0 0 554 174" fill="none" xmlns="http://www.w3.org/2000/svg">
<path d="M60.1171 8.4C60.1171 5.024 62.3251 2.656 65.4451 2.656C67.7651 2.656 69.6531 4.016 70.2931 6.064L68.6771 6.608C68.3091 5.104 67.0451 4.128 65.4451 4.128C63.3491 4.128 61.8771 5.888 61.8771 8.4C61.8771 10.912 63.3491 12.688 65.4451 12.688C67.1251 12.688 68.3731 11.616 68.6771 9.968L70.2931 10.528C69.7811 12.704 67.8931 14.16 65.4451 14.16C62.3251 14.16 60.1171 11.776 60.1171 8.4ZM79.3882 9.92C79.3882 12.384 77.7562 14.128 75.4522 14.128C73.1322 14.128 71.5002 12.384 71.5002 9.92C71.5002 7.44 73.1322 5.712 75.4522 5.712C77.7562 5.712 79.3882 7.44 79.3882 9.92ZM73.1962 9.92C73.1962 11.648 74.0762 12.752 75.4522 12.752C76.8282 12.752 77.7082 11.648 77.7082 9.92C77.7082 8.208 76.8282 7.12 75.4522 7.12C74.0762 7.12 73.1962 8.208 73.1962 9.92ZM84.7383 17.2V14.08C82.2903 13.808 80.5303 12.352 80.5303 9.92C80.5303 7.488 82.2903 6.032 84.7383 5.76V2.784H86.4343V5.76C88.8823 6.032 90.6263 7.488 90.6263 9.92C90.6263 12.352 88.8823 13.808 86.4343 14.08V17.2H84.7383ZM82.2263 9.92C82.2263 11.424 83.1703 12.432 84.7383 12.688V7.184C83.1703 7.44 82.2263 8.448 82.2263 9.92ZM88.9463 9.92C88.9463 8.448 88.0023 7.44 86.4343 7.184V12.688C88.0023 12.432 88.9463 11.424 88.9463 9.92ZM91.8295 7.184V5.872H98.7895V7.184H96.1495V14H94.4535V7.184H91.8295ZM100.24 5.872H101.936V8.768H104.128C106 8.768 106.928 10.064 106.928 11.376C106.928 12.688 106 14 104.128 14H100.24V5.872ZM101.936 10.08V12.688H103.84C104.768 12.688 105.248 12.032 105.248 11.376C105.248 10.72 104.784 10.08 103.84 10.08H101.936ZM108.384 14V5.872H110.064V14H108.384Z" fill="black" fill-opacity="0.9"/>
<path d="M141.507 151.653C144.962 154.363 149.997 153.777 152.348 150.069C158.858 139.8 162.946 128.143 164.251 115.984C165.84 101.182 163.24 86.2308 156.749 72.8335C150.257 59.4362 140.134 48.1309 127.532 40.2047C114.931 32.2785 100.356 28.0499 85.4693 28.0004C70.5822 27.951 55.9803 32.0826 43.3261 39.9248C30.672 47.7671 20.4741 59.0049 13.8935 72.3587C7.31293 85.7126 4.61414 100.646 6.10441 115.458C7.32856 127.626 11.3389 139.31 17.7808 149.621C20.1071 153.345 25.1382 153.965 28.6111 151.278C32.084 148.592 32.6726 143.619 30.4402 139.838C25.7689 131.928 22.8505 123.07 21.9245 113.867C20.7323 102.017 22.8914 90.0701 28.1558 79.387C33.4203 68.7039 41.5786 59.7137 51.7019 53.4399C61.8252 47.166 73.5068 43.8608 85.4165 43.9003C97.3261 43.9399 108.985 47.3228 119.067 53.6637C129.148 60.0047 137.247 69.049 142.44 79.7668C147.633 90.4846 149.713 102.445 148.442 114.287C147.455 123.484 144.478 132.322 139.754 140.202C137.496 143.967 138.052 148.944 141.507 151.653Z" fill="black" fill-opacity="0.05"/>
<path d="M28.5043 151.14C25.0249 153.818 19.9953 153.186 17.6781 149.457C10.2679 137.531 6.1225 123.809 5.73496 109.68C5.27451 92.8912 10.1426 76.3882 19.6412 62.5375C29.1397 48.6868 42.7806 38.2001 58.6076 32.5812C71.9282 27.8522 86.2213 26.7758 100.016 29.3918C104.33 30.2098 106.731 34.6741 105.487 38.8847C104.242 43.0953 99.8211 45.4467 95.4882 44.7367C84.94 43.0085 74.0804 43.9604 63.9271 47.565C51.2655 52.0601 40.3528 60.4495 32.754 71.53C25.1551 82.6106 21.2606 95.813 21.629 109.244C21.9244 120.014 24.9488 130.487 30.3612 139.704C32.5845 143.491 31.9838 148.462 28.5043 151.14Z" fill="#F39191"/>
<path d="M69.5 96.815H101.5V64.815H69.5V96.815Z" fill="black" fill-opacity="0.9"/>
<path d="M70.6 115.035C73.54 115.035 75.24 117.195 75.24 119.795C75.24 122.475 73.38 124.775 70.28 124.775C67.64 124.775 65.54 123.175 64.94 120.855L66.88 120.175C67.36 121.855 68.64 122.975 70.24 122.975C72.06 122.975 73.04 121.515 73.04 119.835C73.04 118.215 72.12 116.815 70.28 116.815C68.98 116.815 68.06 117.395 67.16 118.395L65.52 117.795L66.76 110.555H74.52V112.315H68.58L67.92 115.895C68.62 115.395 69.44 115.035 70.6 115.035ZM84.567 112.315H77.527V110.555H87.167V112.135C83.127 116.255 81.907 120.815 82.087 124.575H79.867C79.707 121.055 80.667 116.575 84.567 112.315ZM92.7741 118.355C90.6141 118.355 89.2941 116.755 89.2941 114.375C89.2941 111.995 90.6141 110.395 92.7741 110.395C94.9341 110.395 96.2541 111.995 96.2541 114.375C96.2541 116.755 94.9341 118.355 92.7741 118.355ZM92.7741 116.795C93.7141 116.795 94.2741 115.995 94.2741 114.395C94.2741 112.795 93.7141 111.935 92.7741 111.935C91.8541 111.935 91.2741 112.795 91.2741 114.395C91.2741 115.975 91.8341 116.795 92.7741 116.795ZM91.5141 124.575L101.514 110.555H103.614L93.6141 124.575H91.5141ZM102.374 116.775C104.534 116.775 105.854 118.375 105.854 120.755C105.854 123.135 104.534 124.735 102.374 124.735C100.214 124.735 98.8941 123.135 98.8941 120.755C98.8941 118.375 100.214 116.775 102.374 116.775ZM102.374 118.335C101.434 118.335 100.874 119.135 100.874 120.735C100.874 122.315 101.434 123.175 102.374 123.175C103.294 123.175 103.874 122.315 103.874 120.735C103.874 119.135 103.294 118.335 102.374 118.335Z" fill="black" fill-opacity="0.9"/>
<path d="M256.116 8.176L252.196 2.784H254.196L257.06 6.848L259.908 2.784H261.876L257.972 8.16L262.212 14H260.212L257.044 9.456L253.86 14H251.892L256.116 8.176ZM270.03 14H268.526C268.462 13.744 268.35 13.2 268.318 12.944C267.742 13.664 266.894 14.144 265.902 14.144C264.206 14.144 263.086 13.136 263.086 11.632C263.086 10.224 264.366 9.328 266.494 9.088L268.238 8.88V8.528C268.238 7.696 267.63 7.12 266.782 7.12C265.966 7.12 265.326 7.52 265.134 8.208L263.502 7.936C263.838 6.592 265.102 5.712 266.798 5.712C268.654 5.712 269.934 6.912 269.934 8.752V11.632C269.934 12.816 269.95 13.376 270.03 14ZM266.222 12.768C267.47 12.768 268.238 11.936 268.238 10.688V10.048L266.542 10.24C265.454 10.368 264.782 10.832 264.782 11.568C264.782 12.272 265.358 12.768 266.222 12.768ZM273.43 12.944V17.2H271.75V8.24C271.75 7.232 271.702 6.416 271.638 5.872H273.142C273.206 6.16 273.286 6.656 273.334 7.056C273.878 6.288 274.854 5.728 275.926 5.728C277.958 5.728 279.366 7.472 279.366 9.952C279.366 12.416 277.958 14.16 275.926 14.16C274.95 14.16 273.99 13.696 273.43 12.944ZM273.43 9.728V10.24C273.43 11.648 274.182 12.752 275.478 12.752C276.838 12.752 277.67 11.664 277.67 9.952C277.67 8.208 276.838 7.104 275.478 7.104C274.214 7.104 273.43 8.24 273.43 9.728ZM282.603 5.872H288.219V12.688H289.195V15.76H287.499V14H282.107V15.76H280.411V12.688H280.875C281.627 12.688 281.931 12.288 282.027 11.472L282.603 5.872ZM283.659 11.408C283.595 11.904 283.451 12.336 283.195 12.688H286.523V7.184H284.091L283.659 11.408ZM290.482 5.872H292.178V8.768H294.37C296.242 8.768 297.17 10.064 297.17 11.376C297.17 12.688 296.242 14 294.37 14H290.482V5.872ZM292.178 10.08V12.688H294.082C295.01 12.688 295.49 12.032 295.49 11.376C295.49 10.72 295.026 10.08 294.082 10.08H292.178ZM298.626 14V5.872H300.306V14H298.626Z" fill="black" fill-opacity="0.9"/>
<path d="M332.706 151.653C336.161 154.363 341.196 153.777 343.547 150.069C350.059 139.798 354.147 128.138 355.451 115.977C357.039 101.172 354.437 86.2192 347.942 72.8209C341.447 59.4226 331.32 48.1176 318.714 40.1935C306.108 32.2694 291.53 28.0446 276.64 28.0004C261.751 27.9561 247.148 32.0942 234.496 39.9433C221.843 47.7924 211.649 59.037 205.074 72.3964C198.5 85.7559 195.809 100.693 197.309 115.507C198.54 127.676 202.559 139.36 209.01 149.669C211.339 153.391 216.37 154.007 219.841 151.318C223.312 148.629 223.897 143.656 221.662 139.877C216.984 131.968 214.059 123.11 213.128 113.906C211.928 102.055 214.081 90.1047 219.34 79.4172C224.6 68.7296 232.755 59.7339 242.877 53.4546C252.999 47.1754 264.682 43.8649 276.593 43.9003C288.505 43.9357 300.167 47.3155 310.252 53.6548C320.337 59.9941 328.438 69.0381 333.634 79.7567C338.83 90.4753 340.912 102.438 339.642 114.282C338.655 123.48 335.678 132.321 330.953 140.202C328.695 143.967 329.251 148.944 332.706 151.653Z" fill="black" fill-opacity="0.05"/>
<path d="M219.754 151.205C216.277 153.887 211.247 153.261 208.926 149.534C204.697 142.745 201.508 135.344 199.481 127.575C196.783 117.237 196.196 106.461 197.756 95.8911C199.317 85.3212 202.991 75.1742 208.561 66.0564C212.747 59.2049 217.938 53.0401 223.948 47.7625C227.247 44.8654 232.244 45.7196 234.797 49.2916C237.35 52.8635 236.483 57.7953 233.258 60.7739C228.948 64.7531 225.201 69.318 222.13 74.3452C217.674 81.6394 214.734 89.757 213.486 98.2129C212.238 106.669 212.707 115.29 214.865 123.56C216.353 129.26 218.622 134.713 221.598 139.768C223.825 143.551 223.23 148.523 219.754 151.205Z" fill="#B99CF4"/>
<path d="M260.5 96.815H292.5V64.815H260.5V96.815Z" fill="black" fill-opacity="0.9"/>
<path d="M259.6 116.475H261.36C262.84 116.475 263.68 115.635 263.68 114.375C263.68 113.095 262.8 112.235 261.38 112.235C259.9 112.235 258.78 113.155 258.34 114.615L256.32 113.995C256.88 111.835 258.78 110.395 261.38 110.395C264.1 110.395 265.9 112.035 265.9 114.315C265.9 115.715 265.18 116.815 263.98 117.315C265.48 117.875 266.3 119.135 266.3 120.655C266.3 123.015 264.38 124.775 261.52 124.775C258.68 124.775 256.56 123.115 255.96 120.755L257.88 120.075C258.42 121.915 259.68 122.935 261.44 122.935C263.04 122.935 264.1 121.995 264.1 120.575C264.1 119.215 263.18 118.315 261.48 118.315H259.6V116.475ZM268.427 121.595L270.487 120.935C271.007 122.255 271.947 122.935 273.147 122.935C275.027 122.935 276.167 121.135 276.207 118.155C275.467 119.095 274.307 119.715 272.887 119.715C270.247 119.715 268.227 117.855 268.227 115.215C268.227 112.395 270.267 110.395 273.147 110.395C276.427 110.395 278.487 112.935 278.487 116.935C278.487 121.835 276.507 124.735 273.147 124.735C270.867 124.735 269.187 123.655 268.427 121.595ZM276.027 115.215C276.027 113.475 274.847 112.195 273.147 112.195C271.547 112.195 270.427 113.415 270.427 115.195C270.427 116.795 271.527 117.935 273.067 117.935C274.807 117.935 276.027 116.835 276.027 115.215ZM283.774 118.355C281.614 118.355 280.294 116.755 280.294 114.375C280.294 111.995 281.614 110.395 283.774 110.395C285.934 110.395 287.254 111.995 287.254 114.375C287.254 116.755 285.934 118.355 283.774 118.355ZM283.774 116.795C284.714 116.795 285.274 115.995 285.274 114.395C285.274 112.795 284.714 111.935 283.774 111.935C282.854 111.935 282.274 112.795 282.274 114.395C282.274 115.975 282.834 116.795 283.774 116.795ZM282.514 124.575L292.514 110.555H294.614L284.614 124.575H282.514ZM293.374 116.775C295.534 116.775 296.854 118.375 296.854 120.755C296.854 123.135 295.534 124.735 293.374 124.735C291.214 124.735 289.894 123.135 289.894 120.755C289.894 118.375 291.214 116.775 293.374 116.775ZM293.374 118.335C292.434 118.335 291.874 119.135 291.874 120.735C291.874 122.315 292.434 123.175 293.374 123.175C294.294 123.175 294.874 122.315 294.874 120.735C294.874 119.135 294.294 118.335 293.374 118.335Z" fill="black" fill-opacity="0.9"/>
<path d="M402.93 11.584L403.186 10.992L399.298 2.8H401.218L404.066 9.088L406.914 2.8H408.802L404.626 11.696C403.938 13.168 403.218 14.16 401.506 14.16C400.93 14.16 400.354 14.096 399.842 13.968V12.496C400.418 12.656 400.898 12.72 401.234 12.72C402.162 12.72 402.642 12.224 402.93 11.584ZM411.787 12.944V17.2H410.107V8.24C410.107 7.232 410.059 6.416 409.995 5.872H411.499C411.563 6.16 411.643 6.656 411.691 7.056C412.235 6.288 413.211 5.728 414.283 5.728C416.315 5.728 417.723 7.472 417.723 9.952C417.723 12.416 416.315 14.16 414.283 14.16C413.307 14.16 412.347 13.696 411.787 12.944ZM411.787 9.728V10.24C411.787 11.648 412.539 12.752 413.835 12.752C415.195 12.752 416.027 11.664 416.027 9.952C416.027 8.208 415.195 7.104 413.835 7.104C412.571 7.104 411.787 8.24 411.787 9.728ZM426.8 9.92C426.8 12.384 425.168 14.128 422.864 14.128C420.544 14.128 418.912 12.384 418.912 9.92C418.912 7.44 420.544 5.712 422.864 5.712C425.168 5.712 426.8 7.44 426.8 9.92ZM420.608 9.92C420.608 11.648 421.488 12.752 422.864 12.752C424.24 12.752 425.12 11.648 425.12 9.92C425.12 8.208 424.24 7.12 422.864 7.12C421.488 7.12 420.608 8.208 420.608 9.92ZM428.23 5.872H432.294C433.718 5.872 434.726 6.848 434.726 8.224C434.726 8.784 434.422 9.424 433.974 9.792C434.662 10.16 435.142 10.928 435.142 11.648C435.142 13.024 434.038 14 432.47 14H428.23V5.872ZM429.926 10.56V12.688H432.246C432.95 12.688 433.43 12.256 433.43 11.616C433.43 10.992 432.95 10.56 432.246 10.56H429.926ZM429.926 7.184V9.312H431.926C432.566 9.312 432.998 8.88 432.998 8.256C432.998 7.616 432.566 7.184 431.926 7.184H429.926ZM436.287 9.92C436.287 7.456 437.919 5.712 440.239 5.712C442.559 5.712 444.175 7.456 444.175 9.92V10.352H437.999C438.143 11.824 438.991 12.72 440.239 12.72C441.231 12.72 442.015 12.176 442.335 11.248L443.919 11.6C443.471 13.104 442.095 14.128 440.239 14.128C437.919 14.128 436.287 12.384 436.287 9.92ZM440.239 7.12C439.087 7.12 438.287 7.872 438.047 9.12H442.415C442.207 7.872 441.375 7.12 440.239 7.12ZM445.496 5.872H447.192V9.264H450.792V5.872H452.488V14H450.792V10.576H447.192V14H445.496V5.872ZM454.152 5.872H455.848V8.768H458.04C459.912 8.768 460.84 10.064 460.84 11.376C460.84 12.688 459.912 14 458.04 14H454.152V5.872ZM455.848 10.08V12.688H457.752C458.68 12.688 459.16 12.032 459.16 11.376C459.16 10.72 458.696 10.08 457.752 10.08H455.848ZM469.459 10.464H468.627V9.216H469.459C470.307 9.216 470.979 8.768 470.979 8.08C470.979 7.52 470.419 7.12 469.619 7.12C468.787 7.12 468.147 7.568 467.923 8.272L466.307 7.984C466.611 6.672 467.891 5.712 469.619 5.712C471.395 5.712 472.643 6.656 472.643 7.968C472.643 8.8 472.179 9.424 471.523 9.776C472.323 10.16 472.899 10.832 472.899 11.728C472.899 13.072 471.635 14.16 469.731 14.16C467.811 14.16 466.403 13.056 466.067 11.552L467.699 11.264C467.939 12.192 468.691 12.752 469.731 12.752C470.611 12.752 471.219 12.288 471.219 11.664C471.219 10.944 470.531 10.464 469.459 10.464ZM481.075 14H479.571C479.507 13.744 479.395 13.2 479.363 12.944C478.787 13.664 477.939 14.144 476.947 14.144C475.251 14.144 474.131 13.136 474.131 11.632C474.131 10.224 475.411 9.328 477.539 9.088L479.283 8.88V8.528C479.283 7.696 478.675 7.12 477.827 7.12C477.011 7.12 476.371 7.52 476.179 8.208L474.547 7.936C474.883 6.592 476.147 5.712 477.843 5.712C479.699 5.712 480.979 6.912 480.979 8.752V11.632C480.979 12.816 480.995 13.376 481.075 14ZM477.267 12.768C478.515 12.768 479.283 11.936 479.283 10.688V10.048L477.587 10.24C476.499 10.368 475.827 10.832 475.827 11.568C475.827 12.272 476.403 12.768 477.267 12.768ZM484.475 12.944V17.2H482.795V8.24C482.795 7.232 482.747 6.416 482.683 5.872H484.187C484.251 6.16 484.331 6.656 484.379 7.056C484.923 6.288 485.899 5.728 486.971 5.728C489.003 5.728 490.411 7.472 490.411 9.952C490.411 12.416 489.003 14.16 486.971 14.16C485.995 14.16 485.035 13.696 484.475 12.944ZM484.475 9.728V10.24C484.475 11.648 485.227 12.752 486.523 12.752C487.883 12.752 488.715 11.664 488.715 9.952C488.715 8.208 487.883 7.104 486.523 7.104C485.259 7.104 484.475 8.24 484.475 9.728ZM491.84 5.872H498.832V14H497.136V7.184H493.536V14H491.84V5.872ZM502.577 5.872H508.193V14H506.497V7.184H504.065L503.601 11.632C503.457 13.008 502.641 14 501.169 14H500.097V12.688H500.833C501.585 12.688 501.905 12.288 501.985 11.472L502.577 5.872ZM516.591 14H515.087C515.023 13.744 514.911 13.2 514.879 12.944C514.303 13.664 513.455 14.144 512.463 14.144C510.767 14.144 509.647 13.136 509.647 11.632C509.647 10.224 510.927 9.328 513.055 9.088L514.799 8.88V8.528C514.799 7.696 514.191 7.12 513.343 7.12C512.527 7.12 511.887 7.52 511.695 8.208L510.063 7.936C510.399 6.592 511.663 5.712 513.359 5.712C515.215 5.712 516.495 6.912 516.495 8.752V11.632C516.495 12.816 516.511 13.376 516.591 14ZM512.783 12.768C514.031 12.768 514.799 11.936 514.799 10.688V10.048L513.103 10.24C512.015 10.368 511.343 10.832 511.343 11.568C511.343 12.272 511.919 12.768 512.783 12.768ZM518.038 7.184V5.872H524.998V7.184H522.358V14H520.662V7.184H518.038ZM526.449 5.872H528.145V8.768H530.337C532.209 8.768 533.137 10.064 533.137 11.376C533.137 12.688 532.209 14 530.337 14H526.449V5.872ZM528.145 10.08V12.688H530.049C530.977 12.688 531.457 12.032 531.457 11.376C531.457 10.72 530.993 10.08 530.049 10.08H528.145ZM534.593 14V5.872H536.273V14H534.593Z" fill="black" fill-opacity="0.9"/>
<path d="M524.698 151.653C528.153 154.363 533.188 153.777 535.539 150.069C542.049 139.802 546.136 128.147 547.442 115.99C549.031 101.19 546.434 86.2409 539.945 72.8445C533.457 59.4481 523.337 48.1424 510.739 40.2144C498.141 32.2864 483.57 28.0546 468.685 28.0005C453.8 27.9465 439.199 32.0725 426.543 39.9088C413.888 47.7451 403.687 58.977 397.101 72.3259C390.515 85.6749 387.809 100.605 389.292 115.416C390.509 127.582 394.512 139.266 400.946 149.58C403.27 153.305 408.301 153.928 411.776 151.243C415.25 148.559 415.842 143.587 413.612 139.805C408.946 131.893 406.033 123.035 405.113 113.833C403.927 101.984 406.092 90.0399 411.36 79.3607C416.629 68.6816 424.79 59.6961 434.914 53.427C445.038 47.158 456.719 43.8572 468.627 43.9004C480.535 43.9436 492.192 47.3291 502.271 53.6715C512.349 60.0139 520.445 69.0585 525.636 79.7756C530.827 90.4927 532.904 102.452 531.633 114.292C530.645 123.487 527.668 132.324 522.945 140.202C520.688 143.967 521.243 148.944 524.698 151.653Z" fill="black" fill-opacity="0.05"/>
<path d="M411.769 151.234C408.294 153.918 403.263 153.295 400.939 149.569C392.069 135.347 387.885 118.617 389.104 101.764C390.323 84.9108 396.872 68.957 407.697 56.1595C410.532 52.8072 415.601 52.9144 418.653 56.0703C421.706 59.2263 421.576 64.2322 418.825 67.6543C410.769 77.6765 405.899 89.9619 404.962 102.911C404.025 115.86 407.077 128.719 413.606 139.796C415.836 143.578 415.244 148.551 411.769 151.234Z" fill="#F2AC89"/>
<path d="M452 96.815H484V64.815H452V96.815Z" fill="black" fill-opacity="0.9"/>
<path d="M427.16 110.555V124.575H424.98V112.775L421.52 115.375V113.155L424.98 110.555H427.16ZM437.347 116.475C438.687 116.475 439.647 115.615 439.647 114.375C439.647 113.115 438.687 112.235 437.347 112.235C436.007 112.235 435.047 113.115 435.047 114.375C435.047 115.615 436.007 116.475 437.347 116.475ZM432.247 120.615C432.247 119.235 433.187 117.835 434.607 117.215C433.547 116.615 432.847 115.435 432.847 114.355C432.847 112.015 434.707 110.395 437.347 110.395C440.007 110.395 441.847 112.015 441.847 114.355C441.847 115.435 441.147 116.615 440.087 117.215C441.507 117.835 442.447 119.235 442.447 120.615C442.447 123.055 440.347 124.775 437.347 124.775C434.347 124.775 432.247 123.055 432.247 120.615ZM434.447 120.555C434.447 121.955 435.647 122.935 437.347 122.935C439.047 122.935 440.247 121.955 440.247 120.555C440.247 119.175 439.047 118.215 437.347 118.215C435.647 118.215 434.447 119.175 434.447 120.555ZM449.554 124.735C446.254 124.735 444.234 121.915 444.234 117.555C444.234 113.195 446.254 110.395 449.554 110.395C452.854 110.395 454.874 113.195 454.874 117.555C454.874 121.915 452.854 124.735 449.554 124.735ZM449.554 122.935C451.454 122.935 452.654 120.975 452.654 117.575C452.654 114.175 451.454 112.195 449.554 112.195C447.654 112.195 446.454 114.175 446.454 117.575C446.454 120.975 447.654 122.935 449.554 122.935ZM466.956 124.735C463.656 124.735 461.636 121.915 461.636 117.555C461.636 113.195 463.656 110.395 466.956 110.395C470.256 110.395 472.276 113.195 472.276 117.555C472.276 121.915 470.256 124.735 466.956 124.735ZM466.956 122.935C468.856 122.935 470.056 120.975 470.056 117.575C470.056 114.175 468.856 112.195 466.956 112.195C465.056 112.195 463.856 114.175 463.856 117.575C463.856 120.975 465.056 122.935 466.956 122.935ZM479.163 124.735C475.863 124.735 473.843 121.915 473.843 117.555C473.843 113.195 475.863 110.395 479.163 110.395C482.463 110.395 484.483 113.195 484.483 117.555C484.483 121.915 482.463 124.735 479.163 124.735ZM479.163 122.935C481.063 122.935 482.263 120.975 482.263 117.575C482.263 114.175 481.063 112.195 479.163 112.195C477.263 112.195 476.063 114.175 476.063 117.575C476.063 120.975 477.263 122.935 479.163 122.935ZM491.37 124.735C488.07 124.735 486.05 121.915 486.05 117.555C486.05 113.195 488.07 110.395 491.37 110.395C494.67 110.395 496.69 113.195 496.69 117.555C496.69 121.915 494.67 124.735 491.37 124.735ZM491.37 122.935C493.27 122.935 494.47 120.975 494.47 117.575C494.47 114.175 493.27 112.195 491.37 112.195C489.47 112.195 488.27 114.175 488.27 117.575C488.27 120.975 489.47 122.935 491.37 122.935ZM503.233 119.435V117.635H505.313V110.555H510.573C516.993 110.555 516.993 119.435 510.573 119.435H507.473V120.975H509.793V122.635H507.473V124.575H505.313V122.635H503.233V120.975H505.313V119.435H503.233ZM507.473 117.635H510.453C514.193 117.635 514.193 112.335 510.453 112.335H507.473V117.635Z" fill="black" fill-opacity="0.9"/>
</svg>
