<svg xmlns="http://www.w3.org/2000/svg" fill="none" viewBox="0 0 1040 343"><path fill="#fff" d="M48.736 20.848h8.448c-.64-3.552-2.976-5.888-6.112-5.888-2.752 0-5.152 1.984-5.728 4.8l-4.224-1.376c1.28-4.16 5.376-7.104 9.952-7.104 6.4 0 10.912 4.768 10.912 11.52s-4.512 11.488-10.912 11.488c-4.8 0-8.896-3.008-9.92-7.296l4.192-1.44c.544 2.976 2.944 5.088 5.728 5.088 3.232 0 5.632-2.496 6.144-6.208h-8.48v-3.584zm16.072 0v-3.36h14.655v3.36h-5.055V34h-4.513V20.848h-5.087zM96.37 34h-4.064c-.032-.192-.352-1.6-.384-1.792-1.216 1.28-3.008 2.08-4.64 2.08-3.456 0-5.6-1.984-5.6-5.152 0-2.752 2.752-4.8 7.104-5.312l2.816-.32v-.48c0-1.344-.96-2.272-2.208-2.272-1.248 0-2.336.8-2.592 1.952l-4.32-.736c.576-2.784 3.264-4.768 6.976-4.768 3.872 0 6.656 2.464 6.656 6.272v5.568c0 2.56.064 3.616.256 4.96zm-8.032-3.2c2.016 0 3.264-1.376 3.264-3.584v-.896l-2.56.288c-1.76.192-2.848 1.088-2.848 2.304 0 1.152.832 1.888 2.144 1.888zm10.851-13.312h14.784V34h-4.512V20.848h-5.76V34h-4.512V17.488zm17.594 0h4.512v5.472h3.808c4.128 0 6.176 2.752 6.176 5.504 0 2.784-2.048 5.536-6.176 5.536h-8.32V17.488zm4.512 8.832v4.32h2.976c1.696 0 2.56-1.088 2.56-2.176 0-1.056-.864-2.144-2.56-2.144h-2.976zM134.063 34V17.488h4.48V34h-4.48z"/><rect width="232" height="236" x="40" y="94" fill="#fff" rx="40"/><g filter="url(#a)"><path fill="#000" fill-opacity=".9" d="M64.54 136l5.48-14.02h2.48L77.98 136h-2.24l-1.26-3.28h-6.46L66.78 136h-2.24zm4.18-5.06h5.08l-2.54-6.58-2.54 6.58zM79.832 136v-14.02h2.18V136h-2.18zm10.02 0v-14.02h2.18v6.04h6.96v-6.04h2.179V136h-2.18v-6.2h-6.96v6.2h-2.18zm22.324 0l-3.54-5.52h-2.64V136h-2.18v-14.02h5.5c5.22 0 5.76 6.8 1.64 8.24l3.68 5.78h-2.46zm-6.18-7.32h3.2c3.16 0 3.16-4.92 0-4.92h-3.2v4.92zm9.867 2.98V130h6.56v1.66h-6.56zm8.428-.76c0-3.1 2.04-5.26 4.94-5.26 2.42 0 4.14 1.54 4.6 3.3l-2.04.46c-.36-1.24-1.3-2-2.56-2-1.72 0-2.82 1.36-2.82 3.5 0 2.14 1.1 3.5 2.82 3.5 1.24 0 2.18-.72 2.56-1.92l2.04.46c-.44 1.7-2.18 3.22-4.6 3.22-2.9 0-4.94-2.18-4.94-5.26zm11.24 5.1v-10.16h2.1v4.36l3.88-4.36h2.38l-3.56 3.98 4.12 6.18h-2.42l-3.08-4.62-1.32 1.48V136h-2.1zm12.49-1.32V140h-2.1v-11.2c0-1.26-.06-2.28-.14-2.96h1.88c.08.36.18.98.24 1.48.68-.96 1.9-1.66 3.24-1.66 2.54 0 4.3 2.18 4.3 5.28 0 3.08-1.76 5.26-4.3 5.26-1.22 0-2.42-.58-3.12-1.52zm0-4.02v.64c0 1.76.94 3.14 2.56 3.14 1.7 0 2.74-1.36 2.74-3.5 0-2.18-1.04-3.56-2.74-3.56-1.58 0-2.56 1.42-2.56 3.28zm9.207-4.82h2.12v6.98l4.62-6.98h2V136h-2.12v-6.98l-4.62 6.98h-2v-10.16zm10.82 0h2.12v4.24h4.5v-4.24h2.12V136h-2.12v-4.28h-4.5V136h-2.12v-10.16z"/></g><path fill="#1A1A1A" fill-opacity=".9" d="M65.12 175v-11.2h8.752V175h-1.184v-10.144h-6.384V175H65.12zm11.96-1.104v4.304h-1.136v-8.96c0-1.072-.016-1.664-.08-2.24h.976c.096.352.192.848.24 1.2.624-.784 1.552-1.36 2.64-1.36 2.064 0 3.504 1.728 3.504 4.176 0 2.432-1.44 4.144-3.504 4.144-1.056 0-2-.448-2.64-1.264zm0-3.12v.528c0 1.472.864 2.816 2.416 2.816 1.616 0 2.592-1.2 2.592-3.104 0-1.936-.976-3.168-2.592-3.168-1.488 0-2.416 1.376-2.416 2.928zm14.971.208c0 2.432-1.552 4.144-3.776 4.144-2.224 0-3.776-1.712-3.776-4.144 0-2.432 1.552-4.144 3.776-4.144 2.224 0 3.776 1.712 3.776 4.144zm-6.416 0c0 1.92 1.04 3.136 2.64 3.136s2.64-1.216 2.64-3.136c0-1.904-1.04-3.104-2.64-3.104s-2.64 1.2-2.64 3.104zM93.647 167h1.136v6.352l4.32-6.352h1.137v8h-1.136v-6.352L94.784 175h-1.137v-8zm3.296-.64c-1.12 0-2-.848-2-1.92h.817c0 .576.527 1.056 1.183 1.056.64 0 1.169-.48 1.169-1.056h.816c0 1.072-.88 1.92-1.984 1.92zm7.044.64h4.976v7.056h.976v2.704h-1.136V175h-5.984v1.76h-1.136v-2.704h.432c.8 0 1.136-.544 1.232-1.376l.64-5.68zm.416 5.792c-.064.496-.192.912-.4 1.264h3.824v-6.112h-2.864l-.56 4.848zm6.979-5.792h1.136v6.352l4.32-6.352h1.136v8h-1.136v-6.352l-4.32 6.352h-1.136v-8zm19.748 3.984c0 2.432-1.552 4.144-3.776 4.144-2.224 0-3.776-1.712-3.776-4.144 0-2.432 1.552-4.144 3.776-4.144 2.224 0 3.776 1.712 3.776 4.144zm-6.416 0c0 1.92 1.04 3.136 2.64 3.136s2.64-1.216 2.64-3.136c0-1.904-1.04-3.104-2.64-3.104s-2.64 1.2-2.64 3.104zm8.012-3.984h1.136v3.52h4.32V167h1.136v8h-1.136v-3.536h-4.32V175h-1.136v-8zm10.643 0h4.976v8h-1.136v-7.056h-2.864l-.56 4.848c-.16 1.328-.864 2.208-2.16 2.208h-.784v-.944h.656c.8 0 1.136-.544 1.232-1.376l.64-5.68zm13.128 8h-.976c-.112-.4-.192-.8-.24-1.2-.544.784-1.344 1.344-2.496 1.344-1.664 0-2.832-1.008-2.832-2.448s1.184-2.192 3.248-2.432l2.08-.24v-.48c0-.992-.736-1.664-1.792-1.664-1.008 0-1.744.4-2.016 1.2l-1.105-.192c.401-1.28 1.569-2.048 3.121-2.048 1.776 0 2.928 1.168 2.928 2.944v2.976c0 1.072.016 1.664.08 2.24zm-3.616-.864c1.488 0 2.4-.976 2.4-2.352v-.864l-2.096.256c-1.296.16-2.096.64-2.096 1.52 0 .832.736 1.44 1.792 1.44zm5.454-7.136h1.136v6.352l4.32-6.352h1.136v8h-1.136v-6.352l-4.32 6.352h-1.136v-8zm3.296-.64c-1.12 0-2-.848-2-1.92h.816c0 .576.528 1.056 1.184 1.056.64 0 1.168-.48 1.168-1.056h.816c0 1.072-.88 1.92-1.984 1.92zm5.22.64h1.136v3.52h4.32V167h1.136v8h-1.136v-3.536h-4.32V175h-1.136v-8zm8.515 4.4v-.944h4.816v.944h-4.816zM64.96 191h1.136v6.352l4.32-6.352h1.136v8h-1.136v-6.352L66.096 199H64.96v-8zm8.516 0h1.136v3.52h4.32V191h1.136v8h-1.136v-3.536h-4.32V199h-1.136v-8zm8.26.944V191h6.591v.944h-2.736V199h-1.136v-7.056h-2.72zm7.935 3.04c0-2.432 1.552-4.144 3.776-4.144 2.224 0 3.776 1.712 3.776 4.144v.304h-6.4c.096 1.728 1.104 2.8 2.624 2.8 1.184 0 2.032-.624 2.368-1.712l1.104.192c-.448 1.552-1.744 2.56-3.472 2.56-2.224 0-3.776-1.712-3.776-4.144zm3.776-3.104c-1.424 0-2.4.944-2.592 2.48h5.2c-.192-1.552-1.184-2.48-2.608-2.48zm6.399 6.016v4.304H98.71v-8.96c0-1.072-.016-1.664-.08-2.24h.976c.096.352.192.848.24 1.2.624-.784 1.552-1.36 2.64-1.36 2.064 0 3.504 1.728 3.504 4.176 0 2.432-1.44 4.144-3.504 4.144-1.056 0-2-.448-2.64-1.264zm0-3.12v.528c0 1.472.864 2.816 2.416 2.816 1.616 0 2.592-1.2 2.592-3.104 0-1.936-.976-3.168-2.592-3.168-1.488 0-2.416 1.376-2.416 2.928zm7.739-3.776h3.712c1.344 0 2.288.928 2.288 2.24 0 .624-.368 1.296-.88 1.632.768.32 1.312 1.104 1.312 1.888 0 1.312-1.04 2.24-2.528 2.24h-3.904v-8zm1.136 4.48v2.576h2.624c.896 0 1.52-.528 1.52-1.296 0-.752-.624-1.28-1.52-1.28h-2.624zm0-3.536v2.576h2.432c.752 0 1.28-.528 1.28-1.28 0-.768-.528-1.296-1.28-1.296h-2.432zm6.817-.944h1.136v3.056h2.464c1.68 0 2.528 1.232 2.528 2.464 0 1.248-.848 2.48-2.528 2.48h-3.6v-8zm1.136 4v3.056h2.32c1.008 0 1.52-.768 1.52-1.536s-.496-1.52-1.52-1.52h-2.32zm6.489-4h1.136v3.52h1.52c.192-2.176 1.68-3.68 3.76-3.68 2.224 0 3.776 1.712 3.776 4.144 0 2.432-1.552 4.144-3.776 4.144-2.08 0-3.568-1.488-3.76-3.664h-1.52V199h-1.136v-8zm3.776 3.984c0 1.92 1.04 3.136 2.64 3.136s2.64-1.216 2.64-3.136c0-1.904-1.04-3.104-2.64-3.104s-2.64 1.2-2.64 3.104zM138.96 191h3.712c1.344 0 2.288.928 2.288 2.24 0 .624-.368 1.296-.88 1.632.768.32 1.312 1.104 1.312 1.888 0 1.312-1.04 2.24-2.528 2.24h-3.904v-8zm1.136 4.48v2.576h2.624c.896 0 1.52-.528 1.52-1.296 0-.752-.624-1.28-1.52-1.28h-2.624zm0-3.536v2.576h2.432c.752 0 1.28-.528 1.28-1.28 0-.768-.528-1.296-1.28-1.296h-2.432zm12.945-.944h4.976v8h-1.136v-7.056h-2.864l-.56 4.848c-.16 1.328-.864 2.208-2.16 2.208h-.784v-.944h.656c.8 0 1.136-.544 1.232-1.376l.64-5.68zm6.903 0h1.136v3.52h1.52c.192-2.176 1.68-3.68 3.76-3.68 2.224 0 3.776 1.712 3.776 4.144 0 2.432-1.552 4.144-3.776 4.144-2.08 0-3.568-1.488-3.76-3.664h-1.52V199h-1.136v-8zm3.776 3.984c0 1.92 1.04 3.136 2.64 3.136s2.64-1.216 2.64-3.136c0-1.904-1.04-3.104-2.64-3.104s-2.64 1.2-2.64 3.104zm8.837-.368v.288c0 1.936.896 3.168 2.512 3.168s2.496-1.232 2.496-3.168c0-1.904-.976-3.104-2.592-3.104-1.552 0-2.416 1.344-2.416 2.816zm-1.136.112v-2.272c0-2.832 1.568-4.496 4.224-4.736.736-.064 1.456-.128 2.192-.512v.976c-.736.384-1.456.448-2.192.512-2.048.176-3.088 1.504-3.088 3.184v.144c.64-.816 1.584-1.264 2.64-1.264 2.064 0 3.504 1.712 3.504 4.144 0 2.448-1.376 4.176-3.632 4.176-2.256 0-3.648-1.68-3.648-4.352zm16.115.256c0 2.432-1.552 4.144-3.776 4.144-2.224 0-3.776-1.712-3.776-4.144 0-2.432 1.552-4.144 3.776-4.144 2.224 0 3.776 1.712 3.776 4.144zm-6.416 0c0 1.92 1.04 3.136 2.64 3.136s2.64-1.216 2.64-3.136c0-1.904-1.04-3.104-2.64-3.104s-2.64 1.2-2.64 3.104zm7.692 0c0-2.432 1.552-4.144 3.776-4.144 2.224 0 3.776 1.712 3.776 4.144v.304h-6.4c.096 1.728 1.104 2.8 2.624 2.8 1.184 0 2.032-.624 2.368-1.712l1.104.192c-.448 1.552-1.744 2.56-3.472 2.56-2.224 0-3.776-1.712-3.776-4.144zm3.776-3.104c-1.424 0-2.4.944-2.592 2.48h5.2c-.192-1.552-1.184-2.48-2.608-2.48zM67.36 223.576l.224-.576-3.104-8h1.152l2.48 6.576L70.624 215h1.136l-3.344 8.64c-.48 1.264-1.008 2.704-2.816 2.704-.32 0-.672-.032-1.056-.112v-1.008c.384.096.704.128.96.128 1.168 0 1.552-.928 1.856-1.776zM75.018 215h4.976v7.056h.976v2.704h-1.136V223H73.85v1.76h-1.136v-2.704h.432c.8 0 1.136-.544 1.232-1.376l.64-5.68zm.416 5.792c-.064.496-.192.912-.4 1.264h3.824v-6.112h-2.864l-.56 4.848zm14.211-1.808c0 2.432-1.552 4.144-3.776 4.144-2.224 0-3.776-1.712-3.776-4.144 0-2.432 1.552-4.144 3.776-4.144 2.224 0 3.776 1.712 3.776 4.144zm-6.416 0c0 1.92 1.04 3.136 2.64 3.136s2.64-1.216 2.64-3.136c0-1.904-1.04-3.104-2.64-3.104s-2.64 1.2-2.64 3.104zm8.828-.368v.288c0 1.936.896 3.168 2.512 3.168s2.496-1.232 2.496-3.168c0-1.904-.976-3.104-2.592-3.104-1.552 0-2.416 1.344-2.416 2.816zm-1.136.112v-2.272c0-2.832 1.568-4.496 4.224-4.736.736-.064 1.456-.128 2.192-.512v.976c-.736.384-1.456.448-2.192.512-2.048.176-3.088 1.504-3.088 3.184v.144c.64-.816 1.584-1.264 2.64-1.264 2.064 0 3.504 1.712 3.504 4.144 0 2.448-1.376 4.176-3.632 4.176-2.256 0-3.648-1.68-3.648-4.352zM99.804 215h1.136v3.52h4.32V215h1.136v8h-1.136v-3.536h-4.32V223h-1.136v-8zm15.747 3.984c0 2.432-1.552 4.144-3.776 4.144-2.224 0-3.776-1.712-3.776-4.144 0-2.432 1.552-4.144 3.776-4.144 2.224 0 3.776 1.712 3.776 4.144zm-6.416 0c0 1.92 1.04 3.136 2.64 3.136s2.64-1.216 2.64-3.136c0-1.904-1.04-3.104-2.64-3.104s-2.64 1.2-2.64 3.104zm7.693 0c0-2.432 1.552-4.144 3.776-4.144 2.224 0 3.776 1.712 3.776 4.144v.304h-6.4c.096 1.728 1.104 2.8 2.624 2.8 1.184 0 2.032-.624 2.368-1.712l1.104.192c-.448 1.552-1.744 2.56-3.472 2.56-2.224 0-3.776-1.712-3.776-4.144zm3.776-3.104c-1.424 0-2.4.944-2.592 2.48h5.2c-.192-1.552-1.184-2.48-2.608-2.48zm9.262-.88h3.712c1.344 0 2.288.928 2.288 2.24 0 .624-.368 1.296-.88 1.632.768.32 1.312 1.104 1.312 1.888 0 1.312-1.04 2.24-2.528 2.24h-3.904v-8zm1.136 4.48v2.576h2.624c.896 0 1.52-.528 1.52-1.296 0-.752-.624-1.28-1.52-1.28h-2.624zm0-3.536v2.576h2.432c.752 0 1.28-.528 1.28-1.28 0-.768-.528-1.296-1.28-1.296h-2.432zm7.953 5.952v4.304h-1.136v-8.96c0-1.072-.016-1.664-.08-2.24h.976c.096.352.192.848.24 1.2.624-.784 1.552-1.36 2.64-1.36 2.064 0 3.504 1.728 3.504 4.176 0 2.432-1.44 4.144-3.504 4.144-1.056 0-2-.448-2.64-1.264zm0-3.12v.528c0 1.472.864 2.816 2.416 2.816 1.616 0 2.592-1.2 2.592-3.104 0-1.936-.976-3.168-2.592-3.168-1.488 0-2.416 1.376-2.416 2.928zm7.419.208c0-2.432 1.552-4.144 3.776-4.144 2.224 0 3.776 1.712 3.776 4.144v.304h-6.4c.096 1.728 1.104 2.8 2.624 2.8 1.184 0 2.032-.624 2.368-1.712l1.104.192c-.448 1.552-1.744 2.56-3.472 2.56-2.224 0-3.776-1.712-3.776-4.144zm3.776-3.104c-1.424 0-2.4.944-2.592 2.48h5.2c-.192-1.552-1.184-2.48-2.608-2.48zm9.935 7.12h-.88l-2.656-6.16V223h-1.136v-8h1.392l2.848 6.592 2.832-6.592h1.392v8h-1.136v-6.16l-2.656 6.16zm11.687 0h-1.136v-3.056h-2.224L166.556 223h-1.312l1.968-3.216c-1.04-.368-1.568-1.328-1.568-2.304 0-1.248.848-2.48 2.528-2.48h3.6v8zm-1.136-4v-3.056h-2.32c-1.008 0-1.52.768-1.52 1.536s.496 1.52 1.52 1.52h2.32z"/><path fill="#000" fill-opacity=".05" d="M64 290c0-8.837 7.163-16 16-16h45c8.837 0 16 7.163 16 16s-7.163 16-16 16H80c-8.837 0-16-7.163-16-16z"/><path fill="#000" fill-opacity=".9" d="M83.536 287.498h1.344c1.05 0 1.792-.7 1.792-1.708 0-1.022-.756-1.736-1.946-1.736-1.232 0-2.1.7-2.408 1.806l-.994-.35c.448-1.484 1.694-2.422 3.43-2.422 1.792 0 2.982 1.106 2.982 2.688 0 .98-.504 1.75-1.33 2.17.994.392 1.624 1.246 1.624 2.366 0 1.666-1.288 2.828-3.192 2.828-1.862 0-3.262-1.022-3.738-2.618l.994-.35c.336 1.218 1.358 2.002 2.716 2.002 1.232 0 2.156-.756 2.156-1.876 0-1.078-.798-1.834-1.932-1.834h-1.498v-.966zm9.417 5.614c-2.198 0-3.584-1.932-3.584-5.012 0-3.08 1.386-5.012 3.584-5.012 2.198 0 3.584 1.932 3.584 5.012 0 3.08-1.386 5.012-3.584 5.012zm0-.938c1.554 0 2.52-1.568 2.52-4.06 0-2.492-.966-4.088-2.52-4.088s-2.52 1.596-2.52 4.088.966 4.06 2.52 4.06zm12.622.826h-.77l-2.324-5.39V293h-.994v-7h1.218l2.492 5.768 2.478-5.768h1.218v7h-.994v-5.39l-2.324 5.39zm5.004-7h.994v5.558l3.78-5.558h.994v7h-.994v-5.558l-3.78 5.558h-.994v-7zm7.451 0h.994v3.08h3.78V286h.994v7h-.994v-3.094h-3.78V293h-.994v-7z"/><path fill="#000" fill-opacity=".05" d="M149 290c0-8.837 7.163-16 16-16h49c8.837 0 16 7.163 16 16s-7.163 16-16 16h-49c-8.837 0-16-7.163-16-16z"/><path fill="#000" fill-opacity=".9" d="M170.842 293.112c-2.674 0-4.564-2.072-4.564-5.012 0-2.94 1.89-5.012 4.564-5.012 2.674 0 4.564 2.072 4.564 5.012 0 2.94-1.89 5.012-4.564 5.012zm0-.966c2.058 0 3.5-1.61 3.5-4.032 0-2.422-1.442-4.06-3.5-4.06s-3.5 1.638-3.5 4.06c0 2.422 1.442 4.032 3.5 4.032zm6.25-6.146h.994v3.08h3.78V286h.994v7h-.994v-3.094h-3.78V293h-.994v-7zm9.313 0h4.354v7h-.994v-6.174h-2.506l-.49 4.242c-.14 1.162-.756 1.932-1.89 1.932h-.686v-.826h.574c.7 0 .994-.476 1.078-1.204l.56-4.97zm11.486 7h-.854a6.97 6.97 0 01-.21-1.05c-.476.686-1.176 1.176-2.184 1.176-1.456 0-2.478-.882-2.478-2.142 0-1.26 1.036-1.918 2.842-2.128l1.82-.21v-.42c0-.868-.644-1.456-1.568-1.456-.882 0-1.526.35-1.764 1.05l-.966-.168c.35-1.12 1.372-1.792 2.73-1.792 1.554 0 2.562 1.022 2.562 2.576v2.604c0 .938.014 1.456.07 1.96zm-3.164-.756c1.302 0 2.1-.854 2.1-2.058v-.756l-1.834.224c-1.134.14-1.834.56-1.834 1.33 0 .728.644 1.26 1.568 1.26zM199.5 286h.994v5.558l3.78-5.558h.994v7h-.994v-5.558l-3.78 5.558h-.994v-7zm2.884-.56c-.98 0-1.75-.742-1.75-1.68h.714c0 .504.462.924 1.036.924.56 0 1.022-.42 1.022-.924h.714c0 .938-.77 1.68-1.736 1.68zm4.567.56h.994v3.08h3.78V286h.994v7h-.994v-3.094h-3.78V293h-.994v-7z"/><rect width="232" height="236" x="296" y="94" fill="#fff" rx="40"/><g filter="url(#b)"><path fill="#000" fill-opacity=".9" d="M320.54 136l5.48-14.02h2.48l5.48 14.02h-2.24l-1.26-3.28h-6.46l-1.24 3.28h-2.24zm4.18-5.06h5.08l-2.54-6.58-2.54 6.58zm13.472-5.1h7.02V136h-2.12v-8.52h-3.04l-.58 5.56c-.18 1.72-1.2 2.96-3.04 2.96h-1.34v-1.64h.92c.94 0 1.34-.5 1.44-1.52l.74-7zm9.137 0h7.34v1.64h-5.22V136h-2.12v-10.16zm18.681 5.06c0 3.08-2.04 5.26-4.92 5.26-2.9 0-4.94-2.18-4.94-5.26 0-3.1 2.04-5.26 4.94-5.26 2.88 0 4.92 2.16 4.92 5.26zm-7.74 0c0 2.16 1.1 3.54 2.82 3.54 1.72 0 2.82-1.38 2.82-3.54 0-2.14-1.1-3.5-2.82-3.5-1.72 0-2.82 1.36-2.82 3.5zm11.728 3.78V140h-2.1v-11.2c0-1.26-.06-2.28-.14-2.96h1.88c.08.36.18.98.24 1.48.68-.96 1.9-1.66 3.24-1.66 2.54 0 4.3 2.18 4.3 5.28 0 3.08-1.76 5.26-4.3 5.26-1.22 0-2.42-.58-3.12-1.52zm0-4.02v.64c0 1.76.94 3.14 2.56 3.14 1.7 0 2.74-1.36 2.74-3.5 0-2.18-1.04-3.56-2.74-3.56-1.58 0-2.56 1.42-2.56 3.28zm9.206-4.82h2.12v6.98l4.62-6.98h2V136h-2.12v-6.98l-4.62 6.98h-2v-10.16zm10.58 1.64v-1.64h8.7v1.64h-3.3V136h-2.12v-8.52h-3.28zm17.074 8.52h-1.66l-2.78-6.86V136h-2.12v-10.16h2.66l3.08 7.5 3.06-7.5h2.66V136h-2.12v-6.86l-2.78 6.86zm6.975-10.16h2.12v3.62h2.74c2.34 0 3.5 1.62 3.5 3.26 0 1.64-1.16 3.28-3.5 3.28h-4.86v-10.16zm2.12 5.26v3.26h2.38c1.16 0 1.76-.82 1.76-1.64s-.58-1.62-1.76-1.62h-2.38zm8.06 4.9v-10.16h2.1V136h-2.1z"/></g><path fill="#1A1A1A" fill-opacity=".9" d="M321.12 175v-11.2h8.752V175h-1.184v-10.144h-6.384V175h-1.184zm11.96-1.104v4.304h-1.136v-8.96c0-1.072-.016-1.664-.08-2.24h.976c.096.352.192.848.24 1.2.624-.784 1.552-1.36 2.64-1.36 2.064 0 3.504 1.728 3.504 4.176 0 2.432-1.44 4.144-3.504 4.144-1.056 0-2-.448-2.64-1.264zm0-3.12v.528c0 1.472.864 2.816 2.416 2.816 1.616 0 2.592-1.2 2.592-3.104 0-1.936-.976-3.168-2.592-3.168-1.488 0-2.416 1.376-2.416 2.928zm14.971.208c0 2.432-1.552 4.144-3.776 4.144-2.224 0-3.776-1.712-3.776-4.144 0-2.432 1.552-4.144 3.776-4.144 2.224 0 3.776 1.712 3.776 4.144zm-6.416 0c0 1.92 1.04 3.136 2.64 3.136s2.64-1.216 2.64-3.136c0-1.904-1.04-3.104-2.64-3.104s-2.64 1.2-2.64 3.104zm7.757-3.04V167h6.592v.944h-2.736V175h-1.136v-7.056h-2.72zm7.936 3.04c0-2.432 1.552-4.144 3.776-4.144 2.224 0 3.776 1.712 3.776 4.144v.304h-6.4c.096 1.728 1.104 2.8 2.624 2.8 1.184 0 2.032-.624 2.368-1.712l1.104.192c-.448 1.552-1.744 2.56-3.472 2.56-2.224 0-3.776-1.712-3.776-4.144zm3.776-3.104c-1.424 0-2.4.944-2.592 2.48h5.2c-.192-1.552-1.184-2.48-2.608-2.48zm4.942 3.104c0-2.432 1.552-4.144 3.776-4.144 1.728 0 3.024 1.04 3.472 2.624l-1.104.192c-.32-1.12-1.184-1.776-2.368-1.776-1.6 0-2.64 1.2-2.64 3.104 0 1.904 1.04 3.104 2.64 3.104 1.184 0 2.032-.624 2.368-1.712l1.104.192c-.448 1.552-1.744 2.56-3.472 2.56-2.224 0-3.776-1.712-3.776-4.144zm8.486-3.04V167h6.592v.944h-2.736V175h-1.136v-7.056h-2.72zm8.256-.944h1.136v6.352l4.32-6.352h1.136v8h-1.136v-6.352l-4.32 6.352h-1.136v-8zm9.652 6.896v4.304h-1.136v-8.96c0-1.072-.016-1.664-.08-2.24h.976c.096.352.192.848.24 1.2.624-.784 1.552-1.36 2.64-1.36 2.064 0 3.504 1.728 3.504 4.176 0 2.432-1.44 4.144-3.504 4.144-1.056 0-2-.448-2.64-1.264zm0-3.12v.528c0 1.472.864 2.816 2.416 2.816 1.616 0 2.592-1.2 2.592-3.104 0-1.936-.976-3.168-2.592-3.168-1.488 0-2.416 1.376-2.416 2.928zm10.139 4.8l.224-.576-3.104-8h1.152l2.48 6.576 2.512-6.576h1.136l-3.344 8.64c-.48 1.264-1.008 2.704-2.816 2.704-.32 0-.672-.032-1.056-.112v-1.008c.384.096.704.128.96.128 1.168 0 1.552-.928 1.856-1.776zm5.834-8.576h1.136v6.352l4.32-6.352h1.136v8h-1.136v-6.352l-4.32 6.352h-1.136v-8zm3.296-.64c-1.12 0-2-.848-2-1.92h.816c0 .576.528 1.056 1.184 1.056.64 0 1.168-.48 1.168-1.056h.816c0 1.072-.88 1.92-1.984 1.92zm8.9 4.624c0-2.432 1.552-4.144 3.776-4.144 1.728 0 3.024 1.04 3.472 2.624l-1.104.192c-.32-1.12-1.184-1.776-2.368-1.776-1.6 0-2.64 1.2-2.64 3.104 0 1.904 1.04 3.104 2.64 3.104 1.184 0 2.032-.624 2.368-1.712l1.104.192c-.448 1.552-1.744 2.56-3.472 2.56-2.224 0-3.776-1.712-3.776-4.144zm8.742-3.984h3.712c1.344 0 2.288.928 2.288 2.24 0 .624-.368 1.296-.88 1.632.768.32 1.312 1.104 1.312 1.888 0 1.312-1.04 2.24-2.528 2.24h-3.904v-8zm1.136 4.48v2.576h2.624c.896 0 1.52-.528 1.52-1.296 0-.752-.624-1.28-1.52-1.28h-2.624zm0-3.536v2.576h2.432c.752 0 1.28-.528 1.28-1.28 0-.768-.528-1.296-1.28-1.296h-2.432zm14.049 3.04c0 2.432-1.552 4.144-3.776 4.144-2.224 0-3.776-1.712-3.776-4.144 0-2.432 1.552-4.144 3.776-4.144 2.224 0 3.776 1.712 3.776 4.144zm-6.416 0c0 1.92 1.04 3.136 2.64 3.136s2.64-1.216 2.64-3.136c0-1.904-1.04-3.104-2.64-3.104s-2.64 1.2-2.64 3.104zm8.012-3.984h1.136v6.352l4.32-6.352h1.136v8h-1.136v-6.352l-4.32 6.352h-1.136v-8zm-122.42 28.368h-.8v-.928h.8c1.04 0 1.936-.56 1.936-1.408 0-.672-.704-1.152-1.712-1.152s-1.744.48-2.016 1.28l-1.104-.192c.4-1.28 1.568-2.128 3.12-2.128 1.664 0 2.832.912 2.832 2.192 0 .96-.512 1.488-1.216 1.824.832.368 1.44.912 1.44 2 0 1.2-1.136 2.304-2.976 2.304-1.76 0-3.04-.976-3.472-2.464l1.104-.192c.304 1.024 1.152 1.616 2.368 1.616 1.088 0 1.856-.576 1.856-1.264 0-.88-.848-1.488-2.16-1.488zm4.967-4.368h1.136v3.52h4.32V191h1.136v8h-1.136v-3.536h-4.32V199h-1.136v-8zm14.739 8h-.976c-.112-.4-.192-.8-.24-1.2-.544.784-1.344 1.344-2.496 1.344-1.664 0-2.832-1.008-2.832-2.448s1.184-2.192 3.248-2.432l2.08-.24v-.48c0-.992-.736-1.664-1.792-1.664-1.008 0-1.744.4-2.016 1.2l-1.104-.192c.4-1.28 1.568-2.048 3.12-2.048 1.776 0 2.928 1.168 2.928 2.944v2.976c0 1.072.016 1.664.08 2.24zm-3.616-.864c1.488 0 2.4-.976 2.4-2.352v-.864l-2.096.256c-1.296.16-2.096.64-2.096 1.52 0 .832.736 1.44 1.792 1.44zm5.455-7.136h1.136v3.52h4.32V191h1.136v8h-1.136v-3.536h-4.32V199h-1.136v-8zm8.516 0h1.136v6.352l4.32-6.352h1.136v8h-1.136v-6.352l-4.32 6.352h-1.136v-8zm14.483 8h-1.136v-3.056h-2.224L363.04 199h-1.312l1.968-3.216c-1.04-.368-1.568-1.328-1.568-2.304 0-1.248.848-2.48 2.528-2.48h3.6v8zm-1.136-4v-3.056h-2.32c-1.008 0-1.52.768-1.52 1.536s.496 1.52 1.52 1.52h2.32zm6.661-.016c0-2.432 1.552-4.144 3.776-4.144 1.728 0 3.024 1.04 3.472 2.624l-1.104.192c-.32-1.12-1.184-1.776-2.368-1.776-1.6 0-2.64 1.2-2.64 3.104 0 1.904 1.04 3.104 2.64 3.104 1.184 0 2.032-.624 2.368-1.712l1.104.192c-.448 1.552-1.744 2.56-3.472 2.56-2.224 0-3.776-1.712-3.776-4.144zm15.142 4.592l.224-.576-3.104-8h1.152l2.479 6.576 2.513-6.576h1.136l-3.344 8.64c-.48 1.264-1.008 2.704-2.816 2.704-.32 0-.672-.032-1.056-.112v-1.008c.384.096.704.128.96.128 1.168 0 1.552-.928 1.856-1.776zm10.506-.576h-.88l-2.656-6.16V199h-1.136v-8h1.392l2.848 6.592 2.832-6.592h1.392v8h-1.136v-6.16l-2.656 6.16zm5.719-8h1.136v3.52h4.32V191h1.136v8h-1.136v-3.536h-4.32V199h-1.136v-8zm8.515 0h1.136v3.056h2.464c1.68 0 2.528 1.232 2.528 2.464 0 1.248-.848 2.48-2.528 2.48h-3.6v-8zm1.136 4v3.056h2.32c1.008 0 1.52-.768 1.52-1.536s-.496-1.52-1.52-1.52h-2.32zm6.496 4v-8h1.136v8h-1.136zm7.728 0h-.88l-2.656-6.16V199h-1.136v-8h1.392l2.848 6.592 2.832-6.592h1.392v8h-1.136v-6.16l-2.656 6.16zM320.96 215h6.592v8h-1.136v-7.056h-4.32V223h-1.136v-8zm15.67 3.984c0 2.432-1.552 4.144-3.776 4.144-2.224 0-3.776-1.712-3.776-4.144 0-2.432 1.552-4.144 3.776-4.144 2.224 0 3.776 1.712 3.776 4.144zm-6.416 0c0 1.92 1.04 3.136 2.64 3.136s2.64-1.216 2.64-3.136c0-1.904-1.04-3.104-2.64-3.104s-2.64 1.2-2.64 3.104zM342.898 223h-.88l-2.656-6.16V223h-1.136v-8h1.392l2.848 6.592 2.832-6.592h1.392v8h-1.136v-6.16l-2.656 6.16zm12.95-4.016c0 2.432-1.552 4.144-3.776 4.144-2.224 0-3.776-1.712-3.776-4.144 0-2.432 1.552-4.144 3.776-4.144 2.224 0 3.776 1.712 3.776 4.144zm-6.416 0c0 1.92 1.04 3.136 2.64 3.136s2.64-1.216 2.64-3.136c0-1.904-1.04-3.104-2.64-3.104s-2.64 1.2-2.64 3.104zM367.3 223h-9.856v-8h1.136v7.056h3.2V215h1.136v7.056h3.2V215h1.136v7.056h1.184v2.704H367.3V223zm2.582-8h1.136v3.52h4.32V215h1.136v8h-1.136v-3.536h-4.32V223h-1.136v-8zm8.516 0h1.136v6.352l4.32-6.352h1.136v8h-1.136v-6.352l-4.32 6.352h-1.136v-8zm8.515 8v-8h1.136v3.776l3.584-3.776h1.344l-2.976 3.168 3.424 4.832h-1.328l-2.848-4.032-1.2 1.28V223h-1.136zm15.107-4.016c0 2.432-1.552 4.144-3.776 4.144-2.224 0-3.776-1.712-3.776-4.144 0-2.432 1.552-4.144 3.776-4.144 2.224 0 3.776 1.712 3.776 4.144zm-6.416 0c0 1.92 1.04 3.136 2.64 3.136s2.64-1.216 2.64-3.136c0-1.904-1.04-3.104-2.64-3.104s-2.64 1.2-2.64 3.104zM408.288 223h-.88l-2.656-6.16V223h-1.136v-8h1.392l2.848 6.592 2.832-6.592h1.392v8h-1.136v-6.16l-2.656 6.16z"/><path fill="#000" fill-opacity=".05" d="M320 290c0-8.837 7.163-16 16-16h34c8.837 0 16 7.163 16 16s-7.163 16-16 16h-34c-8.837 0-16-7.163-16-16z"/><path fill="#000" fill-opacity=".9" d="M341.833 283.2v9.8h-1.036v-8.708l-2.506 1.778v-1.092l2.506-1.778h1.036zm12.553 2.8v7h-.994v-3.024a2.81 2.81 0 01-2.016.896c-1.442 0-2.338-.994-2.338-2.562V286h.994v2.31c0 1.022.546 1.666 1.428 1.666 1.134 0 1.932-.728 1.932-1.778V286h.994zm7.033 7h-.854a6.97 6.97 0 01-.21-1.05c-.476.686-1.176 1.176-2.184 1.176-1.456 0-2.478-.882-2.478-2.142 0-1.26 1.036-1.918 2.842-2.128l1.82-.21v-.42c0-.868-.644-1.456-1.568-1.456-.882 0-1.526.35-1.764 1.05l-.966-.168c.35-1.12 1.372-1.792 2.73-1.792 1.554 0 2.562 1.022 2.562 2.576v2.604c0 .938.014 1.456.07 1.96zm-3.164-.756c1.302 0 2.1-.854 2.1-2.058v-.756l-1.834.224c-1.134.14-1.834.56-1.834 1.33 0 .728.644 1.26 1.568 1.26zm4.493-2.758c0-2.128 1.358-3.626 3.304-3.626 1.512 0 2.646.91 3.038 2.296l-.966.168c-.28-.98-1.036-1.554-2.072-1.554-1.4 0-2.31 1.05-2.31 2.716 0 1.666.91 2.716 2.31 2.716 1.036 0 1.778-.546 2.072-1.498l.966.168c-.392 1.358-1.526 2.24-3.038 2.24-1.946 0-3.304-1.498-3.304-3.626z"/><path fill="#000" fill-opacity=".05" d="M394 290c0-8.837 7.163-16 16-16h49c8.837 0 16 7.163 16 16s-7.163 16-16 16h-49c-8.837 0-16-7.163-16-16z"/><path fill="#000" fill-opacity=".9" d="M415.842 293.112c-2.674 0-4.564-2.072-4.564-5.012 0-2.94 1.89-5.012 4.564-5.012 2.674 0 4.564 2.072 4.564 5.012 0 2.94-1.89 5.012-4.564 5.012zm0-.966c2.058 0 3.5-1.61 3.5-4.032 0-2.422-1.442-4.06-3.5-4.06s-3.5 1.638-3.5 4.06c0 2.422 1.442 4.032 3.5 4.032zm6.25-6.146h.994v3.08h3.78V286h.994v7h-.994v-3.094h-3.78V293h-.994v-7zm9.313 0h4.354v7h-.994v-6.174h-2.506l-.49 4.242c-.14 1.162-.756 1.932-1.89 1.932h-.686v-.826h.574c.7 0 .994-.476 1.078-1.204l.56-4.97zm11.486 7h-.854a6.97 6.97 0 01-.21-1.05c-.476.686-1.176 1.176-2.184 1.176-1.456 0-2.478-.882-2.478-2.142 0-1.26 1.036-1.918 2.842-2.128l1.82-.21v-.42c0-.868-.644-1.456-1.568-1.456-.882 0-1.526.35-1.764 1.05l-.966-.168c.35-1.12 1.372-1.792 2.73-1.792 1.554 0 2.562 1.022 2.562 2.576v2.604c0 .938.014 1.456.07 1.96zm-3.164-.756c1.302 0 2.1-.854 2.1-2.058v-.756l-1.834.224c-1.134.14-1.834.56-1.834 1.33 0 .728.644 1.26 1.568 1.26zM444.5 286h.994v5.558l3.78-5.558h.994v7h-.994v-5.558l-3.78 5.558h-.994v-7zm2.884-.56c-.98 0-1.75-.742-1.75-1.68h.714c0 .504.462.924 1.036.924.56 0 1.022-.42 1.022-.924h.714c0 .938-.77 1.68-1.736 1.68zm4.567.56h.994v3.08h3.78V286h.994v7h-.994v-3.094h-3.78V293h-.994v-7z"/><rect width="232" height="236" x="552" y="94" fill="#fff" rx="40"/><g filter="url(#c)"><path fill="#000" fill-opacity=".9" d="M580.16 127.9h2.16c1.4 0 2.32-.84 2.32-2.1 0-1.28-.88-2.14-2.3-2.14-1.48 0-2.6.92-3.04 2.38l-2.02-.62c.56-2.16 2.46-3.6 5.06-3.6 2.72 0 4.52 1.64 4.52 3.92 0 1.4-.72 2.5-1.92 3 1.5.56 2.32 1.82 2.32 3.34 0 2.36-1.92 4.12-4.78 4.12-2.84 0-4.96-1.66-5.56-4.02l1.92-.68c.54 1.84 1.8 2.86 3.56 2.86 1.56 0 2.66-.94 2.66-2.36 0-1.36-1.04-2.26-2.62-2.26h-2.28v-1.84zm12.287 8.66l.2-.56-4-10.16h2.16l2.84 7.52 2.82-7.52h2.14l-4.3 11.08c-.62 1.6-1.38 3.36-3.8 3.36-.52 0-1.14-.06-1.66-.22v-1.76c.78.24 1.18.28 1.54.28 1.24 0 1.7-1.04 2.06-2.02zm14.005-.56h-1.66l-2.78-6.86V136h-2.12v-10.16h2.66l3.08 7.5 3.06-7.5h2.66V136h-2.12v-6.86l-2.78 6.86zm11.87-5.1c0-3.1 2.04-5.26 4.94-5.26 2.42 0 4.14 1.54 4.6 3.3l-2.04.46c-.36-1.24-1.3-2-2.56-2-1.72 0-2.82 1.36-2.82 3.5 0 2.14 1.1 3.5 2.82 3.5 1.24 0 2.18-.72 2.56-1.92l2.04.46c-.44 1.7-2.18 3.22-4.6 3.22-2.9 0-4.94-2.18-4.94-5.26zm-39.082 28.78V165h-2.1v-11.2c0-1.26-.06-2.28-.14-2.96h1.88c.08.36.18.98.24 1.48.68-.96 1.9-1.66 3.24-1.66 2.54 0 4.3 2.18 4.3 5.28 0 3.08-1.76 5.26-4.3 5.26-1.22 0-2.42-.58-3.12-1.52zm0-4.02v.64c0 1.76.94 3.14 2.56 3.14 1.7 0 2.74-1.36 2.74-3.5 0-2.18-1.04-3.56-2.74-3.56-1.58 0-2.56 1.42-2.56 3.28zm12.406 5.9l.2-.56-4-10.16h2.16l2.84 7.52 2.82-7.52h2.14l-4.3 11.08c-.62 1.6-1.38 3.36-3.8 3.36-.52 0-1.14-.06-1.66-.22v-1.76c.78.24 1.18.28 1.54.28 1.24 0 1.7-1.04 2.06-2.02zm7.545-.56v-10.16h2.1v4.36l3.88-4.36h2.38l-3.56 3.98 4.12 6.18h-2.42l-3.08-4.62-1.32 1.48V161h-2.1zm19.85-5.1c0 3.08-2.04 5.26-4.92 5.26-2.9 0-4.94-2.18-4.94-5.26 0-3.1 2.04-5.26 4.94-5.26 2.88 0 4.92 2.16 4.92 5.26zm-7.74 0c0 2.16 1.1 3.54 2.82 3.54 1.72 0 2.82-1.38 2.82-3.54 0-2.14-1.1-3.5-2.82-3.5-1.72 0-2.82 1.36-2.82 3.5zm9.528-5.06h5.08c1.78 0 3.04 1.22 3.04 2.94 0 .7-.38 1.5-.94 1.96.86.46 1.46 1.42 1.46 2.32 0 1.72-1.38 2.94-3.34 2.94h-5.3v-10.16zm2.12 5.86v2.66h2.9c.88 0 1.48-.54 1.48-1.34 0-.78-.6-1.32-1.48-1.32h-2.9zm0-4.22v2.66h2.5c.8 0 1.34-.54 1.34-1.32 0-.8-.54-1.34-1.34-1.34h-2.5zm17.811 3.42c0 3.08-2.04 5.26-4.92 5.26-2.9 0-4.94-2.18-4.94-5.26 0-3.1 2.04-5.26 4.94-5.26 2.88 0 4.92 2.16 4.92 5.26zm-7.74 0c0 2.16 1.1 3.54 2.82 3.54 1.72 0 2.82-1.38 2.82-3.54 0-2.14-1.1-3.5-2.82-3.5-1.72 0-2.82 1.36-2.82 3.5zm11.788-5.06h7.02v8.52h1.22v3.84h-2.12V161h-6.74v2.2h-2.12v-3.84h.58c.94 0 1.32-.5 1.44-1.52l.72-7zm1.32 6.92c-.08.62-.26 1.16-.58 1.6h4.16v-6.88h-3.04l-.54 5.28zm8.529-6.92h2.12v6.98l4.62-6.98h2V161h-2.12v-6.98l-4.62 6.98h-2v-10.16zm10.581 1.64v-1.64h8.7v1.64h-3.3V161h-2.12v-8.52h-3.28zm10.213 3.42c0-3.08 2.04-5.26 4.94-5.26 2.9 0 4.92 2.18 4.92 5.26v.54h-7.72c.18 1.84 1.24 2.96 2.8 2.96 1.24 0 2.22-.68 2.62-1.84l1.98.44c-.56 1.88-2.28 3.16-4.6 3.16-2.9 0-4.94-2.18-4.94-5.26zm4.94-3.5c-1.44 0-2.44.94-2.74 2.5h5.46c-.26-1.56-1.3-2.5-2.72-2.5zm9.211-1.56h7.02V161h-2.12v-8.52h-3.04l-.58 5.56c-.18 1.72-1.2 2.96-3.04 2.96h-1.34v-1.64h.92c.94 0 1.34-.5 1.44-1.52l.74-7zm8.837 5.06c0-3.08 2.04-5.26 4.94-5.26 2.9 0 4.92 2.18 4.92 5.26v.54h-7.72c.18 1.84 1.24 2.96 2.8 2.96 1.24 0 2.22-.68 2.62-1.84l1.98.44c-.56 1.88-2.28 3.16-4.6 3.16-2.9 0-4.94-2.18-4.94-5.26zm4.94-3.5c-1.44 0-2.44.94-2.74 2.5h5.46c-.26-1.56-1.3-2.5-2.72-2.5zm13.131 8.6h-1.66l-2.78-6.86V161h-2.12v-10.16h2.66l3.08 7.5 3.06-7.5h2.66V161h-2.12v-6.86l-2.78 6.86z"/></g><path fill="#1A1A1A" fill-opacity=".9" d="M577.12 200v-11.2h8.752V200h-1.184v-10.144h-6.384V200h-1.184zm18.056-4.016c0 2.432-1.552 4.144-3.776 4.144-2.224 0-3.776-1.712-3.776-4.144 0-2.432 1.552-4.144 3.776-4.144 2.224 0 3.776 1.712 3.776 4.144zm-6.416 0c0 1.92 1.04 3.136 2.64 3.136s2.64-1.216 2.64-3.136c0-1.904-1.04-3.104-2.64-3.104s-2.64 1.2-2.64 3.104zm10.765.384h-.8v-.928h.8c1.04 0 1.936-.56 1.936-1.408 0-.672-.704-1.152-1.712-1.152s-1.744.48-2.016 1.28l-1.104-.192c.4-1.28 1.568-2.128 3.12-2.128 1.664 0 2.832.912 2.832 2.192 0 .96-.512 1.488-1.216 1.824.832.368 1.44.912 1.44 2 0 1.2-1.136 2.304-2.976 2.304-1.76 0-3.04-.976-3.472-2.464l1.104-.192c.304 1.024 1.152 1.616 2.368 1.616 1.088 0 1.856-.576 1.856-1.264 0-.88-.848-1.488-2.16-1.488zm4.966-4.368h1.136v3.52h4.32V192h1.136v8h-1.136v-3.536h-4.32V200h-1.136v-8zm14.74 8h-.976c-.112-.4-.192-.8-.24-1.2-.544.784-1.344 1.344-2.496 1.344-1.664 0-2.832-1.008-2.832-2.448s1.184-2.192 3.248-2.432l2.08-.24v-.48c0-.992-.736-1.664-1.792-1.664-1.008 0-1.744.4-2.016 1.2l-1.104-.192c.4-1.28 1.568-2.048 3.12-2.048 1.776 0 2.928 1.168 2.928 2.944v2.976c0 1.072.016 1.664.08 2.24zm-3.616-.864c1.488 0 2.4-.976 2.4-2.352v-.864l-2.096.256c-1.296.16-2.096.64-2.096 1.52 0 .832.736 1.44 1.792 1.44zm5.454.864v-8h1.136v3.776l3.584-3.776h1.344l-2.976 3.168 3.424 4.832h-1.328l-2.848-4.032-1.2 1.28V200h-1.136zm15.107-4.016c0 2.432-1.552 4.144-3.776 4.144-2.224 0-3.776-1.712-3.776-4.144 0-2.432 1.552-4.144 3.776-4.144 2.224 0 3.776 1.712 3.776 4.144zm-6.416 0c0 1.92 1.04 3.136 2.64 3.136s2.64-1.216 2.64-3.136c0-1.904-1.04-3.104-2.64-3.104s-2.64 1.2-2.64 3.104zM642.445 200h-.88l-2.656-6.16V200h-1.136v-8h1.391l2.849 6.592 2.832-6.592h1.392v8h-1.136v-6.16l-2.656 6.16zm5.718-8h1.136v3.056h2.464c1.68 0 2.528 1.232 2.528 2.464 0 1.248-.848 2.48-2.528 2.48h-3.6v-8zm1.136 4v3.056h2.32c1.008 0 1.52-.768 1.52-1.536s-.496-1.52-1.52-1.52h-2.32zm6.169-.016c0-2.432 1.552-4.144 3.776-4.144 1.728 0 3.024 1.04 3.472 2.624l-1.104.192c-.32-1.12-1.184-1.776-2.368-1.776-1.6 0-2.64 1.2-2.64 3.104 0 1.904 1.04 3.104 2.64 3.104 1.184 0 2.032-.624 2.368-1.712l1.104.192c-.448 1.552-1.744 2.56-3.472 2.56-2.224 0-3.776-1.712-3.776-4.144zm14.71 4.016h-1.136v-3.056h-2.224L664.962 200h-1.312l1.968-3.216c-1.04-.368-1.568-1.328-1.568-2.304 0-1.248.848-2.48 2.528-2.48h3.6v8zm-1.136-4v-3.056h-2.32c-1.008 0-1.52.768-1.52 1.536s.496 1.52 1.52 1.52h2.32zm6.661-.016c0-2.432 1.552-4.144 3.776-4.144 1.728 0 3.024 1.04 3.472 2.624l-1.104.192c-.32-1.12-1.184-1.776-2.368-1.776-1.6 0-2.64 1.2-2.64 3.104 0 1.904 1.04 3.104 2.64 3.104 1.184 0 2.032-.624 2.368-1.712l1.104.192c-.448 1.552-1.744 2.56-3.472 2.56-2.224 0-3.776-1.712-3.776-4.144zM688.444 200v-8h1.136v3.776l3.584-3.776h1.344l-2.976 3.168 3.424 4.832h-1.328l-2.848-4.032-1.2 1.28V200h-1.136zm15.107-4.016c0 2.432-1.552 4.144-3.776 4.144-2.224 0-3.776-1.712-3.776-4.144 0-2.432 1.552-4.144 3.776-4.144 2.224 0 3.776 1.712 3.776 4.144zm-6.416 0c0 1.92 1.04 3.136 2.64 3.136s2.64-1.216 2.64-3.136c0-1.904-1.04-3.104-2.64-3.104s-2.64 1.2-2.64 3.104zM709.82 200h-.88l-2.656-6.16V200h-1.136v-8h1.391l2.849 6.592L712.22 192h1.392v8h-1.136v-6.16L709.82 200zm11.942 0h-.976c-.112-.4-.192-.8-.24-1.2-.544.784-1.344 1.344-2.496 1.344-1.664 0-2.832-1.008-2.832-2.448s1.184-2.192 3.248-2.432l2.08-.24v-.48c0-.992-.736-1.664-1.792-1.664-1.008 0-1.744.4-2.016 1.2l-1.104-.192c.4-1.28 1.568-2.048 3.12-2.048 1.776 0 2.928 1.168 2.928 2.944v2.976c0 1.072.016 1.664.08 2.24zm-3.616-.864c1.488 0 2.4-.976 2.4-2.352v-.864l-2.096.256c-1.296.16-2.096.64-2.096 1.52 0 .832.736 1.44 1.792 1.44zm5.455-7.136h1.136v3.52h4.32V192h1.136v8h-1.136v-3.536h-4.32V200h-1.136v-8zm10.339 0h4.976v7.056h.976v2.704h-1.136V200h-5.984v1.76h-1.136v-2.704h.432c.8 0 1.136-.544 1.232-1.376l.64-5.68zm.416 5.792c-.064.496-.192.912-.4 1.264h3.824v-6.112h-2.864l-.56 4.848zm14.211-1.808c0 2.432-1.552 4.144-3.776 4.144-2.224 0-3.776-1.712-3.776-4.144 0-2.432 1.552-4.144 3.776-4.144 2.224 0 3.776 1.712 3.776 4.144zm-6.416 0c0 1.92 1.04 3.136 2.64 3.136s2.64-1.216 2.64-3.136c0-1.904-1.04-3.104-2.64-3.104s-2.64 1.2-2.64 3.104zm8.012-3.984h1.136v6.352l4.32-6.352h1.136v8h-1.136v-6.352l-4.32 6.352h-1.136v-8zm3.296-.64c-1.12 0-2-.848-2-1.92h.816c0 .576.528 1.056 1.184 1.056.64 0 1.168-.48 1.168-1.056h.816c0 1.072-.88 1.92-1.984 1.92zM576.96 216h1.136v6.352l4.32-6.352h1.136v8h-1.136v-6.352l-4.32 6.352h-1.136v-8zm14.916 8.576l.224-.576-3.104-8h1.152l2.48 6.576L595.14 216h1.136l-3.344 8.64c-.48 1.264-1.008 2.704-2.816 2.704-.32 0-.672-.032-1.056-.112v-1.008c.384.096.704.128.96.128 1.168 0 1.552-.928 1.856-1.776zm8.586-4.208h-.8v-.928h.8c1.04 0 1.936-.56 1.936-1.408 0-.672-.704-1.152-1.712-1.152s-1.744.48-2.016 1.28l-1.104-.192c.4-1.28 1.568-2.128 3.12-2.128 1.664 0 2.832.912 2.832 2.192 0 .96-.512 1.488-1.216 1.824.832.368 1.44.912 1.44 2 0 1.2-1.136 2.304-2.976 2.304-1.76 0-3.04-.976-3.472-2.464l1.104-.192c.304 1.024 1.152 1.616 2.368 1.616 1.088 0 1.856-.576 1.856-1.264 0-.88-.848-1.488-2.16-1.488zm4.967-4.368h1.136v3.52h4.32V216h1.136v8h-1.136v-3.536h-4.32V224h-1.136v-8zm14.739 8h-.976c-.112-.4-.192-.8-.24-1.2-.544.784-1.344 1.344-2.496 1.344-1.664 0-2.832-1.008-2.832-2.448s1.184-2.192 3.248-2.432l2.08-.24v-.48c0-.992-.736-1.664-1.792-1.664-1.008 0-1.744.4-2.016 1.2l-1.104-.192c.4-1.28 1.568-2.048 3.12-2.048 1.776 0 2.928 1.168 2.928 2.944v2.976c0 1.072.016 1.664.08 2.24zm-3.616-.864c1.488 0 2.4-.976 2.4-2.352v-.864l-2.096.256c-1.296.16-2.096.64-2.096 1.52 0 .832.736 1.44 1.792 1.44zm5.455-7.136h1.136v6.352l4.32-6.352h1.136v8h-1.136v-6.352l-4.32 6.352h-1.136v-8zm3.296-.64c-1.12 0-2-.848-2-1.92h.816c0 .576.528 1.056 1.184 1.056.64 0 1.168-.48 1.168-1.056h.816c0 1.072-.88 1.92-1.984 1.92zm9.22.64h6.592v8h-1.136v-7.056h-4.32V224h-1.136v-8zm15.669 3.984c0 2.432-1.552 4.144-3.776 4.144-2.224 0-3.776-1.712-3.776-4.144 0-2.432 1.552-4.144 3.776-4.144 2.224 0 3.776 1.712 3.776 4.144zm-6.416 0c0 1.92 1.04 3.136 2.64 3.136s2.64-1.216 2.64-3.136c0-1.904-1.04-3.104-2.64-3.104s-2.64 1.2-2.64 3.104zm9.836-3.984h4.976v7.056h.976v2.704h-1.136V224h-5.984v1.76h-1.136v-2.704h.432c.8 0 1.136-.544 1.232-1.376l.64-5.68zm.416 5.792c-.064.496-.192.912-.4 1.264h3.824v-6.112h-2.864l-.56 4.848zm8.115 1.104v4.304h-1.136v-8.96c0-1.072-.016-1.664-.08-2.24h.976c.096.352.192.848.24 1.2.624-.784 1.552-1.36 2.64-1.36 2.064 0 3.504 1.728 3.504 4.176 0 2.432-1.44 4.144-3.504 4.144-1.056 0-2-.448-2.64-1.264zm0-3.12v.528c0 1.472.864 2.816 2.416 2.816 1.616 0 2.592-1.2 2.592-3.104 0-1.936-.976-3.168-2.592-3.168-1.488 0-2.416 1.376-2.416 2.928zm14.971.208c0 2.432-1.552 4.144-3.776 4.144-2.224 0-3.776-1.712-3.776-4.144 0-2.432 1.552-4.144 3.776-4.144 2.224 0 3.776 1.712 3.776 4.144zm-6.416 0c0 1.92 1.04 3.136 2.64 3.136s2.64-1.216 2.64-3.136c0-1.904-1.04-3.104-2.64-3.104s-2.64 1.2-2.64 3.104zm8.828-.368v.288c0 1.936.896 3.168 2.512 3.168s2.496-1.232 2.496-3.168c0-1.904-.976-3.104-2.592-3.104-1.552 0-2.416 1.344-2.416 2.816zm-1.136.112v-2.272c0-2.832 1.568-4.496 4.224-4.736.736-.064 1.456-.128 2.192-.512v.976c-.736.384-1.456.448-2.192.512-2.048.176-3.088 1.504-3.088 3.184v.144c.64-.816 1.584-1.264 2.64-1.264 2.064 0 3.504 1.712 3.504 4.144 0 2.448-1.376 4.176-3.632 4.176-2.256 0-3.648-1.68-3.648-4.352zm8.883-3.728h1.136v3.52h4.32V216h1.136v8h-1.136v-3.536h-4.32V224h-1.136v-8zm15.747 3.984c0 2.432-1.552 4.144-3.776 4.144-2.224 0-3.776-1.712-3.776-4.144 0-2.432 1.552-4.144 3.776-4.144 2.224 0 3.776 1.712 3.776 4.144zm-6.416 0c0 1.92 1.04 3.136 2.64 3.136s2.64-1.216 2.64-3.136c0-1.904-1.04-3.104-2.64-3.104s-2.64 1.2-2.64 3.104zm7.692 0c0-2.432 1.552-4.144 3.776-4.144 1.728 0 3.024 1.04 3.472 2.624l-1.104.192c-.32-1.12-1.184-1.776-2.368-1.776-1.6 0-2.64 1.2-2.64 3.104 0 1.904 1.04 3.104 2.64 3.104 1.184 0 2.032-.624 2.368-1.712l1.104.192c-.448 1.552-1.744 2.56-3.472 2.56-2.224 0-3.776-1.712-3.776-4.144zm8.486-3.04V216h6.592v.944h-2.736V224h-1.136v-7.056h-2.72zm8.256-.944h1.136v6.352l4.32-6.352h1.136v8h-1.136v-6.352l-4.32 6.352h-1.136v-8zM576.96 240h3.712c1.344 0 2.288.928 2.288 2.24 0 .624-.368 1.296-.88 1.632.768.32 1.312 1.104 1.312 1.888 0 1.312-1.04 2.24-2.528 2.24h-3.904v-8zm1.136 4.48v2.576h2.624c.896 0 1.52-.528 1.52-1.296 0-.752-.624-1.28-1.52-1.28h-2.624zm0-3.536v2.576h2.432c.752 0 1.28-.528 1.28-1.28 0-.768-.528-1.296-1.28-1.296h-2.432zM591.137 248h-.976c-.112-.4-.192-.8-.24-1.2-.544.784-1.344 1.344-2.496 1.344-1.664 0-2.832-1.008-2.832-2.448s1.184-2.192 3.248-2.432l2.08-.24v-.48c0-.992-.736-1.664-1.792-1.664-1.008 0-1.744.4-2.016 1.2l-1.104-.192c.4-1.28 1.568-2.048 3.12-2.048 1.776 0 2.928 1.168 2.928 2.944v2.976c0 1.072.016 1.664.08 2.24zm-3.616-.864c1.488 0 2.4-.976 2.4-2.352v-.864l-2.096.256c-1.296.16-2.096.64-2.096 1.52 0 .832.736 1.44 1.792 1.44zm5.455.864v-8h1.136v3.776l3.584-3.776h1.344l-2.976 3.168 3.424 4.832h-1.328l-2.848-4.032-1.2 1.28V248h-1.136zm14.099 0h-.976c-.112-.4-.192-.8-.24-1.2-.544.784-1.344 1.344-2.496 1.344-1.664 0-2.832-1.008-2.832-2.448s1.184-2.192 3.248-2.432l2.08-.24v-.48c0-.992-.736-1.664-1.792-1.664-1.008 0-1.744.4-2.016 1.2l-1.104-.192c.4-1.28 1.568-2.048 3.12-2.048 1.776 0 2.928 1.168 2.928 2.944v2.976c0 1.072.016 1.664.08 2.24zm-3.616-.864c1.488 0 2.4-.976 2.4-2.352v-.864l-2.096.256c-1.296.16-2.096.64-2.096 1.52 0 .832.736 1.44 1.792 1.44zm5.454-7.136h1.136v3.52h4.32V240h1.136v8h-1.136v-3.536h-4.32V248h-1.136v-8zm8.196 3.984c0-2.432 1.552-4.144 3.776-4.144 1.728 0 3.024 1.04 3.472 2.624l-1.104.192c-.32-1.12-1.184-1.776-2.368-1.776-1.6 0-2.64 1.2-2.64 3.104 0 1.904 1.04 3.104 2.64 3.104 1.184 0 2.032-.624 2.368-1.712l1.104.192c-.448 1.552-1.744 2.56-3.472 2.56-2.224 0-3.776-1.712-3.776-4.144zm8.742-3.984h1.136v6.352l4.32-6.352h1.136v8h-1.136v-6.352l-4.32 6.352h-1.136v-8zm8.515 0h1.136v6.352l4.32-6.352h1.136v8h-1.136v-6.352l-4.32 6.352h-1.136v-8z"/><path fill="#000" fill-opacity=".05" d="M576 290c0-8.837 7.163-16 16-16h34c8.837 0 16 7.163 16 16s-7.163 16-16 16h-34c-8.837 0-16-7.163-16-16z"/><path fill="#000" fill-opacity=".9" d="M597.833 283.2v9.8h-1.036v-8.708l-2.506 1.778v-1.092l2.506-1.778h1.036zm12.553 2.8v7h-.994v-3.024a2.81 2.81 0 01-2.016.896c-1.442 0-2.338-.994-2.338-2.562V286h.994v2.31c0 1.022.546 1.666 1.428 1.666 1.134 0 1.932-.728 1.932-1.778V286h.994zm7.033 7h-.854a6.97 6.97 0 01-.21-1.05c-.476.686-1.176 1.176-2.184 1.176-1.456 0-2.478-.882-2.478-2.142 0-1.26 1.036-1.918 2.842-2.128l1.82-.21v-.42c0-.868-.644-1.456-1.568-1.456-.882 0-1.526.35-1.764 1.05l-.966-.168c.35-1.12 1.372-1.792 2.73-1.792 1.554 0 2.562 1.022 2.562 2.576v2.604c0 .938.014 1.456.07 1.96zm-3.164-.756c1.302 0 2.1-.854 2.1-2.058v-.756l-1.834.224c-1.134.14-1.834.56-1.834 1.33 0 .728.644 1.26 1.568 1.26zm4.493-2.758c0-2.128 1.358-3.626 3.304-3.626 1.512 0 2.646.91 3.038 2.296l-.966.168c-.28-.98-1.036-1.554-2.072-1.554-1.4 0-2.31 1.05-2.31 2.716 0 1.666.91 2.716 2.31 2.716 1.036 0 1.778-.546 2.072-1.498l.966.168c-.392 1.358-1.526 2.24-3.038 2.24-1.946 0-3.304-1.498-3.304-3.626z"/><path fill="#000" fill-opacity=".05" d="M650 290c0-8.837 7.163-16 16-16h49c8.837 0 16 7.163 16 16s-7.163 16-16 16h-49c-8.837 0-16-7.163-16-16z"/><path fill="#000" fill-opacity=".9" d="M671.842 293.112c-2.674 0-4.564-2.072-4.564-5.012 0-2.94 1.89-5.012 4.564-5.012 2.674 0 4.564 2.072 4.564 5.012 0 2.94-1.89 5.012-4.564 5.012zm0-.966c2.058 0 3.5-1.61 3.5-4.032 0-2.422-1.442-4.06-3.5-4.06s-3.5 1.638-3.5 4.06c0 2.422 1.442 4.032 3.5 4.032zm6.25-6.146h.994v3.08h3.78V286h.994v7h-.994v-3.094h-3.78V293h-.994v-7zm9.313 0h4.354v7h-.994v-6.174h-2.506l-.49 4.242c-.14 1.162-.756 1.932-1.89 1.932h-.686v-.826h.574c.7 0 .994-.476 1.078-1.204l.56-4.97zm11.486 7h-.854a6.97 6.97 0 01-.21-1.05c-.476.686-1.176 1.176-2.184 1.176-1.456 0-2.478-.882-2.478-2.142 0-1.26 1.036-1.918 2.842-2.128l1.82-.21v-.42c0-.868-.644-1.456-1.568-1.456-.882 0-1.526.35-1.764 1.05l-.966-.168c.35-1.12 1.372-1.792 2.73-1.792 1.554 0 2.562 1.022 2.562 2.576v2.604c0 .938.014 1.456.07 1.96zm-3.164-.756c1.302 0 2.1-.854 2.1-2.058v-.756l-1.834.224c-1.134.14-1.834.56-1.834 1.33 0 .728.644 1.26 1.568 1.26zM700.5 286h.994v5.558l3.78-5.558h.994v7h-.994v-5.558l-3.78 5.558h-.994v-7zm2.884-.56c-.98 0-1.75-.742-1.75-1.68h.714c0 .504.462.924 1.036.924.56 0 1.022-.42 1.022-.924h.714c0 .938-.77 1.68-1.736 1.68zm4.567.56h.994v3.08h3.78V286h.994v7h-.994v-3.094h-3.78V293h-.994v-7z"/><rect width="232" height="236" x="808" y="94" fill="#fff" rx="40"/><g filter="url(#d)"><path fill="#000" fill-opacity=".9" d="M839.8 136.16c-3.9 0-6.66-2.96-6.66-7.18 0-4.2 2.76-7.16 6.66-7.16 3.92 0 6.68 2.96 6.68 7.16 0 4.22-2.76 7.18-6.68 7.18zm0-1.84c2.62 0 4.46-2.16 4.46-5.32s-1.84-5.34-4.46-5.34-4.46 2.18-4.46 5.34c0 3.16 1.84 5.32 4.46 5.32zm13.745 5.68v-3.9c-3.06-.34-5.26-2.16-5.26-5.2s2.2-4.86 5.26-5.2v-3.72h2.12v3.72c3.06.34 5.24 2.16 5.24 5.2s-2.18 4.86-5.24 5.2v3.9h-2.12zm-3.14-9.1c0 1.88 1.18 3.14 3.14 3.46v-6.88c-1.96.32-3.14 1.58-3.14 3.42zm8.4 0c0-1.84-1.18-3.1-3.14-3.42v6.88c1.96-.32 3.14-1.58 3.14-3.46zm3.544 0c0-3.08 2.04-5.26 4.94-5.26 2.9 0 4.92 2.18 4.92 5.26v.54h-7.72c.18 1.84 1.24 2.96 2.8 2.96 1.24 0 2.22-.68 2.62-1.84l1.98.44c-.56 1.88-2.28 3.16-4.6 3.16-2.9 0-4.94-2.18-4.94-5.26zm4.94-3.5c-1.44 0-2.44.94-2.74 2.5h5.46c-.26-1.56-1.3-2.5-2.72-2.5zm8.771 7.28V140h-2.1v-11.2c0-1.26-.06-2.28-.14-2.96h1.88c.08.36.18.98.24 1.48.68-.96 1.9-1.66 3.24-1.66 2.54 0 4.3 2.18 4.3 5.28 0 3.08-1.76 5.26-4.3 5.26-1.22 0-2.42-.58-3.12-1.52zm0-4.02v.64c0 1.76.94 3.14 2.56 3.14 1.7 0 2.74-1.36 2.74-3.5 0-2.18-1.04-3.56-2.74-3.56-1.58 0-2.56 1.42-2.56 3.28zm9.607-3.34v-5.34h2.3v5.34l-.4 4.96h-1.54l-.36-4.96zm2.38 8.68h-2.5v-2.14h2.5V136z"/></g><path fill="#1A1A1A" fill-opacity=".9" d="M836 172.888l.336-.736-3.856-8.352h1.28l3.168 7.04 3.184-7.04h1.248l-4.192 9.152c-.48 1.056-1.12 2.192-3.04 2.192-.384 0-.8-.032-1.248-.112v-1.008c.448.096.832.128 1.136.128 1.248 0 1.696-.64 1.984-1.264zm9.556-1.52h-.8v-.928h.8c1.04 0 1.936-.56 1.936-1.408 0-.672-.704-1.152-1.712-1.152s-1.744.48-2.016 1.28l-1.104-.192c.4-1.28 1.568-2.128 3.12-2.128 1.664 0 2.832.912 2.832 2.192 0 .96-.512 1.488-1.216 1.824.832.368 1.44.912 1.44 2 0 1.2-1.136 2.304-2.976 2.304-1.76 0-3.04-.976-3.472-2.464l1.104-.192c.304 1.024 1.152 1.616 2.368 1.616 1.088 0 1.856-.576 1.856-1.264 0-.88-.848-1.488-2.16-1.488zm4.967-4.368h1.136v3.52h4.32V167h1.136v8h-1.136v-3.536h-4.32V175h-1.136v-8zm14.739 8h-.976c-.112-.4-.192-.8-.24-1.2-.544.784-1.344 1.344-2.496 1.344-1.664 0-2.832-1.008-2.832-2.448s1.184-2.192 3.248-2.432l2.08-.24v-.48c0-.992-.736-1.664-1.792-1.664-1.008 0-1.744.4-2.016 1.2l-1.104-.192c.4-1.28 1.568-2.048 3.12-2.048 1.776 0 2.928 1.168 2.928 2.944v2.976c0 1.072.016 1.664.08 2.24zm-3.616-.864c1.488 0 2.4-.976 2.4-2.352v-.864l-2.096.256c-1.296.16-2.096.64-2.096 1.52 0 .832.736 1.44 1.792 1.44zm5.455-7.136h1.136v6.352l4.32-6.352h1.136v8h-1.136v-6.352l-4.32 6.352h-1.136v-8zm3.296-.64c-1.12 0-2-.848-2-1.92h.816c0 .576.528 1.056 1.184 1.056.64 0 1.168-.48 1.168-1.056h.816c0 1.072-.88 1.92-1.984 1.92zm11.619 9.216l.224-.576-3.104-8h1.152l2.48 6.576L885.28 167h1.136l-3.344 8.64c-.48 1.264-1.008 2.704-2.816 2.704-.32 0-.672-.032-1.056-.112v-1.008c.384.096.704.128.96.128 1.168 0 1.552-.928 1.856-1.776zm5.835-8.576h1.136v3.52h4.32V167h1.136v8h-1.136v-3.536h-4.32V175h-1.136v-8zm8.515 0h1.136v6.352l4.32-6.352h1.136v8h-1.136v-6.352l-4.32 6.352h-1.136v-8zm8.516 8v-8h1.136v3.776l3.584-3.776h1.344l-2.976 3.168 3.424 4.832h-1.328l-2.848-4.032-1.2 1.28V175h-1.136zm14.099 0h-.976c-.112-.4-.192-.8-.24-1.2-.544.784-1.344 1.344-2.496 1.344-1.664 0-2.832-1.008-2.832-2.448s1.184-2.192 3.248-2.432l2.08-.24v-.48c0-.992-.736-1.664-1.792-1.664-1.008 0-1.744.4-2.016 1.2l-1.104-.192c.4-1.28 1.568-2.048 3.12-2.048 1.776 0 2.928 1.168 2.928 2.944v2.976c0 1.072.016 1.664.08 2.24zm-3.616-.864c1.488 0 2.4-.976 2.4-2.352v-.864l-2.096.256c-1.296.16-2.096.64-2.096 1.52 0 .832.736 1.44 1.792 1.44zm7.582-7.136h4.976v8h-1.136v-7.056h-2.864l-.56 4.848c-.16 1.328-.864 2.208-2.16 2.208h-.784v-.944h.656c.8 0 1.136-.544 1.232-1.376l.64-5.68zm6.904 0h1.136v3.056h2.464c1.68 0 2.528 1.232 2.528 2.464 0 1.248-.848 2.48-2.528 2.48h-3.6v-8zm1.136 4v3.056h2.32c1.008 0 1.52-.768 1.52-1.536s-.496-1.52-1.52-1.52h-2.32zm6.489-4h1.136v3.52h4.32V167h1.136v8h-1.136v-3.536h-4.32V175h-1.136v-8zm15.747 3.984c0 2.432-1.552 4.144-3.776 4.144-2.224 0-3.776-1.712-3.776-4.144 0-2.432 1.552-4.144 3.776-4.144 2.224 0 3.776 1.712 3.776 4.144zm-6.416 0c0 1.92 1.04 3.136 2.64 3.136s2.64-1.216 2.64-3.136c0-1.904-1.04-3.104-2.64-3.104s-2.64 1.2-2.64 3.104zm7.692 0c0-2.432 1.552-4.144 3.776-4.144 2.224 0 3.776 1.712 3.776 4.144v.304h-6.4c.096 1.728 1.104 2.8 2.624 2.8 1.184 0 2.032-.624 2.368-1.712l1.104.192c-.448 1.552-1.744 2.56-3.472 2.56-2.224 0-3.776-1.712-3.776-4.144zm3.776-3.104c-1.424 0-2.4.944-2.592 2.48h5.2c-.192-1.552-1.184-2.48-2.608-2.48zM832.96 191h6.592v8h-1.136v-7.056h-4.32V199h-1.136v-8zm9.574 6.896v4.304h-1.136v-8.96c0-1.072-.016-1.664-.08-2.24h.976c.096.352.192.848.24 1.2.624-.784 1.552-1.36 2.64-1.36 2.064 0 3.504 1.728 3.504 4.176 0 2.432-1.44 4.144-3.504 4.144-1.056 0-2-.448-2.64-1.264zm0-3.12v.528c0 1.472.864 2.816 2.416 2.816 1.616 0 2.592-1.2 2.592-3.104 0-1.936-.976-3.168-2.592-3.168-1.488 0-2.416 1.376-2.416 2.928zm7.419.208c0-2.432 1.552-4.144 3.776-4.144 2.224 0 3.776 1.712 3.776 4.144v.304h-6.4c.096 1.728 1.104 2.8 2.624 2.8 1.184 0 2.032-.624 2.368-1.712l1.104.192c-.448 1.552-1.744 2.56-3.472 2.56-2.224 0-3.776-1.712-3.776-4.144zm3.776-3.104c-1.424 0-2.4.944-2.592 2.48h5.2c-.192-1.552-1.184-2.48-2.608-2.48zm7.086-.88h4.976v7.056h.976v2.704h-1.136V199h-5.984v1.76h-1.136v-2.704h.432c.8 0 1.136-.544 1.232-1.376l.64-5.68zm.416 5.792c-.064.496-.192.912-.4 1.264h3.824v-6.112h-2.864l-.56 4.848zm9.107-5.792h4.976v8h-1.136v-7.056h-2.864l-.56 4.848c-.16 1.328-.864 2.208-2.16 2.208h-.784v-.944h.656c.8 0 1.136-.544 1.232-1.376l.64-5.68zm14.135 3.984c0 2.432-1.552 4.144-3.776 4.144-2.224 0-3.776-1.712-3.776-4.144 0-2.432 1.552-4.144 3.776-4.144 2.224 0 3.776 1.712 3.776 4.144zm-6.416 0c0 1.92 1.04 3.136 2.64 3.136s2.64-1.216 2.64-3.136c0-1.904-1.04-3.104-2.64-3.104s-2.64 1.2-2.64 3.104zM890.533 199v-2.64l-1.232-1.44-2.48 4.08h-1.312l3.056-4.96-2.592-3.04h1.312l3.248 3.84V191h1.136v3.84l3.248-3.84h1.312l-2.592 3.04 3.056 4.96h-1.312l-2.48-4.08-1.232 1.44V199h-1.136zm7.201-4.016c0-2.432 1.552-4.144 3.776-4.144 2.224 0 3.776 1.712 3.776 4.144v.304h-6.4c.096 1.728 1.104 2.8 2.624 2.8 1.184 0 2.032-.624 2.368-1.712l1.104.192c-.448 1.552-1.744 2.56-3.472 2.56-2.224 0-3.776-1.712-3.776-4.144zm3.776-3.104c-1.424 0-2.4.944-2.592 2.48h5.2c-.192-1.552-1.184-2.48-2.608-2.48zm5.263-.88h1.136v3.52h4.32V191h1.136v8h-1.136v-3.536h-4.32V199h-1.136v-8zm8.515 0h1.136v6.352l4.32-6.352h1.136v8h-1.136v-6.352l-4.32 6.352h-1.136v-8zm8.196 3.984c0-2.432 1.552-4.144 3.776-4.144 2.224 0 3.776 1.712 3.776 4.144v.304h-6.4c.096 1.728 1.104 2.8 2.624 2.8 1.184 0 2.032-.624 2.368-1.712l1.104.192c-.448 1.552-1.744 2.56-3.472 2.56-2.224 0-3.776-1.712-3.776-4.144zm3.776-3.104c-1.424 0-2.4.944-2.592 2.48h5.2c-.192-1.552-1.184-2.48-2.608-2.48zm9.263-.88h1.136v6.352l4.32-6.352h1.136v8h-1.136v-6.352l-4.32 6.352h-1.136v-8zM832.96 215h6.592v8h-1.136v-7.056h-4.32V223h-1.136v-8zm9.574 6.896v4.304h-1.136v-8.96c0-1.072-.016-1.664-.08-2.24h.976c.096.352.192.848.24 1.2.624-.784 1.552-1.36 2.64-1.36 2.064 0 3.504 1.728 3.504 4.176 0 2.432-1.44 4.144-3.504 4.144-1.056 0-2-.448-2.64-1.264zm0-3.12v.528c0 1.472.864 2.816 2.416 2.816 1.616 0 2.592-1.2 2.592-3.104 0-1.936-.976-3.168-2.592-3.168-1.488 0-2.416 1.376-2.416 2.928zm7.739-3.776h1.136v6.352l4.32-6.352h1.136v8h-1.136v-6.352l-4.32 6.352h-1.136v-8zm8.195 3.984c0-2.432 1.552-4.144 3.776-4.144 1.728 0 3.024 1.04 3.472 2.624l-1.104.192c-.32-1.12-1.184-1.776-2.368-1.776-1.6 0-2.64 1.2-2.64 3.104 0 1.904 1.04 3.104 2.64 3.104 1.184 0 2.032-.624 2.368-1.712l1.104.192c-.448 1.552-1.744 2.56-3.472 2.56-2.224 0-3.776-1.712-3.776-4.144zm15.974 0c0 2.432-1.552 4.144-3.776 4.144-2.224 0-3.776-1.712-3.776-4.144 0-2.432 1.552-4.144 3.776-4.144 2.224 0 3.776 1.712 3.776 4.144zm-6.416 0c0 1.92 1.04 3.136 2.64 3.136s2.64-1.216 2.64-3.136c0-1.904-1.04-3.104-2.64-3.104s-2.64 1.2-2.64 3.104zm7.692 0c0-2.432 1.552-4.144 3.776-4.144 2.224 0 3.776 1.712 3.776 4.144v.304h-6.4c.096 1.728 1.104 2.8 2.624 2.8 1.184 0 2.032-.624 2.368-1.712l1.104.192c-.448 1.552-1.744 2.56-3.472 2.56-2.224 0-3.776-1.712-3.776-4.144zm3.776-3.104c-1.424 0-2.4.944-2.592 2.48h5.2c-.192-1.552-1.184-2.48-2.608-2.48zm7.087-.88h4.976v7.056h.976v2.704h-1.136V223h-5.984v1.76h-1.136v-2.704h.432c.8 0 1.136-.544 1.232-1.376l.64-5.68zm.416 5.792c-.064.496-.192.912-.4 1.264h3.824v-6.112h-2.864l-.56 4.848zm6.979-5.792h1.136v6.352l4.32-6.352h1.136v8h-1.136v-6.352l-4.32 6.352h-1.136v-8zm8.515 0h1.136v3.52h4.32V215h1.136v8h-1.136v-3.536h-4.32V223h-1.136v-8zm8.516 0h1.136v6.352l4.32-6.352h1.136v8h-1.136v-6.352l-4.32 6.352h-1.136v-8zm8.196 3.984c0-2.432 1.552-4.144 3.776-4.144 1.728 0 3.024 1.04 3.472 2.624l-1.104.192c-.32-1.12-1.184-1.776-2.368-1.776-1.6 0-2.64 1.2-2.64 3.104 0 1.904 1.04 3.104 2.64 3.104 1.184 0 2.032-.624 2.368-1.712l1.104.192c-.448 1.552-1.744 2.56-3.472 2.56-2.224 0-3.776-1.712-3.776-4.144zm8.741-3.984h1.136v3.056h2.464c1.68 0 2.528 1.232 2.528 2.464 0 1.248-.848 2.48-2.528 2.48h-3.6v-8zm1.136 4v3.056h2.32c1.008 0 1.52-.768 1.52-1.536s-.496-1.52-1.52-1.52h-2.32zm10.489 4v-8h1.136v3.776l3.584-3.776h1.344l-2.976 3.168 3.424 4.832h-1.328l-2.848-4.032-1.2 1.28V223h-1.136zm11.875 0v-8h1.136v3.776l3.584-3.776h1.344l-2.976 3.168 3.424 4.832h-1.328l-2.848-4.032-1.2 1.28V223h-1.136zm15.107-4.016c0 2.432-1.552 4.144-3.776 4.144-2.224 0-3.776-1.712-3.776-4.144 0-2.432 1.552-4.144 3.776-4.144 2.224 0 3.776 1.712 3.776 4.144zm-6.416 0c0 1.92 1.04 3.136 2.64 3.136s2.64-1.216 2.64-3.136c0-1.904-1.04-3.104-2.64-3.104s-2.64 1.2-2.64 3.104zM972.82 223h-.88l-2.656-6.16V223h-1.136v-8h1.391l2.849 6.592L975.22 215h1.392v8h-1.136v-6.16L972.82 223zm11.942 0h-.976c-.112-.4-.192-.8-.24-1.2-.544.784-1.344 1.344-2.496 1.344-1.664 0-2.832-1.008-2.832-2.448s1.184-2.192 3.248-2.432l2.08-.24v-.48c0-.992-.736-1.664-1.792-1.664-1.008 0-1.744.4-2.016 1.2l-1.104-.192c.4-1.28 1.568-2.048 3.12-2.048 1.776 0 2.928 1.168 2.928 2.944v2.976c0 1.072.016 1.664.08 2.24zm-3.616-.864c1.488 0 2.4-.976 2.4-2.352v-.864l-2.096.256c-1.296.16-2.096.64-2.096 1.52 0 .832.736 1.44 1.792 1.44zm5.455-7.136h1.136v3.52h4.32V215h1.136v8h-1.136v-3.536h-4.32V223h-1.136v-8zm10.339 0h4.98v7.056h.97v2.704h-1.13V223h-5.988v1.76h-1.136v-2.704h.432c.8 0 1.136-.544 1.232-1.376l.64-5.68zm.416 5.792c-.064.496-.192.912-.4 1.264h3.824v-6.112h-2.864l-.56 4.848zm6.664-1.808c0-2.432 1.55-4.144 3.77-4.144 2.23 0 3.78 1.712 3.78 4.144v.304h-6.4c.09 1.728 1.1 2.8 2.62 2.8 1.19 0 2.03-.624 2.37-1.712l1.1.192c-.44 1.552-1.74 2.56-3.47 2.56-2.22 0-3.77-1.712-3.77-4.144zm3.77-3.104c-1.42 0-2.4.944-2.59 2.48h5.2c-.19-1.552-1.18-2.48-2.61-2.48z"/><path fill="#000" fill-opacity=".05" d="M832 290c0-8.837 7.163-16 16-16h45c8.837 0 16 7.163 16 16s-7.163 16-16 16h-45c-8.837 0-16-7.163-16-16z"/><path fill="#000" fill-opacity=".9" d="M851.536 287.498h1.344c1.05 0 1.792-.7 1.792-1.708 0-1.022-.756-1.736-1.946-1.736-1.232 0-2.1.7-2.408 1.806l-.994-.35c.448-1.484 1.694-2.422 3.43-2.422 1.792 0 2.982 1.106 2.982 2.688 0 .98-.504 1.75-1.33 2.17.994.392 1.624 1.246 1.624 2.366 0 1.666-1.288 2.828-3.192 2.828-1.862 0-3.262-1.022-3.738-2.618l.994-.35c.336 1.218 1.358 2.002 2.716 2.002 1.232 0 2.156-.756 2.156-1.876 0-1.078-.798-1.834-1.932-1.834h-1.498v-.966zm9.417 5.614c-2.198 0-3.584-1.932-3.584-5.012 0-3.08 1.386-5.012 3.584-5.012 2.198 0 3.584 1.932 3.584 5.012 0 3.08-1.386 5.012-3.584 5.012zm0-.938c1.554 0 2.52-1.568 2.52-4.06 0-2.492-.966-4.088-2.52-4.088s-2.52 1.596-2.52 4.088.966 4.06 2.52 4.06zm12.622.826h-.77l-2.324-5.39V293h-.994v-7h1.218l2.492 5.768 2.478-5.768h1.218v7h-.994v-5.39l-2.324 5.39zm5.004-7h.994v5.558l3.78-5.558h.994v7h-.994v-5.558l-3.78 5.558h-.994v-7zm7.451 0h.994v3.08h3.78V286h.994v7h-.994v-3.094h-3.78V293h-.994v-7z"/><path fill="#000" fill-opacity=".05" d="M917 290c0-8.837 7.163-16 16-16h49c8.837 0 16 7.163 16 16s-7.163 16-16 16h-49c-8.837 0-16-7.163-16-16z"/><path fill="#000" fill-opacity=".9" d="M938.842 293.112c-2.674 0-4.564-2.072-4.564-5.012 0-2.94 1.89-5.012 4.564-5.012 2.674 0 4.564 2.072 4.564 5.012 0 2.94-1.89 5.012-4.564 5.012zm0-.966c2.058 0 3.5-1.61 3.5-4.032 0-2.422-1.442-4.06-3.5-4.06s-3.5 1.638-3.5 4.06c0 2.422 1.442 4.032 3.5 4.032zm6.25-6.146h.994v3.08h3.78V286h.994v7h-.994v-3.094h-3.78V293h-.994v-7zm9.313 0h4.354v7h-.994v-6.174h-2.506l-.49 4.242c-.14 1.162-.756 1.932-1.89 1.932h-.686v-.826h.574c.7 0 .994-.476 1.078-1.204l.56-4.97zm11.486 7h-.854a6.97 6.97 0 01-.21-1.05c-.476.686-1.176 1.176-2.184 1.176-1.456 0-2.478-.882-2.478-2.142 0-1.26 1.036-1.918 2.842-2.128l1.82-.21v-.42c0-.868-.644-1.456-1.568-1.456-.882 0-1.526.35-1.764 1.05l-.966-.168c.35-1.12 1.372-1.792 2.73-1.792 1.554 0 2.562 1.022 2.562 2.576v2.604c0 .938.014 1.456.07 1.96zm-3.164-.756c1.302 0 2.1-.854 2.1-2.058v-.756l-1.834.224c-1.134.14-1.834.56-1.834 1.33 0 .728.644 1.26 1.568 1.26zM967.5 286h.994v5.558l3.78-5.558h.994v7h-.994v-5.558l-3.78 5.558h-.994v-7zm2.884-.56c-.98 0-1.75-.742-1.75-1.68h.714c0 .504.462.924 1.036.924.56 0 1.022-.42 1.022-.924h.714c0 .938-.77 1.68-1.736 1.68zm4.567.56h.994v3.08h3.78V286h.994v7h-.994v-3.094h-3.78V293h-.994v-7z"/><path fill="#000" d="M532.398 46.583c.233-1.565.467-2.739.7-3.991.389-2.191.856-4.304 1.323-6.417.155-.705.467-1.33.778-1.879.311-.547.856-.86 1.478-.704.701.157 1.167.626 1.245 1.33.078.548.078 1.096.078 1.566-.545 5.791-1.478 11.504-3.19 17.06a7.48 7.48 0 01-.7 1.644c-.545.86-1.245 1.017-2.179.548-.545-.235-1.012-.47-1.634-.626-3.579-.861-7.159-1.644-10.738-2.505-.467-.078-.934-.313-1.323-.547-.622-.313-.933-.861-.933-1.566.077-.704.466-1.252 1.167-1.408.622-.157 1.4-.235 2.023-.157 2.334.313 4.746.783 7.081 1.174.389.078.778.078 1.4.157-.467-.705-.7-1.174-1.011-1.644-8.248-12.365-18.986-21.913-32.136-28.8-10.738-5.87-22.176-9.783-34.08-12.052-10.66-2.035-21.398-3.287-32.291-3.13-15.64.156-31.046 2.19-45.986 6.965-14.239 4.539-27.156 11.426-38.438 21.287-6.38 5.556-11.671 11.895-15.873 19.174-.234.47-.545.939-.934 1.33-.778.783-2.023.391-2.178-.704-.078-.626-.078-1.33.155-1.879.545-1.408 1.089-2.817 1.868-4.07 3.19-5.79 7.469-10.8 12.294-15.338 9.726-9.235 21.008-15.966 33.224-21.052 8.948-3.757 18.13-6.105 27.545-7.748A165.28 165.28 0 01432.801.018c7.548.078 15.018.86 22.487 1.957 9.26 1.408 18.286 3.521 27.156 6.73 10.66 3.913 20.775 9 29.801 16.044 7.392 5.79 13.772 12.6 19.141 20.426.234.313.545.704 1.012 1.408zM303.437 222.886c-5.748 1.098-11.259 2.174-16.77 3.229-1.098.215-1.873.366-3.294.409-1.055.043-3.294.086-3.1-1.055.258-.926.56-1.55 2.433-2.11 4.843-1.42 9.859-2.109 14.832-2.82 4.392-.624 7.75-1.033 11.668-1.356 1.83-.151 2.562.753 2.347 2.433-.194 1.507-.366 3.057-.84 4.499-1.679 5.21-3.487 10.355-5.253 15.543-.215.646-.344 1.162-.71 1.894-.452.883-.732 1.55-1.658 1.292-.882-.237-.839-1.528-.689-2.174 1.141-5.425 3.682-16.577 3.682-17.201-2.82 1.808-5.468 3.423-8.03 5.188-17.782 12.379-34.531 25.92-47.856 43.271-10.549 13.735-19.289 28.481-25.748 44.563-.387.947-.861 1.873-1.334 2.755-.625 1.206-1.163 1.722-1.809 1.443-1.141-.689-.925-1.615-.818-2.368.194-1.507.711-2.993 1.206-4.435 6.824-19.225 17.674-36.059 30.785-51.538 13.454-15.887 29.902-28.115 47.447-38.987.947-.538 3.164-2.088 3.509-2.475zM851.911 251.278c-9.238 5.38-18.476 10.738-27.671 16.206-.639.375-1.08 1.521-1.146 2.337-1.455 19.469-11.091 33.646-28.2 42.664-2.845 1.499-6.196 2.117-9.922 1.808-4.917-.397-8.026-4.299-7.519-9.216.441-4.3 2.602-7.783 5.159-11.069 5.689-7.254 12.855-12.942 20.197-18.366 4.652-3.44 9.503-6.593 14.398-9.988-1.213-2.381-4.167-4.079-6.725-3.859-4.851.397-7.166 1.5-10.826 2.955-11.487 4.564-21.409 11.708-30.207 20.24-6.548 6.35-12.633 13.163-18.917 19.778-.551.573-1.059 1.213-1.61 1.72-.86.794-1.72 1.102-2.535.551-.882-.397-.552-1.83-.309-2.58.397-1.234 1.058-2.425 1.852-3.439 12.369-16.118 26.613-30.141 45.089-39.203 4.057-1.984 8.467-3.373 12.855-4.475 6.306-1.566 11.884-.265 15.632 5.798 8.974-4.806 17.816-9.547 26.811-14.375h-9.591c-.529 0-1.058.066-1.587.022-1.433-.111-3.33.176-3.462-1.897-.132-2.028 1.786-2.05 3.043-2.072 6.372-.154 12.766-.243 19.138-.088 2.602.066 3.858 1.786 2.8 4.123-2.998 6.791-6.328 13.471-9.679 20.108-.309.617-1.433 1.566-2.69.948-.926-.573-.904-2.072-.617-2.8 1.741-4.388 3.682-8.709 5.578-13.053.331-.771.705-1.543 1.058-2.315.794-1.19.331-.882-.397-.463zm-32.874 19.932c.066-.794-1.125.243-1.323.375-10.385 6.923-20.527 14.155-28.928 23.482-2.249 2.491-4.145 5.468-5.534 8.532-1.83 4.079.485 6.924 4.917 6.108 2.866-.529 5.843-1.477 8.334-2.977 10.605-6.328 19.05-18.653 21.211-27.406.794-3.351.794-4.277 1.323-8.114z"/><rect width="61" height="61" x="1.5" y="58.5" stroke="#fff" stroke-width="3" rx="30.5"/><path fill="#fff" d="M35.76 76.536V99h-4.576V81.176l-5.344 4.256v-4.608l5.344-4.288h4.576z"/><rect width="61" height="61" x="263.5" y="58.5" stroke="#fff" stroke-width="3" rx="30.5"/><path fill="#fff" d="M286.432 99v-3.04l7.936-7.808c1.728-1.728 3.168-3.2 3.168-5.408 0-1.856-1.056-2.784-2.912-2.784-2.4 0-3.904 1.504-4.576 4l-4-1.44c.736-3.552 4.16-6.24 8.64-6.24 4.352 0 7.52 2.752 7.52 6.528 0 3.552-2.688 5.856-4.608 7.808l-4.896 4.8h9.824V99h-16.096z"/><rect width="61" height="61" x="521.5" y="58.5" stroke="#fff" stroke-width="3" rx="30.5"/><path fill="#fff" d="M549.456 85.688h2.56c2.304 0 3.328-1.088 3.328-2.848 0-1.76-1.12-2.88-2.944-2.88-1.92 0-3.52 1.344-4.192 3.488l-4.192-1.184c.768-3.52 4-5.984 8.352-5.984 4.576 0 7.616 2.752 7.616 6.432 0 2.208-1.12 3.968-3.104 4.64 2.528.864 3.744 2.944 3.744 5.248 0 3.776-3.232 6.688-8.032 6.688-4.832 0-8.416-2.912-9.248-6.816l3.904-1.376c.928 3.072 2.656 4.544 5.184 4.544 2.304 0 3.552-1.248 3.552-3.232 0-1.888-1.12-3.072-3.936-3.072h-2.592v-3.648z"/><rect width="61" height="61" x="777.5" y="58.5" stroke="#fff" stroke-width="3" rx="30.5"/><path fill="#fff" d="M809.52 82.936l-5.504 7.52h5.504v-7.52zm0 11.104h-10.368v-2.944l10.624-14.56h4.352v13.92h2.784v3.584h-2.784V99h-4.608v-4.96z"/><defs><filter id="a" width="232" height="73" x="40" y="98" color-interpolation-filters="sRGB" filterUnits="userSpaceOnUse"><feFlood flood-opacity="0" result="BackgroundImageFix"/><feColorMatrix in="SourceAlpha" result="hardAlpha" values="0 0 0 0 0 0 0 0 0 0 0 0 0 0 0 0 0 0 127 0"/><feOffset dy="4"/><feGaussianBlur stdDeviation="12"/><feColorMatrix values="0 0 0 0 0 0 0 0 0 0 0 0 0 0 0 0 0 0 0.08 0"/><feBlend in2="BackgroundImageFix" result="effect1_dropShadow_3003_12374"/><feColorMatrix in="SourceAlpha" result="hardAlpha" values="0 0 0 0 0 0 0 0 0 0 0 0 0 0 0 0 0 0 127 0"/><feOffset dy="2"/><feGaussianBlur stdDeviation="4"/><feColorMatrix values="0 0 0 0 0 0 0 0 0 0 0 0 0 0 0 0 0 0 0.06 0"/><feBlend in2="effect1_dropShadow_3003_12374" result="effect2_dropShadow_3003_12374"/><feBlend in="SourceGraphic" in2="effect2_dropShadow_3003_12374" result="shape"/></filter><filter id="b" width="232" height="73" x="296" y="98" color-interpolation-filters="sRGB" filterUnits="userSpaceOnUse"><feFlood flood-opacity="0" result="BackgroundImageFix"/><feColorMatrix in="SourceAlpha" result="hardAlpha" values="0 0 0 0 0 0 0 0 0 0 0 0 0 0 0 0 0 0 127 0"/><feOffset dy="4"/><feGaussianBlur stdDeviation="12"/><feColorMatrix values="0 0 0 0 0 0 0 0 0 0 0 0 0 0 0 0 0 0 0.08 0"/><feBlend in2="BackgroundImageFix" result="effect1_dropShadow_3003_12374"/><feColorMatrix in="SourceAlpha" result="hardAlpha" values="0 0 0 0 0 0 0 0 0 0 0 0 0 0 0 0 0 0 127 0"/><feOffset dy="2"/><feGaussianBlur stdDeviation="4"/><feColorMatrix values="0 0 0 0 0 0 0 0 0 0 0 0 0 0 0 0 0 0 0.06 0"/><feBlend in2="effect1_dropShadow_3003_12374" result="effect2_dropShadow_3003_12374"/><feBlend in="SourceGraphic" in2="effect2_dropShadow_3003_12374" result="shape"/></filter><filter id="c" width="232" height="98" x="552" y="98" color-interpolation-filters="sRGB" filterUnits="userSpaceOnUse"><feFlood flood-opacity="0" result="BackgroundImageFix"/><feColorMatrix in="SourceAlpha" result="hardAlpha" values="0 0 0 0 0 0 0 0 0 0 0 0 0 0 0 0 0 0 127 0"/><feOffset dy="4"/><feGaussianBlur stdDeviation="12"/><feColorMatrix values="0 0 0 0 0 0 0 0 0 0 0 0 0 0 0 0 0 0 0.08 0"/><feBlend in2="BackgroundImageFix" result="effect1_dropShadow_3003_12374"/><feColorMatrix in="SourceAlpha" result="hardAlpha" values="0 0 0 0 0 0 0 0 0 0 0 0 0 0 0 0 0 0 127 0"/><feOffset dy="2"/><feGaussianBlur stdDeviation="4"/><feColorMatrix values="0 0 0 0 0 0 0 0 0 0 0 0 0 0 0 0 0 0 0.06 0"/><feBlend in2="effect1_dropShadow_3003_12374" result="effect2_dropShadow_3003_12374"/><feBlend in="SourceGraphic" in2="effect2_dropShadow_3003_12374" result="shape"/></filter><filter id="d" width="232" height="73" x="808" y="98" color-interpolation-filters="sRGB" filterUnits="userSpaceOnUse"><feFlood flood-opacity="0" result="BackgroundImageFix"/><feColorMatrix in="SourceAlpha" result="hardAlpha" values="0 0 0 0 0 0 0 0 0 0 0 0 0 0 0 0 0 0 127 0"/><feOffset dy="4"/><feGaussianBlur stdDeviation="12"/><feColorMatrix values="0 0 0 0 0 0 0 0 0 0 0 0 0 0 0 0 0 0 0.08 0"/><feBlend in2="BackgroundImageFix" result="effect1_dropShadow_3003_12374"/><feColorMatrix in="SourceAlpha" result="hardAlpha" values="0 0 0 0 0 0 0 0 0 0 0 0 0 0 0 0 0 0 127 0"/><feOffset dy="2"/><feGaussianBlur stdDeviation="4"/><feColorMatrix values="0 0 0 0 0 0 0 0 0 0 0 0 0 0 0 0 0 0 0.06 0"/><feBlend in2="effect1_dropShadow_3003_12374" result="effect2_dropShadow_3003_12374"/><feBlend in="SourceGraphic" in2="effect2_dropShadow_3003_12374" result="shape"/></filter></defs></svg>