<svg width="1235" height="96" viewBox="0 0 1235 96" fill="none" xmlns="http://www.w3.org/2000/svg">
<path d="M73.9587 11C73.9587 6.78 76.7187 3.82 80.6187 3.82C83.5187 3.82 85.8787 5.52 86.6787 8.08L84.6587 8.76C84.1987 6.88 82.6187 5.66 80.6187 5.66C77.9987 5.66 76.1587 7.86 76.1587 11C76.1587 14.14 77.9987 16.36 80.6187 16.36C82.7187 16.36 84.2787 15.02 84.6587 12.96L86.6787 13.66C86.0387 16.38 83.6787 18.2 80.6187 18.2C76.7187 18.2 73.9587 15.22 73.9587 11ZM98.0477 12.9C98.0477 15.98 96.0077 18.16 93.1277 18.16C90.2277 18.16 88.1877 15.98 88.1877 12.9C88.1877 9.8 90.2277 7.64 93.1277 7.64C96.0077 7.64 98.0477 9.8 98.0477 12.9ZM90.3077 12.9C90.3077 15.06 91.4077 16.44 93.1277 16.44C94.8477 16.44 95.9477 15.06 95.9477 12.9C95.9477 10.76 94.8477 9.4 93.1277 9.4C91.4077 9.4 90.3077 10.76 90.3077 12.9ZM103.695 13.58H102.655V12.02H103.695C104.755 12.02 105.595 11.46 105.595 10.6C105.595 9.9 104.895 9.4 103.895 9.4C102.855 9.4 102.055 9.96 101.775 10.84L99.7553 10.48C100.135 8.84 101.735 7.64 103.895 7.64C106.115 7.64 107.675 8.82 107.675 10.46C107.675 11.5 107.095 12.28 106.275 12.72C107.275 13.2 107.995 14.04 107.995 15.16C107.995 16.84 106.415 18.2 104.035 18.2C101.635 18.2 99.8753 16.82 99.4553 14.94L101.495 14.58C101.795 15.74 102.735 16.44 104.035 16.44C105.135 16.44 105.895 15.86 105.895 15.08C105.895 14.18 105.035 13.58 103.695 13.58ZM112.095 7.84H119.115V16.36H120.335V20.2H118.215V18H111.475V20.2H109.355V16.36H109.935C110.875 16.36 111.255 15.86 111.375 14.84L112.095 7.84ZM113.415 14.76C113.335 15.38 113.155 15.92 112.835 16.36H116.995V9.48H113.955L113.415 14.76ZM130.325 18H128.445C128.365 17.68 128.225 17 128.185 16.68C127.465 17.58 126.405 18.18 125.165 18.18C123.045 18.18 121.645 16.92 121.645 15.04C121.645 13.28 123.245 12.16 125.905 11.86L128.085 11.6V11.16C128.085 10.12 127.325 9.4 126.265 9.4C125.245 9.4 124.445 9.9 124.205 10.76L122.165 10.42C122.585 8.74 124.165 7.64 126.285 7.64C128.605 7.64 130.205 9.14 130.205 11.44V15.04C130.205 16.52 130.225 17.22 130.325 18ZM125.565 16.46C127.125 16.46 128.085 15.42 128.085 13.86V13.06L125.965 13.3C124.605 13.46 123.765 14.04 123.765 14.96C123.765 15.84 124.485 16.46 125.565 16.46ZM132.374 7.84H134.494V12.08H138.994V7.84H141.114V18H138.994V13.72H134.494V18H132.374V7.84ZM143.195 7.84H145.315V14.82L149.935 7.84H151.935V18H149.815V11.02L145.195 18H143.195V7.84ZM153.715 12.9C153.715 9.82 155.755 7.64 158.655 7.64C161.555 7.64 163.575 9.82 163.575 12.9V13.44H155.855C156.035 15.28 157.095 16.4 158.655 16.4C159.895 16.4 160.875 15.72 161.275 14.56L163.255 15C162.695 16.88 160.975 18.16 158.655 18.16C155.755 18.16 153.715 15.98 153.715 12.9ZM158.655 9.4C157.215 9.4 156.215 10.34 155.915 11.9H161.375C161.115 10.34 160.075 9.4 158.655 9.4ZM79.6791 32.84H84.7591C86.5391 32.84 87.7991 34.06 87.7991 35.78C87.7991 36.48 87.4191 37.28 86.8591 37.74C87.7191 38.2 88.3191 39.16 88.3191 40.06C88.3191 41.78 86.9391 43 84.9791 43H79.6791V32.84ZM81.7991 38.7V41.36H84.6991C85.5791 41.36 86.1791 40.82 86.1791 40.02C86.1791 39.24 85.5791 38.7 84.6991 38.7H81.7991ZM81.7991 34.48V37.14H84.2991C85.0991 37.14 85.6391 36.6 85.6391 35.82C85.6391 35.02 85.0991 34.48 84.2991 34.48H81.7991ZM98.4302 43H96.5502C96.4702 42.68 96.3302 42 96.2902 41.68C95.5702 42.58 94.5102 43.18 93.2702 43.18C91.1502 43.18 89.7502 41.92 89.7502 40.04C89.7502 38.28 91.3502 37.16 94.0102 36.86L96.1902 36.6V36.16C96.1902 35.12 95.4302 34.4 94.3702 34.4C93.3502 34.4 92.5502 34.9 92.3102 35.76L90.2702 35.42C90.6902 33.74 92.2702 32.64 94.3902 32.64C96.7102 32.64 98.3102 34.14 98.3102 36.44V40.04C98.3102 41.52 98.3302 42.22 98.4302 43ZM93.6702 41.46C95.2302 41.46 96.1902 40.42 96.1902 38.86V38.06L94.0702 38.3C92.7102 38.46 91.8702 39.04 91.8702 39.96C91.8702 40.84 92.5902 41.46 93.6702 41.46ZM100.58 43V32.84H102.68V37.2L106.56 32.84H108.94L105.38 36.82L109.5 43H107.08L104 38.38L102.68 39.86V43H100.58ZM119.25 43H117.37C117.29 42.68 117.15 42 117.11 41.68C116.39 42.58 115.33 43.18 114.09 43.18C111.97 43.18 110.57 41.92 110.57 40.04C110.57 38.28 112.17 37.16 114.83 36.86L117.01 36.6V36.16C117.01 35.12 116.25 34.4 115.19 34.4C114.17 34.4 113.37 34.9 113.13 35.76L111.09 35.42C111.51 33.74 113.09 32.64 115.21 32.64C117.53 32.64 119.13 34.14 119.13 36.44V40.04C119.13 41.52 119.15 42.22 119.25 43ZM114.49 41.46C116.05 41.46 117.01 40.42 117.01 38.86V38.06L114.89 38.3C113.53 38.46 112.69 39.04 112.69 39.96C112.69 40.84 113.41 41.46 114.49 41.46ZM121.3 32.84H123.42V37.08H127.92V32.84H130.04V43H127.92V38.72H123.42V43H121.3V32.84ZM131.82 37.9C131.82 34.8 133.86 32.64 136.76 32.64C139.18 32.64 140.9 34.18 141.36 35.94L139.32 36.4C138.96 35.16 138.02 34.4 136.76 34.4C135.04 34.4 133.94 35.76 133.94 37.9C133.94 40.04 135.04 41.4 136.76 41.4C138 41.4 138.94 40.68 139.32 39.48L141.36 39.94C140.92 41.64 139.18 43.16 136.76 43.16C133.86 43.16 131.82 40.98 131.82 37.9ZM142.96 32.84H145.08V39.82L149.7 32.84H151.7V43H149.58V36.02L144.96 43H142.96V32.84ZM153.781 32.84H155.901V39.82L160.521 32.84H162.521V43H160.401V36.02L155.781 43H153.781V32.84Z" fill="black" fill-opacity="0.9"/>
<path d="M354.926 18V3.98H357.106V10.02H364.066V3.98H366.246V18H364.066V11.8H357.106V18H354.926ZM377.251 18L373.711 12.48H371.071V18H368.891V3.98H374.391C379.611 3.98 380.151 10.78 376.031 12.22L379.711 18H377.251ZM371.071 10.68H374.271C377.431 10.68 377.431 5.76 374.271 5.76H371.071V10.68ZM341.406 36C341.406 31.78 344.166 28.82 348.066 28.82C350.966 28.82 353.326 30.52 354.126 33.08L352.106 33.76C351.646 31.88 350.066 30.66 348.066 30.66C345.446 30.66 343.606 32.86 343.606 36C343.606 39.14 345.446 41.36 348.066 41.36C350.166 41.36 351.726 40.02 352.106 37.96L354.126 38.66C353.486 41.38 351.126 43.2 348.066 43.2C344.166 43.2 341.406 40.22 341.406 36ZM356.035 43V32.84H358.135V37.2L362.015 32.84H364.395L360.835 36.82L364.955 43H362.535L359.455 38.38L358.135 39.86V43H356.035ZM368.526 41.68V47H366.426V35.8C366.426 34.54 366.366 33.52 366.286 32.84H368.166C368.246 33.2 368.346 33.82 368.406 34.32C369.086 33.36 370.306 32.66 371.646 32.66C374.186 32.66 375.946 34.84 375.946 37.94C375.946 41.02 374.186 43.2 371.646 43.2C370.426 43.2 369.226 42.62 368.526 41.68ZM368.526 37.66V38.3C368.526 40.06 369.466 41.44 371.086 41.44C372.786 41.44 373.826 40.08 373.826 37.94C373.826 35.76 372.786 34.38 371.086 34.38C369.506 34.38 368.526 35.8 368.526 37.66ZM377.732 32.84H379.852V39.82L384.472 32.84H386.472V43H384.352V36.02L379.732 43H377.732V32.84ZM388.552 32.84H390.672V37.08H395.172V32.84H397.292V43H395.172V38.72H390.672V43H388.552V32.84Z" fill="black" fill-opacity="0.9"/>
<path d="M561.977 18V5.74H557.537V3.98H568.597V5.74H564.157V18H561.977ZM570.076 12.9C570.076 9.82 572.116 7.64 575.016 7.64C577.916 7.64 579.936 9.82 579.936 12.9V13.44H572.216C572.396 15.28 573.456 16.4 575.016 16.4C576.256 16.4 577.236 15.72 577.636 14.56L579.616 15C579.056 16.88 577.336 18.16 575.016 18.16C572.116 18.16 570.076 15.98 570.076 12.9ZM575.016 9.4C573.576 9.4 572.576 10.34 572.276 11.9H577.736C577.476 10.34 576.436 9.4 575.016 9.4ZM584.787 12.78L581.167 7.84H583.567L585.947 11.24L588.307 7.84H590.727L587.107 12.78L590.907 18H588.507L585.947 14.32L583.387 18H580.967L584.787 12.78ZM592.369 7.84H594.489V12.08H598.989V7.84H601.109V18H598.989V13.72H594.489V18H592.369V7.84ZM603.189 7.84H605.309V14.82L609.929 7.84H611.929V18H609.809V11.02L605.189 18H603.189V7.84ZM622.169 7.84V18H620.069V13.94C619.429 14.58 618.429 14.96 617.449 14.96C615.309 14.96 613.969 13.54 613.969 11.3V7.84H616.069V11.26C616.069 12.5 616.749 13.28 617.829 13.28C619.169 13.28 620.069 12.34 620.069 10.94V7.84H622.169ZM623.944 12.9C623.944 9.82 625.984 7.64 628.884 7.64C631.784 7.64 633.804 9.82 633.804 12.9V13.44H626.084C626.264 15.28 627.324 16.4 628.884 16.4C630.124 16.4 631.104 15.72 631.504 14.56L633.484 15C632.924 16.88 631.204 18.16 628.884 18.16C625.984 18.16 623.944 15.98 623.944 12.9ZM628.884 9.4C627.444 9.4 626.444 10.34 626.144 11.9H631.604C631.344 10.34 630.304 9.4 628.884 9.4ZM635.154 12.9C635.154 9.8 637.194 7.64 640.094 7.64C642.514 7.64 644.234 9.18 644.694 10.94L642.654 11.4C642.294 10.16 641.354 9.4 640.094 9.4C638.374 9.4 637.274 10.76 637.274 12.9C637.274 15.04 638.374 16.4 640.094 16.4C641.334 16.4 642.274 15.68 642.654 14.48L644.694 14.94C644.254 16.64 642.514 18.16 640.094 18.16C637.194 18.16 635.154 15.98 635.154 12.9ZM646.394 18V7.84H648.494V12.2L652.374 7.84H654.754L651.194 11.82L655.314 18H652.894L649.814 13.38L648.494 14.86V18H646.394ZM666.245 12.9C666.245 15.98 664.205 18.16 661.325 18.16C658.425 18.16 656.385 15.98 656.385 12.9C656.385 9.8 658.425 7.64 661.325 7.64C664.205 7.64 666.245 9.8 666.245 12.9ZM658.505 12.9C658.505 15.06 659.605 16.44 661.325 16.44C663.045 16.44 664.145 15.06 664.145 12.9C664.145 10.76 663.045 9.4 661.325 9.4C659.605 9.4 658.505 10.76 658.505 12.9ZM667.733 12.9C667.733 9.82 669.773 7.64 672.673 7.64C675.573 7.64 677.593 9.82 677.593 12.9V13.44H669.873C670.053 15.28 671.113 16.4 672.673 16.4C673.913 16.4 674.893 15.72 675.293 14.56L677.273 15C676.713 16.88 674.993 18.16 672.673 18.16C669.773 18.16 667.733 15.98 667.733 12.9ZM672.673 9.4C671.233 9.4 670.233 10.34 669.933 11.9H675.393C675.133 10.34 674.093 9.4 672.673 9.4ZM546.453 37.9C546.453 34.8 548.493 32.64 551.393 32.64C553.813 32.64 555.533 34.18 555.993 35.94L553.953 36.4C553.593 35.16 552.653 34.4 551.393 34.4C549.673 34.4 548.573 35.76 548.573 37.9C548.573 40.04 549.673 41.4 551.393 41.4C552.633 41.4 553.573 40.68 553.953 39.48L555.993 39.94C555.553 41.64 553.813 43.16 551.393 43.16C548.493 43.16 546.453 40.98 546.453 37.9ZM567.153 37.9C567.153 40.98 565.113 43.16 562.233 43.16C559.333 43.16 557.293 40.98 557.293 37.9C557.293 34.8 559.333 32.64 562.233 32.64C565.113 32.64 567.153 34.8 567.153 37.9ZM559.413 37.9C559.413 40.06 560.513 41.44 562.233 41.44C563.953 41.44 565.053 40.06 565.053 37.9C565.053 35.76 563.953 34.4 562.233 34.4C560.513 34.4 559.413 35.76 559.413 37.9ZM570.761 37.46V37.8C570.761 40 571.741 41.38 573.421 41.38C575.081 41.38 576.061 40 576.061 37.8C576.061 35.66 575.001 34.32 573.301 34.32C571.701 34.32 570.761 35.68 570.761 37.46ZM568.641 37.5V34.98C568.641 31.22 570.881 29.26 574.221 28.88C575.201 28.78 576.161 28.68 577.141 28.16V29.92C576.161 30.4 575.181 30.48 574.161 30.62C571.901 30.92 570.761 32.18 570.761 33.92V34.06C571.461 33.14 572.661 32.56 573.881 32.56C576.401 32.56 578.181 34.72 578.181 37.8C578.181 40.9 576.281 43.1 573.421 43.1C570.541 43.1 568.641 40.94 568.641 37.5ZM579.656 37.9C579.656 34.82 581.696 32.64 584.596 32.64C587.496 32.64 589.516 34.82 589.516 37.9V38.44H581.796C581.976 40.28 583.036 41.4 584.596 41.4C585.836 41.4 586.816 40.72 587.216 39.56L589.196 40C588.636 41.88 586.916 43.16 584.596 43.16C581.696 43.16 579.656 40.98 579.656 37.9ZM584.596 34.4C583.156 34.4 582.156 35.34 581.856 36.9H587.316C587.056 35.34 586.016 34.4 584.596 34.4ZM590.867 37.9C590.867 34.8 592.907 32.64 595.807 32.64C598.227 32.64 599.947 34.18 600.407 35.94L598.367 36.4C598.007 35.16 597.067 34.4 595.807 34.4C594.087 34.4 592.987 35.76 592.987 37.9C592.987 40.04 594.087 41.4 595.807 41.4C597.047 41.4 597.987 40.68 598.367 39.48L600.407 39.94C599.967 41.64 598.227 43.16 595.807 43.16C592.907 43.16 590.867 40.98 590.867 37.9ZM601.707 37.9C601.707 34.82 603.747 32.64 606.647 32.64C609.547 32.64 611.567 34.82 611.567 37.9V38.44H603.847C604.027 40.28 605.087 41.4 606.647 41.4C607.887 41.4 608.867 40.72 609.267 39.56L611.247 40C610.687 41.88 608.967 43.16 606.647 43.16C603.747 43.16 601.707 40.98 601.707 37.9ZM606.647 34.4C605.207 34.4 604.207 35.34 603.907 36.9H609.367C609.107 35.34 608.067 34.4 606.647 34.4ZM615.478 32.84H622.498V41.36H623.718V45.2H621.598V43H614.858V45.2H612.738V41.36H613.318C614.258 41.36 614.638 40.86 614.758 39.84L615.478 32.84ZM616.798 39.76C616.718 40.38 616.538 40.92 616.218 41.36H620.378V34.48H617.338L616.798 39.76ZM634.887 37.9C634.887 40.98 632.847 43.16 629.967 43.16C627.067 43.16 625.027 40.98 625.027 37.9C625.027 34.8 627.067 32.64 629.967 32.64C632.847 32.64 634.887 34.8 634.887 37.9ZM627.147 37.9C627.147 40.06 628.247 41.44 629.967 41.44C631.687 41.44 632.787 40.06 632.787 37.9C632.787 35.76 631.687 34.4 629.967 34.4C628.247 34.4 627.147 35.76 627.147 37.9ZM636.675 32.84H641.755C643.535 32.84 644.795 34.06 644.795 35.78C644.795 36.48 644.415 37.28 643.855 37.74C644.715 38.2 645.315 39.16 645.315 40.06C645.315 41.78 643.935 43 641.975 43H636.675V32.84ZM638.795 38.7V41.36H641.695C642.575 41.36 643.175 40.82 643.175 40.02C643.175 39.24 642.575 38.7 641.695 38.7H638.795ZM638.795 34.48V37.14H641.295C642.095 37.14 642.635 36.6 642.635 35.82C642.635 35.02 642.095 34.48 641.295 34.48H638.795ZM655.426 43H653.546C653.466 42.68 653.326 42 653.286 41.68C652.566 42.58 651.506 43.18 650.266 43.18C648.146 43.18 646.746 41.92 646.746 40.04C646.746 38.28 648.346 37.16 651.006 36.86L653.186 36.6V36.16C653.186 35.12 652.426 34.4 651.366 34.4C650.346 34.4 649.546 34.9 649.306 35.76L647.266 35.42C647.686 33.74 649.266 32.64 651.386 32.64C653.706 32.64 655.306 34.14 655.306 36.44V40.04C655.306 41.52 655.326 42.22 655.426 43ZM650.666 41.46C652.226 41.46 653.186 40.42 653.186 38.86V38.06L651.066 38.3C649.706 38.46 648.866 39.04 648.866 39.96C648.866 40.84 649.586 41.46 650.666 41.46ZM657.476 32.84H659.596V37.08H664.096V32.84H666.216V43H664.096V38.72H659.596V43H657.476V32.84ZM668.296 32.84H670.416V39.82L675.036 32.84H677.036V43H674.916V36.02L670.296 43H668.296V32.84ZM678.817 37.9C678.817 34.82 680.857 32.64 683.757 32.64C686.657 32.64 688.677 34.82 688.677 37.9V38.44H680.957C681.137 40.28 682.197 41.4 683.757 41.4C684.997 41.4 685.977 40.72 686.377 39.56L688.357 40C687.797 41.88 686.077 43.16 683.757 43.16C680.857 43.16 678.817 40.98 678.817 37.9ZM683.757 34.4C682.317 34.4 681.317 35.34 681.017 36.9H686.477C686.217 35.34 685.177 34.4 683.757 34.4Z" fill="black" fill-opacity="0.9"/>
<path d="M843.761 7.76C843.761 9.04 843.081 10.04 841.921 10.62C843.561 11.16 844.541 12.36 844.541 14C844.541 16.46 842.781 18 839.961 18H834.041V3.98H839.561C842.141 3.98 843.761 5.44 843.761 7.76ZM839.841 11.68H836.221V16.2H839.841C841.381 16.2 842.341 15.32 842.341 13.94C842.341 12.54 841.381 11.68 839.841 11.68ZM836.221 5.76V9.88H839.061C840.581 9.88 841.541 9.08 841.541 7.82C841.541 6.56 840.721 5.76 839.441 5.76H836.221ZM846.32 7.84H848.44V11.46H851.18C853.52 11.46 854.68 13.08 854.68 14.72C854.68 16.36 853.52 18 851.18 18H846.32V7.84ZM848.44 13.1V16.36H850.82C851.98 16.36 852.58 15.54 852.58 14.72C852.58 13.9 852 13.1 850.82 13.1H848.44ZM856.5 18V7.84H858.6V18H856.5ZM862.573 12.46V12.8C862.573 15 863.553 16.38 865.233 16.38C866.893 16.38 867.873 15 867.873 12.8C867.873 10.66 866.813 9.32 865.113 9.32C863.513 9.32 862.573 10.68 862.573 12.46ZM860.453 12.5V9.98C860.453 6.22 862.693 4.26 866.033 3.88C867.013 3.78 867.973 3.68 868.953 3.16V4.92C867.973 5.4 866.993 5.48 865.973 5.62C863.713 5.92 862.573 7.18 862.573 8.92V9.06C863.273 8.14 864.473 7.56 865.693 7.56C868.213 7.56 869.993 9.72 869.993 12.8C869.993 15.9 868.093 18.1 865.233 18.1C862.353 18.1 860.453 15.94 860.453 12.5ZM881.329 12.9C881.329 15.98 879.289 18.16 876.409 18.16C873.509 18.16 871.469 15.98 871.469 12.9C871.469 9.8 873.509 7.64 876.409 7.64C879.289 7.64 881.329 9.8 881.329 12.9ZM873.589 12.9C873.589 15.06 874.689 16.44 876.409 16.44C878.129 16.44 879.229 15.06 879.229 12.9C879.229 10.76 878.129 9.4 876.409 9.4C874.689 9.4 873.589 10.76 873.589 12.9ZM885.317 16.68V22H883.217V10.8C883.217 9.54 883.157 8.52 883.077 7.84H884.957C885.037 8.2 885.137 8.82 885.197 9.32C885.877 8.36 887.097 7.66 888.437 7.66C890.977 7.66 892.737 9.84 892.737 12.94C892.737 16.02 890.977 18.2 888.437 18.2C887.217 18.2 886.017 17.62 885.317 16.68ZM885.317 12.66V13.3C885.317 15.06 886.257 16.44 887.877 16.44C889.577 16.44 890.617 15.08 890.617 12.94C890.617 10.76 889.577 9.38 887.877 9.38C886.297 9.38 885.317 10.8 885.317 12.66ZM815.888 47V43.1C812.828 42.76 810.628 40.94 810.628 37.9C810.628 34.86 812.828 33.04 815.888 32.7V28.98H818.008V32.7C821.068 33.04 823.248 34.86 823.248 37.9C823.248 40.94 821.068 42.76 818.008 43.1V47H815.888ZM812.748 37.9C812.748 39.78 813.928 41.04 815.888 41.36V34.48C813.928 34.8 812.748 36.06 812.748 37.9ZM821.148 37.9C821.148 36.06 819.968 34.8 818.008 34.48V41.36C819.968 41.04 821.148 39.78 821.148 37.9ZM824.992 32.84H827.112V39.82L831.732 32.84H833.732V43H831.612V36.02L826.992 43H824.992V32.84ZM835.812 32.84H837.932V37.08H842.432V32.84H844.552V43H842.432V38.72H837.932V43H835.812V32.84ZM855.012 43H853.132C853.052 42.68 852.912 42 852.872 41.68C852.152 42.58 851.092 43.18 849.852 43.18C847.732 43.18 846.332 41.92 846.332 40.04C846.332 38.28 847.932 37.16 850.592 36.86L852.772 36.6V36.16C852.772 35.12 852.012 34.4 850.952 34.4C849.932 34.4 849.132 34.9 848.892 35.76L846.852 35.42C847.272 33.74 848.852 32.64 850.972 32.64C853.292 32.64 854.892 34.14 854.892 36.44V40.04C854.892 41.52 854.912 42.22 855.012 43ZM850.252 41.46C851.812 41.46 852.772 40.42 852.772 38.86V38.06L850.652 38.3C849.292 38.46 848.452 39.04 848.452 39.96C848.452 40.84 849.172 41.46 850.252 41.46ZM859.702 32.84H866.722V43H864.602V34.48H861.562L860.982 40.04C860.802 41.76 859.782 43 857.942 43H856.602V41.36H857.522C858.462 41.36 858.862 40.86 858.962 39.84L859.702 32.84ZM868.839 32.84H870.959V39.82L875.579 32.84H877.579V43H875.459V36.02L870.839 43H868.839V32.84ZM879.36 37.9C879.36 34.8 881.4 32.64 884.3 32.64C886.72 32.64 888.44 34.18 888.9 35.94L886.86 36.4C886.5 35.16 885.56 34.4 884.3 34.4C882.58 34.4 881.48 35.76 881.48 37.9C881.48 40.04 882.58 41.4 884.3 41.4C885.54 41.4 886.48 40.68 886.86 39.48L888.9 39.94C888.46 41.64 886.72 43.16 884.3 43.16C881.4 43.16 879.36 40.98 879.36 37.9ZM890.259 34.48V32.84H898.959V34.48H895.659V43H893.539V34.48H890.259ZM910.333 37.9C910.333 40.98 908.293 43.16 905.413 43.16C902.513 43.16 900.473 40.98 900.473 37.9C900.473 34.8 902.513 32.64 905.413 32.64C908.293 32.64 910.333 34.8 910.333 37.9ZM902.593 37.9C902.593 40.06 903.693 41.44 905.413 41.44C907.133 41.44 908.233 40.06 908.233 37.9C908.233 35.76 907.133 34.4 905.413 34.4C903.693 34.4 902.593 35.76 902.593 37.9ZM912.12 32.84H917.2C918.98 32.84 920.24 34.06 920.24 35.78C920.24 36.48 919.86 37.28 919.3 37.74C920.16 38.2 920.76 39.16 920.76 40.06C920.76 41.78 919.38 43 917.42 43H912.12V32.84ZM914.24 38.7V41.36H917.14C918.02 41.36 918.62 40.82 918.62 40.02C918.62 39.24 918.02 38.7 917.14 38.7H914.24ZM914.24 34.48V37.14H916.74C917.54 37.14 918.08 36.6 918.08 35.82C918.08 35.02 917.54 34.48 916.74 34.48H914.24Z" fill="black" fill-opacity="0.9"/>
<path d="M1095.59 35.16C1091.69 35.16 1088.93 32.2 1088.93 27.98C1088.93 23.78 1091.69 20.82 1095.59 20.82C1099.51 20.82 1102.27 23.78 1102.27 27.98C1102.27 32.2 1099.51 35.16 1095.59 35.16ZM1095.59 33.32C1098.21 33.32 1100.05 31.16 1100.05 28C1100.05 24.84 1098.21 22.66 1095.59 22.66C1092.97 22.66 1091.13 24.84 1091.13 28C1091.13 31.16 1092.97 33.32 1095.59 33.32ZM1109.33 39V35.1C1106.27 34.76 1104.07 32.94 1104.07 29.9C1104.07 26.86 1106.27 25.04 1109.33 24.7V20.98H1111.45V24.7C1114.51 25.04 1116.69 26.86 1116.69 29.9C1116.69 32.94 1114.51 34.76 1111.45 35.1V39H1109.33ZM1106.19 29.9C1106.19 31.78 1107.37 33.04 1109.33 33.36V26.48C1107.37 26.8 1106.19 28.06 1106.19 29.9ZM1114.59 29.9C1114.59 28.06 1113.41 26.8 1111.45 26.48V33.36C1113.41 33.04 1114.59 31.78 1114.59 29.9ZM1118.14 29.9C1118.14 26.82 1120.18 24.64 1123.08 24.64C1125.98 24.64 1128 26.82 1128 29.9V30.44H1120.28C1120.46 32.28 1121.52 33.4 1123.08 33.4C1124.32 33.4 1125.3 32.72 1125.7 31.56L1127.68 32C1127.12 33.88 1125.4 35.16 1123.08 35.16C1120.18 35.16 1118.14 32.98 1118.14 29.9ZM1123.08 26.4C1121.64 26.4 1120.64 27.34 1120.34 28.9H1125.8C1125.54 27.34 1124.5 26.4 1123.08 26.4ZM1131.85 33.68V39H1129.75V27.8C1129.75 26.54 1129.69 25.52 1129.61 24.84H1131.49C1131.57 25.2 1131.67 25.82 1131.73 26.32C1132.41 25.36 1133.63 24.66 1134.97 24.66C1137.51 24.66 1139.27 26.84 1139.27 29.94C1139.27 33.02 1137.51 35.2 1134.97 35.2C1133.75 35.2 1132.55 34.62 1131.85 33.68ZM1131.85 29.66V30.3C1131.85 32.06 1132.79 33.44 1134.41 33.44C1136.11 33.44 1137.15 32.08 1137.15 29.94C1137.15 27.76 1136.11 26.38 1134.41 26.38C1132.83 26.38 1131.85 27.8 1131.85 29.66Z" fill="black" fill-opacity="0.9"/>
<path d="M1 85H1234" stroke="url(#paint0_linear_849_13848)" stroke-width="2" stroke-linecap="round"/>
<circle cx="121" cy="86" r="10" fill="url(#paint1_linear_849_13848)"/>
<circle cx="367.75" cy="86" r="10" fill="url(#paint2_linear_849_13848)"/>
<circle cx="614.5" cy="86" r="10" fill="url(#paint3_linear_849_13848)"/>
<circle cx="861.25" cy="86" r="10" fill="url(#paint4_linear_849_13848)"/>
<circle cx="1108" cy="86" r="10" fill="url(#paint5_linear_849_13848)"/>
<defs>
<linearGradient id="paint0_linear_849_13848" x1="-39.2065" y1="85.5" x2="1234" y2="85.5146" gradientUnits="userSpaceOnUse">
<stop stop-color="#F07DED"/>
<stop offset="0.355" stop-color="#F780A9"/>
<stop offset="1" stop-color="#FFCE9C"/>
</linearGradient>
<linearGradient id="paint1_linear_849_13848" x1="110.348" y1="86" x2="131" y2="86" gradientUnits="userSpaceOnUse">
<stop stop-color="#F07DED"/>
<stop offset="0.355" stop-color="#F780A9"/>
<stop offset="1" stop-color="#FFCE9C"/>
</linearGradient>
<linearGradient id="paint2_linear_849_13848" x1="357.098" y1="86" x2="377.75" y2="86" gradientUnits="userSpaceOnUse">
<stop stop-color="#F07DED"/>
<stop offset="0.355" stop-color="#F780A9"/>
<stop offset="1" stop-color="#FFCE9C"/>
</linearGradient>
<linearGradient id="paint3_linear_849_13848" x1="603.848" y1="86" x2="624.5" y2="86" gradientUnits="userSpaceOnUse">
<stop stop-color="#F07DED"/>
<stop offset="0.355" stop-color="#F780A9"/>
<stop offset="1" stop-color="#FFCE9C"/>
</linearGradient>
<linearGradient id="paint4_linear_849_13848" x1="850.598" y1="86" x2="871.25" y2="86" gradientUnits="userSpaceOnUse">
<stop stop-color="#F07DED"/>
<stop offset="0.355" stop-color="#F780A9"/>
<stop offset="1" stop-color="#FFCE9C"/>
</linearGradient>
<linearGradient id="paint5_linear_849_13848" x1="1097.35" y1="86" x2="1118" y2="86" gradientUnits="userSpaceOnUse">
<stop stop-color="#F07DED"/>
<stop offset="0.355" stop-color="#F780A9"/>
<stop offset="1" stop-color="#FFCE9C"/>
</linearGradient>
</defs>
</svg>
