<svg width="1234" height="190" viewBox="0 0 1234 190" fill="none" xmlns="http://www.w3.org/2000/svg">
<rect x="1" y="17" width="238.2" height="172" rx="39" fill="white"/>
<rect x="1" y="17" width="238.2" height="172" rx="39" stroke="url(#paint0_linear_849_13864)" stroke-width="2"/>
<path d="M34.6608 43H36.1408V57H34.6608V45.38L26.6808 57H25.2008V43H26.6808V54.62L34.6608 43ZM51.0513 57H38.7313V47H40.1513V55.82H44.1513V47H45.5713V55.82H49.5713V47H50.9913V55.82H52.4713V59.2H51.0513V57ZM53.8781 51.98C53.8781 48.94 55.8181 46.8 58.5981 46.8C61.3781 46.8 63.3181 48.94 63.3181 51.98V52.36H55.3181C55.4381 54.52 56.6981 55.86 58.5981 55.86C60.0781 55.86 61.1381 55.08 61.5581 53.72L62.9381 53.96C62.3781 55.9 60.7581 57.16 58.5981 57.16C55.8181 57.16 53.8781 55.02 53.8781 51.98ZM58.5981 48.1C56.8181 48.1 55.5981 49.28 55.3581 51.2H61.8581C61.6181 49.26 60.3781 48.1 58.5981 48.1ZM64.8566 48.18V47H73.0966V48.18H69.6766V57H68.2566V48.18H64.8566ZM80.6766 57V55.64L85.7566 50.64C86.9166 49.48 88.1366 48.26 88.1366 46.64C88.1366 45.22 86.9966 44.22 85.3766 44.22C83.7166 44.22 82.3966 45.22 81.9566 46.8L80.5366 46.3C81.1766 44.18 83.0366 42.84 85.4166 42.84C87.8966 42.84 89.6566 44.42 89.6566 46.68C89.6566 48.88 88.0166 50.3 86.7966 51.52L82.5966 55.68H89.8766V57H80.6766ZM98.7688 45.02L93.4288 52.34H98.7688V45.02ZM98.7688 53.66H91.8088V52.34L98.6288 43H100.249V52.34H102.129V53.66H100.249V57H98.7688V53.66ZM103.361 61L108.641 43H110.181L104.901 61H103.361ZM119.558 44.32H111.978V43H121.178V44.32C117.098 48.54 115.798 53.18 115.918 57H114.378C114.258 53.18 115.478 48.54 119.558 44.32ZM25.0008 72H33.2408V82H31.8208V73.18H26.4208V82H25.0008V72ZM44.5877 76.98C44.5877 80.02 42.6477 82.16 39.8677 82.16C37.0877 82.16 35.1477 80.02 35.1477 76.98C35.1477 73.94 37.0877 71.8 39.8677 71.8C42.6477 71.8 44.5877 73.94 44.5877 76.98ZM36.5677 76.98C36.5677 79.38 37.8677 80.9 39.8677 80.9C41.8677 80.9 43.1677 79.38 43.1677 76.98C43.1677 74.6 41.8677 73.1 39.8677 73.1C37.8677 73.1 36.5677 74.6 36.5677 76.98ZM51.5828 72H59.8228V82H58.4028V73.18H53.0028V82H51.5828V72ZM69.9097 82H68.6897C68.5497 81.5 68.4497 81 68.3897 80.5C67.7097 81.48 66.7097 82.18 65.2697 82.18C63.1897 82.18 61.7297 80.92 61.7297 79.12C61.7297 77.32 63.2097 76.38 65.7897 76.08L68.3897 75.78V75.18C68.3897 73.94 67.4697 73.1 66.1497 73.1C64.8897 73.1 63.9697 73.6 63.6297 74.6L62.2497 74.36C62.7497 72.76 64.2097 71.8 66.1497 71.8C68.3697 71.8 69.8097 73.26 69.8097 75.48V79.2C69.8097 80.54 69.8297 81.28 69.9097 82ZM65.3897 80.92C67.2497 80.92 68.3897 79.7 68.3897 77.98V76.9L65.7697 77.22C64.1497 77.42 63.1497 78.02 63.1497 79.12C63.1497 80.16 64.0697 80.92 65.3897 80.92ZM73.6278 80.62V86H72.2078V74.8C72.2078 73.46 72.1878 72.72 72.1078 72H73.3278C73.4478 72.44 73.5678 73.06 73.6278 73.5C74.4078 72.52 75.5678 71.8 76.9278 71.8C79.5078 71.8 81.3078 73.96 81.3078 77.02C81.3078 80.06 79.5078 82.2 76.9278 82.2C75.6078 82.2 74.4278 81.64 73.6278 80.62ZM73.6278 76.72V77.38C73.6278 79.22 74.7078 80.9 76.6478 80.9C78.6678 80.9 79.8878 79.4 79.8878 77.02C79.8878 74.6 78.6678 73.06 76.6478 73.06C74.7878 73.06 73.6278 74.78 73.6278 76.72ZM91.0816 82H89.8616C89.7216 81.5 89.6216 81 89.5616 80.5C88.8816 81.48 87.8816 82.18 86.4416 82.18C84.3616 82.18 82.9016 80.92 82.9016 79.12C82.9016 77.32 84.3816 76.38 86.9616 76.08L89.5616 75.78V75.18C89.5616 73.94 88.6416 73.1 87.3216 73.1C86.0616 73.1 85.1416 73.6 84.8016 74.6L83.4216 74.36C83.9216 72.76 85.3816 71.8 87.3216 71.8C89.5416 71.8 90.9816 73.26 90.9816 75.48V79.2C90.9816 80.54 91.0016 81.28 91.0816 82ZM86.5616 80.92C88.4216 80.92 89.5616 79.7 89.5616 77.98V76.9L86.9416 77.22C85.3216 77.42 84.3216 78.02 84.3216 79.12C84.3216 80.16 85.2416 80.92 86.5616 80.92ZM99.2197 82H98.1197L94.7997 74.3V82H93.3797V72H95.1197L98.6797 80.24L102.22 72H103.96V82H102.54V74.3L99.2197 82ZM105.968 76.98C105.968 73.94 107.908 71.8 110.688 71.8C113.468 71.8 115.408 73.94 115.408 76.98V77.36H107.408C107.528 79.52 108.788 80.86 110.688 80.86C112.168 80.86 113.228 80.08 113.648 78.72L115.028 78.96C114.468 80.9 112.848 82.16 110.688 82.16C107.908 82.16 105.968 80.02 105.968 76.98ZM110.688 73.1C108.908 73.1 107.688 74.28 107.448 76.2H113.948C113.708 74.26 112.468 73.1 110.688 73.1ZM116.946 73.18V72H125.186V73.18H121.766V82H120.346V73.18H116.946ZM128.686 80.62V86H127.266V74.8C127.266 73.46 127.246 72.72 127.166 72H128.386C128.506 72.44 128.626 73.06 128.686 73.5C129.466 72.52 130.626 71.8 131.986 71.8C134.566 71.8 136.366 73.96 136.366 77.02C136.366 80.06 134.566 82.2 131.986 82.2C130.666 82.2 129.486 81.64 128.686 80.62ZM128.686 76.72V77.38C128.686 79.22 129.766 80.9 131.706 80.9C133.726 80.9 134.946 79.4 134.946 77.02C134.946 74.6 133.726 73.06 131.706 73.06C129.846 73.06 128.686 74.78 128.686 76.72ZM146.14 82H144.92C144.78 81.5 144.68 81 144.62 80.5C143.94 81.48 142.94 82.18 141.5 82.18C139.42 82.18 137.96 80.92 137.96 79.12C137.96 77.32 139.44 76.38 142.02 76.08L144.62 75.78V75.18C144.62 73.94 143.7 73.1 142.38 73.1C141.12 73.1 140.2 73.6 139.86 74.6L138.48 74.36C138.98 72.76 140.44 71.8 142.38 71.8C144.6 71.8 146.04 73.26 146.04 75.48V79.2C146.04 80.54 146.06 81.28 146.14 82ZM141.62 80.92C143.48 80.92 144.62 79.7 144.62 77.98V76.9L142 77.22C140.38 77.42 139.38 78.02 139.38 79.12C139.38 80.16 140.3 80.92 141.62 80.92ZM154.278 82H153.178L149.858 74.3V82H148.438V72H150.178L153.738 80.24L157.278 72H159.018V82H157.598V74.3L154.278 82ZM25.0008 97H29.6408C31.3208 97 32.5008 98.16 32.5008 99.8C32.5008 100.58 32.0408 101.42 31.4008 101.84C32.3608 102.24 33.0408 103.22 33.0408 104.2C33.0408 105.84 31.7408 107 29.8808 107H25.0008V97ZM26.4208 102.6V105.82H29.7008C30.8208 105.82 31.6008 105.16 31.6008 104.2C31.6008 103.26 30.8208 102.6 29.7008 102.6H26.4208ZM26.4208 98.18V101.4H29.4608C30.4008 101.4 31.0608 100.74 31.0608 99.8C31.0608 98.84 30.4008 98.18 29.4608 98.18H26.4208ZM42.7222 107H41.5022C41.3622 106.5 41.2622 106 41.2022 105.5C40.5222 106.48 39.5222 107.18 38.0822 107.18C36.0022 107.18 34.5422 105.92 34.5422 104.12C34.5422 102.32 36.0222 101.38 38.6022 101.08L41.2022 100.78V100.18C41.2022 98.94 40.2822 98.1 38.9622 98.1C37.7022 98.1 36.7822 98.6 36.4422 99.6L35.0622 99.36C35.5622 97.76 37.0222 96.8 38.9622 96.8C41.1822 96.8 42.6222 98.26 42.6222 100.48V104.2C42.6222 105.54 42.6422 106.28 42.7222 107ZM38.2022 105.92C40.0622 105.92 41.2022 104.7 41.2022 102.98V101.9L38.5822 102.22C36.9622 102.42 35.9622 103.02 35.9622 104.12C35.9622 105.16 36.8822 105.92 38.2022 105.92ZM45.0203 107V97H46.4403V101.72L50.9203 97H52.6003L48.8803 100.96L53.1603 107H51.5003L47.9403 101.96L46.4403 103.56V107H45.0203ZM62.6441 107H61.4241C61.2841 106.5 61.1841 106 61.1241 105.5C60.4441 106.48 59.4441 107.18 58.0041 107.18C55.9241 107.18 54.4641 105.92 54.4641 104.12C54.4641 102.32 55.9441 101.38 58.5241 101.08L61.1241 100.78V100.18C61.1241 98.94 60.2041 98.1 58.8841 98.1C57.6241 98.1 56.7041 98.6 56.3641 99.6L54.9841 99.36C55.4841 97.76 56.9441 96.8 58.8841 96.8C61.1041 96.8 62.5441 98.26 62.5441 100.48V104.2C62.5441 105.54 62.5641 106.28 62.6441 107ZM58.1241 105.92C59.9841 105.92 61.1241 104.7 61.1241 102.98V101.9L58.5041 102.22C56.8841 102.42 55.8841 103.02 55.8841 104.12C55.8841 105.16 56.8041 105.92 58.1241 105.92ZM64.9422 97H66.3622V101.4H71.7622V97H73.1822V107H71.7622V102.58H66.3622V107H64.9422V97ZM75.1867 101.98C75.1867 98.94 77.1267 96.8 79.9067 96.8C82.0667 96.8 83.6867 98.1 84.2467 100.08L82.8667 100.32C82.4667 98.92 81.3867 98.1 79.9067 98.1C77.9067 98.1 76.6067 99.6 76.6067 101.98C76.6067 104.36 77.9067 105.86 79.9067 105.86C81.3867 105.86 82.4467 105.08 82.8667 103.72L84.2467 103.96C83.6867 105.9 82.0667 107.16 79.9067 107.16C77.1267 107.16 75.1867 105.02 75.1867 101.98ZM86.1141 97H87.5341V104.94L92.9341 97H94.3541V107H92.9341V99.06L87.5341 107H86.1141V97ZM96.7586 97H98.1786V104.94L103.579 97H104.999V107H103.579V99.06L98.1786 107H96.7586V97ZM25.0008 122H26.4208V129.94L31.8208 122H33.2408V132H31.8208V124.06L26.4208 132H25.0008V122ZM40.6453 122H48.8853V132H47.4653V123.18H42.0653V132H40.6453V122ZM52.6122 130.62V136H51.1922V124.8C51.1922 123.46 51.1722 122.72 51.0922 122H52.3122C52.4322 122.44 52.5522 123.06 52.6122 123.5C53.3922 122.52 54.5522 121.8 55.9122 121.8C58.4922 121.8 60.2922 123.96 60.2922 127.02C60.2922 130.06 58.4922 132.2 55.9122 132.2C54.5922 132.2 53.4122 131.64 52.6122 130.62ZM52.6122 126.72V127.38C52.6122 129.22 53.6922 130.9 55.6322 130.9C57.6522 130.9 58.8722 129.4 58.8722 127.02C58.8722 124.6 57.6522 123.06 55.6322 123.06C53.7722 123.06 52.6122 124.78 52.6122 126.72ZM61.8859 126.98C61.8859 123.94 63.8259 121.8 66.6059 121.8C69.3859 121.8 71.3259 123.94 71.3259 126.98V127.36H63.3259C63.4459 129.52 64.7059 130.86 66.6059 130.86C68.0859 130.86 69.1459 130.08 69.5659 128.72L70.9459 128.96C70.3859 130.9 68.7659 132.16 66.6059 132.16C63.8259 132.16 61.8859 130.02 61.8859 126.98ZM66.6059 123.1C64.8259 123.1 63.6059 124.28 63.3659 126.2H69.8659C69.6259 124.26 68.3859 123.1 66.6059 123.1ZM75.4644 122H81.6844V130.82H82.9044V134.2H81.4844V132H74.0044V134.2H72.5844V130.82H73.1244C74.1244 130.82 74.5444 130.14 74.6644 129.1L75.4644 122ZM75.9844 129.24C75.9044 129.86 75.7444 130.38 75.4844 130.82H80.2644V123.18H76.6844L75.9844 129.24ZM87.3678 122H93.5878V132H92.1678V123.18H88.5878L87.8878 129.24C87.6878 130.9 86.8078 132 85.1878 132H84.2078V130.82H85.0278C86.0278 130.82 86.4478 130.14 86.5678 129.1L87.3678 122ZM103.777 132H102.557C102.417 131.5 102.317 131 102.257 130.5C101.577 131.48 100.577 132.18 99.1369 132.18C97.0569 132.18 95.5969 130.92 95.5969 129.12C95.5969 127.32 97.0769 126.38 99.6569 126.08L102.257 125.78V125.18C102.257 123.94 101.337 123.1 100.017 123.1C98.7569 123.1 97.8369 123.6 97.4969 124.6L96.1169 124.36C96.6169 122.76 98.0769 121.8 100.017 121.8C102.237 121.8 103.677 123.26 103.677 125.48V129.2C103.677 130.54 103.697 131.28 103.777 132ZM99.2569 130.92C101.117 130.92 102.257 129.7 102.257 127.98V126.9L99.6369 127.22C98.0169 127.42 97.0169 128.02 97.0169 129.12C97.0169 130.16 97.9369 130.92 99.2569 130.92ZM106.075 122H112.915V123.18H107.495V132H106.075V122ZM122.781 132H121.561C121.421 131.5 121.321 131 121.261 130.5C120.581 131.48 119.581 132.18 118.141 132.18C116.061 132.18 114.601 130.92 114.601 129.12C114.601 127.32 116.081 126.38 118.661 126.08L121.261 125.78V125.18C121.261 123.94 120.341 123.1 119.021 123.1C117.761 123.1 116.841 123.6 116.501 124.6L115.121 124.36C115.621 122.76 117.081 121.8 119.021 121.8C121.241 121.8 122.681 123.26 122.681 125.48V129.2C122.681 130.54 122.701 131.28 122.781 132ZM118.261 130.92C120.121 130.92 121.261 129.7 121.261 127.98V126.9L118.641 127.22C117.021 127.42 116.021 128.02 116.021 129.12C116.021 130.16 116.941 130.92 118.261 130.92ZM124.679 126.98C124.679 123.94 126.619 121.8 129.399 121.8C132.179 121.8 134.119 123.94 134.119 126.98V127.36H126.119C126.239 129.52 127.499 130.86 129.399 130.86C130.879 130.86 131.939 130.08 132.359 128.72L133.739 128.96C133.179 130.9 131.559 132.16 129.399 132.16C126.619 132.16 124.679 130.02 124.679 126.98ZM129.399 123.1C127.619 123.1 126.399 124.28 126.159 126.2H132.659C132.419 124.26 131.179 123.1 129.399 123.1ZM135.657 123.18V122H143.897V123.18H140.477V132H139.057V123.18H135.657ZM153.637 122H159.857V132H158.437V123.18H154.857L154.157 129.24C153.957 130.9 153.077 132 151.457 132H150.477V130.82H151.297C152.297 130.82 152.717 130.14 152.837 129.1L153.637 122ZM165.266 132.72L165.546 132L161.666 122H163.106L166.206 130.22L169.346 122H170.766L166.586 132.8C165.986 134.38 165.326 136.18 163.066 136.18C162.666 136.18 162.226 136.14 161.746 136.04V134.78C162.226 134.9 162.626 134.94 162.946 134.94C164.406 134.94 164.886 133.78 165.266 132.72ZM179.999 122V132H178.579V127.68C177.879 128.46 176.759 128.96 175.699 128.96C173.639 128.96 172.359 127.54 172.359 125.3V122H173.779V125.3C173.779 126.76 174.559 127.68 175.819 127.68C177.439 127.68 178.579 126.64 178.579 125.14V122H179.999ZM194.526 132H182.266V122H183.686V130.82H187.686V122H189.106V130.82H193.106V122H194.526V132ZM196.934 122H198.354V129.94L203.754 122H205.174V132H203.754V124.06L198.354 132H196.934V122ZM210.839 126.86L207.279 122H208.919L211.619 125.88L214.299 122H215.939L212.399 126.86L216.139 132H214.499L211.619 127.86L208.719 132H207.079L210.839 126.86ZM24.6808 148.18V147H32.9208V148.18H29.5008V157H28.0808V148.18H24.6808ZM42.7808 157H41.5608C41.4208 156.5 41.3208 156 41.2608 155.5C40.5808 156.48 39.5808 157.18 38.1408 157.18C36.0608 157.18 34.6008 155.92 34.6008 154.12C34.6008 152.32 36.0808 151.38 38.6608 151.08L41.2608 150.78V150.18C41.2608 148.94 40.3408 148.1 39.0208 148.1C37.7608 148.1 36.8408 148.6 36.5008 149.6L35.1208 149.36C35.6208 147.76 37.0808 146.8 39.0208 146.8C41.2408 146.8 42.6808 148.26 42.6808 150.48V154.2C42.6808 155.54 42.7008 156.28 42.7808 157ZM38.2608 155.92C40.1208 155.92 41.2608 154.7 41.2608 152.98V151.9L38.6408 152.22C37.0208 152.42 36.0208 153.02 36.0208 154.12C36.0208 155.16 36.9408 155.92 38.2608 155.92ZM47.7389 147H53.9589V157H52.5389V148.18H48.9589L48.2589 154.24C48.0589 155.9 47.1789 157 45.5589 157H44.5789V155.82H45.3989C46.3989 155.82 46.8189 155.14 46.9389 154.1L47.7389 147ZM64.148 157H62.928C62.788 156.5 62.688 156 62.628 155.5C61.948 156.48 60.948 157.18 59.508 157.18C57.428 157.18 55.968 155.92 55.968 154.12C55.968 152.32 57.448 151.38 60.028 151.08L62.628 150.78V150.18C62.628 148.94 61.708 148.1 60.388 148.1C59.128 148.1 58.208 148.6 57.868 149.6L56.488 149.36C56.988 147.76 58.448 146.8 60.388 146.8C62.608 146.8 64.048 148.26 64.048 150.48V154.2C64.048 155.54 64.068 156.28 64.148 157ZM59.628 155.92C61.488 155.92 62.628 154.7 62.628 152.98V151.9L60.008 152.22C58.388 152.42 57.388 153.02 57.388 154.12C57.388 155.16 58.308 155.92 59.628 155.92ZM66.4461 147H67.8661V151.4H73.2661V147H74.6861V157H73.2661V152.58H67.8661V157H66.4461V147ZM76.7706 148.18V147H85.0106V148.18H81.5906V157H80.1706V148.18H76.7706ZM96.1306 151.98C96.1306 155.02 94.1906 157.16 91.4106 157.16C88.6306 157.16 86.6906 155.02 86.6906 151.98C86.6906 148.94 88.6306 146.8 91.4106 146.8C94.1906 146.8 96.1306 148.94 96.1306 151.98ZM88.1106 151.98C88.1106 154.38 89.4106 155.9 91.4106 155.9C93.4106 155.9 94.7106 154.38 94.7106 151.98C94.7106 149.6 93.4106 148.1 91.4106 148.1C89.4106 148.1 88.1106 149.6 88.1106 151.98ZM98.1258 147H102.766C104.446 147 105.626 148.16 105.626 149.8C105.626 150.58 105.166 151.42 104.526 151.84C105.486 152.24 106.166 153.22 106.166 154.2C106.166 155.84 104.866 157 103.006 157H98.1258V147ZM99.5458 152.6V155.82H102.826C103.946 155.82 104.726 155.16 104.726 154.2C104.726 153.26 103.946 152.6 102.826 152.6H99.5458ZM99.5458 148.18V151.4H102.586C103.526 151.4 104.186 150.74 104.186 149.8C104.186 148.84 103.526 148.18 102.586 148.18H99.5458Z" fill="black" fill-opacity="0.9"/>
<mask id="path-3-inside-1_849_13864" fill="white">
<path d="M159.801 56C159.801 33.9086 177.709 16 199.801 16C221.892 16 239.801 33.9086 239.801 56C239.801 78.0914 221.892 96 199.801 96C177.709 96 159.801 78.0914 159.801 56Z"/>
</mask>
<path d="M199.801 94C178.814 94 161.801 76.9868 161.801 56H157.801C157.801 79.196 176.605 98 199.801 98V94ZM237.801 56C237.801 76.9868 220.788 94 199.801 94V98C222.997 98 241.801 79.196 241.801 56H237.801ZM199.801 18C220.788 18 237.801 35.0132 237.801 56H241.801C241.801 32.804 222.997 14 199.801 14V18ZM199.801 14C176.605 14 157.801 32.804 157.801 56H161.801C161.801 35.0132 178.814 18 199.801 18V14Z" fill="url(#paint1_linear_849_13864)" mask="url(#path-3-inside-1_849_13864)"/>
<path fill-rule="evenodd" clip-rule="evenodd" d="M209.508 49.2929C209.898 49.6834 209.898 50.3166 209.508 50.7071L198.508 61.7071C198.117 62.0976 197.484 62.0976 197.094 61.7071L191.094 55.7071C190.703 55.3166 190.703 54.6834 191.094 54.2929C191.484 53.9024 192.117 53.9024 192.508 54.2929L197.801 59.5858L208.094 49.2929C208.484 48.9024 209.117 48.9024 209.508 49.2929Z" fill="url(#paint2_linear_849_13864)" stroke="url(#paint3_linear_849_13864)" stroke-linecap="round" stroke-linejoin="round"/>
<path fill-rule="evenodd" clip-rule="evenodd" d="M120 0C128 0 132 16 144 16H96C108 16 112 0 120 0Z" fill="url(#paint4_linear_849_13864)"/>
<rect x="249.199" y="17" width="238.2" height="172" rx="39" fill="white"/>
<rect x="249.199" y="17" width="238.2" height="172" rx="39" stroke="url(#paint5_linear_849_13864)" stroke-width="2"/>
<path d="M273.4 57V43H284.34V57H282.86V44.32H274.88V57H273.4ZM288.35 55.62V61H286.93V49.8C286.93 48.46 286.91 47.72 286.83 47H288.05C288.17 47.44 288.29 48.06 288.35 48.5C289.13 47.52 290.29 46.8 291.65 46.8C294.23 46.8 296.03 48.96 296.03 52.02C296.03 55.06 294.23 57.2 291.65 57.2C290.33 57.2 289.15 56.64 288.35 55.62ZM288.35 51.72V52.38C288.35 54.22 289.43 55.9 291.37 55.9C293.39 55.9 294.61 54.4 294.61 52.02C294.61 49.6 293.39 48.06 291.37 48.06C289.51 48.06 288.35 49.78 288.35 51.72ZM307.064 51.98C307.064 55.02 305.124 57.16 302.344 57.16C299.564 57.16 297.624 55.02 297.624 51.98C297.624 48.94 299.564 46.8 302.344 46.8C305.124 46.8 307.064 48.94 307.064 51.98ZM299.044 51.98C299.044 54.38 300.344 55.9 302.344 55.9C304.344 55.9 305.644 54.38 305.644 51.98C305.644 49.6 304.344 48.1 302.344 48.1C300.344 48.1 299.044 49.6 299.044 51.98ZM309.059 47H313.699C315.379 47 316.559 48.16 316.559 49.8C316.559 50.58 316.099 51.42 315.459 51.84C316.419 52.24 317.099 53.22 317.099 54.2C317.099 55.84 315.799 57 313.939 57H309.059V47ZM310.479 52.6V55.82H313.759C314.879 55.82 315.659 55.16 315.659 54.2C315.659 53.26 314.879 52.6 313.759 52.6H310.479ZM310.479 48.18V51.4H313.519C314.459 51.4 315.119 50.74 315.119 49.8C315.119 48.84 314.459 48.18 313.519 48.18H310.479ZM328.041 51.98C328.041 55.02 326.101 57.16 323.321 57.16C320.541 57.16 318.601 55.02 318.601 51.98C318.601 48.94 320.541 46.8 323.321 46.8C326.101 46.8 328.041 48.94 328.041 51.98ZM320.021 51.98C320.021 54.38 321.321 55.9 323.321 55.9C325.321 55.9 326.621 54.38 326.621 51.98C326.621 49.6 325.321 48.1 323.321 48.1C321.321 48.1 320.021 49.6 320.021 51.98ZM332.316 47H338.536V55.82H339.756V59.2H338.336V57H330.856V59.2H329.436V55.82H329.976C330.976 55.82 331.396 55.14 331.516 54.1L332.316 47ZM332.836 54.24C332.756 54.86 332.596 55.38 332.336 55.82H337.116V48.18H333.536L332.836 54.24ZM341.559 47H342.979V54.94L348.379 47H349.799V57H348.379V49.06L342.979 57H341.559V47ZM351.884 48.18V47H360.124V48.18H356.704V57H355.284V48.18H351.884ZM362.804 57H361.984V55.3H363.804V57C363.804 58.62 362.724 59.3 361.624 59.3V58.5C362.444 58.5 362.804 57.98 362.804 57ZM274.62 80.62V86H273.2V74.8C273.2 73.46 273.18 72.72 273.1 72H274.32C274.44 72.44 274.56 73.06 274.62 73.5C275.4 72.52 276.56 71.8 277.92 71.8C280.5 71.8 282.3 73.96 282.3 77.02C282.3 80.06 280.5 82.2 277.92 82.2C276.6 82.2 275.42 81.64 274.62 80.62ZM274.62 76.72V77.38C274.62 79.22 275.7 80.9 277.64 80.9C279.66 80.9 280.88 79.4 280.88 77.02C280.88 74.6 279.66 73.06 277.64 73.06C275.78 73.06 274.62 74.78 274.62 76.72ZM292.074 82H290.854C290.714 81.5 290.614 81 290.554 80.5C289.874 81.48 288.874 82.18 287.434 82.18C285.354 82.18 283.894 80.92 283.894 79.12C283.894 77.32 285.374 76.38 287.954 76.08L290.554 75.78V75.18C290.554 73.94 289.634 73.1 288.314 73.1C287.054 73.1 286.134 73.6 285.794 74.6L284.414 74.36C284.914 72.76 286.374 71.8 288.314 71.8C290.534 71.8 291.974 73.26 291.974 75.48V79.2C291.974 80.54 291.994 81.28 292.074 82ZM287.554 80.92C289.414 80.92 290.554 79.7 290.554 77.98V76.9L287.934 77.22C286.314 77.42 285.314 78.02 285.314 79.12C285.314 80.16 286.234 80.92 287.554 80.92ZM293.972 76.98C293.972 73.94 295.912 71.8 298.692 71.8C300.852 71.8 302.472 73.1 303.032 75.08L301.652 75.32C301.252 73.92 300.172 73.1 298.692 73.1C296.692 73.1 295.392 74.6 295.392 76.98C295.392 79.36 296.692 80.86 298.692 80.86C300.172 80.86 301.232 80.08 301.652 78.72L303.032 78.96C302.472 80.9 300.852 82.16 298.692 82.16C295.912 82.16 293.972 80.02 293.972 76.98ZM317.159 82H304.899V72H306.319V80.82H310.319V72H311.739V80.82H315.739V72H317.159V82ZM319.567 72H320.987V79.94L326.387 72H327.807V82H326.387V74.06L320.987 82H319.567V72ZM335.072 86V82.14C331.752 81.9 329.692 79.96 329.692 76.98C329.692 74 331.752 72.06 335.072 71.82V68H336.492V71.82C339.812 72.06 341.852 74 341.852 76.98C341.852 79.96 339.812 81.9 336.492 82.14V86H335.072ZM331.092 77C331.092 79.2 332.612 80.64 335.072 80.86V73.14C332.612 73.36 331.092 74.8 331.092 77ZM340.452 77C340.452 74.8 338.952 73.36 336.492 73.14V80.86C338.952 80.64 340.452 79.2 340.452 77ZM345.167 80.62V86H343.747V74.8C343.747 73.46 343.727 72.72 343.647 72H344.867C344.987 72.44 345.107 73.06 345.167 73.5C345.947 72.52 347.107 71.8 348.467 71.8C351.047 71.8 352.847 73.96 352.847 77.02C352.847 80.06 351.047 82.2 348.467 82.2C347.147 82.2 345.967 81.64 345.167 80.62ZM345.167 76.72V77.38C345.167 79.22 346.247 80.9 348.187 80.9C350.207 80.9 351.427 79.4 351.427 77.02C351.427 74.6 350.207 73.06 348.187 73.06C346.327 73.06 345.167 74.78 345.167 76.72ZM363.881 76.98C363.881 80.02 361.941 82.16 359.161 82.16C356.381 82.16 354.441 80.02 354.441 76.98C354.441 73.94 356.381 71.8 359.161 71.8C361.941 71.8 363.881 73.94 363.881 76.98ZM355.861 76.98C355.861 79.38 357.161 80.9 359.161 80.9C361.161 80.9 362.461 79.38 362.461 76.98C362.461 74.6 361.161 73.1 359.161 73.1C357.161 73.1 355.861 74.6 355.861 76.98ZM365.876 77.5V76.32H371.896V77.5H365.876ZM273.2 97H277.84C279.52 97 280.7 98.16 280.7 99.8C280.7 100.58 280.24 101.42 279.6 101.84C280.56 102.24 281.24 103.22 281.24 104.2C281.24 105.84 279.94 107 278.08 107H273.2V97ZM274.62 102.6V105.82H277.9C279.02 105.82 279.8 105.16 279.8 104.2C279.8 103.26 279.02 102.6 277.9 102.6H274.62ZM274.62 98.18V101.4H277.66C278.6 101.4 279.26 100.74 279.26 99.8C279.26 98.84 278.6 98.18 277.66 98.18H274.62ZM283.141 97H284.561V100.82H287.641C289.741 100.82 290.801 102.36 290.801 103.9C290.801 105.46 289.741 107 287.641 107H283.141V97ZM284.561 102V105.82H287.461C288.721 105.82 289.361 104.86 289.361 103.9C289.361 102.94 288.741 102 287.461 102H284.561ZM292.681 107V97H294.101V107H292.681ZM296.501 97H301.141C302.821 97 304.001 98.16 304.001 99.8C304.001 100.58 303.541 101.42 302.901 101.84C303.861 102.24 304.541 103.22 304.541 104.2C304.541 105.84 303.241 107 301.381 107H296.501V97ZM297.921 102.6V105.82H301.201C302.321 105.82 303.101 105.16 303.101 104.2C303.101 103.26 302.321 102.6 301.201 102.6H297.921ZM297.921 98.18V101.4H300.961C301.901 101.4 302.561 100.74 302.561 99.8C302.561 98.84 301.901 98.18 300.961 98.18H297.921ZM314.222 107H313.002C312.862 106.5 312.762 106 312.702 105.5C312.022 106.48 311.022 107.18 309.582 107.18C307.502 107.18 306.042 105.92 306.042 104.12C306.042 102.32 307.522 101.38 310.102 101.08L312.702 100.78V100.18C312.702 98.94 311.782 98.1 310.462 98.1C309.202 98.1 308.282 98.6 307.942 99.6L306.562 99.36C307.062 97.76 308.522 96.8 310.462 96.8C312.682 96.8 314.122 98.26 314.122 100.48V104.2C314.122 105.54 314.142 106.28 314.222 107ZM309.702 105.92C311.562 105.92 312.702 104.7 312.702 102.98V101.9L310.082 102.22C308.462 102.42 307.462 103.02 307.462 104.12C307.462 105.16 308.382 105.92 309.702 105.92ZM316.12 101.98C316.12 98.94 318.06 96.8 320.84 96.8C323.62 96.8 325.56 98.94 325.56 101.98V102.36H317.56C317.68 104.52 318.94 105.86 320.84 105.86C322.32 105.86 323.38 105.08 323.8 103.72L325.18 103.96C324.62 105.9 323 107.16 320.84 107.16C318.06 107.16 316.12 105.02 316.12 101.98ZM320.84 98.1C319.06 98.1 317.84 99.28 317.6 101.2H324.1C323.86 99.26 322.62 98.1 320.84 98.1ZM327.099 98.18V97H335.339V98.18H331.919V107H330.499V98.18H327.099ZM342.419 97H343.839V104.94L349.239 97H350.659V107H349.239V99.06L343.839 107H342.419V97ZM353.063 97H354.483V101.4H359.883V97H361.303V107H359.883V102.58H354.483V107H353.063V97ZM363.388 98.18V97H371.628V98.18H368.208V107H366.788V98.18H363.388ZM373.308 101.98C373.308 98.94 375.248 96.8 378.028 96.8C380.808 96.8 382.748 98.94 382.748 101.98V102.36H374.748C374.868 104.52 376.128 105.86 378.028 105.86C379.508 105.86 380.568 105.08 380.988 103.72L382.368 103.96C381.808 105.9 380.188 107.16 378.028 107.16C375.248 107.16 373.308 105.02 373.308 101.98ZM378.028 98.1C376.248 98.1 375.028 99.28 374.788 101.2H381.288C381.048 99.26 379.808 98.1 378.028 98.1ZM386.026 105.62V111H384.606V99.8C384.606 98.46 384.586 97.72 384.506 97H385.726C385.846 97.44 385.966 98.06 386.026 98.5C386.806 97.52 387.966 96.8 389.326 96.8C391.906 96.8 393.706 98.96 393.706 102.02C393.706 105.06 391.906 107.2 389.326 107.2C388.006 107.2 386.826 106.64 386.026 105.62ZM386.026 101.72V102.38C386.026 104.22 387.106 105.9 389.046 105.9C391.066 105.9 392.286 104.4 392.286 102.02C392.286 99.6 391.066 98.06 389.046 98.06C387.186 98.06 386.026 99.78 386.026 101.72ZM395.7 97H400.34C402.02 97 403.2 98.16 403.2 99.8C403.2 100.58 402.74 101.42 402.1 101.84C403.06 102.24 403.74 103.22 403.74 104.2C403.74 105.84 402.44 107 400.58 107H395.7V97ZM397.12 102.6V105.82H400.4C401.52 105.82 402.3 105.16 402.3 104.2C402.3 103.26 401.52 102.6 400.4 102.6H397.12ZM397.12 98.18V101.4H400.16C401.1 101.4 401.76 100.74 401.76 99.8C401.76 98.84 401.1 98.18 400.16 98.18H397.12ZM405.641 97H407.061V100.82H410.141C412.241 100.82 413.301 102.36 413.301 103.9C413.301 105.46 412.241 107 410.141 107H405.641V97ZM407.061 102V105.82H409.961C411.221 105.82 411.861 104.86 411.861 103.9C411.861 102.94 411.241 102 409.961 102H407.061ZM415.173 97H416.593V101.4H418.493C418.733 98.68 420.593 96.8 423.193 96.8C425.973 96.8 427.913 98.94 427.913 101.98C427.913 105.02 425.973 107.16 423.193 107.16C420.593 107.16 418.733 105.3 418.493 102.58H416.593V107H415.173V97ZM419.893 101.98C419.893 104.38 421.193 105.9 423.193 105.9C425.193 105.9 426.493 104.38 426.493 101.98C426.493 99.6 425.193 98.1 423.193 98.1C421.193 98.1 419.893 99.6 419.893 101.98ZM273.2 122H274.62V129.94L280.02 122H281.44V132H280.02V124.06L274.62 132H273.2V122ZM297.885 126.98C297.885 130.02 295.945 132.16 293.165 132.16C290.385 132.16 288.445 130.02 288.445 126.98C288.445 123.94 290.385 121.8 293.165 121.8C295.945 121.8 297.885 123.94 297.885 126.98ZM289.865 126.98C289.865 129.38 291.165 130.9 293.165 130.9C295.165 130.9 296.465 129.38 296.465 126.98C296.465 124.6 295.165 123.1 293.165 123.1C291.165 123.1 289.865 124.6 289.865 126.98ZM308.12 122V130.82H309.6V134.2H308.18V132H299.88V122H301.3V130.82H306.7V122H308.12ZM311.003 126.98C311.003 123.94 312.943 121.8 315.723 121.8C318.503 121.8 320.443 123.94 320.443 126.98V127.36H312.443C312.563 129.52 313.823 130.86 315.723 130.86C317.203 130.86 318.263 130.08 318.683 128.72L320.063 128.96C319.503 130.9 317.883 132.16 315.723 132.16C312.943 132.16 311.003 130.02 311.003 126.98ZM315.723 123.1C313.943 123.1 312.723 124.28 312.483 126.2H318.983C318.743 124.26 317.503 123.1 315.723 123.1ZM322.302 122H323.722V126.4H329.122V122H330.542V132H329.122V127.58H323.722V132H322.302V122ZM332.946 122H334.366V129.94L339.766 122H341.186V132H339.766V124.06L334.366 132H332.946V122ZM343.591 122H348.231C349.911 122 351.091 123.16 351.091 124.8C351.091 125.58 350.631 126.42 349.991 126.84C350.951 127.24 351.631 128.22 351.631 129.2C351.631 130.84 350.331 132 348.471 132H343.591V122ZM345.011 127.6V130.82H348.291C349.411 130.82 350.191 130.16 350.191 129.2C350.191 128.26 349.411 127.6 348.291 127.6H345.011ZM345.011 123.18V126.4H348.051C348.991 126.4 349.651 125.74 349.651 124.8C349.651 123.84 348.991 123.18 348.051 123.18H345.011ZM361.312 132H360.092C359.952 131.5 359.852 131 359.792 130.5C359.112 131.48 358.112 132.18 356.672 132.18C354.592 132.18 353.132 130.92 353.132 129.12C353.132 127.32 354.612 126.38 357.192 126.08L359.792 125.78V125.18C359.792 123.94 358.872 123.1 357.552 123.1C356.292 123.1 355.372 123.6 355.032 124.6L353.652 124.36C354.152 122.76 355.612 121.8 357.552 121.8C359.772 121.8 361.212 123.26 361.212 125.48V129.2C361.212 130.54 361.232 131.28 361.312 132ZM356.792 130.92C358.652 130.92 359.792 129.7 359.792 127.98V126.9L357.172 127.22C355.552 127.42 354.552 128.02 354.552 129.12C354.552 130.16 355.472 130.92 356.792 130.92ZM363.21 126.98C363.21 123.94 365.15 121.8 367.93 121.8C370.71 121.8 372.65 123.94 372.65 126.98V127.36H364.65C364.77 129.52 366.03 130.86 367.93 130.86C369.41 130.86 370.47 130.08 370.89 128.72L372.27 128.96C371.71 130.9 370.09 132.16 367.93 132.16C365.15 132.16 363.21 130.02 363.21 126.98ZM367.93 123.1C366.15 123.1 364.93 124.28 364.69 126.2H371.19C370.95 124.26 369.71 123.1 367.93 123.1ZM374.189 123.18V122H382.429V123.18H379.009V132H377.589V123.18H374.189ZM273.2 157V147H274.62V151.72L279.1 147H280.78L277.06 150.96L281.34 157H279.68L276.12 151.96L274.62 153.56V157H273.2ZM290.824 157H289.604C289.464 156.5 289.364 156 289.304 155.5C288.624 156.48 287.624 157.18 286.184 157.18C284.104 157.18 282.644 155.92 282.644 154.12C282.644 152.32 284.124 151.38 286.704 151.08L289.304 150.78V150.18C289.304 148.94 288.384 148.1 287.064 148.1C285.804 148.1 284.884 148.6 284.544 149.6L283.164 149.36C283.664 147.76 285.124 146.8 287.064 146.8C289.284 146.8 290.724 148.26 290.724 150.48V154.2C290.724 155.54 290.744 156.28 290.824 157ZM286.304 155.92C288.164 155.92 289.304 154.7 289.304 152.98V151.9L286.684 152.22C285.064 152.42 284.064 153.02 284.064 154.12C284.064 155.16 284.984 155.92 286.304 155.92ZM293.122 147H294.542V151.4H299.942V147H301.362V157H299.942V152.58H294.542V157H293.122V147ZM306.046 147H312.266V155.82H313.486V159.2H312.066V157H304.586V159.2H303.166V155.82H303.706C304.706 155.82 305.126 155.14 305.246 154.1L306.046 147ZM306.566 154.24C306.486 154.86 306.326 155.38 306.066 155.82H310.846V148.18H307.266L306.566 154.24ZM315.29 147H316.71V154.94L322.11 147H323.53V157H322.11V149.06L316.71 157H315.29V147ZM328.214 147H334.434V155.82H335.654V159.2H334.234V157H326.754V159.2H325.334V155.82H325.874C326.874 155.82 327.294 155.14 327.414 154.1L328.214 147ZM328.734 154.24C328.654 154.86 328.494 155.38 328.234 155.82H333.014V148.18H329.434L328.734 154.24ZM345.238 157H344.018C343.878 156.5 343.778 156 343.718 155.5C343.038 156.48 342.038 157.18 340.598 157.18C338.518 157.18 337.058 155.92 337.058 154.12C337.058 152.32 338.538 151.38 341.118 151.08L343.718 150.78V150.18C343.718 148.94 342.798 148.1 341.478 148.1C340.218 148.1 339.298 148.6 338.958 149.6L337.578 149.36C338.078 147.76 339.538 146.8 341.478 146.8C343.698 146.8 345.138 148.26 345.138 150.48V154.2C345.138 155.54 345.158 156.28 345.238 157ZM340.718 155.92C342.578 155.92 343.718 154.7 343.718 152.98V151.9L341.098 152.22C339.478 152.42 338.478 153.02 338.478 154.12C338.478 155.16 339.398 155.92 340.718 155.92ZM347.216 148.18V147H355.456V148.18H352.036V157H350.616V148.18H347.216ZM366.576 151.98C366.576 155.02 364.636 157.16 361.856 157.16C359.076 157.16 357.136 155.02 357.136 151.98C357.136 148.94 359.076 146.8 361.856 146.8C364.636 146.8 366.576 148.94 366.576 151.98ZM358.556 151.98C358.556 154.38 359.856 155.9 361.856 155.9C363.856 155.9 365.156 154.38 365.156 151.98C365.156 149.6 363.856 148.1 361.856 148.1C359.856 148.1 358.556 149.6 358.556 151.98ZM368.571 147H373.211C374.891 147 376.071 148.16 376.071 149.8C376.071 150.58 375.611 151.42 374.971 151.84C375.931 152.24 376.611 153.22 376.611 154.2C376.611 155.84 375.311 157 373.451 157H368.571V147ZM369.991 152.6V155.82H373.271C374.391 155.82 375.171 155.16 375.171 154.2C375.171 153.26 374.391 152.6 373.271 152.6H369.991ZM369.991 148.18V151.4H373.031C373.971 151.4 374.631 150.74 374.631 149.8C374.631 148.84 373.971 148.18 373.031 148.18H369.991Z" fill="black" fill-opacity="0.9"/>
<mask id="path-10-inside-2_849_13864" fill="white">
<path d="M408 56C408 33.9086 425.909 16 448 16C470.091 16 488 33.9086 488 56C488 78.0914 470.091 96 448 96C425.909 96 408 78.0914 408 56Z"/>
</mask>
<path d="M448 94C427.013 94 410 76.9868 410 56H406C406 79.196 424.804 98 448 98V94ZM486 56C486 76.9868 468.987 94 448 94V98C471.196 98 490 79.196 490 56H486ZM448 18C468.987 18 486 35.0132 486 56H490C490 32.804 471.196 14 448 14V18ZM448 14C424.804 14 406 32.804 406 56H410C410 35.0132 427.013 18 448 18V14Z" fill="url(#paint6_linear_849_13864)" mask="url(#path-10-inside-2_849_13864)"/>
<path fill-rule="evenodd" clip-rule="evenodd" d="M457.707 49.2929C458.098 49.6834 458.098 50.3166 457.707 50.7071L446.707 61.7071C446.317 62.0976 445.683 62.0976 445.293 61.7071L439.293 55.7071C438.902 55.3166 438.902 54.6834 439.293 54.2929C439.683 53.9024 440.317 53.9024 440.707 54.2929L446 59.5858L456.293 49.2929C456.683 48.9024 457.317 48.9024 457.707 49.2929Z" fill="url(#paint7_linear_849_13864)" stroke="url(#paint8_linear_849_13864)" stroke-linecap="round" stroke-linejoin="round"/>
<path fill-rule="evenodd" clip-rule="evenodd" d="M368.002 0C376.002 0 380.002 16 392.002 16H344.002C356.002 16 360.002 0 368.002 0Z" fill="url(#paint9_linear_849_13864)"/>
<rect x="497.4" y="17" width="238.2" height="172" rx="39" fill="white"/>
<rect x="497.4" y="17" width="238.2" height="172" rx="39" stroke="url(#paint10_linear_849_13864)" stroke-width="2"/>
<path d="M524.161 49.14H526.481C527.981 49.14 529.041 48.14 529.041 46.7C529.041 45.24 527.961 44.22 526.261 44.22C524.501 44.22 523.261 45.22 522.821 46.8L521.401 46.3C522.041 44.18 523.821 42.84 526.301 42.84C528.861 42.84 530.561 44.42 530.561 46.68C530.561 48.08 529.841 49.18 528.661 49.78C530.081 50.34 530.981 51.56 530.981 53.16C530.981 55.54 529.141 57.2 526.421 57.2C523.761 57.2 521.761 55.74 521.081 53.46L522.501 52.96C522.981 54.7 524.441 55.82 526.381 55.82C528.141 55.82 529.461 54.74 529.461 53.14C529.461 51.6 528.321 50.52 526.701 50.52H524.161V49.14ZM533.179 47H534.599V51.4H539.999V47H541.419V57H539.999V52.58H534.599V57H533.179V47ZM551.603 57H550.383C550.243 56.5 550.143 56 550.083 55.5C549.403 56.48 548.403 57.18 546.963 57.18C544.883 57.18 543.423 55.92 543.423 54.12C543.423 52.32 544.903 51.38 547.483 51.08L550.083 50.78V50.18C550.083 48.94 549.163 48.1 547.843 48.1C546.583 48.1 545.663 48.6 545.323 49.6L543.943 49.36C544.443 47.76 545.903 46.8 547.843 46.8C550.063 46.8 551.503 48.26 551.503 50.48V54.2C551.503 55.54 551.523 56.28 551.603 57ZM547.083 55.92C548.943 55.92 550.083 54.7 550.083 52.98V51.9L547.463 52.22C545.843 52.42 544.843 53.02 544.843 54.12C544.843 55.16 545.763 55.92 547.083 55.92ZM553.501 51.98C553.501 48.94 555.441 46.8 558.221 46.8C561.001 46.8 562.941 48.94 562.941 51.98V52.36H554.941C555.061 54.52 556.321 55.86 558.221 55.86C559.701 55.86 560.761 55.08 561.181 53.72L562.561 53.96C562.001 55.9 560.381 57.16 558.221 57.16C555.441 57.16 553.501 55.02 553.501 51.98ZM558.221 48.1C556.441 48.1 555.221 49.28 554.981 51.2H561.481C561.241 49.26 560.001 48.1 558.221 48.1ZM564.48 48.18V47H572.72V48.18H569.3V57H567.88V48.18H564.48ZM521.401 72H522.821V76.4H528.221V72H529.641V82H528.221V77.58H522.821V82H521.401V72ZM531.646 76.98C531.646 73.94 533.586 71.8 536.366 71.8C539.146 71.8 541.086 73.94 541.086 76.98V77.36H533.086C533.206 79.52 534.466 80.86 536.366 80.86C537.846 80.86 538.906 80.08 539.326 78.72L540.706 78.96C540.146 80.9 538.526 82.16 536.366 82.16C533.586 82.16 531.646 80.02 531.646 76.98ZM536.366 73.1C534.586 73.1 533.366 74.28 533.126 76.2H539.626C539.386 74.26 538.146 73.1 536.366 73.1ZM551.984 76.98C551.984 80.02 550.044 82.16 547.264 82.16C544.484 82.16 542.544 80.02 542.544 76.98C542.544 73.94 544.484 71.8 547.264 71.8C550.044 71.8 551.984 73.94 551.984 76.98ZM543.964 76.98C543.964 79.38 545.264 80.9 547.264 80.9C549.264 80.9 550.564 79.38 550.564 76.98C550.564 74.6 549.264 73.1 547.264 73.1C545.264 73.1 543.964 74.6 543.964 76.98ZM554.999 76.52V76.88C554.999 79.3 556.119 80.84 558.139 80.84C560.159 80.84 561.259 79.3 561.259 76.88C561.259 74.5 560.039 73 558.019 73C556.079 73 554.999 74.68 554.999 76.52ZM553.579 76.66V73.82C553.579 70.28 555.539 68.2 558.859 67.9C559.779 67.82 560.679 67.74 561.599 67.26V68.48C560.679 68.96 559.779 69.04 558.859 69.12C556.299 69.34 554.999 71 554.999 73.1V73.28C555.799 72.26 556.979 71.7 558.299 71.7C560.879 71.7 562.679 73.84 562.679 76.88C562.679 79.94 560.959 82.1 558.139 82.1C555.319 82.1 553.579 80 553.579 76.66ZM567.942 76.86L564.382 72H566.022L568.722 75.88L571.402 72H573.042L569.502 76.86L573.242 82H571.602L568.722 77.86L565.822 82H564.182L567.942 76.86ZM584.172 76.98C584.172 80.02 582.232 82.16 579.452 82.16C576.672 82.16 574.732 80.02 574.732 76.98C574.732 73.94 576.672 71.8 579.452 71.8C582.232 71.8 584.172 73.94 584.172 76.98ZM576.152 76.98C576.152 79.38 577.452 80.9 579.452 80.9C581.452 80.9 582.752 79.38 582.752 76.98C582.752 74.6 581.452 73.1 579.452 73.1C577.452 73.1 576.152 74.6 576.152 76.98ZM588.447 72H594.667V80.82H595.887V84.2H594.467V82H586.987V84.2H585.567V80.82H586.107C587.107 80.82 587.527 80.14 587.647 79.1L588.447 72ZM588.967 79.24C588.887 79.86 588.727 80.38 588.467 80.82H593.247V73.18H589.667L588.967 79.24ZM597.69 72H599.11V79.94L604.51 72H605.93V82H604.51V74.06L599.11 82H597.69V72ZM614.175 82H613.075L609.755 74.3V82H608.335V72H610.075L613.635 80.24L617.175 72H618.915V82H617.495V74.3L614.175 82ZM621.323 72H622.743V75.82H625.823C627.923 75.82 628.983 77.36 628.983 78.9C628.983 80.46 627.923 82 625.823 82H621.323V72ZM622.743 77V80.82H625.643C626.903 80.82 627.543 79.86 627.543 78.9C627.543 77.94 626.923 77 625.643 77H622.743ZM630.863 82V72H632.283V82H630.863ZM634.282 76.98C634.282 73.94 636.222 71.8 639.002 71.8C641.782 71.8 643.722 73.94 643.722 76.98V77.36H635.722C635.842 79.52 637.102 80.86 639.002 80.86C640.482 80.86 641.542 80.08 641.962 78.72L643.342 78.96C642.782 80.9 641.162 82.16 639.002 82.16C636.222 82.16 634.282 80.02 634.282 76.98ZM639.002 73.1C637.222 73.1 636.002 74.28 635.762 76.2H642.262C642.022 74.26 640.782 73.1 639.002 73.1ZM521.401 97H522.821V101.4H528.221V97H529.641V107H528.221V102.58H522.821V107H521.401V97ZM539.826 107H538.606C538.466 106.5 538.366 106 538.306 105.5C537.626 106.48 536.626 107.18 535.186 107.18C533.106 107.18 531.646 105.92 531.646 104.12C531.646 102.32 533.126 101.38 535.706 101.08L538.306 100.78V100.18C538.306 98.94 537.386 98.1 536.066 98.1C534.806 98.1 533.886 98.6 533.546 99.6L532.166 99.36C532.666 97.76 534.126 96.8 536.066 96.8C538.286 96.8 539.726 98.26 539.726 100.48V104.2C539.726 105.54 539.746 106.28 539.826 107ZM535.306 105.92C537.166 105.92 538.306 104.7 538.306 102.98V101.9L535.686 102.22C534.066 102.42 533.066 103.02 533.066 104.12C533.066 105.16 533.986 105.92 535.306 105.92ZM542.124 97H546.764C548.444 97 549.624 98.16 549.624 99.8C549.624 100.58 549.164 101.42 548.524 101.84C549.484 102.24 550.164 103.22 550.164 104.2C550.164 105.84 548.864 107 547.004 107H542.124V97ZM543.544 102.6V105.82H546.824C547.944 105.82 548.724 105.16 548.724 104.2C548.724 103.26 547.944 102.6 546.824 102.6H543.544ZM543.544 98.18V101.4H546.584C547.524 101.4 548.184 100.74 548.184 99.8C548.184 98.84 547.524 98.18 546.584 98.18H543.544ZM552.065 97H553.485V100.82H556.565C558.665 100.82 559.725 102.36 559.725 103.9C559.725 105.46 558.665 107 556.565 107H552.065V97ZM553.485 102V105.82H556.385C557.645 105.82 558.285 104.86 558.285 103.9C558.285 102.94 557.665 102 556.385 102H553.485ZM561.605 107V97H563.025V107H561.605ZM565.425 107V97H566.845V101.72L571.325 97H573.005L569.285 100.96L573.565 107H571.905L568.345 101.96L566.845 103.56V107H565.425ZM575.268 97H576.688V104.94L582.088 97H583.508V107H582.088V99.06L576.688 107H575.268V97ZM590.913 97H599.153V107H597.733V98.18H592.333V107H590.913V97ZM610.5 101.98C610.5 105.02 608.56 107.16 605.78 107.16C603 107.16 601.06 105.02 601.06 101.98C601.06 98.94 603 96.8 605.78 96.8C608.56 96.8 610.5 98.94 610.5 101.98ZM602.48 101.98C602.48 104.38 603.78 105.9 605.78 105.9C607.78 105.9 609.08 104.38 609.08 101.98C609.08 99.6 607.78 98.1 605.78 98.1C603.78 98.1 602.48 99.6 602.48 101.98ZM617.495 107V97H618.915V101.72L623.395 97H625.075L621.355 100.96L625.635 107H623.975L620.415 101.96L618.915 103.56V107H617.495ZM635.119 107H633.899C633.759 106.5 633.659 106 633.599 105.5C632.919 106.48 631.919 107.18 630.479 107.18C628.399 107.18 626.939 105.92 626.939 104.12C626.939 102.32 628.419 101.38 630.999 101.08L633.599 100.78V100.18C633.599 98.94 632.679 98.1 631.359 98.1C630.099 98.1 629.179 98.6 628.839 99.6L627.459 99.36C627.959 97.76 629.419 96.8 631.359 96.8C633.579 96.8 635.019 98.26 635.019 100.48V104.2C635.019 105.54 635.039 106.28 635.119 107ZM630.599 105.92C632.459 105.92 633.599 104.7 633.599 102.98V101.9L630.979 102.22C629.359 102.42 628.359 103.02 628.359 104.12C628.359 105.16 629.279 105.92 630.599 105.92ZM642.997 107V103.7L641.457 101.9L638.357 107H636.717L640.537 100.8L637.297 97H638.937L642.997 101.8V97H644.417V101.8L648.477 97H650.117L646.877 100.8L650.697 107H649.057L645.957 101.9L644.417 103.7V107H642.997ZM654.677 97H660.897V105.82H662.117V109.2H660.697V107H653.217V109.2H651.797V105.82H652.337C653.337 105.82 653.757 105.14 653.877 104.1L654.677 97ZM655.197 104.24C655.117 104.86 654.957 105.38 654.697 105.82H659.477V98.18H655.897L655.197 104.24ZM672.961 101.98C672.961 105.02 671.021 107.16 668.241 107.16C665.461 107.16 663.521 105.02 663.521 101.98C663.521 98.94 665.461 96.8 668.241 96.8C671.021 96.8 672.961 98.94 672.961 101.98ZM664.941 101.98C664.941 104.38 666.241 105.9 668.241 105.9C670.241 105.9 671.541 104.38 671.541 101.98C671.541 99.6 670.241 98.1 668.241 98.1C666.241 98.1 664.941 99.6 664.941 101.98ZM674.956 97H676.376V104.94L681.776 97H683.196V107H681.776V99.06L676.376 107H674.956V97ZM679.076 96.2C677.676 96.2 676.576 95.14 676.576 93.8H677.596C677.596 94.52 678.256 95.12 679.076 95.12C679.876 95.12 680.536 94.52 680.536 93.8H681.556C681.556 95.14 680.456 96.2 679.076 96.2ZM521.401 122H529.641V132H528.221V123.18H522.821V132H521.401V122ZM533.368 130.62V136H531.948V124.8C531.948 123.46 531.928 122.72 531.848 122H533.068C533.188 122.44 533.308 123.06 533.368 123.5C534.148 122.52 535.308 121.8 536.668 121.8C539.248 121.8 541.048 123.96 541.048 127.02C541.048 130.06 539.248 132.2 536.668 132.2C535.348 132.2 534.168 131.64 533.368 130.62ZM533.368 126.72V127.38C533.368 129.22 534.448 130.9 536.388 130.9C538.408 130.9 539.628 129.4 539.628 127.02C539.628 124.6 538.408 123.06 536.388 123.06C534.528 123.06 533.368 124.78 533.368 126.72ZM552.082 126.98C552.082 130.02 550.142 132.16 547.362 132.16C544.582 132.16 542.642 130.02 542.642 126.98C542.642 123.94 544.582 121.8 547.362 121.8C550.142 121.8 552.082 123.94 552.082 126.98ZM544.062 126.98C544.062 129.38 545.362 130.9 547.362 130.9C549.362 130.9 550.662 129.38 550.662 126.98C550.662 124.6 549.362 123.1 547.362 123.1C545.362 123.1 544.062 124.6 544.062 126.98ZM558.937 136V132.14C555.617 131.9 553.557 129.96 553.557 126.98C553.557 124 555.617 122.06 558.937 121.82V118H560.357V121.82C563.677 122.06 565.717 124 565.717 126.98C565.717 129.96 563.677 131.9 560.357 132.14V136H558.937ZM554.957 127C554.957 129.2 556.477 130.64 558.937 130.86V123.14C556.477 123.36 554.957 124.8 554.957 127ZM564.317 127C564.317 124.8 562.817 123.36 560.357 123.14V130.86C562.817 130.64 564.317 129.2 564.317 127ZM567.212 126.98C567.212 123.94 569.152 121.8 571.932 121.8C574.712 121.8 576.652 123.94 576.652 126.98V127.36H568.652C568.772 129.52 570.032 130.86 571.932 130.86C573.412 130.86 574.472 130.08 574.892 128.72L576.272 128.96C575.712 130.9 574.092 132.16 571.932 132.16C569.152 132.16 567.212 130.02 567.212 126.98ZM571.932 123.1C570.152 123.1 568.932 124.28 568.692 126.2H575.192C574.952 124.26 573.712 123.1 571.932 123.1ZM578.111 126.98C578.111 123.94 580.051 121.8 582.831 121.8C584.991 121.8 586.611 123.1 587.171 125.08L585.791 125.32C585.391 123.92 584.311 123.1 582.831 123.1C580.831 123.1 579.531 124.6 579.531 126.98C579.531 129.36 580.831 130.86 582.831 130.86C584.311 130.86 585.371 130.08 585.791 128.72L587.171 128.96C586.611 130.9 584.991 132.16 582.831 132.16C580.051 132.16 578.111 130.02 578.111 126.98ZM588.638 126.98C588.638 123.94 590.578 121.8 593.358 121.8C595.518 121.8 597.138 123.1 597.698 125.08L596.318 125.32C595.918 123.92 594.838 123.1 593.358 123.1C591.358 123.1 590.058 124.6 590.058 126.98C590.058 129.36 591.358 130.86 593.358 130.86C594.838 130.86 595.898 130.08 596.318 128.72L597.698 128.96C597.138 130.9 595.518 132.16 593.358 132.16C590.578 132.16 588.638 130.02 588.638 126.98ZM599.565 122H600.985V129.94L606.385 122H607.805V132H606.385V124.06L600.985 132H599.565V122ZM610.21 122H611.63V129.94L617.03 122H618.45V132H617.03V124.06L611.63 132H610.21V122ZM621.454 132H620.634V130.3H622.454V132C622.454 133.62 621.374 134.3 620.274 134.3V133.5C621.094 133.5 621.454 132.98 621.454 132ZM629.682 122H637.922V132H636.502V123.18H631.102V132H629.682V122ZM641.649 130.62V136H640.229V124.8C640.229 123.46 640.209 122.72 640.129 122H641.349C641.469 122.44 641.589 123.06 641.649 123.5C642.429 122.52 643.589 121.8 644.949 121.8C647.529 121.8 649.329 123.96 649.329 127.02C649.329 130.06 647.529 132.2 644.949 132.2C643.629 132.2 642.449 131.64 641.649 130.62ZM641.649 126.72V127.38C641.649 129.22 642.729 130.9 644.669 130.9C646.689 130.9 647.909 129.4 647.909 127.02C647.909 124.6 646.689 123.06 644.669 123.06C642.809 123.06 641.649 124.78 641.649 126.72ZM660.363 126.98C660.363 130.02 658.423 132.16 655.643 132.16C652.863 132.16 650.923 130.02 650.923 126.98C650.923 123.94 652.863 121.8 655.643 121.8C658.423 121.8 660.363 123.94 660.363 126.98ZM652.343 126.98C652.343 129.38 653.643 130.9 655.643 130.9C657.643 130.9 658.943 129.38 658.943 126.98C658.943 124.6 657.643 123.1 655.643 123.1C653.643 123.1 652.343 124.6 652.343 126.98ZM662.358 122H666.998C668.678 122 669.858 123.16 669.858 124.8C669.858 125.58 669.398 126.42 668.758 126.84C669.718 127.24 670.398 128.22 670.398 129.2C670.398 130.84 669.098 132 667.238 132H662.358V122ZM663.778 127.6V130.82H667.058C668.178 130.82 668.958 130.16 668.958 129.2C668.958 128.26 668.178 127.6 667.058 127.6H663.778ZM663.778 123.18V126.4H666.818C667.758 126.4 668.418 125.74 668.418 124.8C668.418 123.84 667.758 123.18 666.818 123.18H663.778ZM681.34 126.98C681.34 130.02 679.4 132.16 676.62 132.16C673.84 132.16 671.9 130.02 671.9 126.98C671.9 123.94 673.84 121.8 676.62 121.8C679.4 121.8 681.34 123.94 681.34 126.98ZM673.32 126.98C673.32 129.38 674.62 130.9 676.62 130.9C678.62 130.9 679.92 129.38 679.92 126.98C679.92 124.6 678.62 123.1 676.62 123.1C674.62 123.1 673.32 124.6 673.32 126.98ZM685.615 122H691.835V130.82H693.055V134.2H691.635V132H684.155V134.2H682.735V130.82H683.275C684.275 130.82 684.695 130.14 684.815 129.1L685.615 122ZM686.135 129.24C686.055 129.86 685.895 130.38 685.635 130.82H690.415V123.18H686.835L686.135 129.24ZM694.858 122H696.278V129.94L701.678 122H703.098V132H701.678V124.06L696.278 132H694.858V122ZM705.183 123.18V122H713.423V123.18H710.003V132H708.583V123.18H705.183ZM521.081 148.18V147H529.321V148.18H525.901V157H524.481V148.18H521.081ZM531.001 151.98C531.001 148.94 532.941 146.8 535.721 146.8C538.501 146.8 540.441 148.94 540.441 151.98V152.36H532.441C532.561 154.52 533.821 155.86 535.721 155.86C537.201 155.86 538.261 155.08 538.681 153.72L540.061 153.96C539.501 155.9 537.881 157.16 535.721 157.16C532.941 157.16 531.001 155.02 531.001 151.98ZM535.721 148.1C533.941 148.1 532.721 149.28 532.481 151.2H538.981C538.741 149.26 537.501 148.1 535.721 148.1ZM541.9 151.98C541.9 148.94 543.84 146.8 546.62 146.8C548.78 146.8 550.4 148.1 550.96 150.08L549.58 150.32C549.18 148.92 548.1 148.1 546.62 148.1C544.62 148.1 543.32 149.6 543.32 151.98C543.32 154.36 544.62 155.86 546.62 155.86C548.1 155.86 549.16 155.08 549.58 153.72L550.96 153.96C550.4 155.9 548.78 157.16 546.62 157.16C543.84 157.16 541.9 155.02 541.9 151.98ZM552.507 148.18V147H560.747V148.18H557.327V157H555.907V148.18H552.507ZM562.827 147H564.247V154.94L569.647 147H571.067V157H569.647V149.06L564.247 157H562.827V147ZM574.891 155.62V161H573.471V149.8C573.471 148.46 573.451 147.72 573.371 147H574.591C574.711 147.44 574.831 148.06 574.891 148.5C575.671 147.52 576.831 146.8 578.191 146.8C580.771 146.8 582.571 148.96 582.571 152.02C582.571 155.06 580.771 157.2 578.191 157.2C576.871 157.2 575.691 156.64 574.891 155.62ZM574.891 151.72V152.38C574.891 154.22 575.971 155.9 577.911 155.9C579.931 155.9 581.151 154.4 581.151 152.02C581.151 149.6 579.931 148.06 577.911 148.06C576.051 148.06 574.891 149.78 574.891 151.72ZM593.605 151.98C593.605 155.02 591.665 157.16 588.885 157.16C586.105 157.16 584.165 155.02 584.165 151.98C584.165 148.94 586.105 146.8 588.885 146.8C591.665 146.8 593.605 148.94 593.605 151.98ZM585.585 151.98C585.585 154.38 586.885 155.9 588.885 155.9C590.885 155.9 592.185 154.38 592.185 151.98C592.185 149.6 590.885 148.1 588.885 148.1C586.885 148.1 585.585 149.6 585.585 151.98ZM595.6 147H600.24C601.92 147 603.1 148.16 603.1 149.8C603.1 150.58 602.64 151.42 602 151.84C602.96 152.24 603.64 153.22 603.64 154.2C603.64 155.84 602.34 157 600.48 157H595.6V147ZM597.02 152.6V155.82H600.3C601.42 155.82 602.2 155.16 602.2 154.2C602.2 153.26 601.42 152.6 600.3 152.6H597.02ZM597.02 148.18V151.4H600.06C601 151.4 601.66 150.74 601.66 149.8C601.66 148.84 601 148.18 600.06 148.18H597.02ZM613.322 157H612.102C611.962 156.5 611.862 156 611.802 155.5C611.122 156.48 610.122 157.18 608.682 157.18C606.602 157.18 605.142 155.92 605.142 154.12C605.142 152.32 606.622 151.38 609.202 151.08L611.802 150.78V150.18C611.802 148.94 610.882 148.1 609.562 148.1C608.302 148.1 607.382 148.6 607.042 149.6L605.662 149.36C606.162 147.76 607.622 146.8 609.562 146.8C611.782 146.8 613.222 148.26 613.222 150.48V154.2C613.222 155.54 613.242 156.28 613.322 157ZM608.802 155.92C610.662 155.92 611.802 154.7 611.802 152.98V151.9L609.182 152.22C607.562 152.42 606.562 153.02 606.562 154.12C606.562 155.16 607.482 155.92 608.802 155.92ZM615.62 147H617.04V151.4H622.44V147H623.86V157H622.44V152.58H617.04V157H615.62V147ZM626.264 147H627.684V154.94L633.084 147H634.504V157H633.084V149.06L627.684 157H626.264V147ZM636.509 151.98C636.509 148.94 638.449 146.8 641.229 146.8C644.009 146.8 645.949 148.94 645.949 151.98V152.36H637.949C638.069 154.52 639.329 155.86 641.229 155.86C642.709 155.86 643.769 155.08 644.189 153.72L645.569 153.96C645.009 155.9 643.389 157.16 641.229 157.16C638.449 157.16 636.509 155.02 636.509 151.98ZM641.229 148.1C639.449 148.1 638.229 149.28 637.989 151.2H644.489C644.249 149.26 643.009 148.1 641.229 148.1Z" fill="black" fill-opacity="0.9"/>
<mask id="path-17-inside-3_849_13864" fill="white">
<path d="M656.201 56C656.201 33.9086 674.11 16 696.201 16C718.293 16 736.201 33.9086 736.201 56C736.201 78.0914 718.293 96 696.201 96C674.11 96 656.201 78.0914 656.201 56Z"/>
</mask>
<path d="M696.201 94C675.214 94 658.201 76.9868 658.201 56H654.201C654.201 79.196 673.005 98 696.201 98V94ZM734.201 56C734.201 76.9868 717.188 94 696.201 94V98C719.397 98 738.201 79.196 738.201 56H734.201ZM696.201 18C717.188 18 734.201 35.0132 734.201 56H738.201C738.201 32.804 719.397 14 696.201 14V18ZM696.201 14C673.005 14 654.201 32.804 654.201 56H658.201C658.201 35.0132 675.214 18 696.201 18V14Z" fill="url(#paint11_linear_849_13864)" mask="url(#path-17-inside-3_849_13864)"/>
<path fill-rule="evenodd" clip-rule="evenodd" d="M705.908 49.2929C706.299 49.6834 706.299 50.3166 705.908 50.7071L694.908 61.7071C694.518 62.0976 693.885 62.0976 693.494 61.7071L687.494 55.7071C687.104 55.3166 687.104 54.6834 687.494 54.2929C687.885 53.9024 688.518 53.9024 688.908 54.2929L694.201 59.5858L704.494 49.2929C704.885 48.9024 705.518 48.9024 705.908 49.2929Z" fill="url(#paint12_linear_849_13864)" stroke="url(#paint13_linear_849_13864)" stroke-linecap="round" stroke-linejoin="round"/>
<path fill-rule="evenodd" clip-rule="evenodd" d="M616 0C624 0 628 16 640 16H592C604 16 608 0 616 0Z" fill="url(#paint14_linear_849_13864)"/>
<rect x="745.6" y="17" width="238.2" height="172" rx="39" fill="white"/>
<rect x="745.6" y="17" width="238.2" height="172" rx="39" stroke="url(#paint15_linear_849_13864)" stroke-width="2"/>
<path d="M769.6 50.02C769.6 45.8 772.3 42.84 776.12 42.84C779.06 42.84 781.22 44.42 782.02 46.94L780.6 47.44C780.04 45.42 778.4 44.22 776.12 44.22C773.18 44.22 771.12 46.62 771.12 50.02C771.12 53.42 773.18 55.82 776.12 55.82C778.56 55.82 780.2 54.46 780.6 52.2L782.02 52.7C781.38 55.46 779.22 57.2 776.12 57.2C772.3 57.2 769.6 54.24 769.6 50.02ZM785.434 55.62V61H784.014V49.8C784.014 48.46 783.994 47.72 783.914 47H785.134C785.254 47.44 785.374 48.06 785.434 48.5C786.214 47.52 787.374 46.8 788.734 46.8C791.314 46.8 793.114 48.96 793.114 52.02C793.114 55.06 791.314 57.2 788.734 57.2C787.414 57.2 786.234 56.64 785.434 55.62ZM785.434 51.72V52.38C785.434 54.22 786.514 55.9 788.454 55.9C790.474 55.9 791.694 54.4 791.694 52.02C791.694 49.6 790.474 48.06 788.454 48.06C786.594 48.06 785.434 49.78 785.434 51.72ZM802.888 57H801.668C801.528 56.5 801.428 56 801.368 55.5C800.688 56.48 799.688 57.18 798.248 57.18C796.168 57.18 794.708 55.92 794.708 54.12C794.708 52.32 796.188 51.38 798.768 51.08L801.368 50.78V50.18C801.368 48.94 800.448 48.1 799.128 48.1C797.868 48.1 796.948 48.6 796.608 49.6L795.228 49.36C795.728 47.76 797.188 46.8 799.128 46.8C801.348 46.8 802.788 48.26 802.788 50.48V54.2C802.788 55.54 802.808 56.28 802.888 57ZM798.368 55.92C800.228 55.92 801.368 54.7 801.368 52.98V51.9L798.748 52.22C797.128 52.42 796.128 53.02 796.128 54.12C796.128 55.16 797.048 55.92 798.368 55.92ZM805.186 47H809.826C811.506 47 812.686 48.16 812.686 49.8C812.686 50.58 812.226 51.42 811.586 51.84C812.546 52.24 813.226 53.22 813.226 54.2C813.226 55.84 811.926 57 810.066 57H805.186V47ZM806.606 52.6V55.82H809.886C811.006 55.82 811.786 55.16 811.786 54.2C811.786 53.26 811.006 52.6 809.886 52.6H806.606ZM806.606 48.18V51.4H809.646C810.586 51.4 811.246 50.74 811.246 49.8C811.246 48.84 810.586 48.18 809.646 48.18H806.606ZM815.128 47H816.548V51.4H821.948V47H823.368V57H821.948V52.58H816.548V57H815.128V47ZM825.772 47H827.192V54.94L832.592 47H834.012V57H832.592V49.06L827.192 57H825.772V47ZM836.417 47H841.057C842.737 47 843.917 48.16 843.917 49.8C843.917 50.58 843.457 51.42 842.817 51.84C843.777 52.24 844.457 53.22 844.457 54.2C844.457 55.84 843.157 57 841.297 57H836.417V47ZM837.837 52.6V55.82H841.117C842.237 55.82 843.017 55.16 843.017 54.2C843.017 53.26 842.237 52.6 841.117 52.6H837.837ZM837.837 48.18V51.4H840.877C841.817 51.4 842.477 50.74 842.477 49.8C842.477 48.84 841.817 48.18 840.877 48.18H837.837ZM854.138 57H852.918C852.778 56.5 852.678 56 852.618 55.5C851.938 56.48 850.938 57.18 849.498 57.18C847.418 57.18 845.958 55.92 845.958 54.12C845.958 52.32 847.438 51.38 850.018 51.08L852.618 50.78V50.18C852.618 48.94 851.698 48.1 850.378 48.1C849.118 48.1 848.198 48.6 847.858 49.6L846.478 49.36C846.978 47.76 848.438 46.8 850.378 46.8C852.598 46.8 854.038 48.26 854.038 50.48V54.2C854.038 55.54 854.058 56.28 854.138 57ZM849.618 55.92C851.478 55.92 852.618 54.7 852.618 52.98V51.9L849.998 52.22C848.378 52.42 847.378 53.02 847.378 54.12C847.378 55.16 848.298 55.92 849.618 55.92ZM856.036 51.98C856.036 48.94 857.976 46.8 860.756 46.8C863.536 46.8 865.476 48.94 865.476 51.98V52.36H857.476C857.596 54.52 858.856 55.86 860.756 55.86C862.236 55.86 863.296 55.08 863.716 53.72L865.096 53.96C864.536 55.9 862.916 57.16 860.756 57.16C857.976 57.16 856.036 55.02 856.036 51.98ZM860.756 48.1C858.976 48.1 857.756 49.28 857.516 51.2H864.016C863.776 49.26 862.536 48.1 860.756 48.1ZM867.015 48.18V47H875.255V48.18H871.835V57H870.415V48.18H867.015ZM769.6 82V72H771.02V76.72L775.5 72H777.18L773.46 75.96L777.74 82H776.08L772.52 76.96L771.02 78.56V82H769.6ZM787.224 82H786.004C785.864 81.5 785.764 81 785.704 80.5C785.024 81.48 784.024 82.18 782.584 82.18C780.504 82.18 779.044 80.92 779.044 79.12C779.044 77.32 780.524 76.38 783.104 76.08L785.704 75.78V75.18C785.704 73.94 784.784 73.1 783.464 73.1C782.204 73.1 781.284 73.6 780.944 74.6L779.564 74.36C780.064 72.76 781.524 71.8 783.464 71.8C785.684 71.8 787.124 73.26 787.124 75.48V79.2C787.124 80.54 787.144 81.28 787.224 82ZM782.704 80.92C784.564 80.92 785.704 79.7 785.704 77.98V76.9L783.084 77.22C781.464 77.42 780.464 78.02 780.464 79.12C780.464 80.16 781.384 80.92 782.704 80.92ZM789.522 72H790.942V76.4H796.342V72H797.762V82H796.342V77.58H790.942V82H789.522V72ZM802.447 72H808.667V80.82H809.887V84.2H808.467V82H800.987V84.2H799.567V80.82H800.107C801.107 80.82 801.527 80.14 801.647 79.1L802.447 72ZM802.967 79.24C802.887 79.86 802.727 80.38 802.467 80.82H807.247V73.18H803.667L802.967 79.24ZM811.69 72H813.11V79.94L818.51 72H819.93V82H818.51V74.06L813.11 82H811.69V72ZM824.615 72H830.835V80.82H832.055V84.2H830.635V82H823.155V84.2H821.735V80.82H822.275C823.275 80.82 823.695 80.14 823.815 79.1L824.615 72ZM825.135 79.24C825.055 79.86 824.895 80.38 824.635 80.82H829.415V73.18H825.835L825.135 79.24ZM841.638 82H840.418C840.278 81.5 840.178 81 840.118 80.5C839.438 81.48 838.438 82.18 836.998 82.18C834.918 82.18 833.458 80.92 833.458 79.12C833.458 77.32 834.938 76.38 837.518 76.08L840.118 75.78V75.18C840.118 73.94 839.198 73.1 837.878 73.1C836.618 73.1 835.698 73.6 835.358 74.6L833.978 74.36C834.478 72.76 835.938 71.8 837.878 71.8C840.098 71.8 841.538 73.26 841.538 75.48V79.2C841.538 80.54 841.558 81.28 841.638 82ZM837.118 80.92C838.978 80.92 840.118 79.7 840.118 77.98V76.9L837.498 77.22C835.878 77.42 834.878 78.02 834.878 79.12C834.878 80.16 835.798 80.92 837.118 80.92ZM843.616 73.18V72H851.856V73.18H848.436V82H847.016V73.18H843.616ZM862.976 76.98C862.976 80.02 861.036 82.16 858.256 82.16C855.476 82.16 853.536 80.02 853.536 76.98C853.536 73.94 855.476 71.8 858.256 71.8C861.036 71.8 862.976 73.94 862.976 76.98ZM854.956 76.98C854.956 79.38 856.256 80.9 858.256 80.9C860.256 80.9 861.556 79.38 861.556 76.98C861.556 74.6 860.256 73.1 858.256 73.1C856.256 73.1 854.956 74.6 854.956 76.98ZM864.971 72H869.611C871.291 72 872.471 73.16 872.471 74.8C872.471 75.58 872.011 76.42 871.371 76.84C872.331 77.24 873.011 78.22 873.011 79.2C873.011 80.84 871.711 82 869.851 82H864.971V72ZM866.391 77.6V80.82H869.671C870.791 80.82 871.571 80.16 871.571 79.2C871.571 78.26 870.791 77.6 869.671 77.6H866.391ZM866.391 73.18V76.4H869.431C870.371 76.4 871.031 75.74 871.031 74.8C871.031 73.84 870.371 73.18 869.431 73.18H866.391ZM769.6 97H777.84V107H776.42V98.18H771.02V107H769.6V97ZM789.187 101.98C789.187 105.02 787.247 107.16 784.467 107.16C781.687 107.16 779.747 105.02 779.747 101.98C779.747 98.94 781.687 96.8 784.467 96.8C787.247 96.8 789.187 98.94 789.187 101.98ZM781.167 101.98C781.167 104.38 782.467 105.9 784.467 105.9C786.467 105.9 787.767 104.38 787.767 101.98C787.767 99.6 786.467 98.1 784.467 98.1C782.467 98.1 781.167 99.6 781.167 101.98ZM796.182 107V97H797.602V101.72L802.082 97H803.762L800.042 100.96L804.322 107H802.662L799.102 101.96L797.602 103.56V107H796.182ZM813.806 107H812.586C812.446 106.5 812.346 106 812.286 105.5C811.606 106.48 810.606 107.18 809.166 107.18C807.086 107.18 805.626 105.92 805.626 104.12C805.626 102.32 807.106 101.38 809.686 101.08L812.286 100.78V100.18C812.286 98.94 811.366 98.1 810.046 98.1C808.786 98.1 807.866 98.6 807.526 99.6L806.146 99.36C806.646 97.76 808.106 96.8 810.046 96.8C812.266 96.8 813.706 98.26 813.706 100.48V104.2C813.706 105.54 813.726 106.28 813.806 107ZM809.286 105.92C811.146 105.92 812.286 104.7 812.286 102.98V101.9L809.666 102.22C808.046 102.42 807.046 103.02 807.046 104.12C807.046 105.16 807.966 105.92 809.286 105.92ZM817.524 105.62V111H816.104V99.8C816.104 98.46 816.084 97.72 816.004 97H817.224C817.344 97.44 817.464 98.06 817.524 98.5C818.304 97.52 819.464 96.8 820.824 96.8C823.404 96.8 825.204 98.96 825.204 102.02C825.204 105.06 823.404 107.2 820.824 107.2C819.504 107.2 818.324 106.64 817.524 105.62ZM817.524 101.72V102.38C817.524 104.22 818.604 105.9 820.544 105.9C822.564 105.9 823.784 104.4 823.784 102.02C823.784 99.6 822.564 98.06 820.544 98.06C818.684 98.06 817.524 99.78 817.524 101.72ZM826.878 98.18V97H835.118V98.18H831.698V107H830.278V98.18H826.878ZM836.798 101.98C836.798 98.94 838.738 96.8 841.518 96.8C844.298 96.8 846.238 98.94 846.238 101.98V102.36H838.238C838.358 104.52 839.618 105.86 841.518 105.86C842.998 105.86 844.058 105.08 844.478 103.72L845.858 103.96C845.298 105.9 843.678 107.16 841.518 107.16C838.738 107.16 836.798 105.02 836.798 101.98ZM841.518 98.1C839.738 98.1 838.518 99.28 838.278 101.2H844.778C844.538 99.26 843.298 98.1 841.518 98.1ZM853.096 97H854.516V101.4H859.916V97H861.336V107H859.916V102.58H854.516V107H853.096V97ZM871.521 107H870.301C870.161 106.5 870.061 106 870.001 105.5C869.321 106.48 868.321 107.18 866.881 107.18C864.801 107.18 863.341 105.92 863.341 104.12C863.341 102.32 864.821 101.38 867.401 101.08L870.001 100.78V100.18C870.001 98.94 869.081 98.1 867.761 98.1C866.501 98.1 865.581 98.6 865.241 99.6L863.861 99.36C864.361 97.76 865.821 96.8 867.761 96.8C869.981 96.8 871.421 98.26 871.421 100.48V104.2C871.421 105.54 871.441 106.28 871.521 107ZM867.001 105.92C868.861 105.92 870.001 104.7 870.001 102.98V101.9L867.381 102.22C865.761 102.42 864.761 103.02 864.761 104.12C864.761 105.16 865.681 105.92 867.001 105.92ZM873.819 97H878.459C880.139 97 881.319 98.16 881.319 99.8C881.319 100.58 880.859 101.42 880.219 101.84C881.179 102.24 881.859 103.22 881.859 104.2C881.859 105.84 880.559 107 878.699 107H873.819V97ZM875.239 102.6V105.82H878.519C879.639 105.82 880.419 105.16 880.419 104.2C880.419 103.26 879.639 102.6 878.519 102.6H875.239ZM875.239 98.18V101.4H878.279C879.219 101.4 879.879 100.74 879.879 99.8C879.879 98.84 879.219 98.18 878.279 98.18H875.239ZM883.761 97H885.181V100.82H888.261C890.361 100.82 891.421 102.36 891.421 103.9C891.421 105.46 890.361 107 888.261 107H883.761V97ZM885.181 102V105.82H888.081C889.341 105.82 889.981 104.86 889.981 103.9C889.981 102.94 889.361 102 888.081 102H885.181ZM893.301 107V97H894.721V107H893.301ZM897.12 107V97H898.54V101.72L903.02 97H904.7L900.98 100.96L905.26 107H903.6L900.04 101.96L898.54 103.56V107H897.12ZM916.004 101.98C916.004 105.02 914.064 107.16 911.284 107.16C908.504 107.16 906.564 105.02 906.564 101.98C906.564 98.94 908.504 96.8 911.284 96.8C914.064 96.8 916.004 98.94 916.004 101.98ZM907.984 101.98C907.984 104.38 909.284 105.9 911.284 105.9C913.284 105.9 914.584 104.38 914.584 101.98C914.584 99.6 913.284 98.1 911.284 98.1C909.284 98.1 907.984 99.6 907.984 101.98ZM917.999 97H922.639C924.319 97 925.499 98.16 925.499 99.8C925.499 100.58 925.039 101.42 924.399 101.84C925.359 102.24 926.039 103.22 926.039 104.2C926.039 105.84 924.739 107 922.879 107H917.999V97ZM919.419 102.6V105.82H922.699C923.819 105.82 924.599 105.16 924.599 104.2C924.599 103.26 923.819 102.6 922.699 102.6H919.419ZM919.419 98.18V101.4H922.459C923.399 101.4 924.059 100.74 924.059 99.8C924.059 98.84 923.399 98.18 922.459 98.18H919.419ZM928.54 107H927.72V105.3H929.54V107C929.54 108.62 928.46 109.3 927.36 109.3V108.5C928.18 108.5 928.54 107.98 928.54 107ZM771.02 130.62V136H769.6V124.8C769.6 123.46 769.58 122.72 769.5 122H770.72C770.84 122.44 770.96 123.06 771.02 123.5C771.8 122.52 772.96 121.8 774.32 121.8C776.9 121.8 778.7 123.96 778.7 127.02C778.7 130.06 776.9 132.2 774.32 132.2C773 132.2 771.82 131.64 771.02 130.62ZM771.02 126.72V127.38C771.02 129.22 772.1 130.9 774.04 130.9C776.06 130.9 777.28 129.4 777.28 127.02C777.28 124.6 776.06 123.06 774.04 123.06C772.18 123.06 771.02 124.78 771.02 126.72ZM780.294 126.98C780.294 123.94 782.234 121.8 785.014 121.8C787.794 121.8 789.734 123.94 789.734 126.98V127.36H781.734C781.854 129.52 783.114 130.86 785.014 130.86C786.494 130.86 787.554 130.08 787.974 128.72L789.354 128.96C788.794 130.9 787.174 132.16 785.014 132.16C782.234 132.16 780.294 130.02 780.294 126.98ZM785.014 123.1C783.234 123.1 782.014 124.28 781.774 126.2H788.274C788.034 124.26 786.794 123.1 785.014 123.1ZM795.033 127.46H794.033V126.3H795.033C796.333 126.3 797.453 125.6 797.453 124.54C797.453 123.7 796.573 123.1 795.313 123.1C794.053 123.1 793.133 123.7 792.793 124.7L791.413 124.46C791.913 122.86 793.373 121.8 795.313 121.8C797.393 121.8 798.853 122.94 798.853 124.54C798.853 125.74 798.213 126.4 797.333 126.82C798.373 127.28 799.133 127.96 799.133 129.32C799.133 130.82 797.713 132.2 795.413 132.2C793.213 132.2 791.613 130.98 791.073 129.12L792.453 128.88C792.833 130.16 793.893 130.9 795.413 130.9C796.773 130.9 797.733 130.18 797.733 129.32C797.733 128.22 796.673 127.46 795.033 127.46ZM801.241 122H802.661V126.4H804.561C804.801 123.68 806.661 121.8 809.261 121.8C812.041 121.8 813.981 123.94 813.981 126.98C813.981 130.02 812.041 132.16 809.261 132.16C806.661 132.16 804.801 130.3 804.561 127.58H802.661V132H801.241V122ZM805.961 126.98C805.961 129.38 807.261 130.9 809.261 130.9C811.261 130.9 812.561 129.38 812.561 126.98C812.561 124.6 811.261 123.1 809.261 123.1C807.261 123.1 805.961 124.6 805.961 126.98ZM821.827 132H820.727L817.407 124.3V132H815.987V122H817.727L821.287 130.24L824.827 122H826.567V132H825.147V124.3L821.827 132ZM828.575 126.98C828.575 123.94 830.515 121.8 833.295 121.8C836.075 121.8 838.015 123.94 838.015 126.98V127.36H830.015C830.135 129.52 831.395 130.86 833.295 130.86C834.775 130.86 835.835 130.08 836.255 128.72L837.635 128.96C837.075 130.9 835.455 132.16 833.295 132.16C830.515 132.16 828.575 130.02 828.575 126.98ZM833.295 123.1C831.515 123.1 830.295 124.28 830.055 126.2H836.555C836.315 124.26 835.075 123.1 833.295 123.1ZM844.874 122H846.294V129.94L851.694 122H853.114V132H851.694V124.06L846.294 132H844.874V122ZM869.558 126.98C869.558 130.02 867.618 132.16 864.838 132.16C862.058 132.16 860.118 130.02 860.118 126.98C860.118 123.94 862.058 121.8 864.838 121.8C867.618 121.8 869.558 123.94 869.558 126.98ZM861.538 126.98C861.538 129.38 862.838 130.9 864.838 130.9C866.838 130.9 868.138 129.38 868.138 126.98C868.138 124.6 866.838 123.1 864.838 123.1C862.838 123.1 861.538 124.6 861.538 126.98ZM879.794 122V130.82H881.274V134.2H879.854V132H871.554V122H872.974V130.82H878.374V122H879.794ZM882.677 126.98C882.677 123.94 884.617 121.8 887.397 121.8C890.177 121.8 892.117 123.94 892.117 126.98V127.36H884.117C884.237 129.52 885.497 130.86 887.397 130.86C888.877 130.86 889.937 130.08 890.357 128.72L891.737 128.96C891.177 130.9 889.557 132.16 887.397 132.16C884.617 132.16 882.677 130.02 882.677 126.98ZM887.397 123.1C885.617 123.1 884.397 124.28 884.157 126.2H890.657C890.417 124.26 889.177 123.1 887.397 123.1ZM893.975 122H895.395V126.4H900.795V122H902.215V132H900.795V127.58H895.395V132H893.975V122ZM904.62 132V122H906.04V126.72L910.52 122H912.2L908.48 125.96L912.76 132H911.1L907.54 126.96L906.04 128.56V132H904.62ZM922.244 132H921.024C920.884 131.5 920.784 131 920.724 130.5C920.044 131.48 919.044 132.18 917.604 132.18C915.524 132.18 914.064 130.92 914.064 129.12C914.064 127.32 915.544 126.38 918.124 126.08L920.724 125.78V125.18C920.724 123.94 919.804 123.1 918.484 123.1C917.224 123.1 916.304 123.6 915.964 124.6L914.584 124.36C915.084 122.76 916.544 121.8 918.484 121.8C920.704 121.8 922.144 123.26 922.144 125.48V129.2C922.144 130.54 922.164 131.28 922.244 132ZM917.724 130.92C919.584 130.92 920.724 129.7 920.724 127.98V126.9L918.104 127.22C916.484 127.42 915.484 128.02 915.484 129.12C915.484 130.16 916.404 130.92 917.724 130.92ZM930.382 132H929.282L925.962 124.3V132H924.542V122H926.282L929.842 130.24L933.382 122H935.122V132H933.702V124.3L930.382 132ZM769.6 147H771.02V154.94L776.42 147H777.84V157H776.42V149.06L771.02 157H769.6V147ZM780.245 147H781.665V151.4H787.065V147H788.485V157H787.065V152.58H781.665V157H780.245V147ZM790.569 148.18V147H798.809V148.18H795.389V157H793.969V148.18H790.569ZM800.489 151.98C800.489 148.94 802.429 146.8 805.209 146.8C807.989 146.8 809.929 148.94 809.929 151.98V152.36H801.929C802.049 154.52 803.309 155.86 805.209 155.86C806.689 155.86 807.749 155.08 808.169 153.72L809.549 153.96C808.989 155.9 807.369 157.16 805.209 157.16C802.429 157.16 800.489 155.02 800.489 151.98ZM805.209 148.1C803.429 148.1 802.209 149.28 801.969 151.2H808.469C808.229 149.26 806.989 148.1 805.209 148.1ZM813.208 155.62V161H811.788V149.8C811.788 148.46 811.768 147.72 811.688 147H812.908C813.028 147.44 813.148 148.06 813.208 148.5C813.988 147.52 815.148 146.8 816.508 146.8C819.088 146.8 820.888 148.96 820.888 152.02C820.888 155.06 819.088 157.2 816.508 157.2C815.188 157.2 814.008 156.64 813.208 155.62ZM813.208 151.72V152.38C813.208 154.22 814.288 155.9 816.228 155.9C818.248 155.9 819.468 154.4 819.468 152.02C819.468 149.6 818.248 148.06 816.228 148.06C814.368 148.06 813.208 149.78 813.208 151.72ZM822.882 147H827.522C829.202 147 830.382 148.16 830.382 149.8C830.382 150.58 829.922 151.42 829.282 151.84C830.242 152.24 830.922 153.22 830.922 154.2C830.922 155.84 829.622 157 827.762 157H822.882V147ZM824.302 152.6V155.82H827.582C828.702 155.82 829.482 155.16 829.482 154.2C829.482 153.26 828.702 152.6 827.582 152.6H824.302ZM824.302 148.18V151.4H827.342C828.282 151.4 828.942 150.74 828.942 149.8C828.942 148.84 828.282 148.18 827.342 148.18H824.302ZM832.823 147H834.243V150.82H837.323C839.423 150.82 840.483 152.36 840.483 153.9C840.483 155.46 839.423 157 837.323 157H832.823V147ZM834.243 152V155.82H837.143C838.403 155.82 839.043 154.86 839.043 153.9C839.043 152.94 838.423 152 837.143 152H834.243ZM842.354 147H843.774V151.4H845.674C845.914 148.68 847.774 146.8 850.374 146.8C853.154 146.8 855.094 148.94 855.094 151.98C855.094 155.02 853.154 157.16 850.374 157.16C847.774 157.16 845.914 155.3 845.674 152.58H843.774V157H842.354V147ZM847.074 151.98C847.074 154.38 848.374 155.9 850.374 155.9C852.374 155.9 853.674 154.38 853.674 151.98C853.674 149.6 852.374 148.1 850.374 148.1C848.374 148.1 847.074 149.6 847.074 151.98Z" fill="black" fill-opacity="0.9"/>
<mask id="path-24-inside-4_849_13864" fill="white">
<path d="M904.4 56C904.4 33.9086 922.309 16 944.4 16C966.492 16 984.4 33.9086 984.4 56C984.4 78.0914 966.492 96 944.4 96C922.309 96 904.4 78.0914 904.4 56Z"/>
</mask>
<path d="M944.4 94C923.414 94 906.4 76.9868 906.4 56H902.4C902.4 79.196 921.204 98 944.4 98V94ZM982.4 56C982.4 76.9868 965.387 94 944.4 94V98C967.596 98 986.4 79.196 986.4 56H982.4ZM944.4 18C965.387 18 982.4 35.0132 982.4 56H986.4C986.4 32.804 967.596 14 944.4 14V18ZM944.4 14C921.204 14 902.4 32.804 902.4 56H906.4C906.4 35.0132 923.414 18 944.4 18V14Z" fill="url(#paint16_linear_849_13864)" mask="url(#path-24-inside-4_849_13864)"/>
<path fill-rule="evenodd" clip-rule="evenodd" d="M954.107 49.2929C954.498 49.6834 954.498 50.3166 954.107 50.7071L943.107 61.7071C942.717 62.0976 942.084 62.0976 941.693 61.7071L935.693 55.7071C935.303 55.3166 935.303 54.6834 935.693 54.2929C936.084 53.9024 936.717 53.9024 937.107 54.2929L942.4 59.5858L952.693 49.2929C953.084 48.9024 953.717 48.9024 954.107 49.2929Z" fill="url(#paint17_linear_849_13864)" stroke="url(#paint18_linear_849_13864)" stroke-linecap="round" stroke-linejoin="round"/>
<path fill-rule="evenodd" clip-rule="evenodd" d="M865 0C873 0 877 16 889 16H841C853 16 857 0 865 0Z" fill="url(#paint19_linear_849_13864)"/>
<rect x="993.801" y="17" width="238.2" height="172" rx="39" fill="white"/>
<rect x="993.801" y="17" width="238.2" height="172" rx="39" stroke="url(#paint20_linear_849_13864)" stroke-width="2"/>
<path d="M1017.3 57L1022.78 43H1024.72L1030.2 57H1028.68L1027.2 53.2H1020.3L1018.82 57H1017.3ZM1020.82 51.88H1026.68L1023.76 44.36L1020.82 51.88ZM1032.1 47H1033.52V51.4H1038.92V47H1040.34V57H1038.92V52.58H1033.52V57H1032.1V47ZM1050.52 57H1049.3C1049.16 56.5 1049.06 56 1049 55.5C1048.32 56.48 1047.32 57.18 1045.88 57.18C1043.8 57.18 1042.34 55.92 1042.34 54.12C1042.34 52.32 1043.82 51.38 1046.4 51.08L1049 50.78V50.18C1049 48.94 1048.08 48.1 1046.76 48.1C1045.5 48.1 1044.58 48.6 1044.24 49.6L1042.86 49.36C1043.36 47.76 1044.82 46.8 1046.76 46.8C1048.98 46.8 1050.42 48.26 1050.42 50.48V54.2C1050.42 55.54 1050.44 56.28 1050.52 57ZM1046 55.92C1047.86 55.92 1049 54.7 1049 52.98V51.9L1046.38 52.22C1044.76 52.42 1043.76 53.02 1043.76 54.12C1043.76 55.16 1044.68 55.92 1046 55.92ZM1055.48 47H1061.7V57H1060.28V48.18H1056.7L1056 54.24C1055.8 55.9 1054.92 57 1053.3 57H1052.32V55.82H1053.14C1054.14 55.82 1054.56 55.14 1054.68 54.1L1055.48 47ZM1064.11 47H1065.53V54.94L1070.93 47H1072.35V57H1070.93V49.06L1065.53 57H1064.11V47ZM1078.19 52.46H1077.19V51.3H1078.19C1079.49 51.3 1080.61 50.6 1080.61 49.54C1080.61 48.7 1079.73 48.1 1078.47 48.1C1077.21 48.1 1076.29 48.7 1075.95 49.7L1074.57 49.46C1075.07 47.86 1076.53 46.8 1078.47 46.8C1080.55 46.8 1082.01 47.94 1082.01 49.54C1082.01 50.74 1081.37 51.4 1080.49 51.82C1081.53 52.28 1082.29 52.96 1082.29 54.32C1082.29 55.82 1080.87 57.2 1078.57 57.2C1076.37 57.2 1074.77 55.98 1074.23 54.12L1075.61 53.88C1075.99 55.16 1077.05 55.9 1078.57 55.9C1079.93 55.9 1080.89 55.18 1080.89 54.32C1080.89 53.22 1079.83 52.46 1078.19 52.46ZM1084.4 47H1085.82V54.94L1091.22 47H1092.64V57H1091.22V49.06L1085.82 57H1084.4V47ZM1096.47 55.62V61H1095.05V49.8C1095.05 48.46 1095.03 47.72 1094.95 47H1096.17C1096.29 47.44 1096.41 48.06 1096.47 48.5C1097.25 47.52 1098.41 46.8 1099.77 46.8C1102.35 46.8 1104.15 48.96 1104.15 52.02C1104.15 55.06 1102.35 57.2 1099.77 57.2C1098.45 57.2 1097.27 56.64 1096.47 55.62ZM1096.47 51.72V52.38C1096.47 54.22 1097.55 55.9 1099.49 55.9C1101.51 55.9 1102.73 54.4 1102.73 52.02C1102.73 49.6 1101.51 48.06 1099.49 48.06C1097.63 48.06 1096.47 49.78 1096.47 51.72ZM1109.14 57.72L1109.42 57L1105.54 47H1106.98L1110.08 55.22L1113.22 47H1114.64L1110.46 57.8C1109.86 59.38 1109.2 61.18 1106.94 61.18C1106.54 61.18 1106.1 61.14 1105.62 61.04V59.78C1106.1 59.9 1106.5 59.94 1106.82 59.94C1108.28 59.94 1108.76 58.78 1109.14 57.72ZM1116.03 51.98C1116.03 48.94 1117.97 46.8 1120.75 46.8C1123.53 46.8 1125.47 48.94 1125.47 51.98V52.36H1117.47C1117.59 54.52 1118.85 55.86 1120.75 55.86C1122.23 55.86 1123.29 55.08 1123.71 53.72L1125.09 53.96C1124.53 55.9 1122.91 57.16 1120.75 57.16C1117.97 57.16 1116.03 55.02 1116.03 51.98ZM1120.75 48.1C1118.97 48.1 1117.75 49.28 1117.51 51.2H1124.01C1123.77 49.26 1122.53 48.1 1120.75 48.1ZM1127.01 48.18V47H1135.25V48.18H1131.83V57H1130.41V48.18H1127.01ZM1019.22 80.62V86H1017.8V74.8C1017.8 73.46 1017.78 72.72 1017.7 72H1018.92C1019.04 72.44 1019.16 73.06 1019.22 73.5C1020 72.52 1021.16 71.8 1022.52 71.8C1025.1 71.8 1026.9 73.96 1026.9 77.02C1026.9 80.06 1025.1 82.2 1022.52 82.2C1021.2 82.2 1020.02 81.64 1019.22 80.62ZM1019.22 76.72V77.38C1019.22 79.22 1020.3 80.9 1022.24 80.9C1024.26 80.9 1025.48 79.4 1025.48 77.02C1025.48 74.6 1024.26 73.06 1022.24 73.06C1020.38 73.06 1019.22 74.78 1019.22 76.72ZM1028.9 72H1030.32V75.82H1033.4C1035.5 75.82 1036.56 77.36 1036.56 78.9C1036.56 80.46 1035.5 82 1033.4 82H1028.9V72ZM1030.32 77V80.82H1033.22C1034.48 80.82 1035.12 79.86 1035.12 78.9C1035.12 77.94 1034.5 77 1033.22 77H1030.32ZM1038.44 82V72H1039.86V82H1038.44ZM1042.25 72H1043.67V76.4H1049.07V72H1050.49V82H1049.07V77.58H1043.67V82H1042.25V72ZM1061.94 76.98C1061.94 80.02 1060 82.16 1057.22 82.16C1054.44 82.16 1052.5 80.02 1052.5 76.98C1052.5 73.94 1054.44 71.8 1057.22 71.8C1060 71.8 1061.94 73.94 1061.94 76.98ZM1053.92 76.98C1053.92 79.38 1055.22 80.9 1057.22 80.9C1059.22 80.9 1060.52 79.38 1060.52 76.98C1060.52 74.6 1059.22 73.1 1057.22 73.1C1055.22 73.1 1053.92 74.6 1053.92 76.98ZM1063.93 82V72H1065.35V76.72L1069.83 72H1071.51L1067.79 75.96L1072.07 82H1070.41L1066.85 76.96L1065.35 78.56V82H1063.93ZM1082.22 77.46H1081.22V76.3H1082.22C1083.52 76.3 1084.64 75.6 1084.64 74.54C1084.64 73.7 1083.76 73.1 1082.5 73.1C1081.24 73.1 1080.32 73.7 1079.98 74.7L1078.6 74.46C1079.1 72.86 1080.56 71.8 1082.5 71.8C1084.58 71.8 1086.04 72.94 1086.04 74.54C1086.04 75.74 1085.4 76.4 1084.52 76.82C1085.56 77.28 1086.32 77.96 1086.32 79.32C1086.32 80.82 1084.9 82.2 1082.6 82.2C1080.4 82.2 1078.8 80.98 1078.26 79.12L1079.64 78.88C1080.02 80.16 1081.08 80.9 1082.6 80.9C1083.96 80.9 1084.92 80.18 1084.92 79.32C1084.92 78.22 1083.86 77.46 1082.22 77.46ZM1087.63 86L1092.91 68H1094.45L1089.17 86H1087.63ZM1096.04 72H1104.28V82H1102.86V73.18H1097.46V82H1096.04V72ZM1017.8 97H1022.44C1024.12 97 1025.3 98.16 1025.3 99.8C1025.3 100.58 1024.84 101.42 1024.2 101.84C1025.16 102.24 1025.84 103.22 1025.84 104.2C1025.84 105.84 1024.54 107 1022.68 107H1017.8V97ZM1019.22 102.6V105.82H1022.5C1023.62 105.82 1024.4 105.16 1024.4 104.2C1024.4 103.26 1023.62 102.6 1022.5 102.6H1019.22ZM1019.22 98.18V101.4H1022.26C1023.2 101.4 1023.86 100.74 1023.86 99.8C1023.86 98.84 1023.2 98.18 1022.26 98.18H1019.22ZM1027.74 97H1029.16V104.94L1034.56 97H1035.98V107H1034.56V99.06L1029.16 107H1027.74V97ZM1041.05 97H1047.27V107H1045.85V98.18H1042.27L1041.57 104.24C1041.37 105.9 1040.49 107 1038.87 107H1037.89V105.82H1038.71C1039.71 105.82 1040.13 105.14 1040.25 104.1L1041.05 97ZM1058.72 101.98C1058.72 105.02 1056.78 107.16 1054 107.16C1051.22 107.16 1049.28 105.02 1049.28 101.98C1049.28 98.94 1051.22 96.8 1054 96.8C1056.78 96.8 1058.72 98.94 1058.72 101.98ZM1050.7 101.98C1050.7 104.38 1052 105.9 1054 105.9C1056 105.9 1057.3 104.38 1057.3 101.98C1057.3 99.6 1056 98.1 1054 98.1C1052 98.1 1050.7 99.6 1050.7 101.98ZM1060.71 107V97H1062.13V101.72L1066.61 97H1068.29L1064.57 100.96L1068.85 107H1067.19L1063.63 101.96L1062.13 103.56V107H1060.71ZM1075.56 97H1076.98V104.94L1082.38 97H1083.8V107H1082.38V99.06L1076.98 107H1075.56V97ZM1090.8 101.98C1090.8 98.94 1092.74 96.8 1095.52 96.8C1097.68 96.8 1099.3 98.1 1099.86 100.08L1098.48 100.32C1098.08 98.92 1097 98.1 1095.52 98.1C1093.52 98.1 1092.22 99.6 1092.22 101.98C1092.22 104.36 1093.52 105.86 1095.52 105.86C1097 105.86 1098.06 105.08 1098.48 103.72L1099.86 103.96C1099.3 105.9 1097.68 107.16 1095.52 107.16C1092.74 107.16 1090.8 105.02 1090.8 101.98ZM1110.77 101.98C1110.77 105.02 1108.83 107.16 1106.05 107.16C1103.27 107.16 1101.33 105.02 1101.33 101.98C1101.33 98.94 1103.27 96.8 1106.05 96.8C1108.83 96.8 1110.77 98.94 1110.77 101.98ZM1102.75 101.98C1102.75 104.38 1104.05 105.9 1106.05 105.9C1108.05 105.9 1109.35 104.38 1109.35 101.98C1109.35 99.6 1108.05 98.1 1106.05 98.1C1104.05 98.1 1102.75 99.6 1102.75 101.98ZM1113.78 101.52V101.88C1113.78 104.3 1114.9 105.84 1116.92 105.84C1118.94 105.84 1120.04 104.3 1120.04 101.88C1120.04 99.5 1118.82 98 1116.8 98C1114.86 98 1113.78 99.68 1113.78 101.52ZM1112.36 101.66V98.82C1112.36 95.28 1114.32 93.2 1117.64 92.9C1118.56 92.82 1119.46 92.74 1120.38 92.26V93.48C1119.46 93.96 1118.56 94.04 1117.64 94.12C1115.08 94.34 1113.78 96 1113.78 98.1V98.28C1114.58 97.26 1115.76 96.7 1117.08 96.7C1119.66 96.7 1121.46 98.84 1121.46 101.88C1121.46 104.94 1119.74 107.1 1116.92 107.1C1114.1 107.1 1112.36 105 1112.36 101.66ZM1123.47 97H1124.89V104.94L1130.29 97H1131.71V107H1130.29V99.06L1124.89 107H1123.47V97ZM1135.53 105.62V111H1134.11V99.8C1134.11 98.46 1134.09 97.72 1134.01 97H1135.23C1135.35 97.44 1135.47 98.06 1135.53 98.5C1136.31 97.52 1137.47 96.8 1138.83 96.8C1141.41 96.8 1143.21 98.96 1143.21 102.02C1143.21 105.06 1141.41 107.2 1138.83 107.2C1137.51 107.2 1136.33 106.64 1135.53 105.62ZM1135.53 101.72V102.38C1135.53 104.22 1136.61 105.9 1138.55 105.9C1140.57 105.9 1141.79 104.4 1141.79 102.02C1141.79 99.6 1140.57 98.06 1138.55 98.06C1136.69 98.06 1135.53 99.78 1135.53 101.72ZM1152.98 107H1151.76C1151.62 106.5 1151.52 106 1151.46 105.5C1150.78 106.48 1149.78 107.18 1148.34 107.18C1146.26 107.18 1144.8 105.92 1144.8 104.12C1144.8 102.32 1146.28 101.38 1148.86 101.08L1151.46 100.78V100.18C1151.46 98.94 1150.54 98.1 1149.22 98.1C1147.96 98.1 1147.04 98.6 1146.7 99.6L1145.32 99.36C1145.82 97.76 1147.28 96.8 1149.22 96.8C1151.44 96.8 1152.88 98.26 1152.88 100.48V104.2C1152.88 105.54 1152.9 106.28 1152.98 107ZM1148.46 105.92C1150.32 105.92 1151.46 104.7 1151.46 102.98V101.9L1148.84 102.22C1147.22 102.42 1146.22 103.02 1146.22 104.12C1146.22 105.16 1147.14 105.92 1148.46 105.92ZM1154.88 101.98C1154.88 98.94 1156.82 96.8 1159.6 96.8C1162.38 96.8 1164.32 98.94 1164.32 101.98V102.36H1156.32C1156.44 104.52 1157.7 105.86 1159.6 105.86C1161.08 105.86 1162.14 105.08 1162.56 103.72L1163.94 103.96C1163.38 105.9 1161.76 107.16 1159.6 107.16C1156.82 107.16 1154.88 105.02 1154.88 101.98ZM1159.6 98.1C1157.82 98.1 1156.6 99.28 1156.36 101.2H1162.86C1162.62 99.26 1161.38 98.1 1159.6 98.1ZM1165.86 98.18V97H1174.1V98.18H1170.68V107H1169.26V98.18H1165.86ZM1026.84 126.98C1026.84 130.02 1024.9 132.16 1022.12 132.16C1019.34 132.16 1017.4 130.02 1017.4 126.98C1017.4 123.94 1019.34 121.8 1022.12 121.8C1024.9 121.8 1026.84 123.94 1026.84 126.98ZM1018.82 126.98C1018.82 129.38 1020.12 130.9 1022.12 130.9C1024.12 130.9 1025.42 129.38 1025.42 126.98C1025.42 124.6 1024.12 123.1 1022.12 123.1C1020.12 123.1 1018.82 124.6 1018.82 126.98ZM1034.42 132V128.7L1032.88 126.9L1029.78 132H1028.14L1031.96 125.8L1028.72 122H1030.36L1034.42 126.8V122H1035.84V126.8L1039.9 122H1041.54L1038.3 125.8L1042.12 132H1040.48L1037.38 126.9L1035.84 128.7V132H1034.42ZM1043.82 122H1045.24V129.94L1050.64 122H1052.06V132H1050.64V124.06L1045.24 132H1043.82V122ZM1056.74 122H1062.96V130.82H1064.18V134.2H1062.76V132H1055.28V134.2H1053.86V130.82H1054.4C1055.4 130.82 1055.82 130.14 1055.94 129.1L1056.74 122ZM1057.26 129.24C1057.18 129.86 1057.02 130.38 1056.76 130.82H1061.54V123.18H1057.96L1057.26 129.24ZM1073.77 132H1072.55C1072.41 131.5 1072.31 131 1072.25 130.5C1071.57 131.48 1070.57 132.18 1069.13 132.18C1067.05 132.18 1065.59 130.92 1065.59 129.12C1065.59 127.32 1067.07 126.38 1069.65 126.08L1072.25 125.78V125.18C1072.25 123.94 1071.33 123.1 1070.01 123.1C1068.75 123.1 1067.83 123.6 1067.49 124.6L1066.11 124.36C1066.61 122.76 1068.07 121.8 1070.01 121.8C1072.23 121.8 1073.67 123.26 1073.67 125.48V129.2C1073.67 130.54 1073.69 131.28 1073.77 132ZM1069.25 130.92C1071.11 130.92 1072.25 129.7 1072.25 127.98V126.9L1069.63 127.22C1068.01 127.42 1067.01 128.02 1067.01 129.12C1067.01 130.16 1067.93 130.92 1069.25 130.92ZM1076.06 122H1077.48V126.4H1082.88V122H1084.3V132H1082.88V127.58H1077.48V132H1076.06V122ZM1086.71 122H1088.13V129.94L1093.53 122H1094.95V132H1093.53V124.06L1088.13 132H1086.71V122ZM1104.81 132H1103.39V128.18H1100.61L1098.29 132H1096.65L1099.11 127.98C1097.81 127.52 1097.15 126.32 1097.15 125.1C1097.15 123.54 1098.21 122 1100.31 122H1104.81V132ZM1103.39 127V123.18H1100.49C1099.23 123.18 1098.59 124.14 1098.59 125.1C1098.59 126.06 1099.21 127 1100.49 127H1103.39ZM1017.8 157V147H1019.22V151.72L1023.7 147H1025.38L1021.66 150.96L1025.94 157H1024.28L1020.72 151.96L1019.22 153.56V157H1017.8ZM1035.43 157H1034.21C1034.07 156.5 1033.97 156 1033.91 155.5C1033.23 156.48 1032.23 157.18 1030.79 157.18C1028.71 157.18 1027.25 155.92 1027.25 154.12C1027.25 152.32 1028.73 151.38 1031.31 151.08L1033.91 150.78V150.18C1033.91 148.94 1032.99 148.1 1031.67 148.1C1030.41 148.1 1029.49 148.6 1029.15 149.6L1027.77 149.36C1028.27 147.76 1029.73 146.8 1031.67 146.8C1033.89 146.8 1035.33 148.26 1035.33 150.48V154.2C1035.33 155.54 1035.35 156.28 1035.43 157ZM1030.91 155.92C1032.77 155.92 1033.91 154.7 1033.91 152.98V151.9L1031.29 152.22C1029.67 152.42 1028.67 153.02 1028.67 154.12C1028.67 155.16 1029.59 155.92 1030.91 155.92ZM1037.72 147H1039.14V151.4H1044.54V147H1045.96V157H1044.54V152.58H1039.14V157H1037.72V147ZM1050.65 147H1056.87V155.82H1058.09V159.2H1056.67V157H1049.19V159.2H1047.77V155.82H1048.31C1049.31 155.82 1049.73 155.14 1049.85 154.1L1050.65 147ZM1051.17 154.24C1051.09 154.86 1050.93 155.38 1050.67 155.82H1055.45V148.18H1051.87L1051.17 154.24ZM1059.89 147H1061.31V154.94L1066.71 147H1068.13V157H1066.71V149.06L1061.31 157H1059.89V147ZM1072.82 147H1079.04V155.82H1080.26V159.2H1078.84V157H1071.36V159.2H1069.94V155.82H1070.48C1071.48 155.82 1071.9 155.14 1072.02 154.1L1072.82 147ZM1073.34 154.24C1073.26 154.86 1073.1 155.38 1072.84 155.82H1077.62V148.18H1074.04L1073.34 154.24ZM1089.84 157H1088.62C1088.48 156.5 1088.38 156 1088.32 155.5C1087.64 156.48 1086.64 157.18 1085.2 157.18C1083.12 157.18 1081.66 155.92 1081.66 154.12C1081.66 152.32 1083.14 151.38 1085.72 151.08L1088.32 150.78V150.18C1088.32 148.94 1087.4 148.1 1086.08 148.1C1084.82 148.1 1083.9 148.6 1083.56 149.6L1082.18 149.36C1082.68 147.76 1084.14 146.8 1086.08 146.8C1088.3 146.8 1089.74 148.26 1089.74 150.48V154.2C1089.74 155.54 1089.76 156.28 1089.84 157ZM1085.32 155.92C1087.18 155.92 1088.32 154.7 1088.32 152.98V151.9L1085.7 152.22C1084.08 152.42 1083.08 153.02 1083.08 154.12C1083.08 155.16 1084 155.92 1085.32 155.92ZM1091.82 148.18V147H1100.06V148.18H1096.64V157H1095.22V148.18H1091.82ZM1111.18 151.98C1111.18 155.02 1109.24 157.16 1106.46 157.16C1103.68 157.16 1101.74 155.02 1101.74 151.98C1101.74 148.94 1103.68 146.8 1106.46 146.8C1109.24 146.8 1111.18 148.94 1111.18 151.98ZM1103.16 151.98C1103.16 154.38 1104.46 155.9 1106.46 155.9C1108.46 155.9 1109.76 154.38 1109.76 151.98C1109.76 149.6 1108.46 148.1 1106.46 148.1C1104.46 148.1 1103.16 149.6 1103.16 151.98ZM1113.17 147H1117.81C1119.49 147 1120.67 148.16 1120.67 149.8C1120.67 150.58 1120.21 151.42 1119.57 151.84C1120.53 152.24 1121.21 153.22 1121.21 154.2C1121.21 155.84 1119.91 157 1118.05 157H1113.17V147ZM1114.59 152.6V155.82H1117.87C1118.99 155.82 1119.77 155.16 1119.77 154.2C1119.77 153.26 1118.99 152.6 1117.87 152.6H1114.59ZM1114.59 148.18V151.4H1117.63C1118.57 151.4 1119.23 150.74 1119.23 149.8C1119.23 148.84 1118.57 148.18 1117.63 148.18H1114.59Z" fill="black" fill-opacity="0.9"/>
<mask id="path-31-inside-5_849_13864" fill="white">
<path d="M1152.6 56C1152.6 33.9086 1170.51 16 1192.6 16C1214.69 16 1232.6 33.9086 1232.6 56C1232.6 78.0914 1214.69 96 1192.6 96C1170.51 96 1152.6 78.0914 1152.6 56Z"/>
</mask>
<path d="M1192.6 94C1171.61 94 1154.6 76.9868 1154.6 56H1150.6C1150.6 79.196 1169.41 98 1192.6 98V94ZM1230.6 56C1230.6 76.9868 1213.59 94 1192.6 94V98C1215.8 98 1234.6 79.196 1234.6 56H1230.6ZM1192.6 18C1213.59 18 1230.6 35.0132 1230.6 56H1234.6C1234.6 32.804 1215.8 14 1192.6 14V18ZM1192.6 14C1169.41 14 1150.6 32.804 1150.6 56H1154.6C1154.6 35.0132 1171.61 18 1192.6 18V14Z" fill="url(#paint21_linear_849_13864)" mask="url(#path-31-inside-5_849_13864)"/>
<path fill-rule="evenodd" clip-rule="evenodd" d="M1202.31 49.2929C1202.7 49.6834 1202.7 50.3166 1202.31 50.7071L1191.31 61.7071C1190.92 62.0976 1190.28 62.0976 1189.89 61.7071L1183.89 55.7071C1183.5 55.3166 1183.5 54.6834 1183.89 54.2929C1184.28 53.9024 1184.92 53.9024 1185.31 54.2929L1190.6 59.5858L1200.89 49.2929C1201.28 48.9024 1201.92 48.9024 1202.31 49.2929Z" fill="url(#paint22_linear_849_13864)" stroke="url(#paint23_linear_849_13864)" stroke-linecap="round" stroke-linejoin="round"/>
<path fill-rule="evenodd" clip-rule="evenodd" d="M1113.2 0C1121.2 0 1125.2 16 1137.2 16H1089.2C1101.2 16 1105.2 0 1113.2 0Z" fill="url(#paint24_linear_849_13864)"/>
<defs>
<linearGradient id="paint0_linear_849_13864" x1="-7.83261" y1="103" x2="240.2" y2="103" gradientUnits="userSpaceOnUse">
<stop stop-color="#F07DED"/>
<stop offset="0.355" stop-color="#F780A9"/>
<stop offset="1" stop-color="#FFCE9C"/>
</linearGradient>
<linearGradient id="paint1_linear_849_13864" x1="157.192" y1="56" x2="239.801" y2="56" gradientUnits="userSpaceOnUse">
<stop stop-color="#F07DED"/>
<stop offset="0.355" stop-color="#F780A9"/>
<stop offset="1" stop-color="#FFCE9C"/>
</linearGradient>
<linearGradient id="paint2_linear_849_13864" x1="190.181" y1="55.5" x2="209.801" y2="55.5" gradientUnits="userSpaceOnUse">
<stop stop-color="#F07DED"/>
<stop offset="0.355" stop-color="#F780A9"/>
<stop offset="1" stop-color="#FFCE9C"/>
</linearGradient>
<linearGradient id="paint3_linear_849_13864" x1="190.181" y1="55.5" x2="209.801" y2="55.5" gradientUnits="userSpaceOnUse">
<stop stop-color="#F07DED"/>
<stop offset="0.355" stop-color="#F780A9"/>
<stop offset="1" stop-color="#FFCE9C"/>
</linearGradient>
<linearGradient id="paint4_linear_849_13864" x1="2.00001" y1="8" x2="240.5" y2="8.00001" gradientUnits="userSpaceOnUse">
<stop stop-color="#F07DED"/>
<stop offset="0.355" stop-color="#F780A9"/>
<stop offset="1" stop-color="#FFCE9C"/>
</linearGradient>
<linearGradient id="paint5_linear_849_13864" x1="240.367" y1="103" x2="488.399" y2="103" gradientUnits="userSpaceOnUse">
<stop stop-color="#F07DED"/>
<stop offset="0.355" stop-color="#F780A9"/>
<stop offset="1" stop-color="#FFCE9C"/>
</linearGradient>
<linearGradient id="paint6_linear_849_13864" x1="405.391" y1="56" x2="488" y2="56" gradientUnits="userSpaceOnUse">
<stop stop-color="#F07DED"/>
<stop offset="0.355" stop-color="#F780A9"/>
<stop offset="1" stop-color="#FFCE9C"/>
</linearGradient>
<linearGradient id="paint7_linear_849_13864" x1="438.38" y1="55.5" x2="458" y2="55.5" gradientUnits="userSpaceOnUse">
<stop stop-color="#F07DED"/>
<stop offset="0.355" stop-color="#F780A9"/>
<stop offset="1" stop-color="#FFCE9C"/>
</linearGradient>
<linearGradient id="paint8_linear_849_13864" x1="438.38" y1="55.5" x2="458" y2="55.5" gradientUnits="userSpaceOnUse">
<stop stop-color="#F07DED"/>
<stop offset="0.355" stop-color="#F780A9"/>
<stop offset="1" stop-color="#FFCE9C"/>
</linearGradient>
<linearGradient id="paint9_linear_849_13864" x1="250.002" y1="8" x2="488.502" y2="8.00001" gradientUnits="userSpaceOnUse">
<stop stop-color="#F07DED"/>
<stop offset="0.355" stop-color="#F780A9"/>
<stop offset="1" stop-color="#FFCE9C"/>
</linearGradient>
<linearGradient id="paint10_linear_849_13864" x1="488.568" y1="103" x2="736.6" y2="103" gradientUnits="userSpaceOnUse">
<stop stop-color="#F07DED"/>
<stop offset="0.355" stop-color="#F780A9"/>
<stop offset="1" stop-color="#FFCE9C"/>
</linearGradient>
<linearGradient id="paint11_linear_849_13864" x1="653.592" y1="56" x2="736.201" y2="56" gradientUnits="userSpaceOnUse">
<stop stop-color="#F07DED"/>
<stop offset="0.355" stop-color="#F780A9"/>
<stop offset="1" stop-color="#FFCE9C"/>
</linearGradient>
<linearGradient id="paint12_linear_849_13864" x1="686.582" y1="55.5" x2="706.201" y2="55.5" gradientUnits="userSpaceOnUse">
<stop stop-color="#F07DED"/>
<stop offset="0.355" stop-color="#F780A9"/>
<stop offset="1" stop-color="#FFCE9C"/>
</linearGradient>
<linearGradient id="paint13_linear_849_13864" x1="686.582" y1="55.5" x2="706.201" y2="55.5" gradientUnits="userSpaceOnUse">
<stop stop-color="#F07DED"/>
<stop offset="0.355" stop-color="#F780A9"/>
<stop offset="1" stop-color="#FFCE9C"/>
</linearGradient>
<linearGradient id="paint14_linear_849_13864" x1="498" y1="8" x2="736.5" y2="8.00001" gradientUnits="userSpaceOnUse">
<stop stop-color="#F07DED"/>
<stop offset="0.355" stop-color="#F780A9"/>
<stop offset="1" stop-color="#FFCE9C"/>
</linearGradient>
<linearGradient id="paint15_linear_849_13864" x1="736.767" y1="103" x2="984.8" y2="103" gradientUnits="userSpaceOnUse">
<stop stop-color="#F07DED"/>
<stop offset="0.355" stop-color="#F780A9"/>
<stop offset="1" stop-color="#FFCE9C"/>
</linearGradient>
<linearGradient id="paint16_linear_849_13864" x1="901.792" y1="56" x2="984.4" y2="56" gradientUnits="userSpaceOnUse">
<stop stop-color="#F07DED"/>
<stop offset="0.355" stop-color="#F780A9"/>
<stop offset="1" stop-color="#FFCE9C"/>
</linearGradient>
<linearGradient id="paint17_linear_849_13864" x1="934.781" y1="55.5" x2="954.4" y2="55.5" gradientUnits="userSpaceOnUse">
<stop stop-color="#F07DED"/>
<stop offset="0.355" stop-color="#F780A9"/>
<stop offset="1" stop-color="#FFCE9C"/>
</linearGradient>
<linearGradient id="paint18_linear_849_13864" x1="934.781" y1="55.5" x2="954.4" y2="55.5" gradientUnits="userSpaceOnUse">
<stop stop-color="#F07DED"/>
<stop offset="0.355" stop-color="#F780A9"/>
<stop offset="1" stop-color="#FFCE9C"/>
</linearGradient>
<linearGradient id="paint19_linear_849_13864" x1="747" y1="8" x2="985.5" y2="8.00001" gradientUnits="userSpaceOnUse">
<stop stop-color="#F07DED"/>
<stop offset="0.355" stop-color="#F780A9"/>
<stop offset="1" stop-color="#FFCE9C"/>
</linearGradient>
<linearGradient id="paint20_linear_849_13864" x1="984.968" y1="103" x2="1233" y2="103" gradientUnits="userSpaceOnUse">
<stop stop-color="#F07DED"/>
<stop offset="0.355" stop-color="#F780A9"/>
<stop offset="1" stop-color="#FFCE9C"/>
</linearGradient>
<linearGradient id="paint21_linear_849_13864" x1="1149.99" y1="56" x2="1232.6" y2="56" gradientUnits="userSpaceOnUse">
<stop stop-color="#F07DED"/>
<stop offset="0.355" stop-color="#F780A9"/>
<stop offset="1" stop-color="#FFCE9C"/>
</linearGradient>
<linearGradient id="paint22_linear_849_13864" x1="1182.98" y1="55.5" x2="1202.6" y2="55.5" gradientUnits="userSpaceOnUse">
<stop stop-color="#F07DED"/>
<stop offset="0.355" stop-color="#F780A9"/>
<stop offset="1" stop-color="#FFCE9C"/>
</linearGradient>
<linearGradient id="paint23_linear_849_13864" x1="1182.98" y1="55.5" x2="1202.6" y2="55.5" gradientUnits="userSpaceOnUse">
<stop stop-color="#F07DED"/>
<stop offset="0.355" stop-color="#F780A9"/>
<stop offset="1" stop-color="#FFCE9C"/>
</linearGradient>
<linearGradient id="paint24_linear_849_13864" x1="995.201" y1="8" x2="1233.7" y2="8.00001" gradientUnits="userSpaceOnUse">
<stop stop-color="#F07DED"/>
<stop offset="0.355" stop-color="#F780A9"/>
<stop offset="1" stop-color="#FFCE9C"/>
</linearGradient>
</defs>
</svg>
