<svg xmlns="http://www.w3.org/2000/svg" fill="none" viewBox="0 0 16 16"><path fill="currentColor" d="M19 17a1 1 0 01-1 1H9c-.681 0-1.478-.116-2.234-.269l-.143.143c.045.04.095.077.149.11.818.496 1.747 1.126 2.384 1.758l.551.55A1 1 0 018.3 21.714l-4.006-4.006a1 1 0 010-1.414l4-4a1 1 0 011.417 1.411l-.003.003-.535.536c-.638.637-1.575 1.273-2.4 1.774-.054.032-.104.069-.15.109l.144.143C7.522 16.116 8.32 16 9 16h9a1 1 0 011 1zM5 7a1 1 0 001 1h9c.681 0 1.478-.116 2.234-.269l.143.143c-.045.04-.095.077-.149.11-.818.496-1.748 1.126-2.384 1.758l-.551.55a1 1 0 001.408 1.421l4.006-4.006a1 1 0 000-1.414l-4-4a1 1 0 00-1.417 1.411l.003.003.535.536c.638.637 1.575 1.273 2.4 1.774.054.032.104.069.15.109l-.144.143C16.478 6.116 15.68 6 15 6H6a1 1 0 00-1 1z"/></svg>
