<svg xmlns="http://www.w3.org/2000/svg" fill="none" viewBox="0 0 24 24"><g clip-path="url(#a)"><path fill="currentColor" d="M16.657 16.243a1 1 0 102 0v-9.9a1 1 0 00-1-1h-9.9a1 1 0 100 2h5c.901 0 2.014-.213 2.951-.442.062-.015.123-.024.183-.028v.202c-.643.426-1.288.908-1.77 1.39L5.636 16.95a1 1 0 101.414 1.414l8.485-8.485c.482-.482.964-1.128 1.39-1.77h.202c-.004.06-.013.121-.028.182-.23.938-.442 2.05-.442 2.952v5z"/></g><defs><clipPath id="a"><path fill="#fff" d="M0 0h24v24H0z"/></clipPath></defs></svg>
