<svg xmlns="http://www.w3.org/2000/svg" fill="none" viewBox="0 0 16 16"><path fill="currentColor" d="M3.1 3.8a.7.7 0 10-1.4 0v2.8a2.8 2.8 0 002.8 2.8h6.3c.477 0 1.035-.081 1.563-.188l.101.1a.746.746 0 01-.104.076c-.573.348-1.224.789-1.67 1.231l-1.085 1.086a.7.7 0 00.985.994l3.505-3.504a.692.692 0 00.202-.555.7.7 0 00-.202-.435l-3.5-3.5a.7.7 0 00-.992.988l.002.002L10.68 6.77c.446.446 1.102.891 1.68 1.242a.752.752 0 01.104.076l-.1.1C11.834 8.081 11.277 8 10.8 8H4.5a1.4 1.4 0 01-1.4-1.4V3.8z"/></svg>
