<svg xmlns="http://www.w3.org/2000/svg" fill="none" viewBox="0 0 16 16"><path fill="currentColor" d="M11.5 3.1a.7.7 0 01.7.7v6.3c0 .477-.081 1.035-.188 1.563l.1.101a.748.748 0 00.076-.104c.348-.573.789-1.223 1.231-1.67l.386-.385a.7.7 0 01.995.986l-2.805 2.804a.7.7 0 01-.99 0l-2.8-2.8a.7.7 0 01.988-.992l.002.002.375.375c.446.446.891 1.102 1.242 1.68a.74.74 0 00.076.104l.1-.1c-.107-.53-.188-1.087-.188-1.564V3.8a.7.7 0 01.7-.7zM4.5 12.9a.7.7 0 00.7-.7V5.9c0-.477-.081-1.035-.188-1.563l.1-.101a.75.75 0 01.076.104c.348.573.789 1.223 1.231 1.67l.386.385a.7.7 0 00.994-.986L4.995 2.605a.7.7 0 00-.99 0l-2.8 2.8a.7.7 0 00.988.992l.002-.002.375-.375c.446-.446.891-1.102 1.242-1.68a.75.75 0 01.076-.104l.1.1C3.881 4.867 3.8 5.424 3.8 5.9v6.3a.7.7 0 00.7.7z"/></svg>
