<svg xmlns="http://www.w3.org/2000/svg" fill="none" viewBox="0 0 16 16"><g clip-path="url(#a)"><path fill="currentColor" fill-rule="evenodd" d="M3.475 13.664a4.9 4.9 0 010-6.93l4.95-4.95a3.5 3.5 0 114.95 4.95l-4.95 4.95a2.1 2.1 0 11-2.97-2.97l4.95-4.95a.7.7 0 11.99.99l-4.95 4.95a.7.7 0 10.99.99l4.95-4.95a2.1 2.1 0 10-2.97-2.97l-4.95 4.95a3.5 3.5 0 104.95 4.95l1.98-1.98a.7.7 0 01.99.99l-1.98 1.98a4.9 4.9 0 01-6.93 0z" clip-rule="evenodd"/></g><defs><clipPath id="a"><path fill="#fff" d="M0 0h16v16H0z"/></clipPath></defs></svg>
