<svg xmlns="http://www.w3.org/2000/svg" viewBox="0 0 24 24"><g clip-path="url(#a)"><path fill="currentColor" fill-rule="evenodd" d="M5.535 20.092a7 7 0 010-9.9l7.072-7.07a5 5 0 017.07 7.07l-7.07 7.071a3 3 0 11-4.243-4.242l7.07-7.071a1 1 0 111.415 1.414l-7.07 7.071a1 1 0 101.413 1.414l7.071-7.07a3 3 0 00-4.242-4.244L6.95 11.607a5 5 0 107.07 7.07l2.83-2.828a1 1 0 011.413 1.414l-2.828 2.829a7 7 0 01-9.9 0z" clip-rule="evenodd"/></g><defs><clipPath id="a"><path fill="currentColor" d="M0 0h24v24H0z"/></clipPath></defs></svg>
