<svg xmlns="http://www.w3.org/2000/svg" fill="none" viewBox="0 0 24 24"><path fill="currentColor" fill-rule="evenodd" d="M7 6a4 4 0 014-4h2a4 4 0 014 4v1.126c.367.094.714.24 1.032.428l1.76-1.761a1 1 0 111.415 1.414l-1.76 1.761c.351.596.553 1.29.553 2.032v1h2a1 1 0 110 2h-2a7.979 7.979 0 01-.583 3.003l1.79 1.79a1 1 0 01-1.414 1.414l-1.399-1.399A7.987 7.987 0 0112 22a7.988 7.988 0 01-6.394-3.192l-1.399 1.4a1 1 0 01-1.414-1.415l1.79-1.79A7.977 7.977 0 014 14H2a1 1 0 110-2h2v-1c0-.742.202-1.436.554-2.032l-1.761-1.76a1 1 0 011.414-1.415l1.761 1.76A3.976 3.976 0 017 7.127V6zm2 1h6V6a2 2 0 00-2-2h-2a2 2 0 00-2 2v1zm-3 7a6.002 6.002 0 005 5.917V14a1 1 0 112 0v5.917A6.002 6.002 0 0018 14v-3a2 2 0 00-2-2H8a2 2 0 00-2 2v3z" clip-rule="evenodd"/></svg>
