<svg xmlns="http://www.w3.org/2000/svg" fill="none" viewBox="0 0 24 24"><path fill="currentColor" fill-rule="evenodd" d="M12 3a7 7 0 00-4.68 12.205c.4.36.78.796 1.076 1.295H11V12a1 1 0 112 0v4.5h2.604c.297-.5.677-.935 1.077-1.295A7 7 0 0012 3zm3.001 15.5H9l.001.102c0 1.048.85 1.898 1.899 1.898h2.203c1.048 0 1.898-.85 1.898-1.898l.001-.102zM3 10a9 9 0 1115.019 6.692c-.647.582-1.019 1.26-1.019 1.91a3.898 3.898 0 01-3.899 3.898h-2.203A3.898 3.898 0 017 18.602c0-.65-.372-1.328-1.019-1.91A8.98 8.98 0 013 10z" clip-rule="evenodd"/></svg>
