<svg xmlns="http://www.w3.org/2000/svg" fill="none" viewBox="0 0 16 16"><path fill="currentColor" fill-rule="evenodd" d="M4.5 1a.7.7 0 01.7.7v.35h5.6V1.7a.7.7 0 111.4 0v.438a2.801 2.801 0 012.1 2.712v6.65a2.8 2.8 0 01-2.8 2.8h-7a2.8 2.8 0 01-2.8-2.8V4.85c0-1.305.892-2.401 2.1-2.712V1.7a.7.7 0 01.7-.7zM3.1 7.3v4.2a1.4 1.4 0 001.4 1.4h7a1.4 1.4 0 001.4-1.4V7.3H3.1zm9.8-1.4H3.1V4.85a1.4 1.4 0 011.4-1.4h7a1.4 1.4 0 011.4 1.4V5.9z" clip-rule="evenodd"/><path fill="currentColor" d="M11.5 10.45a1.05 1.05 0 11-2.1 0 1.05 1.05 0 012.1 0z"/></svg>
