<svg xmlns="http://www.w3.org/2000/svg" fill="none" viewBox="0 0 16 16"><g clip-path="url(#a)"><path fill="currentColor" fill-rule="evenodd" d="M1.58 10.101a1.651 1.651 0 00-.486 2.06c1.078 2.155 3.61 3.554 5.992 2.441a15.837 15.837 0 007.643-7.643c1.113-2.383-.286-4.914-2.44-5.992a1.651 1.651 0 00-2.06.486L8.665 3.536a2.1 2.1 0 00.6 3.06l.464.28a.444.444 0 01.182.186.12.12 0 01.012.047c0 .007 0 .02-.01.04-.157.344-.477.866-1.124 1.514-.647.647-1.17.966-1.514 1.124a.092.092 0 01-.04.01.12.12 0 01-.047-.012.444.444 0 01-.186-.182l-.279-.464a2.1 2.1 0 00-3.06-.6L1.58 10.101zm.767 1.434a.251.251 0 01.074-.314L4.503 9.66a.7.7 0 011.02.2l.28.464c.363.607 1.17 1.141 2.055.737.512-.234 1.17-.655 1.922-1.407.752-.753 1.173-1.41 1.407-1.922.405-.885-.13-1.692-.737-2.056l-.464-.279a.7.7 0 01-.2-1.02l1.563-2.083a.251.251 0 01.313-.074c1.682.841 2.501 2.643 1.799 4.147a14.437 14.437 0 01-6.967 6.968c-1.505.702-3.306-.117-4.147-1.8z" clip-rule="evenodd"/></g><defs><clipPath id="a"><path fill="#fff" d="M0 0h16v16H0z"/></clipPath></defs></svg>
