<svg xmlns="http://www.w3.org/2000/svg" viewBox="0 0 16 16"><g clip-path="url(#a)"><path fill="currentColor" fill-rule="evenodd" d="M2.83 15.002a2.36 2.36 0 00-.695 2.942c1.54 3.079 5.155 5.077 8.56 3.487a22.624 22.624 0 0010.918-10.919c1.59-3.403-.408-7.02-3.487-8.559a2.36 2.36 0 00-2.942.695l-2.232 2.975a3 3 0 00.857 4.373l.663.397c.15.09.23.196.26.267a.174.174 0 01.017.067c0 .01-.002.028-.015.057-.225.492-.68 1.238-1.605 2.163-.925.925-1.671 1.38-2.163 1.605a.134.134 0 01-.057.015.174.174 0 01-.067-.017.634.634 0 01-.267-.26l-.398-.663a3 3 0 00-4.372-.857l-2.976 2.232zm1.094 2.048a.36.36 0 01.105-.448l2.976-2.232a1 1 0 011.457.286l.398.663c.52.866 1.673 1.63 2.937 1.052.732-.334 1.671-.935 2.746-2.01 1.075-1.075 1.676-2.014 2.01-2.745.578-1.265-.186-2.418-1.053-2.938l-.662-.397a1 1 0 01-.286-1.458l2.232-2.975a.359.359 0 01.447-.106c2.403 1.201 3.574 3.775 2.57 5.924a20.624 20.624 0 01-9.953 9.953c-2.15 1.004-4.723-.166-5.924-2.57z" clip-rule="evenodd"/></g><defs><clipPath id="a"><path d="M0 0h24v24H0z"/></clipPath></defs></svg>
