<svg xmlns="http://www.w3.org/2000/svg" viewBox="0 0 24 24"><path fill="currentColor" fill-rule="evenodd" d="M9.293 3.293A1 1 0 0110 3h4a1 1 0 01.707.293L16.414 5H18a4 4 0 014 4v8a4 4 0 01-4 4H6a4 4 0 01-4-4V9a4 4 0 014-4h1.586l1.707-1.707zM10.414 5L8.707 6.707A1 1 0 018 7H6a2 2 0 00-2 2v8a2 2 0 002 2h12a2 2 0 002-2V9a2 2 0 00-2-2h-2a1 1 0 01-.707-.293L13.586 5h-3.172z" clip-rule="evenodd"/><path fill="currentColor" fill-rule="evenodd" d="M12 10a2.5 2.5 0 100 5 2.5 2.5 0 000-5zm-4.5 2.5a4.5 4.5 0 119 0 4.5 4.5 0 01-9 0z" clip-rule="evenodd"/></svg>
