<svg xmlns="http://www.w3.org/2000/svg" fill="none" viewBox="0 0 16 16"><path fill="currentColor" fill-rule="evenodd" d="M6.105 1.905A.7.7 0 016.6 1.7h2.8a.7.7 0 01.495.205L11.09 3.1h1.11A2.8 2.8 0 0115 5.9v5.6a2.8 2.8 0 01-2.8 2.8H3.8A2.8 2.8 0 011 11.5V5.9a2.8 2.8 0 012.8-2.8h1.11l1.195-1.195zM6.89 3.1L5.695 4.295A.7.7 0 015.2 4.5H3.8a1.4 1.4 0 00-1.4 1.4v5.6a1.4 1.4 0 001.4 1.4h8.4a1.4 1.4 0 001.4-1.4V5.9a1.4 1.4 0 00-1.4-1.4h-1.4a.7.7 0 01-.495-.205L9.11 3.1H6.89z" clip-rule="evenodd"/><path fill="currentColor" fill-rule="evenodd" d="M8 6.6a1.75 1.75 0 100 3.5 1.75 1.75 0 000-3.5zM4.85 8.35a3.15 3.15 0 116.3 0 3.15 3.15 0 01-6.3 0z" clip-rule="evenodd"/></svg>
