<svg xmlns="http://www.w3.org/2000/svg" fill="none" viewBox="0 0 16 16"><path fill="currentColor" fill-rule="evenodd" d="M8 2.4a5.6 5.6 0 00-5.264 7.515c.184.506.291 1.097.178 1.705l-.338 1.804 1.804-.338c.608-.113 1.2-.006 1.705.178A5.6 5.6 0 108 2.4zM1 8a7 7 0 114.607 6.58c-.352-.128-.68-.171-.97-.117l-2.808.525a.7.7 0 01-.817-.817l.526-2.809c.054-.288.01-.617-.118-.969A6.989 6.989 0 011 8z" clip-rule="evenodd"/><path fill="currentColor" d="M12.2 8a1.05 1.05 0 11-2.1 0 1.05 1.05 0 012.1 0zM9.05 8a1.05 1.05 0 11-2.1 0 1.05 1.05 0 012.1 0zM5.9 8a1.05 1.05 0 11-2.1 0 1.05 1.05 0 012.1 0z"/></svg>
