<svg xmlns="http://www.w3.org/2000/svg" fill="none" viewBox="0 0 16 16"><path fill="currentColor" d="M8.714 14.706A5.24 5.24 0 0010.45 15c.55 0 1.082-.085 1.582-.243.384-.121.716-.166 1.003-.113l1.836.344a.7.7 0 00.817-.817l-.343-1.836c-.054-.288-.009-.62.113-1.004.157-.5.242-1.031.242-1.581 0-1.429-.57-2.724-1.496-3.67a7.764 7.764 0 01-.038 2.659 3.855 3.855 0 01-.043 2.171c-.154.486-.269 1.072-.154 1.682l.155.832-.832-.156c-.61-.114-1.196 0-1.682.154a3.823 3.823 0 01-.504.122 7.67 7.67 0 01-2.392 1.162z"/><path fill="currentColor" fill-rule="evenodd" d="M6.6 2.4a4.9 4.9 0 00-4.63 6.511c.175.5.285 1.089.17 1.698l-.264 1.415 1.415-.265c.61-.114 1.198-.004 1.698.17A4.9 4.9 0 106.6 2.4zM.3 7.3a6.3 6.3 0 114.229 5.951c-.362-.126-.692-.17-.98-.116l-2.42.453a.7.7 0 01-.817-.817l.453-2.42c.054-.288.01-.618-.116-.98A6.292 6.292 0 01.3 7.3z" clip-rule="evenodd"/></svg>
