<svg xmlns="http://www.w3.org/2000/svg" fill="none" viewBox="0 0 16 16"><path fill="currentColor" fill-rule="evenodd" d="M1 6.6a2.8 2.8 0 012.8-2.8h5.6a2.8 2.8 0 012.8 2.8v5.6A2.8 2.8 0 019.4 15H3.8A2.8 2.8 0 011 12.2V6.6zm2.8-1.4a1.4 1.4 0 00-1.4 1.4v5.6a1.4 1.4 0 001.4 1.4h5.6a1.4 1.4 0 001.4-1.4V6.6a1.4 1.4 0 00-1.4-1.4H3.8z" clip-rule="evenodd"/><path fill="currentColor" fill-rule="evenodd" d="M14.3 10.8a.7.7 0 00.7-.7V5.9A4.9 4.9 0 0010.1 1H5.9a.7.7 0 100 1.4h4.2a3.5 3.5 0 013.5 3.5v4.2a.7.7 0 00.7.7z" clip-rule="evenodd"/></svg>
