<svg xmlns="http://www.w3.org/2000/svg" fill="none" viewBox="0 0 16 16"><path fill="currentColor" fill-rule="evenodd" d="M8 1a.7.7 0 01.64.416l1.429 3.215a1.4 1.4 0 002.354.327l1.34-1.606a.7.7 0 011.235.498l-.56 7.85a2.8 2.8 0 01-2.793 2.6h-7.29a2.8 2.8 0 01-2.793-2.6l-.56-7.85a.7.7 0 011.236-.498l1.339 1.606a1.4 1.4 0 002.354-.327l1.43-3.215A.7.7 0 018 1zm0 2.424l-.79 1.775c-.83 1.872-3.316 2.24-4.657.716l.406 5.685a1.4 1.4 0 001.396 1.3h7.29a1.4 1.4 0 001.396-1.3l.406-5.685C12.106 7.44 9.621 7.071 8.79 5.2L8 3.424z" clip-rule="evenodd"/></svg>
