<svg xmlns="http://www.w3.org/2000/svg" viewBox="0 0 16 16"><path fill="currentColor" d="M12 1a1 1 0 011 1v1a1 1 0 11-2 0V2a1 1 0 011-1z"/><path fill="currentColor" fill-rule="evenodd" d="M12 19a7 7 0 100-14 7 7 0 000 14z" clip-rule="evenodd"/><path fill="currentColor" d="M13 21a1 1 0 10-2 0v1a1 1 0 102 0v-1zM19.778 4.222a1 1 0 010 1.414l-.707.707a1 1 0 11-1.414-1.414l.707-.707a1 1 0 011.414 0zM6.343 19.071a1 1 0 10-1.414-1.414l-.707.707a1 1 0 101.414 1.414l.707-.707zM19.778 19.778a1 1 0 01-1.414 0l-.707-.707a1 1 0 011.414-1.414l.707.707a1 1 0 010 1.414zM4.929 6.343A1 1 0 106.343 4.93l-.707-.707a1 1 0 00-1.414 1.414l.707.707zM23 12a1 1 0 01-1 1h-1a1 1 0 110-2h1a1 1 0 011 1zM3 13a1 1 0 100-2H2a1 1 0 100 2h1z"/></svg>
