<svg xmlns="http://www.w3.org/2000/svg" fill="none" viewBox="0 0 16 16"><g fill="currentColor" clip-path="url(#a)"><path d="M8 0a.7.7 0 01.7.7v.7a.7.7 0 11-1.4 0V.7A.7.7 0 018 0z"/><path fill-rule="evenodd" d="M8 13A5 5 0 108 3a5 5 0 000 10z" clip-rule="evenodd"/><path d="M8.7 14.6a.7.7 0 10-1.4 0v.7a.7.7 0 101.4 0v-.7zM16 8a.7.7 0 01-.7.7h-.7a.7.7 0 110-1.4h.7a.7.7 0 01.7.7zM1.4 8.7a.7.7 0 100-1.4H.7a.7.7 0 100 1.4h.7zM13.657 13.657a.7.7 0 01-.99 0l-.495-.495a.7.7 0 01.99-.99l.495.495a.7.7 0 010 .99zM2.343 3.333l.495.495a.7.7 0 10.99-.99l-.495-.495a.7.7 0 10-.99.99zM2.343 13.657a.7.7 0 010-.99l.495-.495a.7.7 0 11.99.99l-.495.495a.7.7 0 01-.99 0zM12.172 2.838a.7.7 0 10.99.99l.495-.495a.7.7 0 10-.99-.99l-.495.495z"/></g><defs><clipPath id="a"><path fill="#fff" d="M0 0h16v16H0z"/></clipPath></defs></svg>
