<svg xmlns="http://www.w3.org/2000/svg" fill="none" viewBox="0 0 24 24"><path fill="currentColor" fill-rule="evenodd" d="M9.175 14.627a.7.7 0 01-.619.373c-1.402 0-2.619-1.143-2.62-2.587l-.014-1.963H2.998c-1.162.01-2.163-1.04-1.976-2.255l.001-.007.901-5.527c.152-.974 1.02-1.67 1.975-1.66h9.138c1.059 0 1.98.861 1.98 1.96v4.48c0 1.097-.921 1.96-1.98 1.96L11.94 9.4l-2.764 5.227zM12.218 8h.82c.318 0 .58-.268.58-.56V2.96a.583.583 0 00-.58-.56h-.82V8zm-1.4-5.6h-6.93a.587.587 0 00-.58.478l-.002.006-.9 5.526c-.047.314.232.644.58.64h3.632a.7.7 0 01.7.695l.018 2.66v.005c0 .51.353.962.833 1.126l2.649-5.01V2.4z" clip-rule="evenodd"/></svg>
