<svg xmlns="http://www.w3.org/2000/svg" fill="none" viewBox="0 0 16 16"><path fill="currentColor" fill-rule="evenodd" d="M8 1.35a.7.7 0 01.7.7v.7h.7a2.8 2.8 0 012.8 2.8.7.7 0 11-1.4 0 1.4 1.4 0 00-1.4-1.4H6.6a1.4 1.4 0 00-1.4 1.4v.35a1.4 1.4 0 001.4 1.4h2.8a2.8 2.8 0 012.8 2.8v.35a2.8 2.8 0 01-2.8 2.8h-.7v.7a.7.7 0 11-1.4 0v-.7h-.7a2.8 2.8 0 01-2.8-2.8.7.7 0 011.4 0 1.4 1.4 0 001.4 1.4h2.8a1.4 1.4 0 001.4-1.4v-.35a1.4 1.4 0 00-1.4-1.4H6.6a2.8 2.8 0 01-2.8-2.8v-.35a2.8 2.8 0 012.8-2.8h.7v-.7a.7.7 0 01.7-.7z" clip-rule="evenodd"/></svg>
