<svg xmlns="http://www.w3.org/2000/svg" fill="none" viewBox="0 0 16 16"><path fill="currentColor" d="M8 1.7a.7.7 0 00-.7.7v4.2c0 .477.081 1.035.188 1.563l-.1.101a.75.75 0 01-.076-.104c-.348-.573-.789-1.224-1.231-1.67l-.386-.385a.7.7 0 00-.995.985l2.805 2.805a.7.7 0 00.99 0l2.8-2.8a.7.7 0 00-.988-.992l-.002.002-.375.375c-.446.446-.891 1.102-1.242 1.68a.75.75 0 01-.076.104l-.1-.1c.107-.53.188-1.087.188-1.564V2.4a.7.7 0 00-.7-.7z"/><path fill="currentColor" fill-rule="evenodd" d="M13.6 8.7a.7.7 0 01.7.7v2.1a2.8 2.8 0 01-2.8 2.8h-7a2.8 2.8 0 01-2.8-2.8V9.4a.7.7 0 111.4 0v2.1a1.4 1.4 0 001.4 1.4h7a1.4 1.4 0 001.4-1.4V9.4a.7.7 0 01.7-.7z" clip-rule="evenodd"/></svg>
