<svg xmlns="http://www.w3.org/2000/svg" viewBox="0 0 16 16"><path fill="currentColor" fill-rule="evenodd" d="M18.35 4.236a1 1 0 00-1.415 0L15.793 5.38l2.828 2.828 1.143-1.142a1 1 0 000-1.414l-1.415-1.415zm-1.143 5.385L14.38 6.793l-8.235 8.235a2 2 0 00-.496.82l-1.129 3.633 3.632-1.129a2 2 0 00.821-.496l8.235-8.235zm-1.686-6.799a3 3 0 014.242 0l1.415 1.414a3 3 0 010 4.243L10.386 19.271a4 4 0 01-1.641.991l-3.632 1.129c-1.538.478-2.982-.966-2.504-2.504l1.13-3.632c.192-.62.532-1.183.99-1.641L15.521 2.822z" clip-rule="evenodd"/></svg>
