<svg xmlns="http://www.w3.org/2000/svg" fill="none" viewBox="0 0 16 16"><path fill="currentColor" fill-rule="evenodd" d="M12.444 2.566a.7.7 0 00-.99 0l-.799.799 1.98 1.98.8-.8a.7.7 0 000-.99l-.99-.99zm-.8 3.769l-1.979-1.98L3.9 10.12a1.4 1.4 0 00-.347.574l-.79 2.543 2.543-.79a1.4 1.4 0 00.574-.347l5.765-5.765zm-1.18-4.76a2.1 2.1 0 012.97 0l.99.99a2.1 2.1 0 010 2.97L6.87 13.09a2.8 2.8 0 01-1.149.694l-2.542.79c-1.077.335-2.087-.675-1.753-1.752l.79-2.542a2.8 2.8 0 01.694-1.15l7.554-7.553z" clip-rule="evenodd"/></svg>
