<svg xmlns="http://www.w3.org/2000/svg" viewBox="0 0 16 16"><path fill="currentColor" fill-rule="evenodd" d="M10.57 10.12a1.441 1.441 0 112.86 0l-.438 3.504a1 1 0 01-1.984 0l-.438-3.504z" clip-rule="evenodd"/><path fill="currentColor" d="M13.5 17a1.5 1.5 0 11-3 0 1.5 1.5 0 013 0z"/><path fill="currentColor" fill-rule="evenodd" d="M8.536 4c1.54-2.667 5.389-2.667 6.928 0l6.928 12c1.54 2.667-.385 6-3.464 6H5.072c-3.08 0-5.004-3.333-3.464-6L8.536 4zm5.196 1c-.77-1.333-2.694-1.333-3.464 0L3.34 17c-.77 1.333.192 3 1.732 3h13.856c1.54 0 2.502-1.667 1.732-3L13.732 5z" clip-rule="evenodd"/></svg>
