<svg xmlns="http://www.w3.org/2000/svg" fill="none" viewBox="0 0 16 16"><path fill="currentColor" fill-rule="evenodd" d="M6.999 6.684a1.009 1.009 0 112.002 0l-.306 2.453a.7.7 0 01-1.39 0L7 6.684z" clip-rule="evenodd"/><path fill="currentColor" d="M9.05 11.5a1.05 1.05 0 11-2.1 0 1.05 1.05 0 012.1 0z"/><path fill="currentColor" d="M5.575 2.4c1.078-1.867 3.772-1.867 4.85 0l4.85 8.4c1.077 1.867-.27 4.2-2.425 4.2h-9.7C.995 15-.352 12.667.725 10.8l4.85-8.4zm3.638.7a1.4 1.4 0 00-2.425 0l-4.85 8.4a1.4 1.4 0 001.212 2.1h9.7a1.4 1.4 0 001.212-2.1l-4.85-8.4z"/></svg>
