<svg xmlns="http://www.w3.org/2000/svg" viewBox="0 0 24 24"><path fill="currentColor" d="M18.623 14.502c.74-1.04 1.151-2.03 1.323-2.502a10.7 10.7 0 00-1.928-3.269C16.766 7.3 14.863 6 12 6c-.614 0-1.183.06-1.711.167L8.664 4.542C9.643 4.202 10.75 4 12 4c3.566 0 5.983 1.653 7.524 3.414a12.614 12.614 0 012.384 4.14 1.41 1.41 0 010 .892 12.634 12.634 0 01-1.854 3.487l-1.43-1.431z"/><path fill="currentColor" fill-rule="evenodd" d="M4.476 7.414a12.612 12.612 0 00-2.384 4.14 1.408 1.408 0 000 .892c.18.542.864 2.4 2.384 4.14C6.017 18.346 8.434 20 12 20c2.107 0 3.812-.577 5.173-1.412l3.12 3.12a1 1 0 001.414-1.415l-18-18a1 1 0 00-1.414 1.414L5.225 6.64c-.27.253-.519.513-.749.775zm1.506 7.855C7.234 16.7 9.136 18 12 18c1.478 0 2.7-.346 3.708-.878l-2.415-2.414a3 3 0 01-4.001-4.001L6.64 8.054a8.9 8.9 0 00-.658.677A10.702 10.702 0 004.054 12c.214.588.797 1.976 1.928 3.269z" clip-rule="evenodd"/></svg>