<svg xmlns="http://www.w3.org/2000/svg" fill="none" viewBox="0 0 16 16"><path fill="currentColor" d="M12.636 9.751c.519-.728.806-1.42.926-1.751a7.488 7.488 0 00-1.35-2.288C11.337 4.71 10.005 3.8 8 3.8c-.43 0-.828.042-1.198.117L5.664 2.78A7.082 7.082 0 018 2.4c2.496 0 4.188 1.157 5.267 2.39a8.827 8.827 0 011.669 2.898.986.986 0 010 .624c-.11.332-.491 1.37-1.298 2.44l-1.002-1z"/><path fill="currentColor" fill-rule="evenodd" d="M2.733 4.79a8.828 8.828 0 00-1.669 2.898.986.986 0 000 .624c.126.38.605 1.68 1.67 2.898C3.811 12.443 5.503 13.6 8 13.6c1.475 0 2.669-.404 3.621-.989l2.184 2.184a.7.7 0 00.99-.99l-12.6-12.6a.7.7 0 10-.99.99l2.052 2.052a7.614 7.614 0 00-.524.543zM8 12.2c-2.005 0-3.336-.91-4.213-1.912A7.49 7.49 0 012.437 8a7.49 7.49 0 011.35-2.288c.142-.162.295-.321.46-.474l1.858 1.857a2.1 2.1 0 002.8 2.8l1.69 1.69c-.705.373-1.56.615-2.595.615z" clip-rule="evenodd"/></svg>
