<svg xmlns="http://www.w3.org/2000/svg" fill="none" viewBox="0 0 16 16"><path fill="currentColor" fill-rule="evenodd" d="M8 6.6a1.4 1.4 0 100 2.8 1.4 1.4 0 000-2.8zM5.2 8a2.8 2.8 0 115.6 0 2.8 2.8 0 01-5.6 0z" clip-rule="evenodd"/><path fill="currentColor" fill-rule="evenodd" d="M2.438 8a7.49 7.49 0 001.35 2.288C4.663 11.29 5.995 12.2 8 12.2c2.004 0 3.336-.91 4.213-1.912A7.488 7.488 0 0013.562 8a7.488 7.488 0 00-1.35-2.288C11.337 4.71 10.005 3.8 8 3.8c-2.005 0-3.336.91-4.213 1.912A7.49 7.49 0 002.437 8zm.295-3.21C3.812 3.557 5.504 2.4 8 2.4c2.496 0 4.188 1.157 5.267 2.39a8.827 8.827 0 011.669 2.898.986.986 0 010 .624 8.828 8.828 0 01-1.67 2.898C12.189 12.443 10.497 13.6 8 13.6s-4.188-1.157-5.267-2.39a8.829 8.829 0 01-1.669-2.898.986.986 0 010-.624c.126-.38.605-1.68 1.67-2.898z" clip-rule="evenodd"/></svg>
