<svg xmlns="http://www.w3.org/2000/svg" viewBox="0 0 24 24"><path fill="currentColor" fill-rule="evenodd" d="M12 10a2 2 0 100 4 2 2 0 000-4zm-4 2a4 4 0 118 0 4 4 0 01-8 0z" clip-rule="evenodd"/><path fill="currentColor" fill-rule="evenodd" d="M4.054 12a10.7 10.7 0 001.928 3.269C7.234 16.7 9.136 18 12 18s4.766-1.3 6.018-2.731A10.702 10.702 0 0019.946 12a10.703 10.703 0 00-1.928-3.269C16.766 7.3 14.863 6 12 6 9.136 6 7.234 7.3 5.982 8.731A10.701 10.701 0 004.054 12zm.422-4.586C6.016 5.653 8.434 4 12 4s5.983 1.653 7.524 3.414a12.612 12.612 0 012.384 4.14c.096.293.096.6 0 .892-.18.542-.864 2.4-2.384 4.14C17.983 18.346 15.565 20 12 20c-3.566 0-5.983-1.653-7.524-3.415a12.612 12.612 0 01-2.384-4.14 1.408 1.408 0 010-.89c.179-.543.864-2.402 2.384-4.14z" clip-rule="evenodd"/></svg>
