<svg xmlns="http://www.w3.org/2000/svg" fill="none" viewBox="0 0 16 16"><path fill="currentColor" fill-rule="evenodd" d="M1 3.8A2.8 2.8 0 013.8 1h8.4A2.8 2.8 0 0115 3.8v.623a2.8 2.8 0 01-.674 1.822l-3.189 3.72a1.4 1.4 0 00-.337.912V12.9A2.1 2.1 0 018.7 15H7.3a2.1 2.1 0 01-2.1-2.1v-2.023a1.4 1.4 0 00-.337-.911l-3.189-3.72A2.8 2.8 0 011 4.422V3.8zm2.8-1.4a1.4 1.4 0 00-1.4 1.4v.623c0 .334.12.658.337.911l3.189 3.72a2.8 2.8 0 01.674 1.823V12.9a.7.7 0 00.7.7h1.4a.7.7 0 00.7-.7v-2.023a2.8 2.8 0 01.674-1.822l3.189-3.72a1.4 1.4 0 00.337-.912V3.8a1.4 1.4 0 00-1.4-1.4H3.8z" clip-rule="evenodd"/></svg>
