<svg xmlns="http://www.w3.org/2000/svg" fill="none" viewBox="0 0 16 16"><path fill="currentColor" d="M14.095 1.905a.7.7 0 00-.99 0L10.63 4.38c-.337.337-.674.79-.972 1.239h-.142a.75.75 0 01.02-.128c.159-.65.307-1.423.31-2.05v-.546a.7.7 0 00-1.4-.006v3.966a.7.7 0 00.7.7h3.959a.7.7 0 00.003-1.4h-.533c-.631 0-1.41.149-2.066.31a.75.75 0 01-.128.02v-.143c.45-.298.902-.635 1.239-.972l2.475-2.475a.7.7 0 000-.99zM1.905 14.095a.7.7 0 00.99 0L5.37 11.62c.337-.337.674-.79.972-1.239h.142a.751.751 0 01-.02.128c-.159.65-.307 1.423-.31 2.05v.546a.7.7 0 001.4.006V9.145a.7.7 0 00-.7-.7h-3.96a.7.7 0 00-.002 1.4h.533c.63 0 1.41-.149 2.066-.31a.75.75 0 01.128-.02v.143c-.45.298-.902.635-1.24.972l-2.474 2.475a.7.7 0 000 .99z"/></svg>
