<svg xmlns="http://www.w3.org/2000/svg" fill="none" viewBox="0 0 16 16"><path fill="currentColor" d="M8.65 7.35a.7.7 0 00.99 0l2.475-2.475c.337-.337.675-.79.973-1.239h.142a.741.741 0 01-.02.128c-.16.65-.308 1.423-.31 2.05v.546a.7.7 0 001.4.006V2.4a.7.7 0 00-.7-.7H9.64a.7.7 0 00-.002 1.4h.532c.631 0 1.41-.149 2.066-.31a.75.75 0 01.128-.02v.143c-.45.298-.902.635-1.239.972L8.65 6.36a.7.7 0 000 .99zM7.35 8.65a.7.7 0 00-.99 0l-2.475 2.475c-.337.337-.674.79-.973 1.239H2.77a.75.75 0 01.02-.128c.16-.65.308-1.423.31-2.05V9.64a.7.7 0 00-1.4-.006V13.6a.7.7 0 00.7.7h3.96a.7.7 0 00.003-1.4H5.83c-.631 0-1.41.149-2.066.31a.753.753 0 01-.128.02v-.143c.45-.298.902-.635 1.239-.972L7.35 9.64a.7.7 0 000-.99z"/></svg>
