<svg xmlns="http://www.w3.org/2000/svg" fill="none" viewBox="0 0 16 16"><path fill="currentColor" d="M20.707 3.293a1 1 0 00-1.414 0l-3.536 3.535c-.481.482-.963 1.128-1.389 1.77h-.203a1.07 1.07 0 01.029-.182c.227-.93.439-2.033.442-2.93v-.779a1 1 0 00-2-.009v5.666a1 1 0 001 1h5.657a1 1 0 00.004-2h-.762c-.9 0-2.014.213-2.95.442a1.072 1.072 0 01-.183.029v-.203c.642-.426 1.288-.908 1.77-1.39l3.535-3.535a1 1 0 000-1.414zM3.293 20.707a1 1 0 001.414 0l3.536-3.535c.481-.482.963-1.128 1.389-1.77h.203c-.004.06-.014.121-.029.182-.227.93-.439 2.033-.442 2.93v.779a1 1 0 002 .009v-5.666a1 1 0 00-1-1H4.707a1 1 0 00-.004 2h.761c.902 0 2.014-.213 2.952-.442a1.07 1.07 0 01.182-.029v.203c-.642.426-1.288.908-1.77 1.39l-3.535 3.535a1 1 0 000 1.414z"/></svg>
