<svg xmlns="http://www.w3.org/2000/svg" fill="none" viewBox="0 0 24 24"><path fill="currentColor" d="M4.5 3.1a1.4 1.4 0 11-2.8 0 1.4 1.4 0 012.8 0zM9.4 3.1a1.4 1.4 0 11-2.8 0 1.4 1.4 0 012.8 0zM14.3 3.1a1.4 1.4 0 11-2.8 0 1.4 1.4 0 012.8 0zM4.5 8a1.4 1.4 0 11-2.8 0 1.4 1.4 0 012.8 0zM9.4 8a1.4 1.4 0 11-2.8 0 1.4 1.4 0 012.8 0zM14.3 8a1.4 1.4 0 11-2.8 0 1.4 1.4 0 012.8 0zM4.5 12.9a1.4 1.4 0 11-2.8 0 1.4 1.4 0 012.8 0zM9.4 12.9a1.4 1.4 0 11-2.8 0 1.4 1.4 0 012.8 0zM14.3 12.9a1.4 1.4 0 11-2.8 0 1.4 1.4 0 012.8 0z"/></svg>
