<svg xmlns="http://www.w3.org/2000/svg" fill="none" viewBox="0 0 16 16"><path fill="currentColor" fill-rule="evenodd" d="M7.815 2.757c.066.06.128.12.185.18.057-.06.119-.12.185-.18C8.787 2.21 9.74 1.7 11.15 1.7c1.072 0 2.054.433 2.76 1.248.701.809 1.09 1.945 1.09 3.302 0 1.662-.978 3.277-2.07 4.585-1.112 1.333-2.45 2.47-3.373 3.19a2.518 2.518 0 01-3.114 0c-.924-.72-2.26-1.857-3.373-3.19C1.978 9.527 1 7.912 1 6.25c0-1.357.389-2.493 1.09-3.302A3.593 3.593 0 014.85 1.7c1.41 0 2.363.51 2.965 1.057zM3.148 3.865C2.71 4.368 2.4 5.157 2.4 6.25c0 1.15.703 2.44 1.745 3.688 1.021 1.224 2.271 2.292 3.159 2.984.416.324.976.324 1.392 0 .888-.692 2.138-1.76 3.16-2.984C12.895 8.691 13.6 7.4 13.6 6.25c0-1.093-.311-1.882-.748-2.385A2.194 2.194 0 0011.15 3.1c-1.04 0-1.662.365-2.023.693-.186.17-.311.337-.388.458-.057.09-.086.153-.091.165v.001a.7.7 0 01-1.295 0l-.092-.166a2.261 2.261 0 00-.388-.458C6.512 3.465 5.889 3.1 4.85 3.1c-.678 0-1.27.267-1.702.765z" clip-rule="evenodd"/></svg>
