<svg xmlns="http://www.w3.org/2000/svg" viewBox="0 0 16 16"><path fill="currentColor" fill-rule="evenodd" d="M11.735 4.51c.095.086.183.172.265.258.082-.086.17-.172.265-.258C13.124 3.729 14.485 3 16.5 3c1.531 0 2.935.62 3.943 1.782C21.445 5.938 22 7.562 22 9.5c0 2.374-1.397 4.681-2.957 6.55-1.59 1.904-3.499 3.53-4.82 4.558a3.598 3.598 0 01-4.447 0c-1.32-1.029-3.23-2.654-4.819-4.558C3.397 14.181 2 11.874 2 9.5c0-1.938.555-3.562 1.557-4.718C4.565 3.62 5.969 3 7.5 3c2.015 0 3.376.729 4.235 1.51zM5.068 6.092C4.445 6.812 4 7.938 4 9.5c0 1.643 1.005 3.487 2.492 5.269 1.46 1.748 3.245 3.273 4.514 4.262a1.598 1.598 0 001.988 0c1.269-.989 3.054-2.514 4.514-4.262C18.996 12.987 20 11.143 20 9.499c0-1.561-.445-2.687-1.068-3.407C18.315 5.381 17.469 5 16.5 5c-1.485 0-2.374.52-2.89.99a3.227 3.227 0 00-.554.654 2.005 2.005 0 00-.13.236l-.002.001a1 1 0 01-1.848 0l-.132-.237a3.227 3.227 0 00-.554-.654C9.874 5.52 8.985 5 7.5 5c-.969 0-1.815.38-2.432 1.092z" clip-rule="evenodd"/></svg>
