<svg xmlns="http://www.w3.org/2000/svg" viewBox="0 0 16 16"><path fill="currentColor" fill-rule="evenodd" d="M11.735 4.51c.095.086.183.172.265.258.082-.086.17-.172.265-.258C13.124 3.729 14.485 3 16.5 3c1.531 0 2.935.62 3.943 1.782C21.445 5.938 22 7.562 22 9.5c0 2.374-1.397 4.681-2.957 6.55-1.59 1.904-3.499 3.53-4.82 4.558a3.598 3.598 0 01-4.447 0c-1.32-1.029-3.23-2.654-4.819-4.558C3.397 14.181 2 11.874 2 9.5c0-1.938.555-3.562 1.557-4.718C4.565 3.62 5.969 3 7.5 3c2.015 0 3.376.729 4.235 1.51z" clip-rule="evenodd"/></svg>
