<svg xmlns="http://www.w3.org/2000/svg" fill="none" viewBox="0 0 16 16"><path fill="currentColor" fill-rule="evenodd" d="M8 2.938a3.757 3.757 0 00-.185-.181C7.213 2.21 6.26 1.7 4.85 1.7a3.593 3.593 0 00-2.76 1.248C1.389 3.757 1 4.893 1 6.25c0 1.662.978 3.277 2.07 4.585 1.112 1.333 2.45 2.47 3.373 3.19a2.518 2.518 0 003.114 0c.924-.72 2.26-1.857 3.373-3.19C14.022 9.527 15 7.912 15 6.25c0-1.357-.389-2.493-1.09-3.302A3.593 3.593 0 0011.15 1.7c-1.41 0-2.363.51-2.965 1.057-.066.06-.128.12-.185.18z" clip-rule="evenodd"/></svg>
