<svg xmlns="http://www.w3.org/2000/svg" fill="none" viewBox="0 0 16 16"><path fill="currentColor" fill-rule="evenodd" d="M8 2.4a5.6 5.6 0 100 11.2A5.6 5.6 0 008 2.4zM1 8a7 7 0 1114 0A7 7 0 011 8z" clip-rule="evenodd"/><path fill="currentColor" d="M9.05 11.15a1.05 1.05 0 11-2.1 0 1.05 1.05 0 012.1 0z"/><path fill="currentColor" fill-rule="evenodd" d="M8 5.2c-.58 0-1.05.47-1.05 1.05a.7.7 0 11-1.4 0 2.45 2.45 0 114.9 0c0 1.043-.674 1.663-1.138 2.034-.108.087-.196.154-.272.212a3.675 3.675 0 00-.289.234.847.847 0 00-.056.058A.7.7 0 017.3 8.7c0-.483.304-.814.496-.993.132-.124.316-.265.47-.383l.172-.133c.411-.33.612-.584.612-.941 0-.58-.47-1.05-1.05-1.05z" clip-rule="evenodd"/></svg>
