<svg xmlns="http://www.w3.org/2000/svg" fill="none" viewBox="0 0 16 16"><path fill="currentColor" fill-rule="evenodd" d="M7.01 2.98a1.4 1.4 0 011.98 0l3.5 3.5a1.4 1.4 0 01.41.99v4.03a1.4 1.4 0 01-1.4 1.4h-.7v-2.8a2.8 2.8 0 10-5.6 0v2.8h-.7a1.4 1.4 0 01-1.4-1.4V7.47a1.4 1.4 0 01.41-.99l3.5-3.5zM6.6 12.9v-2.8a1.4 1.4 0 012.8 0v2.8H6.6zM9.98 1.99a2.8 2.8 0 00-3.96 0l-3.5 3.5a2.8 2.8 0 00-.82 1.98v4.03a2.8 2.8 0 002.8 2.8h7a2.8 2.8 0 002.8-2.8V7.47a2.8 2.8 0 00-.82-1.98l-3.5-3.5z" clip-rule="evenodd"/></svg>
