<svg xmlns="http://www.w3.org/2000/svg" fill="none" viewBox="0 0 16 16"><path fill="currentColor" fill-rule="evenodd" d="M4.5 3.1a1.4 1.4 0 00-1.4 1.4v7a1.4 1.4 0 001.4 1.4h7a1.4 1.4 0 001.4-1.4v-1.4a.7.7 0 111.4 0v1.4a2.8 2.8 0 01-2.8 2.8h-7a2.8 2.8 0 01-2.8-2.8v-7a2.8 2.8 0 012.8-2.8h1.4a.7.7 0 010 1.4H4.5z" clip-rule="evenodd"/><path fill="currentColor" d="M7.25 8.75a.7.7 0 00.99 0l3.875-3.875c.337-.337.675-.79.973-1.239h.142a.751.751 0 01-.02.128c-.16.65-.308 1.422-.31 2.05v.78a.7.7 0 001.4.006V2.4a.7.7 0 00-.7-.7H9.403A.7.7 0 009.4 3.1h.771c.63 0 1.41-.15 2.065-.31a.75.75 0 01.128-.02v.142c-.45.299-.902.636-1.239.973L7.25 7.76a.7.7 0 000 .99z"/></svg>
