<svg xmlns="http://www.w3.org/2000/svg" fill="none" viewBox="0 0 24 24"><path fill="currentColor" fill-rule="evenodd" d="M6.843 1.373A.7.7 0 017.46 1c1.402 0 2.62 1.143 2.62 2.587l.014 1.963h2.925c1.162-.01 2.162 1.04 1.976 2.255l-.002.007-.9 5.527c-.153.974-1.02 1.67-1.976 1.66H2.98C1.922 15 1 14.139 1 13.04V8.56c0-1.097.922-1.96 1.98-1.96l1.098.001 2.765-5.227zM3.8 8h-.82a.583.583 0 00-.58.56v4.48c0 .292.261.56.58.56h.82V8zm1.4 5.6h6.93a.587.587 0 00.58-.478l.001-.006.901-5.526c.047-.314-.233-.644-.58-.64H9.4a.7.7 0 01-.7-.695l-.018-2.66V3.59c0-.51-.354-.962-.833-1.126L5.2 7.474V13.6z" clip-rule="evenodd"/></svg>
