<svg xmlns="http://www.w3.org/2000/svg" fill="none" viewBox="0 0 16 16"><path fill="currentColor" fill-rule="evenodd" d="M8 5.2A1.4 1.4 0 108 8a1.4 1.4 0 000-2.8zM5.2 6.6a2.8 2.8 0 115.6 0 2.8 2.8 0 01-5.6 0z" clip-rule="evenodd"/><path fill="currentColor" fill-rule="evenodd" d="M8 1.7a4.9 4.9 0 00-4.9 4.9c0 .627.217 1.387.61 2.205.388.81.926 1.632 1.513 2.369.587.738 1.209 1.372 1.753 1.815.273.221.513.384.71.489.097.051.175.084.234.103.05.016.076.019.08.019.004 0 .03-.003.08-.02a1.48 1.48 0 00.234-.102c.197-.104.437-.268.71-.49.544-.442 1.166-1.076 1.753-1.814.587-.737 1.125-1.559 1.514-2.369.392-.818.609-1.578.609-2.205A4.9 4.9 0 008 1.7zM1.7 6.6a6.3 6.3 0 1112.6 0c0 .92-.308 1.895-.747 2.81-.443.924-1.042 1.835-1.68 2.636-.638.8-1.329 1.511-1.966 2.029-.318.258-.635.48-.936.64-.287.151-.627.285-.971.285-.345 0-.684-.134-.97-.286a5.937 5.937 0 01-.937-.64c-.637-.517-1.328-1.227-1.966-2.028-.638-.801-1.237-1.712-1.68-2.635C2.008 8.495 1.7 7.519 1.7 6.6z" clip-rule="evenodd"/></svg>
