<svg xmlns="http://www.w3.org/2000/svg" fill="none" viewBox="0 0 16 16"><path fill="currentColor" fill-rule="evenodd" d="M4.5 4.5a3.5 3.5 0 117 0v1.4a2.8 2.8 0 012.8 2.8v3.5a2.8 2.8 0 01-2.8 2.8h-7a2.8 2.8 0 01-2.8-2.8V8.7a2.8 2.8 0 012.8-2.8V4.5zm.7 2.8h-.7a1.4 1.4 0 00-1.4 1.4v3.5a1.4 1.4 0 001.4 1.4h7a1.4 1.4 0 001.4-1.4V8.7a1.4 1.4 0 00-1.4-1.4h-.7s.001 0 0 0H5.2zm4.9-1.4H5.9V4.5a2.1 2.1 0 114.2 0v1.4z" clip-rule="evenodd"/><path fill="currentColor" d="M9.05 10.45a1.05 1.05 0 11-2.1 0 1.05 1.05 0 012.1 0z"/></svg>
