<svg xmlns="http://www.w3.org/2000/svg" viewBox="0 0 24 24"><path fill="currentColor" d="M3 12a1 1 0 001 1h6c.681 0 1.478-.116 2.234-.269l.143.143a1.07 1.07 0 01-.149.11c-.818.496-1.748 1.126-2.384 1.758l-.551.55a1 1 0 001.408 1.421l4.006-4.006a1 1 0 000-1.414l-4-4A1 1 0 009.29 8.704l.003.003.535.536c.638.637 1.575 1.273 2.4 1.774.054.032.104.069.15.109l-.144.143C11.478 11.116 10.68 11 10 11H4a1 1 0 00-1 1z"/><path fill="currentColor" fill-rule="evenodd" d="M13 4a1 1 0 011-1h3a4 4 0 014 4v10a4 4 0 01-4 4h-3a1 1 0 110-2h3a2 2 0 002-2V7a2 2 0 00-2-2h-3a1 1 0 01-1-1z" clip-rule="evenodd"/></svg>
