<svg xmlns="http://www.w3.org/2000/svg" fill="none" viewBox="0 0 16 16"><path fill="currentColor" d="M5.2 8a.7.7 0 00.7.7h4.9c.477 0 1.035-.081 1.563-.188l.101.1a.745.745 0 01-.104.076c-.573.348-1.224.789-1.67 1.231l-.385.386a.7.7 0 00.985.994l2.805-2.804a.7.7 0 000-.99l-2.8-2.8a.7.7 0 00-.992.988l.002.002.375.375c.446.446 1.102.891 1.68 1.242a.753.753 0 01.104.076l-.1.1c-.53-.107-1.087-.188-1.564-.188H5.9a.7.7 0 00-.7.7z"/><path fill="currentColor" fill-rule="evenodd" d="M7.3 2.4a.7.7 0 00-.7-.7H4.5a2.8 2.8 0 00-2.8 2.8v7a2.8 2.8 0 002.8 2.8h2.1a.7.7 0 100-1.4H4.5a1.4 1.4 0 01-1.4-1.4v-7a1.4 1.4 0 011.4-1.4h2.1a.7.7 0 00.7-.7z" clip-rule="evenodd"/></svg>
