<svg xmlns="http://www.w3.org/2000/svg" viewBox="0 0 24 24"><path fill="currentColor" d="M8 12a1 1 0 001 1h7c.681 0 1.478-.116 2.234-.269l.143.143a1.07 1.07 0 01-.149.11c-.818.496-1.748 1.126-2.384 1.758l-.551.55a1 1 0 001.408 1.421l4.006-4.006a1 1 0 000-1.414l-4-4a1 1 0 00-1.417 1.411l.003.003.535.536c.638.637 1.575 1.273 2.4 1.774.054.032.104.069.15.109l-.144.143C17.478 11.116 16.68 11 16 11H9a1 1 0 00-1 1z"/><path fill="currentColor" fill-rule="evenodd" d="M11 4a1 1 0 00-1-1H7a4 4 0 00-4 4v10a4 4 0 004 4h3a1 1 0 100-2H7a2 2 0 01-2-2V7a2 2 0 012-2h3a1 1 0 001-1z" clip-rule="evenodd"/></svg>
