<svg xmlns="http://www.w3.org/2000/svg" fill="none" viewBox="0 0 16 16"><path fill="currentColor" d="M1.7 8a.7.7 0 00.7.7h4.2c.477 0 1.035-.081 1.563-.188l.101.1a.75.75 0 01-.104.076c-.573.348-1.224.789-1.67 1.231l-.385.386a.7.7 0 00.985.994l2.805-2.804a.7.7 0 000-.99l-2.8-2.8a.7.7 0 00-.992.988l.002.002.375.375c.446.446 1.102.891 1.68 1.242a.75.75 0 01.104.076l-.1.1C7.633 7.381 7.076 7.3 6.6 7.3H2.4a.7.7 0 00-.7.7z"/><path fill="currentColor" fill-rule="evenodd" d="M8.7 2.4a.7.7 0 01.7-.7h2.1a2.8 2.8 0 012.8 2.8v7a2.8 2.8 0 01-2.8 2.8H9.4a.7.7 0 110-1.4h2.1a1.4 1.4 0 001.4-1.4v-7a1.4 1.4 0 00-1.4-1.4H9.4a.7.7 0 01-.7-.7z" clip-rule="evenodd"/></svg>
