<svg xmlns="http://www.w3.org/2000/svg" fill="none" viewBox="0 0 24 24"><path fill="currentColor" fill-rule="evenodd" d="M8.68 2.879a1.4 1.4 0 00-1.36 0l-4.2 2.333a1.399 1.399 0 00-.465.418L7.32 8.222a1.4 1.4 0 001.36 0l4.665-2.592a1.4 1.4 0 00-.465-.418l-4.2-2.333zm4.92 4.21L9.36 9.446a2.8 2.8 0 01-2.72 0L2.4 7.09v4.41a1.4 1.4 0 001.4 1.4h8.4a1.4 1.4 0 001.4-1.4V7.09zM6.64 1.656a2.8 2.8 0 012.72 0l4.2 2.333A2.8 2.8 0 0115 6.436V11.5a2.8 2.8 0 01-2.8 2.8H3.8A2.8 2.8 0 011 11.5V6.436a2.8 2.8 0 011.44-2.448l4.2-2.333z" clip-rule="evenodd"/></svg>
