<svg xmlns="http://www.w3.org/2000/svg" viewBox="0 0 24 24"><path fill="currentColor" d="M14 21a2 2 0 11-4 0c0-1.105.896-1 2-1 1.105 0 2-.105 2 1z"/><path fill="var(--color-text-error)" d="M19 6.5a2.5 2.5 0 11-5 0 2.5 2.5 0 015 0z"/><path fill="currentColor" d="M3.42 16.276a1 1 0 00-.174 1.992l15.94 1.395a1 1 0 10.174-1.992l-.997-.088.61-6.973a7.04 7.04 0 00.023-.365 4.473 4.473 0 01-2.063.734l-.562 6.43-9.962-.872.61-6.973a5 5 0 015.235-4.558c.27-.77.745-1.444 1.358-1.957l.082-.932a1 1 0 00-1.993-.174l-.093 1.067a7.002 7.002 0 00-6.581 6.38l-.61 6.973-.997-.087z"/></svg>
