<svg xmlns="http://www.w3.org/2000/svg" fill="none" viewBox="0 0 16 16"><path fill="currentColor" d="M9.4 14.3a1.4 1.4 0 11-2.8 0c0-.773.627-.7 1.4-.7.773 0 1.4-.073 1.4.7zM1.994 10.994a.7.7 0 10-.122 1.394l11.158.976a.7.7 0 00.122-1.394l-.698-.061.427-4.882a4.91 4.91 0 00.016-.255c-.42.28-.913.463-1.444.514l-.393 4.5-6.974-.61.427-4.881a3.5 3.5 0 013.665-3.19c.19-.54.521-1.011.95-1.37l.057-.653A.7.7 0 007.791.96l-.066.747A4.901 4.901 0 003.12 6.173l-.427 4.882-.698-.061z"/><path fill="currentColor" d="M12.9 4.15a1.75 1.75 0 11-3.5 0 1.75 1.75 0 013.5 0z"/></svg>
