<svg xmlns="http://www.w3.org/2000/svg" fill="none" viewBox="0 0 24 24"><g clip-path="url(#a)"><path fill="currentColor" fill-rule="evenodd" d="M6.94.915a2.1 2.1 0 012.97 0l4.95 4.95a2.1 2.1 0 010 2.97c-.388.387-.834.607-1.321.627-.468.02-.88-.15-1.209-.35-.691-.42-1.322-.385-1.678-.03-.188.188-.299.46-.332.843-.033.387.02.829.11 1.278a3.22 3.22 0 01-.892 2.953l-1.114 1.113a.7.7 0 01-.99 0l-2.97-2.97-2.76 2.761a.7.7 0 11-.99-.99l2.76-2.76-2.97-2.97a.7.7 0 010-.99L1.62 6.236a3.222 3.222 0 012.951-.892c.45.09.892.143 1.28.11.382-.033.655-.145.843-.332.355-.356.39-.986-.031-1.677-.2-.329-.37-.74-.35-1.209.02-.487.24-.933.627-1.32zm.99 12.87l.618-.62c.48-.478.628-1.092.509-1.687-.1-.499-.182-1.092-.132-1.673.05-.587.24-1.217.737-1.713 1.011-1.01 2.436-.76 3.396-.175.195.119.33.15.422.146.074-.003.201-.03.39-.218a.7.7 0 000-.99l-4.95-4.95a.7.7 0 00-.99 0c-.188.188-.216.316-.219.389-.004.092.028.228.147.423.584.959.835 2.384-.175 3.395-.497.496-1.127.686-1.714.736-.581.05-1.174-.032-1.673-.131a1.823 1.823 0 00-1.688.51l-.618.618 5.94 5.94z" clip-rule="evenodd"/></g><defs><clipPath id="a"><path fill="#fff" d="M0 0h16v16H0z"/></clipPath></defs></svg>
