<svg xmlns="http://www.w3.org/2000/svg" fill="none" viewBox="0 0 16 16"><g clip-path="url(#a)"><path fill="currentColor" fill-rule="evenodd" d="M6.94.915a2.1 2.1 0 012.97 0l4.95 4.95a2.1 2.1 0 010 2.97c-.388.387-.834.606-1.32.627-.469.02-.881-.15-1.21-.35-.691-.42-1.322-.386-1.678-.03-.187.188-.299.46-.332.843-.033.387.02.829.11 1.278a3.22 3.22 0 01-.892 2.953l-1.113 1.113a.7.7 0 01-.99 0l-2.97-2.97-2.76 2.761a.7.7 0 11-.99-.99l2.76-2.76-2.97-2.97a.7.7 0 010-.99L1.62 6.236a3.222 3.222 0 012.951-.892c.45.09.892.143 1.28.11.383-.033.655-.145.843-.332.355-.356.39-.986-.03-1.677-.2-.329-.37-.74-.35-1.21.02-.486.24-.932.627-1.32zm.99 12.87l.618-.62c.48-.478.628-1.092.51-1.687-.1-.499-.182-1.092-.132-1.673.05-.587.24-1.217.736-1.713 1.011-1.011 2.437-.76 3.396-.175.195.119.33.15.423.146.073-.003.2-.03.388-.218a.7.7 0 000-.99l-4.95-4.95a.7.7 0 00-.99 0c-.187.188-.215.316-.218.389-.004.092.028.227.147.423.584.959.836 2.384-.175 3.395-.496.496-1.127.686-1.713.736-.582.05-1.175-.032-1.674-.131a1.823 1.823 0 00-1.687.509l-.619.619 5.94 5.94z" clip-rule="evenodd"/></g><defs><clipPath id="a"><path fill="#fff" d="M0 0h16v16H0z"/></clipPath></defs></svg>
