<svg xmlns="http://www.w3.org/2000/svg" fill="none" viewBox="0 0 16 16"><path fill="currentColor" d="M12.193 8.813l.357-.207a.7.7 0 000-1.212L8.347 4.967 5.655 2.275c.425-.052.876.027 1.295.269l6.3 3.637c1.4.809 1.4 2.83 0 3.638l-.033.018-1.024-1.024z"/><path fill="currentColor" fill-rule="evenodd" d="M6.95 13.456c-1.4.808-3.15-.202-3.15-1.819V4.79L1.205 2.195a.7.7 0 11.99-.99l12.6 12.6a.7.7 0 01-.99.99l-3.358-3.358-3.497 2.019zm-.7-1.213a.7.7 0 01-1.05-.606V6.19l4.222 4.222-3.172 1.831z" clip-rule="evenodd"/></svg>
