<svg xmlns="http://www.w3.org/2000/svg" fill="none" viewBox="0 0 14 16"><path fill="currentColor" fill-rule="evenodd" d="M0 4.5a2.8 2.8 0 012.8-2.8h8.4A2.8 2.8 0 0114 4.5v7a2.8 2.8 0 01-2.8 2.8H2.8A2.8 2.8 0 010 11.5v-7zm2.8-1.4a1.4 1.4 0 00-1.4 1.4v7a1.4 1.4 0 001.4 1.4h8.4a1.4 1.4 0 001.4-1.4v-7a1.4 1.4 0 00-1.4-1.4H2.8z" clip-rule="evenodd"/><path fill="currentColor" fill-rule="evenodd" d="M7 5.2a.7.7 0 01.7-.7h2.8a.7.7 0 110 1.4H7.7a.7.7 0 01-.7-.7zM7 8a.7.7 0 01.7-.7h2.8a.7.7 0 110 1.4H7.7A.7.7 0 017 8zM2.8 10.8a.7.7 0 01.7-.7h7a.7.7 0 110 1.4h-7a.7.7 0 01-.7-.7z" clip-rule="evenodd"/><path fill="currentColor" d="M5.6 5.9a1.4 1.4 0 11-2.8 0 1.4 1.4 0 012.8 0z"/></svg>
