<svg xmlns="http://www.w3.org/2000/svg" viewBox="0 0 16 16"><path fill="currentColor" fill-rule="evenodd" d="M2 7a4 4 0 014-4h12a4 4 0 014 4v10a4 4 0 01-4 4H6a4 4 0 01-4-4V7zm4-2a2 2 0 00-2 2v10a2 2 0 002 2h12a2 2 0 002-2V7a2 2 0 00-2-2H6z" clip-rule="evenodd"/><path fill="currentColor" fill-rule="evenodd" d="M12 8a1 1 0 011-1h4a1 1 0 110 2h-4a1 1 0 01-1-1zM12 12a1 1 0 011-1h4a1 1 0 110 2h-4a1 1 0 01-1-1zM6 16a1 1 0 011-1h10a1 1 0 110 2H7a1 1 0 01-1-1z" clip-rule="evenodd"/><path fill="currentColor" d="M10 9a2 2 0 11-4 0 2 2 0 014 0z"/></svg>
