<svg xmlns="http://www.w3.org/2000/svg" fill="none" viewBox="0 0 16 16"><path fill="currentColor" fill-rule="evenodd" d="M8 2.4a2.1 2.1 0 100 4.2 2.1 2.1 0 000-4.2zM4.5 4.5a3.5 3.5 0 117 0 3.5 3.5 0 01-7 0zM8 10.1c-2.555 0-4.262.823-5.13 1.385-.288.185-.47.546-.47 1.011 0 .61.494 1.104 1.104 1.104h8.992c.61 0 1.104-.494 1.104-1.104 0-.465-.182-.826-.47-1.011-.869-.562-2.575-1.385-5.13-1.385zm-5.89.209C3.16 9.629 5.128 8.7 8 8.7s4.839.93 5.89 1.609c.785.507 1.11 1.377 1.11 2.187A2.504 2.504 0 0112.496 15H3.504A2.504 2.504 0 011 12.496c0-.81.325-1.68 1.11-2.187z" clip-rule="evenodd"/></svg>
