<svg xmlns="http://www.w3.org/2000/svg" viewBox="0 0 16 16"><path fill="currentColor" fill-rule="evenodd" d="M12 4a3 3 0 100 6 3 3 0 000-6zM7 7a5 5 0 1110 0A5 5 0 017 7zM12 15c-3.65 0-6.088 1.176-7.33 1.978-.41.265-.67.78-.67 1.445C4 19.294 4.706 20 5.577 20h12.846c.871 0 1.577-.706 1.577-1.577 0-.665-.26-1.18-.67-1.445C18.087 16.176 15.65 15 12 15zm-8.415.298C5.088 14.328 7.897 13 12 13c4.103 0 6.912 1.328 8.415 2.298 1.12.725 1.585 1.968 1.585 3.125A3.577 3.577 0 0118.423 22H5.577A3.577 3.577 0 012 18.423c0-1.157.464-2.4 1.585-3.125z" clip-rule="evenodd"/></svg>
