<svg xmlns="http://www.w3.org/2000/svg" fill="none" viewBox="0 0 16 16"><path fill="currentColor" d="M9.05 13.25a1.05 1.05 0 11-2.1 0 1.05 1.05 0 012.1 0z"/><path fill="currentColor" fill-rule="evenodd" d="M8 3.1a2.323 2.323 0 00-2.323 2.323.7.7 0 11-1.4 0 3.723 3.723 0 017.446 0c0 1.552-.993 2.49-1.774 3.116-.162.129-.305.238-.436.338-.219.167-.4.306-.563.458a1.27 1.27 0 00-.22.251.26.26 0 00-.027.056l-.003.012v.796a.7.7 0 01-1.4 0v-.795c0-.611.383-1.053.695-1.343.21-.197.488-.41.745-.607.118-.09.232-.178.334-.26.73-.583 1.249-1.157 1.249-2.022A2.323 2.323 0 008 3.1z" clip-rule="evenodd"/></svg>
