<svg xmlns="http://www.w3.org/2000/svg" fill="none" viewBox="0 0 16 16"><path fill="currentColor" d="M3.1 8A4.9 4.9 0 018 3.1c.638 0 1.15.08 1.65.293.505.217 1.045.592 1.705 1.252l.47.47c.338.337.79.674 1.239.973v.142a.752.752 0 01-.128-.02c-.656-.16-1.435-.31-2.066-.31h-.532a.7.7 0 00.002 1.4h3.96a.7.7 0 00.7-.7V2.634a.7.7 0 00-1.4.006v.545c.002.629.15 1.4.31 2.051.01.043.017.086.02.128h-.142c-.298-.45-.636-.902-.973-1.239l-.47-.47c-.74-.74-1.424-1.24-2.144-1.548C9.476 1.796 8.762 1.7 8 1.7a6.3 6.3 0 104.443 10.765.7.7 0 00-.987-.992A4.9 4.9 0 013.1 8z"/></svg>
