<svg xmlns="http://www.w3.org/2000/svg" fill="none" viewBox="0 0 16 16"><path fill="currentColor" d="M12.9 8A4.9 4.9 0 008 3.1c-.877 0-2.095.285-3.355 1.545l-.47.47c-.337.337-.79.674-1.239.972v.143a.75.75 0 00.128-.02c.656-.16 1.435-.31 2.066-.31h.533a.7.7 0 01-.003 1.4H1.7a.7.7 0 01-.7-.7V2.634a.7.7 0 011.4.006v.545c-.002.629-.15 1.4-.31 2.051a.75.75 0 00-.02.128h.142c.299-.45.636-.902.973-1.239l.47-.47C5.195 2.115 6.777 1.7 8 1.7a6.3 6.3 0 11-4.444 10.765.7.7 0 11.987-.992A4.9 4.9 0 0012.9 8z"/></svg>
