<svg xmlns="http://www.w3.org/2000/svg" viewBox="0 0 24 24"><path fill="currentColor" fill-rule="evenodd" d="M10.535 2c-.997 0-1.93.741-2.157 1.713l-.232 1a.421.421 0 01-.557.32l-.981-.298c-.955-.29-2.064.148-2.563 1.012L2.6 8.253c-.5.864-.324 2.043.405 2.725l.749.7a.421.421 0 010 .643l-.75.701c-.728.682-.903 1.86-.404 2.725l1.446 2.506c.5.864 1.608 1.302 2.563 1.012l.981-.299a.421.421 0 01.557.322l.232.999c.226.972 1.16 1.713 2.157 1.713h2.894c.998 0 1.931-.741 2.157-1.713l.233-1a.421.421 0 01.556-.32l.982.298c.955.29 2.063-.148 2.562-1.012l1.447-2.506c.499-.864.323-2.043-.405-2.725l-.75-.7a.421.421 0 010-.643l.75-.701c.729-.682.904-1.86.405-2.725l-1.447-2.506c-.499-.864-1.607-1.302-2.562-1.012l-.982.299a.421.421 0 01-.556-.322l-.233-.999C15.36 2.741 14.426 2 13.43 2h-2.894zm-.209 2.166l-.232 1a2.42 2.42 0 01-3.086 1.781l-.854-.26a.383.383 0 00-.443.176l-1.38 2.39c-.034.059-.01.218.039.264l.75.701c.313.294.532.645.657 1.02.166.494.166 1.03 0 1.525a2.461 2.461 0 01-.658 1.019l-.75.7c-.049.047-.072.206-.038.265l1.38 2.39a.383.383 0 00.443.175l.854-.26a2.42 2.42 0 013.086 1.782l.232 1c.016.066.141.166.21.166h2.893c.068 0 .194-.1.21-.166l.232-1a2.42 2.42 0 013.086-1.781l.982.298c.064.02.214-.04.248-.098l1.447-2.506c.034-.059.01-.218-.04-.264l-.749-.701a2.42 2.42 0 010-3.564l.75-.7c.05-.047.073-.206.039-.265l-1.38-2.39a.383.383 0 00-.443-.175l-.854.26a2.42 2.42 0 01-3.086-1.783l-.233-1C13.623 4.1 13.497 4 13.43 4h-2.894c-.067 0-.193.1-.209.166z" clip-rule="evenodd"/><path fill="currentColor" fill-rule="evenodd" d="M12 10a2 2 0 100 4 2 2 0 000-4zm-4 2a4 4 0 118 0 4 4 0 01-8 0z" clip-rule="evenodd"/></svg>
