<svg xmlns="http://www.w3.org/2000/svg" fill="none" viewBox="0 0 16 16"><path fill="currentColor" fill-rule="evenodd" d="M6.828 2.516l-.162.7a1.694 1.694 0 01-2.16 1.247l-.688-.209c-.045-.014-.15.028-.174.069L2.631 6.077c-.023.041-.007.153.028.185l.524.49c.73.684.73 1.812 0 2.495l-.524.491c-.035.032-.051.144-.028.185l1.013 1.754c.024.041.129.083.174.069l.687-.21a1.694 1.694 0 012.16 1.248l.163.7c.011.046.1.116.147.116H9c.048 0 .136-.07.147-.116l.163-.7a1.694 1.694 0 012.16-1.247l.687.209c.046.014.15-.028.174-.069l1.013-1.754c.023-.041.007-.153-.028-.185l-.524-.49a1.694 1.694 0 010-2.495l.524-.491c.035-.032.051-.144.028-.185L12.33 4.323c-.024-.041-.128-.083-.174-.069l-.687.21a1.694 1.694 0 01-2.16-1.248l-.163-.7C9.137 2.47 9.047 2.4 9 2.4H6.975c-.048 0-.136.07-.147.116zM5.465 2.2A1.59 1.59 0 016.975 1H9a1.59 1.59 0 011.51 1.2l.163.699c.043.185.208.28.39.225l.687-.21a1.59 1.59 0 011.793.709l1.013 1.754a1.59 1.59 0 01-.283 1.907l-.525.491a.295.295 0 000 .45l.525.49a1.59 1.59 0 01.283 1.908l-1.013 1.754a1.59 1.59 0 01-1.793.708l-.687-.209a.295.295 0 00-.39.225l-.162.7A1.59 1.59 0 019 15H6.974a1.59 1.59 0 01-1.51-1.2l-.163-.699a.295.295 0 00-.39-.225l-.687.21a1.59 1.59 0 01-1.793-.709l-1.013-1.754a1.59 1.59 0 01.284-1.907l.524-.491a.295.295 0 000-.45l-.524-.49a1.59 1.59 0 01-.284-1.908l1.013-1.754a1.59 1.59 0 011.793-.708l.688.209a.295.295 0 00.39-.225l.162-.7zM7.988 6.6a1.4 1.4 0 100 2.8 1.4 1.4 0 000-2.8zM5.188 8a2.8 2.8 0 115.6 0 2.8 2.8 0 01-5.6 0z" clip-rule="evenodd"/></svg>
