<svg xmlns="http://www.w3.org/2000/svg" fill="none" viewBox="0 0 16 16"><path fill="currentColor" fill-rule="evenodd" d="M8.308 2.34a.35.35 0 00-.616 0L6.41 4.712a1.75 1.75 0 01-1.25.893l-2.395.402a.35.35 0 00-.191.592l1.87 1.886c.396.399.576.963.484 1.518l-.407 2.462a.35.35 0 00.491.376l2.259-1.036a1.75 1.75 0 011.458 0l2.259 1.036a.35.35 0 00.491-.376l-.407-2.463a1.75 1.75 0 01.484-1.517l1.87-1.886a.35.35 0 00-.19-.592l-2.396-.402a1.75 1.75 0 01-1.25-.894l-1.282-2.37zM6.46 1.674c.661-1.223 2.417-1.223 3.078 0l1.283 2.371a.35.35 0 00.25.18l2.396.402c1.399.235 1.951 1.95.952 2.958L12.55 9.47a.35.35 0 00-.097.303l.407 2.463c.229 1.383-1.18 2.46-2.455 1.876l-2.26-1.035a.35.35 0 00-.29 0l-2.26 1.035c-1.274.585-2.684-.492-2.455-1.876l.407-2.463a.35.35 0 00-.097-.303L1.58 7.585c-1-1.008-.447-2.723.952-2.958l2.396-.403a.35.35 0 00.25-.179l1.283-2.37z" clip-rule="evenodd"/></svg>
