<svg xmlns="http://www.w3.org/2000/svg" fill="none" viewBox="0 0 16 16"><path fill="currentColor" fill-rule="evenodd" d="M6.46 1.674c.662-1.223 2.418-1.223 3.08 0l1.282 2.371a.35.35 0 00.25.18l2.396.402c1.399.235 1.951 1.95.952 2.958L12.55 9.47a.35.35 0 00-.097.303l.407 2.463c.229 1.383-1.18 2.46-2.455 1.876l-2.26-1.035a.35.35 0 00-.29 0l-2.26 1.035c-1.274.585-2.684-.492-2.455-1.876l.407-2.463a.35.35 0 00-.097-.303L1.58 7.585c-1-1.008-.447-2.723.952-2.958l2.396-.403a.35.35 0 00.25-.179l1.283-2.37z" clip-rule="evenodd"/></svg>
