<svg xmlns="http://www.w3.org/2000/svg" viewBox="0 0 24 24"><path fill="currentColor" fill-rule="evenodd" d="M12.44 3.915a.5.5 0 00-.88 0L9.728 7.302a2.5 2.5 0 01-1.785 1.276l-3.422.575a.5.5 0 00-.272.846l2.671 2.694a2.5 2.5 0 01.692 2.168l-.582 3.518a.5.5 0 00.702.536l3.226-1.479a2.5 2.5 0 012.084 0l3.226 1.48a.5.5 0 00.702-.537l-.582-3.518a2.5 2.5 0 01.692-2.168l2.671-2.694a.5.5 0 00-.272-.846l-3.422-.575a2.5 2.5 0 01-1.785-1.276L12.44 3.915zM9.8 2.963c.945-1.747 3.453-1.747 4.398 0l1.832 3.388a.5.5 0 00.357.255l3.423.575c1.999.336 2.788 2.786 1.36 4.226L18.5 14.1a.5.5 0 00-.138.433l.581 3.519c.327 1.976-1.687 3.515-3.508 2.68l-3.227-1.479a.5.5 0 00-.416 0l-3.227 1.48c-1.82.834-3.835-.705-3.508-2.681l.581-3.519a.5.5 0 00-.138-.433l-2.672-2.694C1.401 9.967 2.19 7.517 4.19 7.18l3.423-.575a.5.5 0 00.357-.255L9.8 2.963z" clip-rule="evenodd"/></svg>
