<svg xmlns="http://www.w3.org/2000/svg" fill="none" viewBox="0 0 16 16"><path fill="currentColor" d="M12.9 11.5a.7.7 0 01-.7.7H5.9c-.477 0-1.035-.081-1.564-.188l-.1.1a.745.745 0 00.104.076c.573.348 1.224.789 1.67 1.231l.385.386a.7.7 0 01-.986.994l-2.804-2.804a.7.7 0 010-.99l2.8-2.8a.7.7 0 01.992.988l-.002.002-.375.375c-.446.446-1.102.891-1.68 1.242a.754.754 0 00-.104.076l.1.1c.529-.107 1.087-.188 1.564-.188h6.3a.7.7 0 01.7.7zM3.1 4.5a.7.7 0 00.7.7h6.3c.477 0 1.035-.081 1.564-.188l.1.1a.752.752 0 01-.104.076c-.573.348-1.224.789-1.67 1.231l-.385.386a.7.7 0 00.985.994l2.805-2.804a.7.7 0 000-.99l-2.8-2.8a.7.7 0 00-.992.988l.002.002.375.375c.446.446 1.102.891 1.68 1.242a.746.746 0 01.104.076l-.1.1c-.53-.107-1.087-.188-1.564-.188H3.8a.7.7 0 00-.7.7z"/></svg>
