<svg xmlns="http://www.w3.org/2000/svg" fill="none" viewBox="0 0 16 16"><path fill="currentColor" d="M7.3 5.9a1.4 1.4 0 11-2.8 0 1.4 1.4 0 012.8 0z"/><path fill="currentColor" fill-rule="evenodd" d="M1.7 4.5a2.8 2.8 0 012.8-2.8h7a2.8 2.8 0 012.8 2.8v7a2.8 2.8 0 01-2.8 2.8h-7a2.8 2.8 0 01-2.8-2.8v-7zm11.2 1.392V4.5a1.4 1.4 0 00-1.4-1.4h-7a1.4 1.4 0 00-1.4 1.4v7c0 .618.4 1.142.955 1.328l.64-1.6a2.076 2.076 0 012.855-1.085.676.676 0 00.95-.41l.62-2.067c.5-1.669 2.317-2.4 3.78-1.774zM5.534 12.9l.46-1.152a.676.676 0 01.93-.353 2.076 2.076 0 002.916-1.26l.62-2.066a1.4 1.4 0 012.331-.588l.109.109v3.91a1.4 1.4 0 01-1.4 1.4H5.534z" clip-rule="evenodd"/></svg>
