<svg xmlns="http://www.w3.org/2000/svg" viewBox="0 0 16 16"><path fill="currentColor" d="M11 9a2 2 0 11-4 0 2 2 0 014 0z"/><path fill="currentColor" fill-rule="evenodd" d="M3 7a4 4 0 014-4h10a4 4 0 014 4v10a4 4 0 01-4 4H7a4 4 0 01-4-4V7zm16 1.988V7a2 2 0 00-2-2H7a2 2 0 00-2 2v10a2 2 0 001.364 1.897l.914-2.285a2.965 2.965 0 014.08-1.551.965.965 0 001.355-.586l.886-2.951c.715-2.385 3.311-3.43 5.401-2.536zM8.477 19l.658-1.646a.965.965 0 011.328-.504 2.965 2.965 0 004.166-1.8l.886-2.952c.434-1.45 2.26-1.91 3.33-.84l.155.156V17a2 2 0 01-2 2H8.477z" clip-rule="evenodd"/></svg>
