<svg xmlns="http://www.w3.org/2000/svg" fill="none" viewBox="0 0 16 16"><path fill="currentColor" fill-rule="evenodd" d="M4.5 3.8A2.8 2.8 0 017.3 1h1.4a2.8 2.8 0 012.8 2.8h2.8a.7.7 0 110 1.4h-.7v7a2.8 2.8 0 01-2.8 2.8H5.2a2.8 2.8 0 01-2.8-2.8v-7h-.7a.7.7 0 110-1.4h2.8zm1.4 0h4.2a1.4 1.4 0 00-1.4-1.4H7.3a1.4 1.4 0 00-1.4 1.4zM3.8 5.2v7a1.4 1.4 0 001.4 1.4h5.6a1.4 1.4 0 001.4-1.4v-7H3.8zm2.45 1.4a.7.7 0 01.7.7v4.2a.7.7 0 11-1.4 0V7.3a.7.7 0 01.7-.7zm3.5 0a.7.7 0 01.7.7v4.2a.7.7 0 11-1.4 0V7.3a.7.7 0 01.7-.7z" clip-rule="evenodd"/></svg>
