<svg xmlns="http://www.w3.org/2000/svg" fill="none" viewBox="0 0 16 16"><path fill="currentColor" d="M9.05 10.45a1.05 1.05 0 11-2.1 0 1.05 1.05 0 012.1 0z"/><path fill="currentColor" fill-rule="evenodd" d="M11.5 5.9a2.8 2.8 0 012.8 2.8v3.5a2.8 2.8 0 01-2.8 2.8h-7a2.8 2.8 0 01-2.8-2.8V8.7a2.8 2.8 0 012.8-2.8V3.8a3.5 3.5 0 117 0 .7.7 0 11-1.4 0 2.1 2.1 0 00-4.2 0v2.1h5.6zm0 1.4a1.4 1.4 0 011.4 1.4v3.5a1.4 1.4 0 01-1.4 1.4h-7a1.4 1.4 0 01-1.4-1.4V8.7a1.4 1.4 0 011.4-1.4h7z" clip-rule="evenodd"/><path fill="currentColor" fill-rule="evenodd" d="M9.05 10.45a1.05 1.05 0 11-2.1 0 1.05 1.05 0 012.1 0z" clip-rule="evenodd"/></svg>
