<svg xmlns="http://www.w3.org/2000/svg" viewBox="0 0 16 16"><path fill="currentColor" d="M13.5 15.5a1.5 1.5 0 11-3 0 1.5 1.5 0 013 0z"/><path fill="currentColor" fill-opacity=".5" fill-rule="evenodd" d="M13.5 15.5a1.5 1.5 0 11-3 0 1.5 1.5 0 013 0z" clip-rule="evenodd"/><path fill="currentColor" fill-rule="evenodd" d="M17 9a4 4 0 014 4v5a4 4 0 01-4 4H7a4 4 0 01-4-4v-5a4 4 0 014-4V6a5 5 0 0110 0 1 1 0 11-2 0 3 3 0 10-6 0v3h8zm0 2a2 2 0 012 2v5a2 2 0 01-2 2H7a2 2 0 01-2-2v-5a2 2 0 012-2h10z" clip-rule="evenodd"/></svg>
