<svg xmlns="http://www.w3.org/2000/svg" fill="none" viewBox="0 0 24 24"><path fill="currentColor" d="M13.6 5.9l-.56.42c-.923.692-2.24.034-2.24-1.12a1.4 1.4 0 00-1.4-1.4H6.685l-1.4-1.4H9.4a2.8 2.8 0 012.8 2.8l1.12-.84A1.05 1.05 0 0115 5.2v5.6c0 .375-.185.68-.452.863l-.948-.948V5.9z"/><path fill="currentColor" fill-rule="evenodd" d="M1 10.8V5.2c0-.878.404-1.661 1.036-2.174l-.831-.831a.7.7 0 11.99-.99l12.6 12.6a.7.7 0 01-.99.99l-2.23-2.23A2.794 2.794 0 019.4 13.6H3.8A2.8 2.8 0 011 10.8zm8.4 1.4H3.8a1.4 1.4 0 01-1.4-1.4V5.2c0-.492.253-.924.636-1.174l7.538 7.538c-.25.383-.682.636-1.174.636z" clip-rule="evenodd"/></svg>
