<svg xmlns="http://www.w3.org/2000/svg" fill="none" viewBox="0 0 24 24"><path fill="currentColor" fill-rule="evenodd" d="M4.5 3.1a1.4 1.4 0 00-1.4 1.4v7a1.4 1.4 0 001.4 1.4h7a1.4 1.4 0 001.4-1.4V8.7a.7.7 0 111.4 0v2.8a2.8 2.8 0 01-2.8 2.8h-7a2.8 2.8 0 01-2.8-2.8v-7a2.8 2.8 0 012.8-2.8h2.8a.7.7 0 010 1.4H4.5z" clip-rule="evenodd"/><path fill="currentColor" fill-rule="evenodd" d="M12.568 2.937a.35.35 0 00-.495 0l-.985.985.99.99.985-.985a.35.35 0 000-.495l-.495-.495zm-1.48 2.965l-.99-.99-2.854 2.855a1.4 1.4 0 00-.347.574l-.344 1.106 1.106-.344a1.4 1.4 0 00.574-.347l2.855-2.854zm-.004-3.955a1.75 1.75 0 012.474 0l.495.495a1.75 1.75 0 010 2.475l-4.83 4.83a2.8 2.8 0 01-1.149.693l-1.105.344c-1.077.334-2.087-.676-1.753-1.753l.344-1.105a2.8 2.8 0 01.694-1.149l4.83-4.83z" clip-rule="evenodd"/></svg>
