<svg width="24" height="24" xmlns="http://www.w3.org/2000/svg" fill="none" viewBox="0 0 24 24"><g clip-path="url(#a)"><path fill="#24292F" fill-rule="evenodd" d="M11.967 1C5.903 1 1 5.94 1 12.051c0 4.885 3.141 9.02 7.5 10.484.544.11.743-.238.743-.53 0-.257-.017-1.135-.017-2.05-3.051.659-3.687-1.317-3.687-1.317-.49-1.281-1.216-1.61-1.216-1.61-.999-.677.072-.677.072-.677 1.108.073 1.69 1.134 1.69 1.134.98 1.683 2.56 1.207 3.195.915.09-.714.381-1.208.69-1.482-2.433-.256-4.993-1.208-4.993-5.453 0-1.207.435-2.195 1.125-2.963-.109-.275-.49-1.41.11-2.928 0 0 .925-.293 3.013 1.134a10.541 10.541 0 012.742-.366c.926 0 1.87.129 2.742.366 2.088-1.427 3.014-1.134 3.014-1.134.6 1.519.218 2.653.109 2.928.708.768 1.126 1.756 1.126 2.963 0 4.245-2.56 5.178-5.012 5.453.4.347.745 1.006.745 2.049 0 1.482-.018 2.671-.018 3.037 0 .293.2.64.744.53a11.042 11.042 0 007.5-10.483C22.933 5.94 18.013 1 11.966 1z" clip-rule="evenodd"/></g><defs><clipPath id="a"><path fill="#fff" d="M0 0h22v21.555H0z" transform="translate(1 1)"/></clipPath></defs></svg>