<svg width="320" height="136" xmlns="http://www.w3.org/2000/svg" fill="none" viewBox="0 0 321 139"><rect width="64.993" height="64.993" x="1" y="1" fill="#fff" stroke="#000" stroke-opacity=".15" stroke-width=".677" rx="24"/><path fill="#1ABCFE" d="M33.344 33.496a6.018 6.018 0 1112.035 0 6.018 6.018 0 01-12.035 0z"/><path fill="#0ACF83" d="M21.309 45.532a6.018 6.018 0 016.017-6.018h6.018v6.018a6.018 6.018 0 11-12.035 0z"/><path fill="#FF7262" d="M33.344 15.443v12.035h6.017a6.018 6.018 0 100-12.035h-6.017z"/><path fill="#F24E1E" d="M21.309 21.46a6.018 6.018 0 006.017 6.018h6.018V15.443h-6.018a6.018 6.018 0 00-6.017 6.018z"/><path fill="#A259FF" d="M21.309 33.496a6.018 6.018 0 006.017 6.018h6.018V27.478h-6.018a6.018 6.018 0 00-6.017 6.018z"/><rect width="64.993" height="64.993" x="73" y="1" fill="#fff" stroke="#000" stroke-opacity=".15" stroke-width=".677" rx="24"/><path fill="#300" d="M117.155 15.894h-23.32a6.394 6.394 0 00-6.394 6.394v22.418a6.394 6.394 0 006.394 6.394h23.32a6.393 6.393 0 006.393-6.394V22.288a6.393 6.393 0 00-6.393-6.394z"/><path fill="#FF9A00" d="M104.935 37.023H99.34l-1.138 3.537a.285.285 0 01-.291.218h-2.834c-.162 0-.218-.089-.17-.267l4.845-13.952a7.82 7.82 0 00.145-.497c.063-.323.096-.651.097-.98a.153.153 0 01.006-.07.163.163 0 01.036-.058.152.152 0 01.128-.043h3.851c.113 0 .177.041.194.122l5.498 15.502c.048.162 0 .243-.145.243h-3.149a.223.223 0 01-.242-.17l-1.236-3.585zm-4.723-3.052h3.827c-.097-.323-.21-.686-.339-1.09-.129-.403-.267-.835-.412-1.296l-.436-1.38c-.145-.46-.278-.905-.399-1.333-.122-.428-.231-.82-.327-1.175h-.025a19.612 19.612 0 01-.508 1.938c-.227.727-.457 1.47-.691 2.229-.234.759-.464 1.461-.69 2.107zM112.981 27.48a1.755 1.755 0 01-1.332-.534 1.905 1.905 0 01-.509-1.38 1.773 1.773 0 01.545-1.345 1.874 1.874 0 011.344-.52c.582 0 1.038.173 1.369.52a1.867 1.867 0 01.496 1.345 1.881 1.881 0 01-.52 1.38 1.86 1.86 0 01-1.393.533zm-1.671 13.056V28.957c0-.145.064-.218.193-.218h2.98c.129 0 .193.073.193.218v11.579c0 .161-.064.242-.193.242h-2.955c-.146 0-.218-.08-.218-.242z"/><rect width="64.993" height="64.993" x="145" y="1" fill="#fff" stroke="#000" stroke-opacity=".15" stroke-width=".677" rx="24"/><path fill="#FDB300" d="M167.315 18.324l10.176-1.076 10.176 1.076 7.878 10.575-18.054 21.024-18.053-21.024 7.877-10.575z"/><path fill="#EA6C00" d="M166.75 28.9l10.741 21.023-18.053-21.024h7.312zM188.232 28.9l-10.741 21.023 18.054-21.024h-7.313z"/><path fill="#FDAD00" d="M166.75 28.9h21.482l-10.741 21.023L166.75 28.9z"/><path fill="#FDD231" d="M177.491 17.248l-10.176 1.076-.565 10.576 10.741-11.652z"/><path fill="#FDD231" d="M177.491 17.248l10.176 1.076.565 10.576-10.741-11.652z"/><path fill="#FDAD00" d="M195.545 28.9l-7.878-10.576.565 10.576h7.313zM159.438 28.9l7.877-10.576-.565 10.576h-7.312z"/><path fill="#FEEEB7" d="M177.491 17.248L166.75 28.9h21.482l-10.741-11.652z"/><rect width="64.993" height="64.993" x="216.996" y="1" fill="#fff" stroke="#000" stroke-opacity=".15" stroke-width=".677" rx="24"/><path fill="#470137" d="M261.155 15.442h-23.32a6.394 6.394 0 00-6.394 6.394v22.416a6.394 6.394 0 006.394 6.395h23.32a6.393 6.393 0 006.393-6.395V21.836a6.393 6.393 0 00-6.393-6.394z"/><path fill="#FF61F6" d="M250.416 24.701l-4.505 7.436 4.82 7.896a.25.25 0 01.024.182c-.016.057-.073.021-.17.037h-3.439c-.242 0-.412-.009-.509-.17-.323-.63-.646-1.256-.969-1.877a66.51 66.51 0 00-1.029-1.902c-.363-.645-.723-1.3-1.078-1.962h-.024a74.235 74.235 0 01-1.005 1.938 395.3 395.3 0 00-1.03 1.926 86.235 86.235 0 01-1.041 1.901c-.065.145-.178.16-.339.16h-3.319c-.064 0-.1.026-.109-.039a.242.242 0 01.037-.17l4.674-7.678-4.553-7.702c-.049-.065-.057-.117-.025-.158a.18.18 0 01.146-.06h3.415a.503.503 0 01.218.036.43.43 0 01.145.133c.291.646.614 1.292.969 1.938.355.646.715 1.284 1.078 1.914.363.63.699 1.267 1.005 1.913h.025c.322-.662.649-1.308.981-1.938.33-.63.669-1.263 1.017-1.901.347-.638.682-1.272 1.005-1.901a.377.377 0 01.097-.158.352.352 0 01.194-.036h3.173a.138.138 0 01.157.072c.014.029.018.06.012.092a.144.144 0 01-.048.078zM257.365 40.566a7.505 7.505 0 01-3.234-.678 5.144 5.144 0 01-2.265-2.047c-.549-.912-.823-2.055-.823-3.428a6.332 6.332 0 01.823-3.173 6.045 6.045 0 012.398-2.325c1.05-.581 2.317-.872 3.803-.872.081 0 .186.004.315.012.129.009.282.02.46.037V23.32c0-.113.049-.17.146-.17h3.051a.13.13 0 01.109.037.116.116 0 01.031.05c.007.019.009.039.006.059V37.61c0 .275.012.573.036.896.024.323.045.614.061.872a.25.25 0 01-.146.242 12.01 12.01 0 01-2.446.727 13.13 13.13 0 01-2.325.218zm1.477-3.004V30.95a2.393 2.393 0 00-.399-.073 4.822 4.822 0 00-.497-.024 3.743 3.743 0 00-1.696.387c-.513.255-.951.64-1.271 1.115-.331.484-.497 1.122-.497 1.913a4.265 4.265 0 00.255 1.55c.146.4.377.764.678 1.066a2.58 2.58 0 001.017.606c.403.13.824.195 1.248.193.225 0 .435-.008.629-.024.181-.013.359-.046.533-.097z"/><rect width="64.993" height="64.993" x="1" y="73" fill="#fff" stroke="#000" stroke-opacity=".15" stroke-width=".677" rx="24"/><path fill="#FFD02F" d="M48.84 87.443H18.15a2.708 2.708 0 00-2.709 2.708v30.691a2.708 2.708 0 002.708 2.708H48.84a2.708 2.708 0 002.708-2.708V90.151a2.708 2.708 0 00-2.708-2.708z"/><path fill="#050038" fill-rule="evenodd" d="M39.99 91.958h-3.964l3.305 5.803-7.266-5.803H28.1l3.634 7.093-7.595-7.093h-3.964l3.964 9.026-3.964 18.054h3.964l7.595-19.343-3.634 19.343h3.964l7.266-20.633-3.305 20.633h3.964l7.266-22.566-7.266-4.514z" clip-rule="evenodd"/><rect width="64.993" height="64.993" x="73" y="73" fill="#fff" stroke="#000" stroke-opacity=".15" stroke-width=".677" rx="24"/><path fill="#2684FF" d="M122.368 104.499l-15.56-15.56-1.496-1.496-11.67 11.67-5.336 5.336c-.549.549-.549 1.447 0 2.045l10.672 10.672 6.334 6.384 11.67-11.67.199-.199 5.187-5.187a1.416 1.416 0 000-1.995zm-17.056 6.334l-5.336-5.336 5.336-5.337 5.336 5.337-5.336 5.336z"/><path fill="url(#a)" d="M105.313 100.16c-3.49-3.49-3.49-9.176-.049-12.667l-11.67 11.67 6.333 6.333 5.386-5.336z"/><path fill="url(#b)" d="M110.653 105.496l-5.337 5.337c3.491 3.491 3.491 9.176 0 12.717l11.72-11.72-6.383-6.334z"/><defs><linearGradient id="a" x1="104.362" x2="96.909" y1="94.754" y2="102.206" gradientUnits="userSpaceOnUse"><stop offset=".176" stop-color="#0052CC"/><stop offset="1" stop-color="#2684FF"/></linearGradient><linearGradient id="b" x1="106.337" x2="113.775" y1="116.162" y2="108.724" gradientUnits="userSpaceOnUse"><stop offset=".176" stop-color="#0052CC"/><stop offset="1" stop-color="#2684FF"/></linearGradient></defs></svg>