<svg width="320" height="136" xmlns="http://www.w3.org/2000/svg" fill="none" viewBox="0 0 321 139"><rect width="64.993" height="64.993" x="1" y="1" fill="#fff" stroke="#000" stroke-opacity=".15" rx="24"/><path fill="#2684FF" d="M50.368 32.5l-15.56-15.56-1.496-1.497-11.67 11.67-5.336 5.336c-.549.549-.549 1.447 0 2.045l10.672 10.672 6.334 6.384 11.67-11.67.2-.2 5.186-5.186a1.415 1.415 0 000-1.995zm-17.056 6.333l-5.336-5.337 5.336-5.336 5.336 5.336-5.336 5.337z"/><path fill="url(#a)" d="M33.313 28.16c-3.49-3.49-3.49-9.176-.05-12.667l-11.67 11.67 6.334 6.333 5.386-5.336z"/><path fill="url(#b)" d="M38.65 33.496l-5.335 5.337c3.49 3.49 3.49 9.176 0 12.717l11.719-11.72-6.383-6.334z"/><rect width="64.993" height="64.993" x="73" y="1" fill="#fff" stroke="#000" stroke-opacity=".15" rx="24"/><path fill="#FFD02F" d="M120.838 15.443h-30.69a2.708 2.708 0 00-2.709 2.708v30.69a2.708 2.708 0 002.709 2.709h30.69a2.709 2.709 0 002.709-2.708V18.15a2.709 2.709 0 00-2.709-2.708z"/><path fill="#050038" fill-rule="evenodd" d="M111.988 19.958h-3.963l3.304 5.803-7.266-5.803h-3.964l3.634 7.093-7.595-7.093h-3.964l3.964 9.026-3.964 18.054h3.964l7.595-19.343-3.634 19.343h3.964l7.266-20.633-3.304 20.633h3.963l7.266-22.566-7.266-4.514z" clip-rule="evenodd"/><rect width="64" height="64" x="145" y="1" fill="#fff" rx="24"/><rect width="63" height="63" x="145.5" y="1.5" stroke="#000" stroke-opacity=".15" rx="23.5"/><g fill="#61DAFB" clip-path="url(#c)"><path d="M188.456 27.437c-.379-.13-.76-.25-1.144-.362.063-.26.123-.52.177-.782.866-4.205.3-7.594-1.635-8.71-1.855-1.07-4.888.047-7.952 2.713-.302.263-.597.534-.885.812a19.69 19.69 0 00-.587-.544c-3.212-2.85-6.432-4.049-8.365-2.933-1.85 1.073-2.399 4.26-1.623 8.244.079.395.167.788.263 1.178-.453.13-.894.268-1.314.415-3.764 1.314-6.168 3.37-6.168 5.503 0 2.203 2.581 4.414 6.502 5.75.317.11.638.211.961.304-.105.42-.198.842-.278 1.267-.745 3.916-.164 7.026 1.685 8.093 1.908 1.1 5.111-.03 8.232-2.758.247-.214.495-.442.742-.683.311.302.631.595.958.878 3.024 2.6 6.008 3.648 7.854 2.582 1.909-1.106 2.529-4.446 1.723-8.51a21.89 21.89 0 00-.213-.95c.225-.066.445-.134.661-.205 4.077-1.351 6.728-3.536 6.728-5.768 0-2.142-2.481-4.212-6.322-5.534zm-9.554-5.994c2.625-2.285 5.078-3.184 6.199-2.541 1.19.686 1.651 3.455.903 7.086a18.53 18.53 0 01-.16.707 36.352 36.352 0 00-4.755-.752 35.638 35.638 0 00-3.006-3.751c.265-.256.538-.505.816-.749h.003zm-9.183 13.348c.323.622.659 1.235 1.01 1.84.357.618.729 1.227 1.116 1.828a32.287 32.287 0 01-3.277-.526 33.943 33.943 0 011.153-3.14l-.002-.002zm0-3.571a33.353 33.353 0 01-1.128-3.077 33.967 33.967 0 013.221-.553c-.377.587-.74 1.185-1.089 1.793a40.596 40.596 0 00-1.005 1.837h.001zm.807 1.787c.468-.974.973-1.93 1.515-2.866a40.86 40.86 0 011.722-2.744 42.777 42.777 0 016.481 0 45.688 45.688 0 011.713 2.736 49.476 49.476 0 011.533 2.852 45.25 45.25 0 01-1.527 2.879 49.56 49.56 0 01-1.707 2.751 44.632 44.632 0 01-3.256.115c-1.106 0-2.182-.034-3.218-.102a42.74 42.74 0 01-3.256-5.623v.002zm12.754 3.617c.356-.621.7-1.25 1.029-1.886.452 1.022.85 2.066 1.194 3.129a32.242 32.242 0 01-3.316.564 54.82 54.82 0 001.091-1.808l.002.001zm1.014-5.403a55.044 55.044 0 00-1.02-1.849 51.59 51.59 0 00-1.082-1.777c1.133.143 2.219.333 3.241.567a32.375 32.375 0 01-1.139 3.06zm-7.278-7.94c.74.807 1.438 1.65 2.093 2.526-1.4-.067-2.8-.067-4.202 0a33.304 33.304 0 012.11-2.526h-.001zm-8.187-4.336c1.19-.688 3.818.294 6.592 2.756.177.158.355.322.533.492a36.373 36.373 0 00-3.03 3.75c-1.595.144-3.18.39-4.743.738a21.212 21.212 0 01-.244-1.098v.003c-.67-3.416-.226-5.991.892-6.638v-.003zm-1.738 18.617a20.475 20.475 0 01-.875-.273 12.873 12.873 0 01-4.149-2.205 3.137 3.137 0 01-1.325-2.114c0-1.294 1.93-2.945 5.148-4.066.405-.142.813-.271 1.224-.387a36.418 36.418 0 001.732 4.49c-.684 1.477-1.27 2.999-1.753 4.554l-.002.001zm8.234 6.926a12.868 12.868 0 01-3.981 2.489 3.138 3.138 0 01-2.492.096c-1.121-.65-1.588-3.145-.952-6.493.076-.397.163-.79.259-1.181 1.58.339 3.181.57 4.793.693a36.994 36.994 0 003.051 3.772c-.22.213-.446.42-.677.623l-.001.001zm1.734-1.719a33.829 33.829 0 01-2.139-2.56 52.813 52.813 0 004.226-.006 32.222 32.222 0 01-2.087 2.566zm9.225 2.113a3.13 3.13 0 01-1.165 2.208c-1.12.649-3.516-.195-6.101-2.418a20.984 20.984 0 01-.894-.813 35.628 35.628 0 002.981-3.785 35.456 35.456 0 004.815-.741c.072.292.136.579.192.859.344 1.54.402 3.13.17 4.692l.002-.002zm1.289-7.585c-.197.064-.396.126-.6.185a35.717 35.717 0 00-1.799-4.503 35.765 35.765 0 001.731-4.437c.362.104.716.216 1.056.332 3.293 1.132 5.299 2.808 5.299 4.097 0 1.376-2.169 3.16-5.689 4.326h.002z"/><path d="M176.999 29.796a3.175 3.175 0 11.002 6.346 3.175 3.175 0 01-.002-6.345"/></g><rect width="64" height="64" x="217" y="1" fill="#fff" rx="24"/><rect width="63" height="63" x="217.5" y="1.5" stroke="#000" stroke-opacity=".15" rx="23.5"/><g clip-path="url(#d)"><path fill="#007FFF" d="M261.192 38.902a.988.988 0 00.496-.853l.018-5.716a.982.982 0 01.495-.853l3.099-1.78a.985.985 0 011.347.363c.087.15.132.32.132.494v10.39a.988.988 0 01-.496.857l-11.692 6.716a.99.99 0 01-.982 0l-9.176-5.248a.987.987 0 01-.498-.857v-5.24c0-.005.007-.01.013-.006.005.003.011 0 .011-.007v-.006a.01.01 0 01.006-.01l7.558-4.342c.007-.004.004-.015-.004-.015a.01.01 0 01-.006-.002.01.01 0 01-.002-.005l.015-5.137a.989.989 0 00-1.482-.86l-5.616 3.237a.988.988 0 01-.986 0l-5.635-3.244a.987.987 0 00-1.48.855v9.284a.982.982 0 01-.492.855.985.985 0 01-.986.003l-3.127-1.787a.986.986 0 01-.497-.86l.027-16.227a.99.99 0 01.987-.985c.173 0 .343.045.493.13l10.711 6.153a.988.988 0 00.984 0l10.708-6.152a.985.985 0 011.348.363c.086.15.131.32.131.494v16.231a.987.987 0 01-.495.857l-5.607 3.23a.987.987 0 00.003 1.713l3.094 1.76a.985.985 0 00.981-.001l6.602-3.792zm.649-14.56a.987.987 0 001.495.847l2.963-1.778a.99.99 0 00.48-.847v-3.622a.985.985 0 00-1-.986.987.987 0 00-.495.14l-2.963 1.778a.987.987 0 00-.48.846v3.623z"/></g><rect width="64" height="64" x="1" y="73" fill="#fff" rx="24"/><rect width="63" height="63" x="1.5" y="73.5" stroke="#000" stroke-opacity=".15" rx="23.5"/><path fill="url(#e)" d="M50.638 92.485l-16.682 29.829a.907.907 0 01-1.579.006L15.365 92.488a.907.907 0 01.947-1.342l16.7 2.985a.908.908 0 00.322 0l16.35-2.98a.907.907 0 01.954 1.334z"/><path fill="url(#f)" d="M40.966 87.23l-12.344 2.42a.453.453 0 00-.366.418l-.76 12.825a.453.453 0 00.555.468l3.437-.793a.454.454 0 01.546.533l-1.02 5a.453.453 0 00.575.524l2.123-.645c.329-.1.645.189.575.526l-1.622 7.854c-.102.491.552.759.824.338l.182-.281 10.06-20.075a.453.453 0 00-.492-.648l-3.537.683a.453.453 0 01-.522-.571l2.309-8.005a.453.453 0 00-.523-.57z"/><rect width="64" height="64" x="73" y="73" fill="#fff" rx="24"/><rect width="63" height="63" x="73.5" y="73.5" stroke="#000" stroke-opacity=".15" rx="23.5"/><path fill="#000" fill-rule="evenodd" d="M113.493 89.422a1.616 1.616 0 012.282-.127 20.96 20.96 0 017.003 15.66c0 8.033-6.512 14.546-14.545 14.546-8.033 0-14.546-6.513-14.546-14.546a8.08 8.08 0 1116.162 0 1.615 1.615 0 11-3.232 0 4.848 4.848 0 00-9.697 0c0 6.248 5.065 11.313 11.313 11.313s11.313-5.065 11.313-11.313c0-5.265-2.287-9.994-5.926-13.251a1.617 1.617 0 01-.127-2.282z" clip-rule="evenodd"/><path fill="#F56565" fill-rule="evenodd" d="M87.223 104.955c0-8.033 6.512-14.546 14.545-14.546 8.033 0 14.546 6.513 14.546 14.546a8.081 8.081 0 01-16.162 0 1.616 1.616 0 113.232 0 4.848 4.848 0 009.697 0c0-6.248-5.065-11.313-11.313-11.313s-11.313 5.065-11.313 11.313c0 5.31 2.326 10.074 6.019 13.334a1.616 1.616 0 11-2.139 2.423 20.963 20.963 0 01-7.112-15.757z" clip-rule="evenodd"/><rect width="64.993" height="64.993" x="145" y="73" fill="#fff" stroke="#000" stroke-opacity=".15" rx="24"/><path fill="#1ABCFE" d="M177.346 105.496a6.018 6.018 0 1112.035 0 6.018 6.018 0 01-12.035 0z"/><path fill="#0ACF83" d="M165.311 117.532a6.017 6.017 0 016.017-6.018h6.018v6.018a6.018 6.018 0 11-12.035 0z"/><path fill="#FF7262" d="M177.346 87.443v12.035h6.017a6.018 6.018 0 100-12.035h-6.017z"/><path fill="#F24E1E" d="M165.311 93.46a6.017 6.017 0 006.017 6.018h6.018V87.443h-6.018a6.018 6.018 0 00-6.017 6.018z"/><path fill="#A259FF" d="M165.311 105.496a6.017 6.017 0 006.017 6.018h6.018V99.478h-6.018a6.018 6.018 0 00-6.017 6.018z"/><defs><linearGradient id="a" x1="32.362" x2="24.909" y1="22.754" y2="30.206" gradientUnits="userSpaceOnUse"><stop offset=".176" stop-color="#0052CC"/><stop offset="1" stop-color="#2684FF"/></linearGradient><linearGradient id="b" x1="34.335" x2="41.773" y1="44.162" y2="36.724" gradientUnits="userSpaceOnUse"><stop offset=".176" stop-color="#0052CC"/><stop offset="1" stop-color="#2684FF"/></linearGradient><linearGradient id="e" x1="14.95" x2="35.711" y1="90.08" y2="118.275" gradientUnits="userSpaceOnUse"><stop stop-color="#41D1FF"/><stop offset="1" stop-color="#BD34FE"/></linearGradient><linearGradient id="f" x1="32.053" x2="35.809" y1="87.888" y2="113.651" gradientUnits="userSpaceOnUse"><stop stop-color="#FFEA83"/><stop offset=".083" stop-color="#FFDD35"/><stop offset="1" stop-color="#FFA800"/></linearGradient><clipPath id="c"><path fill="#fff" d="M0 0h35.556v31.634H0z" transform="translate(159.223 17.183)"/></clipPath><clipPath id="d"><path fill="#fff" d="M0 0h35.556v31.605H0z" transform="translate(231.223 17.198)"/></clipPath></defs></svg>